%
M48
M72
T01C0.01500
T02C0.02362
T03C0.02756
T04C0.03150
T05C0.03200
T06C0.03543
T07C0.03800
T08C0.04000
T09C0.04500
T10C0.05500
%
T01
X468945Y186433
X472085Y189493
X467695Y192233
X467695Y196433
X484745Y197233
X490135Y200123
X502345Y200183
X486785Y183313
X749230Y163165
X749230Y160665
X749230Y158165
X749230Y155665
X749230Y153165
X749230Y150665
X749230Y148165
X749230Y145665
X751730Y145665
X751730Y148165
X751730Y150665
X751730Y153165
X751730Y155665
X751730Y158165
X751730Y160665
X751789Y163165
X752894Y264889
X750394Y264889
X750394Y267389
X750394Y269889
X750394Y272389
X750394Y274889
X750394Y277389
X750394Y279889
X750394Y282389
X752894Y282389
X752894Y279889
X752894Y277389
X752894Y274889
X752894Y272389
X752894Y269889
X752894Y267389
T02
X612994Y271394
X548648Y247264
X523624Y237433
X503963Y231177
X523022Y226760
X534348Y222240
X547754Y220453
X559372Y224921
X555797Y229390
X574565Y204366
X562947Y192748
X554904Y187386
X562053Y182024
X554904Y178449
X538911Y183811
X511112Y192748
X518262Y199004
X518262Y204366
X526305Y201685
X494132Y207047
X472683Y216878
X487876Y219559
X480726Y229390
X451566Y211516
X436041Y208835
X419955Y209728
X417274Y214197
X422636Y224028
X381526Y217772
X432467Y199898
X416380Y183811
X379832Y169512
X451234Y148957
X461959Y145382
X469108Y147169
X477152Y147169
X493644Y134764
X547478Y132008
X457490Y167724
X574565Y184705
X580821Y182024
X597801Y182917
X611258Y182988
X617163Y194799
X676219Y161335
X417360Y274524
X406533Y274524
X379959Y274524
X415486Y262457
X376163Y246370
X264801Y237122
X258896Y227464
X244132Y218974
X261628Y213194
X252006Y210055
X233305Y210547
X224447Y206610
X239211Y193815
X234289Y189878
X224447Y182988
X201809Y189878
X191967Y174130
X221986Y172161
X252006Y178933
X261848Y177812
X256927Y187559
X264019Y162103
X214604Y147555
X216573Y140665
X228876Y140665
X189014Y145094
X171297Y148539
X124545Y168224
X137341Y184465
X119624Y199720
X124545Y229740
X194919Y214484
X228384Y233185
T03
X538435Y212185
X538435Y192185
T04
X216573Y203657
X191967Y203657
X167360Y214484
X171297Y227280
X192951Y239091
X143738Y238106
X143246Y279445
X127990Y160350
T05
X172595Y131833
X182595Y131833
X192595Y131833
X202595Y131833
X212595Y131833
X328136Y131693
X338136Y131693
X348136Y131693
X358136Y131693
X368136Y131693
X398885Y159166
X408885Y159166
X418885Y159166
X428885Y159166
X438885Y159166
X448885Y159166
X458885Y159166
X468885Y159166
X478885Y159166
X488885Y159166
X500938Y132007
X510938Y132007
X520938Y132007
X530938Y132007
X558667Y161138
X568667Y161138
X578667Y161138
X588667Y161138
X598667Y161138
X617163Y165429
X617163Y155429
X617163Y145429
X617163Y135429
X640963Y131807
X650963Y131807
X660963Y131807
X670963Y131807
X696081Y131807
X706081Y131807
X701396Y189799
X691396Y189799
X701396Y199799
X745293Y192339
X755293Y192339
X701396Y223264
X691396Y223264
X701396Y233264
X746437Y235283
X756437Y235283
X658344Y213008
X648344Y213008
X540234Y242043
X530234Y242043
X544211Y285610
X554211Y285610
X564211Y285610
X574211Y285610
X528738Y293224
X518738Y293224
X508738Y293224
X498738Y293224
X418069Y293224
X408069Y293224
X398069Y293224
X388069Y293224
X378069Y293224
X368069Y293224
X358069Y293224
X348069Y293224
X338069Y293224
X328069Y293224
X262595Y292933
X252595Y292933
X242595Y292933
X232595Y292933
X222595Y292933
X212595Y292933
X202595Y292933
X192595Y292933
X317065Y249917
X327065Y249917
X337065Y249917
X347065Y249917
X357065Y249917
X367065Y249917
X640963Y293224
X650963Y293224
X660963Y293224
X670963Y293224
X695077Y293224
X705077Y293224
T06
X697380Y280843
X677380Y270843
X647380Y280843
X642518Y235154
X672518Y235154
X673010Y188402
X643010Y188402
X647380Y154858
X677380Y144858
X697380Y154858
T07
X507100Y177862
X497100Y177862
X487100Y177862
X477100Y177862
X467100Y177862
X457100Y177862
X447100Y177862
X437100Y177862
X417100Y177862
X407100Y177862
X397100Y177862
X387100Y177862
X377100Y177862
X367100Y177862
X357100Y177862
X347100Y177862
X337100Y177862
X327100Y177862
X317100Y177862
X307100Y177862
X287100Y177862
X297100Y227862
X297100Y237862
X287100Y237862
X307100Y237862
X317100Y237862
X327100Y237862
X337100Y237862
X347100Y237862
X357100Y237862
X367100Y237862
X377100Y237862
X387100Y237862
X397100Y237862
X407100Y237862
X417100Y237862
X427100Y237862
T08
X448112Y282382
X458112Y282382
X468112Y282382
X555297Y259374
X565297Y259374
X575297Y259374
X587974Y259453
X597974Y259453
X607974Y259453
X607974Y242366
X597974Y242366
X587974Y242366
X574510Y242681
X564510Y242681
X554510Y242681
X588100Y280835
X598100Y280835
X608100Y280835
X522072Y160490
X512072Y160490
X502072Y160490
X571993Y146955
X581993Y146955
X591993Y146955
X596793Y135744
X586793Y135744
X576793Y135744
X238581Y149988
X238581Y159988
X238581Y169988
X237793Y241650
X237793Y251650
X237793Y261650
T09
X211793Y260941
X211793Y250941
X211793Y240941
X181998Y240862
X181998Y250862
X181998Y260862
X182675Y176650
X182675Y166650
X182675Y156650
X212085Y157043
X212085Y167043
X212085Y177043
X647852Y173146
X657852Y173146
X667852Y173146
X667360Y251394
X657360Y251394
X647360Y251394
T10
X160510Y176807
X145116Y189878
X129014Y177516
X128069Y205665
X156415Y204484
M30
