G75*
%MOIN*%
%OFA0B0*%
%FSLAX25Y25*%
%IPPOS*%
%LPD*%
%AMOC8*
5,1,8,0,0,1.08239X$1,22.5*
%
%ADD10R,0.07000X0.09900*%
%ADD11R,0.09900X0.07000*%
%ADD12C,0.06000*%
%ADD13OC8,0.10000*%
%ADD14C,0.05800*%
%ADD15C,0.06750*%
%ADD16R,0.02100X0.06300*%
%ADD17C,0.06500*%
%ADD18C,0.05200*%
%ADD19R,0.15748X0.09843*%
%ADD20R,0.35000X0.07000*%
%ADD21R,0.05543X0.05543*%
%ADD22C,0.05543*%
%ADD23OC8,0.05200*%
%ADD24C,0.07400*%
%ADD25R,0.03937X0.04331*%
%ADD26R,0.07087X0.12598*%
%ADD27R,0.04724X0.02362*%
%ADD28C,0.02400*%
%ADD29C,0.03962*%
%ADD30C,0.01200*%
%ADD31C,0.01000*%
%ADD32C,0.01575*%
%ADD33C,0.03200*%
%ADD34C,0.03187*%
%ADD35C,0.00984*%
%ADD36R,0.03962X0.03962*%
%ADD37C,0.00600*%
%ADD38C,0.03100*%
%ADD39C,0.05000*%
%ADD40C,0.07874*%
%ADD41C,0.04750*%
%ADD42R,0.04750X0.04750*%
%ADD43C,0.07600*%
%ADD44C,0.04000*%
%ADD45C,0.01600*%
%ADD46R,0.03100X0.03100*%
D10*
X0255767Y0153320D03*
X0255767Y0170720D03*
X0257124Y0235910D03*
X0257124Y0253310D03*
X0257400Y0264613D03*
X0257400Y0282013D03*
D11*
X0261243Y0133961D03*
X0243843Y0133961D03*
D12*
X0241581Y0149988D02*
X0235581Y0149988D01*
X0235581Y0159988D02*
X0241581Y0159988D01*
X0241581Y0169988D02*
X0235581Y0169988D01*
X0234793Y0241650D02*
X0240793Y0241650D01*
X0240793Y0251650D02*
X0234793Y0251650D01*
X0234793Y0261650D02*
X0240793Y0261650D01*
X0448112Y0279382D02*
X0448112Y0285382D01*
X0458112Y0285382D02*
X0458112Y0279382D01*
X0468112Y0279382D02*
X0468112Y0285382D01*
X0555297Y0262374D02*
X0555297Y0256374D01*
X0565297Y0256374D02*
X0565297Y0262374D01*
X0575297Y0262374D02*
X0575297Y0256374D01*
X0587974Y0256453D02*
X0587974Y0262453D01*
X0597974Y0262453D02*
X0597974Y0256453D01*
X0607974Y0256453D02*
X0607974Y0262453D01*
X0608100Y0277835D02*
X0608100Y0283835D01*
X0598100Y0283835D02*
X0598100Y0277835D01*
X0588100Y0277835D02*
X0588100Y0283835D01*
X0587974Y0245366D02*
X0587974Y0239366D01*
X0574510Y0239681D02*
X0574510Y0245681D01*
X0564510Y0245681D02*
X0564510Y0239681D01*
X0554510Y0239681D02*
X0554510Y0245681D01*
X0597974Y0245366D02*
X0597974Y0239366D01*
X0607974Y0239366D02*
X0607974Y0245366D01*
X0522072Y0163490D02*
X0522072Y0157490D01*
X0512072Y0157490D02*
X0512072Y0163490D01*
X0502072Y0163490D02*
X0502072Y0157490D01*
X0571993Y0149955D02*
X0571993Y0143955D01*
X0576793Y0138744D02*
X0576793Y0132744D01*
X0586793Y0132744D02*
X0586793Y0138744D01*
X0581993Y0143955D02*
X0581993Y0149955D01*
X0591993Y0149955D02*
X0591993Y0143955D01*
X0596793Y0138744D02*
X0596793Y0132744D01*
D13*
X0160510Y0176807D03*
X0145116Y0189878D03*
X0129014Y0177516D03*
X0128069Y0205665D03*
X0156415Y0204484D03*
D14*
X0287100Y0177862D03*
X0307100Y0177862D03*
X0317100Y0177862D03*
X0327100Y0177862D03*
X0337100Y0177862D03*
X0347100Y0177862D03*
X0357100Y0177862D03*
X0367100Y0177862D03*
X0377100Y0177862D03*
X0387100Y0177862D03*
X0397100Y0177862D03*
X0407100Y0177862D03*
X0417100Y0177862D03*
X0437100Y0177862D03*
X0447100Y0177862D03*
X0457100Y0177862D03*
X0467100Y0177862D03*
X0477100Y0177862D03*
X0487100Y0177862D03*
X0497100Y0177862D03*
X0507100Y0177862D03*
X0427100Y0237862D03*
X0417100Y0237862D03*
X0407100Y0237862D03*
X0397100Y0237862D03*
X0387100Y0237862D03*
X0377100Y0237862D03*
X0367100Y0237862D03*
X0357100Y0237862D03*
X0347100Y0237862D03*
X0337100Y0237862D03*
X0327100Y0237862D03*
X0317100Y0237862D03*
X0307100Y0237862D03*
X0297100Y0237862D03*
X0287100Y0237862D03*
X0297100Y0227862D03*
D15*
X0211793Y0240941D03*
X0211793Y0250941D03*
X0211793Y0260941D03*
X0181998Y0260862D03*
X0181998Y0250862D03*
X0181998Y0240862D03*
X0182675Y0176650D03*
X0182675Y0166650D03*
X0182675Y0156650D03*
X0212085Y0157043D03*
X0212085Y0167043D03*
X0212085Y0177043D03*
X0647852Y0173146D03*
X0657852Y0173146D03*
X0667852Y0173146D03*
X0667360Y0251394D03*
X0657360Y0251394D03*
X0647360Y0251394D03*
D16*
X0263955Y0221312D03*
X0258955Y0221312D03*
X0253955Y0221312D03*
X0248955Y0221312D03*
X0239545Y0221312D03*
X0234545Y0221312D03*
X0229545Y0221312D03*
X0224545Y0221312D03*
X0224545Y0200412D03*
X0229545Y0200412D03*
X0234545Y0200412D03*
X0239545Y0200412D03*
X0248955Y0200412D03*
X0253955Y0200412D03*
X0258955Y0200412D03*
X0263955Y0200412D03*
D17*
X0538435Y0192185D03*
X0538435Y0212185D03*
D18*
X0172595Y0134433D02*
X0172595Y0129233D01*
X0182595Y0129233D02*
X0182595Y0134433D01*
X0192595Y0134433D02*
X0192595Y0129233D01*
X0202595Y0129233D02*
X0202595Y0134433D01*
X0212595Y0134433D02*
X0212595Y0129233D01*
X0328136Y0129093D02*
X0328136Y0134293D01*
X0338136Y0134293D02*
X0338136Y0129093D01*
X0348136Y0129093D02*
X0348136Y0134293D01*
X0358136Y0134293D02*
X0358136Y0129093D01*
X0368136Y0129093D02*
X0368136Y0134293D01*
X0398885Y0156566D02*
X0398885Y0161766D01*
X0408885Y0161766D02*
X0408885Y0156566D01*
X0418885Y0156566D02*
X0418885Y0161766D01*
X0428885Y0161766D02*
X0428885Y0156566D01*
X0438885Y0156566D02*
X0438885Y0161766D01*
X0448885Y0161766D02*
X0448885Y0156566D01*
X0458885Y0156566D02*
X0458885Y0161766D01*
X0468885Y0161766D02*
X0468885Y0156566D01*
X0478885Y0156566D02*
X0478885Y0161766D01*
X0488885Y0161766D02*
X0488885Y0156566D01*
X0500938Y0134607D02*
X0500938Y0129407D01*
X0510938Y0129407D02*
X0510938Y0134607D01*
X0520938Y0134607D02*
X0520938Y0129407D01*
X0530938Y0129407D02*
X0530938Y0134607D01*
X0558667Y0158538D02*
X0558667Y0163738D01*
X0568667Y0163738D02*
X0568667Y0158538D01*
X0578667Y0158538D02*
X0578667Y0163738D01*
X0588667Y0163738D02*
X0588667Y0158538D01*
X0598667Y0158538D02*
X0598667Y0163738D01*
X0614563Y0165429D02*
X0619763Y0165429D01*
X0619763Y0155429D02*
X0614563Y0155429D01*
X0614563Y0145429D02*
X0619763Y0145429D01*
X0619763Y0135429D02*
X0614563Y0135429D01*
X0640963Y0134407D02*
X0640963Y0129207D01*
X0650963Y0129207D02*
X0650963Y0134407D01*
X0660963Y0134407D02*
X0660963Y0129207D01*
X0670963Y0129207D02*
X0670963Y0134407D01*
X0696081Y0134407D02*
X0696081Y0129207D01*
X0706081Y0129207D02*
X0706081Y0134407D01*
X0745293Y0189739D02*
X0745293Y0194939D01*
X0755293Y0194939D02*
X0755293Y0189739D01*
X0756437Y0232683D02*
X0756437Y0237883D01*
X0746437Y0237883D02*
X0746437Y0232683D01*
X0658344Y0215608D02*
X0658344Y0210408D01*
X0648344Y0210408D02*
X0648344Y0215608D01*
X0540234Y0239443D02*
X0540234Y0244643D01*
X0530234Y0244643D02*
X0530234Y0239443D01*
X0544211Y0283010D02*
X0544211Y0288210D01*
X0554211Y0288210D02*
X0554211Y0283010D01*
X0564211Y0283010D02*
X0564211Y0288210D01*
X0574211Y0288210D02*
X0574211Y0283010D01*
X0528738Y0290624D02*
X0528738Y0295824D01*
X0518738Y0295824D02*
X0518738Y0290624D01*
X0508738Y0290624D02*
X0508738Y0295824D01*
X0498738Y0295824D02*
X0498738Y0290624D01*
X0418069Y0290624D02*
X0418069Y0295824D01*
X0408069Y0295824D02*
X0408069Y0290624D01*
X0398069Y0290624D02*
X0398069Y0295824D01*
X0388069Y0295824D02*
X0388069Y0290624D01*
X0378069Y0290624D02*
X0378069Y0295824D01*
X0368069Y0295824D02*
X0368069Y0290624D01*
X0358069Y0290624D02*
X0358069Y0295824D01*
X0348069Y0295824D02*
X0348069Y0290624D01*
X0338069Y0290624D02*
X0338069Y0295824D01*
X0328069Y0295824D02*
X0328069Y0290624D01*
X0262595Y0290333D02*
X0262595Y0295533D01*
X0252595Y0295533D02*
X0252595Y0290333D01*
X0242595Y0290333D02*
X0242595Y0295533D01*
X0232595Y0295533D02*
X0232595Y0290333D01*
X0222595Y0290333D02*
X0222595Y0295533D01*
X0212595Y0295533D02*
X0212595Y0290333D01*
X0202595Y0290333D02*
X0202595Y0295533D01*
X0192595Y0295533D02*
X0192595Y0290333D01*
X0317065Y0252517D02*
X0317065Y0247317D01*
X0327065Y0247317D02*
X0327065Y0252517D01*
X0337065Y0252517D02*
X0337065Y0247317D01*
X0347065Y0247317D02*
X0347065Y0252517D01*
X0357065Y0252517D02*
X0357065Y0247317D01*
X0367065Y0247317D02*
X0367065Y0252517D01*
X0640963Y0290624D02*
X0640963Y0295824D01*
X0650963Y0295824D02*
X0650963Y0290624D01*
X0660963Y0290624D02*
X0660963Y0295824D01*
X0670963Y0295824D02*
X0670963Y0290624D01*
X0695077Y0290624D02*
X0695077Y0295824D01*
X0705077Y0295824D02*
X0705077Y0290624D01*
D19*
X0159156Y0148933D03*
X0127659Y0148933D03*
D20*
X0139439Y0222988D03*
X0139439Y0259602D03*
X0139439Y0296295D03*
D21*
X0647380Y0280843D03*
X0647380Y0154858D03*
D22*
X0677380Y0144858D03*
X0697380Y0154858D03*
X0677380Y0270843D03*
X0697380Y0280843D03*
D23*
X0701396Y0233264D03*
X0701396Y0223264D03*
X0691396Y0223264D03*
X0701396Y0199799D03*
X0701396Y0189799D03*
X0691396Y0189799D03*
D24*
X0673010Y0188402D03*
X0643010Y0188402D03*
X0642518Y0235154D03*
X0672518Y0235154D03*
D25*
X0600825Y0230232D03*
X0594132Y0230232D03*
X0569329Y0230232D03*
X0562636Y0230232D03*
X0192360Y0191846D03*
X0185667Y0191846D03*
X0145608Y0204642D03*
X0138915Y0204642D03*
D26*
G36*
X0157112Y0189392D02*
X0162123Y0194403D01*
X0171030Y0185496D01*
X0166019Y0180485D01*
X0157112Y0189392D01*
G37*
G36*
X0172702Y0204982D02*
X0177713Y0209993D01*
X0186620Y0201086D01*
X0181609Y0196075D01*
X0172702Y0204982D01*
G37*
D27*
X0131163Y0195587D03*
X0131163Y0191846D03*
X0131163Y0188106D03*
X0120880Y0188106D03*
X0120880Y0195587D03*
D28*
X0182675Y0176650D02*
X0185667Y0179642D01*
X0185667Y0191846D01*
X0191967Y0191453D02*
X0192360Y0191846D01*
X0192360Y0203264D01*
X0191967Y0203657D01*
X0194919Y0214484D02*
X0199841Y0214484D01*
X0213620Y0227064D01*
X0232264Y0227064D01*
X0234595Y0224733D01*
X0234595Y0221362D01*
X0239545Y0221312D02*
X0239545Y0216118D01*
X0241179Y0214484D01*
X0259195Y0214533D01*
X0259244Y0214484D01*
X0261628Y0213194D01*
X0252006Y0210055D02*
X0240195Y0210055D01*
X0234289Y0215469D01*
X0231337Y0215469D01*
X0229545Y0217260D01*
X0229545Y0221312D01*
X0224545Y0221312D02*
X0224545Y0212417D01*
X0226415Y0210547D01*
X0233305Y0210547D01*
X0232321Y0205626D02*
X0229368Y0202673D01*
X0229368Y0200235D01*
X0229545Y0200412D01*
X0229368Y0200235D02*
X0229368Y0182988D01*
X0224447Y0182988D01*
X0212124Y0177083D02*
X0212085Y0177043D01*
X0242077Y0177043D01*
X0247900Y0187667D01*
X0256819Y0187667D01*
X0253974Y0200393D02*
X0253955Y0200412D01*
X0253974Y0200432D01*
X0253974Y0203657D01*
X0252006Y0205626D01*
X0232321Y0205626D01*
X0224545Y0205528D02*
X0224447Y0206610D01*
X0224545Y0205528D02*
X0224545Y0200412D01*
X0191967Y0191453D02*
X0191967Y0174130D01*
X0238581Y0159988D02*
X0247744Y0159988D01*
X0248367Y0159366D01*
X0248267Y0149681D01*
X0246617Y0218974D02*
X0248955Y0221312D01*
X0246617Y0218974D02*
X0244132Y0218974D01*
X0258955Y0221312D02*
X0258955Y0228205D01*
X0258896Y0227464D01*
X0259195Y0233510D02*
X0259195Y0238533D01*
X0257124Y0235910D02*
X0260018Y0233510D01*
X0259195Y0233510D02*
X0257124Y0235910D01*
X0238384Y0241059D02*
X0237793Y0241650D01*
X0228384Y0233185D02*
X0218541Y0233185D01*
X0218541Y0254193D01*
X0211793Y0260941D01*
X0237793Y0251650D02*
X0238541Y0252702D01*
X0224447Y0221411D02*
X0224545Y0221312D01*
X0263955Y0221312D02*
X0263995Y0221352D01*
D29*
X0258896Y0227464D03*
X0244132Y0218974D03*
X0261628Y0213194D03*
X0252006Y0210055D03*
X0233305Y0210547D03*
X0224447Y0206610D03*
X0239211Y0193815D03*
X0234289Y0189878D03*
X0224447Y0182988D03*
X0201809Y0189878D03*
X0191967Y0174130D03*
X0221986Y0172161D03*
X0252006Y0178933D03*
X0261848Y0177812D03*
X0256927Y0187559D03*
X0264019Y0162103D03*
X0214604Y0147555D03*
X0171297Y0148539D03*
X0194919Y0214484D03*
X0228384Y0233185D03*
X0264801Y0237122D03*
X0376163Y0246370D03*
X0415486Y0262457D03*
X0480726Y0229390D03*
X0487876Y0219559D03*
X0472683Y0216878D03*
X0451566Y0211516D03*
X0436041Y0208835D03*
X0419955Y0209728D03*
X0417274Y0214197D03*
X0422636Y0224028D03*
X0381526Y0217772D03*
X0432467Y0199898D03*
X0416380Y0183811D03*
X0379832Y0169512D03*
X0451234Y0148957D03*
X0461959Y0145382D03*
X0469108Y0147169D03*
X0477152Y0147169D03*
X0493644Y0134764D03*
X0547478Y0132008D03*
X0457490Y0167724D03*
X0511112Y0192748D03*
X0518262Y0199004D03*
X0518262Y0204366D03*
X0526305Y0201685D03*
X0554904Y0187386D03*
X0562947Y0192748D03*
X0574565Y0184705D03*
X0580821Y0182024D03*
X0562053Y0182024D03*
X0554904Y0178449D03*
X0538911Y0183811D03*
X0574565Y0204366D03*
X0547754Y0220453D03*
X0534348Y0222240D03*
X0523022Y0226760D03*
X0503963Y0231177D03*
X0523624Y0237433D03*
X0548648Y0247264D03*
X0555797Y0229390D03*
X0559372Y0224921D03*
X0494132Y0207047D03*
X0597801Y0182917D03*
X0612994Y0271394D03*
D30*
X0640963Y0293224D02*
X0640963Y0248756D01*
X0652596Y0237122D01*
X0670549Y0237122D01*
X0672518Y0235154D01*
X0677872Y0248264D02*
X0690982Y0235154D01*
X0690982Y0223677D01*
X0691396Y0223264D01*
X0658600Y0223264D01*
X0648344Y0213008D01*
X0658344Y0213008D02*
X0658344Y0203067D01*
X0673010Y0188402D01*
X0676219Y0185193D01*
X0676219Y0161335D01*
X0678856Y0149209D02*
X0694919Y0165272D01*
X0694919Y0186276D01*
X0691396Y0189799D01*
X0691396Y0223264D01*
X0677872Y0248264D02*
X0677380Y0270843D01*
X0670963Y0276768D01*
X0670963Y0293224D01*
X0678856Y0149209D02*
X0677380Y0144858D01*
X0267970Y0130155D02*
X0265496Y0127681D01*
X0235647Y0127681D01*
X0228595Y0134733D01*
X0228595Y0140384D01*
X0228876Y0140665D01*
X0228595Y0140946D01*
X0228595Y0147933D01*
X0221995Y0154533D01*
X0221986Y0154533D01*
X0221986Y0172161D01*
X0248367Y0159366D02*
X0255767Y0170720D01*
X0252006Y0178933D01*
X0261848Y0177812D02*
X0261848Y0166187D01*
X0252595Y0156933D01*
X0252595Y0155291D01*
X0255767Y0153320D01*
X0260867Y0149081D01*
X0261243Y0133961D01*
X0267970Y0130155D02*
X0267970Y0179435D01*
X0268155Y0197250D01*
X0263955Y0200412D01*
X0258955Y0200412D02*
X0258955Y0205685D01*
X0267262Y0213500D01*
X0267262Y0235154D01*
X0264801Y0237122D01*
X0259195Y0238533D02*
X0263395Y0242733D01*
X0263395Y0260417D01*
X0257400Y0264613D01*
X0257124Y0253310D02*
X0249211Y0253302D01*
X0238541Y0252702D01*
X0249211Y0253302D02*
X0249211Y0276374D01*
X0257400Y0282013D01*
X0257124Y0253310D02*
X0250355Y0241452D01*
X0250195Y0227733D01*
X0253955Y0224573D01*
X0253955Y0221312D01*
X0248955Y0221312D02*
X0242262Y0228165D01*
X0238423Y0232004D01*
X0238384Y0241059D01*
X0260018Y0233510D02*
X0263995Y0229533D01*
X0263995Y0221352D01*
X0234595Y0221362D02*
X0234545Y0221312D01*
X0249053Y0200314D02*
X0249053Y0194631D01*
X0265448Y0189035D01*
X0265448Y0174791D01*
X0264019Y0162103D01*
X0248395Y0149553D02*
X0248267Y0149681D01*
X0248395Y0149553D02*
X0248395Y0138933D01*
X0243843Y0134381D01*
X0243843Y0133961D01*
X0223195Y0139933D02*
X0223195Y0145933D01*
X0212085Y0157043D01*
X0221986Y0154533D02*
X0221986Y0154445D01*
X0223195Y0139933D02*
X0219195Y0136933D01*
X0213195Y0136933D01*
X0212557Y0136295D01*
X0212595Y0136295D01*
X0212595Y0131833D01*
X0202595Y0131833D02*
X0191474Y0141157D01*
X0185077Y0141157D01*
X0150628Y0175606D01*
X0144722Y0175606D01*
X0129014Y0177516D02*
X0120880Y0185650D01*
X0120880Y0188106D01*
X0126514Y0184957D02*
X0127006Y0184465D01*
X0137341Y0184465D01*
X0135864Y0187909D02*
X0131360Y0187909D01*
X0131163Y0188106D01*
X0131163Y0191846D02*
X0133404Y0191846D01*
X0141770Y0200213D01*
X0145215Y0200213D01*
X0145608Y0200606D01*
X0145608Y0204642D01*
X0138915Y0204642D02*
X0138915Y0203339D01*
X0131163Y0195587D01*
X0127793Y0195587D01*
X0126514Y0194307D01*
X0126514Y0184957D01*
X0135864Y0187909D02*
X0136356Y0188402D01*
X0136356Y0191354D01*
X0142262Y0197260D01*
X0163915Y0197260D01*
X0171166Y0203034D01*
X0179661Y0203034D01*
X0156415Y0204484D02*
X0152144Y0200213D01*
X0145215Y0200213D01*
X0120880Y0198465D02*
X0120880Y0195587D01*
X0120880Y0198465D02*
X0119624Y0199720D01*
X0124545Y0229740D02*
X0124545Y0231217D01*
X0144722Y0250902D01*
X0152715Y0250902D01*
X0152754Y0250862D01*
X0256819Y0187667D02*
X0256927Y0187559D01*
X0171297Y0148539D02*
X0170904Y0148933D01*
X0159156Y0148933D01*
X0147459Y0138805D02*
X0143738Y0143126D01*
X0143738Y0152476D01*
X0127990Y0168224D01*
X0124545Y0168224D01*
X0127990Y0160350D02*
X0127659Y0160020D01*
X0127659Y0148933D01*
X0147459Y0138805D02*
X0186830Y0138805D01*
X0192595Y0131833D01*
D31*
X0317100Y0177862D02*
X0317179Y0178449D01*
X0321648Y0178449D01*
X0326116Y0182917D01*
X0348459Y0182917D01*
X0352033Y0179343D01*
X0352033Y0176661D01*
X0359183Y0169512D01*
X0379832Y0169512D01*
X0378844Y0173087D02*
X0365439Y0173087D01*
X0361864Y0176661D01*
X0361864Y0179343D01*
X0318073Y0223134D01*
X0295730Y0223134D01*
X0282325Y0236539D01*
X0282325Y0239220D01*
X0334159Y0291055D01*
X0334159Y0298205D01*
X0335947Y0299992D01*
X0569203Y0299992D01*
X0587970Y0281224D01*
X0588100Y0280835D01*
X0565628Y0266925D02*
X0565297Y0266925D01*
X0553116Y0266925D01*
X0536136Y0249945D01*
X0536136Y0239220D01*
X0528093Y0231177D01*
X0529742Y0230665D01*
X0527199Y0230283D01*
X0523022Y0226760D01*
X0518262Y0221346D01*
X0518262Y0204366D01*
X0506644Y0201685D02*
X0504856Y0203472D01*
X0488770Y0203472D01*
X0480726Y0211516D01*
X0451566Y0211516D01*
X0445591Y0213303D02*
X0445591Y0205260D01*
X0425317Y0187386D01*
X0414593Y0187386D01*
X0411911Y0184705D01*
X0411911Y0176661D01*
X0408337Y0173087D01*
X0402081Y0173087D01*
X0397612Y0177555D01*
X0397100Y0177862D01*
X0398506Y0182917D02*
X0382419Y0182917D01*
X0377951Y0178449D01*
X0377100Y0177862D01*
X0378844Y0173087D02*
X0383313Y0177555D01*
X0386888Y0177555D01*
X0387100Y0177862D01*
X0398506Y0182917D02*
X0431573Y0215984D01*
X0431573Y0245476D01*
X0432124Y0255823D01*
X0436061Y0258776D01*
X0444978Y0258882D01*
X0506644Y0258882D01*
X0532561Y0284799D01*
X0544179Y0284799D01*
X0544211Y0285610D01*
X0574565Y0258882D02*
X0575297Y0259374D01*
X0574565Y0258882D02*
X0567415Y0251732D01*
X0547754Y0251732D01*
X0545073Y0249051D01*
X0545073Y0232071D01*
X0539711Y0226709D01*
X0533455Y0226709D01*
X0526305Y0219559D01*
X0526305Y0201685D01*
X0519156Y0198110D02*
X0518262Y0199004D01*
X0519156Y0198110D02*
X0537923Y0198110D01*
X0562947Y0223134D01*
X0562947Y0229390D01*
X0562636Y0230232D01*
X0562053Y0230283D01*
X0559372Y0232965D01*
X0554904Y0232965D01*
X0548648Y0239220D01*
X0548648Y0247264D01*
X0530234Y0242043D02*
X0529880Y0241902D01*
X0529880Y0238327D01*
X0511112Y0219559D01*
X0511112Y0192748D01*
X0506644Y0191854D02*
X0511112Y0187386D01*
X0554904Y0187386D01*
X0562947Y0186492D02*
X0562947Y0192748D01*
X0562947Y0186492D02*
X0565628Y0183811D01*
X0565628Y0177055D01*
X0547254Y0158681D01*
X0544854Y0156400D01*
X0535023Y0146569D01*
X0477152Y0147169D01*
X0471789Y0147169D02*
X0479833Y0139126D01*
X0545967Y0139126D01*
X0556691Y0128402D01*
X0598695Y0128402D01*
X0610313Y0140020D01*
X0610313Y0147169D01*
X0613888Y0150744D01*
X0621037Y0150744D01*
X0623719Y0153425D01*
X0623719Y0157000D01*
X0619250Y0161469D01*
X0606738Y0161469D01*
X0600482Y0167724D01*
X0585289Y0167724D01*
X0579033Y0161469D01*
X0578667Y0161138D01*
X0569203Y0161469D02*
X0568667Y0161138D01*
X0569203Y0161469D02*
X0569203Y0229390D01*
X0569329Y0230232D01*
X0559372Y0224921D02*
X0552222Y0224921D01*
X0547754Y0220453D01*
X0544179Y0222240D02*
X0534348Y0222240D01*
X0544179Y0222240D02*
X0551329Y0229390D01*
X0555797Y0229390D01*
X0523624Y0237433D02*
X0518262Y0242795D01*
X0465533Y0242795D01*
X0461959Y0239220D01*
X0453022Y0231177D01*
X0436041Y0214197D01*
X0436041Y0208835D01*
X0440416Y0207047D02*
X0436041Y0203472D01*
X0427998Y0203472D01*
X0407443Y0182917D01*
X0407443Y0178449D01*
X0407100Y0177862D01*
X0381526Y0192748D02*
X0367226Y0178449D01*
X0367100Y0177862D01*
X0381526Y0192748D02*
X0381526Y0217772D01*
X0399400Y0232071D02*
X0417274Y0214197D01*
X0419955Y0209728D02*
X0422636Y0212409D01*
X0422636Y0224028D01*
X0440416Y0215091D02*
X0440416Y0207047D01*
X0443004Y0206154D02*
X0435148Y0199898D01*
X0432467Y0199898D01*
X0443004Y0206154D02*
X0443004Y0214197D01*
X0453447Y0223840D01*
X0480539Y0223840D01*
X0489476Y0231177D01*
X0503963Y0231177D01*
X0487876Y0219559D02*
X0475364Y0219559D01*
X0474470Y0220453D01*
X0453541Y0220453D01*
X0445591Y0213303D01*
X0440416Y0215091D02*
X0455515Y0229390D01*
X0480726Y0229390D01*
X0484301Y0216878D02*
X0472683Y0216878D01*
X0484301Y0216878D02*
X0494132Y0207047D01*
X0506644Y0201685D02*
X0506644Y0191854D01*
X0538911Y0183811D02*
X0545073Y0178449D01*
X0554904Y0178449D01*
X0562053Y0180236D02*
X0550435Y0168618D01*
X0458384Y0168618D01*
X0457490Y0167724D01*
X0453945Y0152531D02*
X0417274Y0152531D01*
X0414593Y0155213D01*
X0451234Y0148957D02*
X0465427Y0134764D01*
X0493644Y0134764D01*
X0471789Y0147169D02*
X0469108Y0147169D01*
X0466602Y0150026D02*
X0461959Y0145382D01*
X0453945Y0152531D02*
X0481445Y0152531D01*
X0547478Y0132008D02*
X0553042Y0126224D01*
X0599759Y0126224D01*
X0612994Y0140020D01*
X0620144Y0140020D01*
X0626306Y0145382D01*
X0626306Y0165937D01*
X0621931Y0169512D01*
X0614781Y0169512D01*
X0601376Y0182917D01*
X0597801Y0182917D01*
X0580821Y0182024D02*
X0580821Y0209728D01*
X0600482Y0229390D01*
X0600825Y0230232D01*
X0601376Y0230283D01*
X0601376Y0235646D01*
X0607632Y0241902D01*
X0607974Y0242366D01*
X0607974Y0259453D02*
X0608526Y0259776D01*
X0612994Y0264244D01*
X0612994Y0271394D01*
X0574565Y0204366D02*
X0574565Y0184705D01*
X0562053Y0182024D02*
X0562053Y0180236D01*
X0558667Y0161138D02*
X0559372Y0160575D01*
X0565628Y0154319D01*
X0615675Y0154319D01*
X0616569Y0155213D01*
X0617163Y0155429D01*
X0399400Y0232071D02*
X0296624Y0232071D01*
X0291262Y0237433D01*
X0287687Y0237433D01*
X0287100Y0237862D01*
X0376163Y0246370D02*
X0392250Y0262457D01*
X0415486Y0262457D01*
D32*
X0249053Y0200314D02*
X0248955Y0200412D01*
X0239545Y0200412D02*
X0239545Y0194150D01*
X0239211Y0193815D01*
X0234545Y0190134D02*
X0234289Y0189878D01*
X0234545Y0190134D02*
X0234545Y0200412D01*
X0188778Y0156650D02*
X0182675Y0156650D01*
X0188778Y0156650D02*
X0197872Y0147555D01*
X0214604Y0147555D01*
D33*
X0442951Y0282382D02*
X0442951Y0293224D01*
X0493148Y0293224D01*
X0493148Y0285350D01*
X0528738Y0285350D01*
X0528738Y0293224D01*
X0448112Y0282382D02*
X0442951Y0282382D01*
X0442951Y0293224D02*
X0418069Y0293224D01*
D34*
X0408069Y0293224D01*
X0398069Y0293224D01*
X0388069Y0293224D01*
D35*
X0388069Y0270921D01*
X0367065Y0249917D01*
X0367163Y0249819D01*
X0367163Y0243028D01*
X0421935Y0243028D01*
X0427100Y0237862D01*
X0367163Y0243028D02*
X0297281Y0243028D01*
X0297100Y0242846D01*
X0297100Y0237862D01*
X0357065Y0249917D02*
X0357065Y0251630D01*
X0379959Y0274524D01*
X0406533Y0274524D02*
X0417360Y0274524D01*
X0528738Y0293224D02*
X0562045Y0293224D01*
X0563030Y0292240D01*
X0563030Y0286791D01*
X0564211Y0285610D01*
X0565297Y0284524D01*
X0565297Y0266925D01*
X0565297Y0259374D01*
X0554510Y0242681D02*
X0554510Y0239736D01*
X0559093Y0235154D01*
X0568935Y0235154D01*
X0569919Y0234169D01*
X0569919Y0230823D01*
X0569329Y0230232D01*
X0594132Y0230232D01*
X0594132Y0236209D01*
X0587974Y0242366D01*
X0597974Y0259453D02*
X0597974Y0262224D01*
X0608305Y0272555D01*
X0608305Y0280130D01*
X0608100Y0280835D01*
X0617163Y0194799D02*
X0617163Y0188894D01*
X0611258Y0182988D01*
X0591993Y0146955D02*
X0581993Y0146955D01*
X0337100Y0154894D02*
X0327793Y0145587D01*
X0327793Y0132083D01*
X0328136Y0131693D01*
X0337100Y0154894D02*
X0337100Y0177862D01*
D36*
X0228876Y0140665D03*
X0216573Y0140665D03*
X0189014Y0145094D03*
X0124545Y0168224D03*
X0137341Y0184465D03*
X0119624Y0199720D03*
X0124545Y0229740D03*
X0379959Y0274524D03*
X0406533Y0274524D03*
X0417360Y0274524D03*
X0617163Y0194799D03*
X0611258Y0182988D03*
X0676219Y0161335D03*
D37*
X0502345Y0200183D02*
X0486785Y0183313D01*
X0472085Y0189493D02*
X0441095Y0188933D01*
X0418945Y0166783D01*
X0418945Y0160183D01*
X0418885Y0159166D01*
X0408945Y0160183D02*
X0408885Y0159166D01*
X0408945Y0160183D02*
X0440195Y0191433D01*
X0467695Y0192233D01*
X0467695Y0196433D02*
X0438045Y0194833D01*
X0424745Y0183933D01*
X0416445Y0183933D01*
X0416380Y0183811D01*
X0441445Y0179283D02*
X0441445Y0172683D01*
X0428945Y0160183D01*
X0428885Y0159166D01*
X0438885Y0159166D02*
X0438945Y0160183D01*
X0451445Y0172683D01*
X0451445Y0179283D01*
X0454845Y0182683D01*
X0470195Y0182683D01*
X0484745Y0197233D01*
X0490195Y0196433D02*
X0471445Y0179283D01*
X0471445Y0176433D01*
X0466445Y0171433D01*
X0456445Y0171433D01*
X0453945Y0168933D01*
X0453945Y0152531D01*
X0466602Y0150026D02*
X0467375Y0150843D01*
X0489225Y0150853D01*
X0492695Y0153583D01*
X0492695Y0163933D01*
X0490195Y0166433D01*
X0487695Y0166433D01*
X0481445Y0160183D01*
X0478945Y0160183D01*
X0478885Y0159166D01*
X0481445Y0152683D02*
X0481445Y0152531D01*
X0481445Y0152683D02*
X0487695Y0158933D01*
X0488885Y0159166D01*
X0448595Y0186433D02*
X0441445Y0179283D01*
X0448595Y0186433D02*
X0468945Y0186433D01*
X0490195Y0196433D02*
X0490135Y0200123D01*
D38*
X0490135Y0200123D03*
X0484745Y0197233D03*
X0467695Y0196433D03*
X0467695Y0192233D03*
X0472085Y0189493D03*
X0468945Y0186433D03*
X0486785Y0183313D03*
X0502345Y0200183D03*
D39*
X0153581Y0258776D02*
X0152754Y0259602D01*
X0139439Y0259602D01*
D40*
X0152754Y0259602D02*
X0152754Y0250862D01*
X0181998Y0250862D01*
X0191356Y0260862D02*
X0201809Y0250409D01*
X0211262Y0250409D01*
X0211793Y0250941D01*
X0201809Y0250409D02*
X0201809Y0233185D01*
X0178677Y0210053D01*
X0179661Y0203034D01*
X0191967Y0203657D02*
X0216573Y0203657D01*
X0201809Y0189878D02*
X0201809Y0172161D01*
X0206927Y0167043D01*
X0212085Y0167043D01*
X0211730Y0157398D02*
X0199841Y0157398D01*
X0190589Y0166650D01*
X0182675Y0166650D01*
X0182281Y0166256D01*
X0169329Y0166256D01*
X0160510Y0175075D01*
X0160510Y0176807D01*
X0156560Y0187444D02*
X0144722Y0175606D01*
X0130923Y0175606D01*
X0129014Y0177516D01*
X0129565Y0178067D01*
X0156560Y0187444D02*
X0164071Y0187444D01*
X0128069Y0205665D02*
X0128069Y0212516D01*
X0127990Y0212516D01*
X0127990Y0214484D01*
X0167360Y0214484D01*
X0171297Y0227280D02*
X0181140Y0227280D01*
X0192951Y0239091D01*
X0143738Y0238106D02*
X0143738Y0227287D01*
X0181998Y0260862D02*
X0191356Y0260862D01*
X0182557Y0261421D02*
X0181998Y0260862D01*
X0143246Y0279445D02*
X0232321Y0279445D01*
X0211730Y0157398D02*
X0212085Y0157043D01*
D41*
X0127990Y0160350D03*
X0191967Y0203657D03*
X0216573Y0203657D03*
X0167360Y0214484D03*
X0171297Y0227280D03*
X0192951Y0239091D03*
X0143738Y0238106D03*
D42*
X0143246Y0279445D03*
D43*
X0232321Y0279445D02*
X0232595Y0292933D01*
X0242595Y0292933D01*
X0252595Y0292933D01*
X0262595Y0292933D01*
D44*
X0143738Y0227287D02*
X0139439Y0222988D01*
D45*
X0189014Y0145094D02*
X0193443Y0145094D01*
X0197872Y0140665D01*
X0216573Y0140665D01*
X0719526Y0139918D02*
X0782186Y0139918D01*
X0782186Y0138320D02*
X0719526Y0138320D01*
X0719526Y0136721D02*
X0782186Y0136721D01*
X0782186Y0135123D02*
X0719526Y0135123D01*
X0719526Y0133524D02*
X0782186Y0133524D01*
X0782186Y0131926D02*
X0719526Y0131926D01*
X0719526Y0130327D02*
X0782186Y0130327D01*
X0782186Y0128729D02*
X0719526Y0128729D01*
X0719526Y0127130D02*
X0782186Y0127130D01*
X0782186Y0126233D02*
X0719526Y0126233D01*
X0719526Y0182988D01*
X0782186Y0182988D01*
X0782186Y0126233D01*
X0782186Y0141517D02*
X0719526Y0141517D01*
X0719526Y0143115D02*
X0782186Y0143115D01*
X0782186Y0144714D02*
X0719526Y0144714D01*
X0719526Y0146312D02*
X0782186Y0146312D01*
X0782186Y0147911D02*
X0719526Y0147911D01*
X0719526Y0149509D02*
X0782186Y0149509D01*
X0782186Y0151108D02*
X0719526Y0151108D01*
X0719526Y0152706D02*
X0782186Y0152706D01*
X0782186Y0154305D02*
X0719526Y0154305D01*
X0719526Y0155903D02*
X0782186Y0155903D01*
X0782186Y0157502D02*
X0719526Y0157502D01*
X0719526Y0159100D02*
X0782186Y0159100D01*
X0782186Y0160699D02*
X0719526Y0160699D01*
X0719526Y0162297D02*
X0782186Y0162297D01*
X0782186Y0163896D02*
X0719526Y0163896D01*
X0719526Y0165494D02*
X0782186Y0165494D01*
X0782186Y0167093D02*
X0719526Y0167093D01*
X0719526Y0168691D02*
X0782186Y0168691D01*
X0782186Y0170290D02*
X0719526Y0170290D01*
X0719526Y0171888D02*
X0782186Y0171888D01*
X0782186Y0173487D02*
X0719526Y0173487D01*
X0719526Y0175085D02*
X0782186Y0175085D01*
X0782186Y0176684D02*
X0719526Y0176684D01*
X0719526Y0178282D02*
X0782186Y0178282D01*
X0782186Y0179881D02*
X0719526Y0179881D01*
X0719526Y0181479D02*
X0782186Y0181479D01*
X0782186Y0245980D02*
X0719526Y0245980D01*
X0719526Y0300334D01*
X0782186Y0300334D01*
X0782186Y0245980D01*
X0782186Y0247018D02*
X0719526Y0247018D01*
X0719526Y0248617D02*
X0782186Y0248617D01*
X0782186Y0250215D02*
X0719526Y0250215D01*
X0719526Y0251814D02*
X0782186Y0251814D01*
X0782186Y0253412D02*
X0719526Y0253412D01*
X0719526Y0255011D02*
X0782186Y0255011D01*
X0782186Y0256610D02*
X0719526Y0256610D01*
X0719526Y0258208D02*
X0782186Y0258208D01*
X0782186Y0259807D02*
X0719526Y0259807D01*
X0719526Y0261405D02*
X0782186Y0261405D01*
X0782186Y0263004D02*
X0719526Y0263004D01*
X0719526Y0264602D02*
X0782186Y0264602D01*
X0782186Y0266201D02*
X0719526Y0266201D01*
X0719526Y0267799D02*
X0782186Y0267799D01*
X0782186Y0269398D02*
X0719526Y0269398D01*
X0719526Y0270996D02*
X0782186Y0270996D01*
X0782186Y0272595D02*
X0719526Y0272595D01*
X0719526Y0274193D02*
X0782186Y0274193D01*
X0782186Y0275792D02*
X0719526Y0275792D01*
X0719526Y0277390D02*
X0782186Y0277390D01*
X0782186Y0278989D02*
X0719526Y0278989D01*
X0719526Y0280587D02*
X0782186Y0280587D01*
X0782186Y0282186D02*
X0719526Y0282186D01*
X0719526Y0283784D02*
X0782186Y0283784D01*
X0782186Y0285383D02*
X0719526Y0285383D01*
X0719526Y0286981D02*
X0782186Y0286981D01*
X0782186Y0288580D02*
X0719526Y0288580D01*
X0719526Y0290178D02*
X0782186Y0290178D01*
X0782186Y0291777D02*
X0719526Y0291777D01*
X0719526Y0293375D02*
X0782186Y0293375D01*
X0782186Y0294974D02*
X0719526Y0294974D01*
X0719526Y0296572D02*
X0782186Y0296572D01*
X0782186Y0298171D02*
X0719526Y0298171D01*
X0719526Y0299769D02*
X0782186Y0299769D01*
D46*
X0752894Y0282389D03*
X0750394Y0282389D03*
X0750394Y0279889D03*
X0750394Y0277389D03*
X0750394Y0274889D03*
X0750394Y0272389D03*
X0750394Y0269889D03*
X0750394Y0267389D03*
X0750394Y0264889D03*
X0752894Y0264889D03*
X0752894Y0267389D03*
X0752894Y0269889D03*
X0752894Y0272389D03*
X0752894Y0274889D03*
X0752894Y0277389D03*
X0752894Y0279889D03*
X0751789Y0163165D03*
X0751730Y0160665D03*
X0751730Y0158165D03*
X0751730Y0155665D03*
X0751730Y0153165D03*
X0751730Y0150665D03*
X0751730Y0148165D03*
X0751730Y0145665D03*
X0749230Y0145665D03*
X0749230Y0148165D03*
X0749230Y0150665D03*
X0749230Y0153165D03*
X0749230Y0155665D03*
X0749230Y0158165D03*
X0749230Y0160665D03*
X0749230Y0163165D03*
M02*
