G75*
%MOIN*%
%OFA0B0*%
%FSLAX25Y25*%
%IPPOS*%
%LPD*%
%AMOC8*
5,1,8,0,0,1.08239X$1,22.5*
%
%ADD10C,0.00600*%
%ADD11C,0.01000*%
%ADD12C,0.01200*%
%ADD13C,0.02000*%
%ADD14R,0.03000X0.42000*%
%ADD15R,0.02000X0.07500*%
%ADD16R,0.02000X0.03000*%
%ADD17R,0.06000X0.06000*%
%ADD18C,0.00300*%
%ADD19C,0.00500*%
%ADD20C,0.00800*%
%ADD21C,0.00700*%
%ADD22R,0.07500X0.05000*%
%ADD23R,0.07000X0.03000*%
%ADD24R,0.03000X0.05000*%
%ADD25C,0.00200*%
%ADD26C,0.00400*%
D10*
X0167557Y0125823D02*
X0176557Y0125823D01*
X0177557Y0126823D01*
X0178557Y0125823D01*
X0186557Y0125823D01*
X0187557Y0126823D01*
X0188557Y0125823D01*
X0196557Y0125823D01*
X0197557Y0126823D01*
X0198557Y0125823D01*
X0206557Y0125823D01*
X0207557Y0126823D01*
X0208557Y0125823D01*
X0216557Y0125823D01*
X0217557Y0126823D01*
X0218557Y0125823D01*
X0226557Y0125823D01*
X0227557Y0126823D01*
X0228557Y0125823D01*
X0236557Y0125823D01*
X0237557Y0126823D01*
X0238557Y0125823D01*
X0246557Y0125823D01*
X0247557Y0126823D01*
X0248557Y0125823D01*
X0256557Y0125823D01*
X0257557Y0126823D01*
X0258557Y0125823D01*
X0267557Y0125823D01*
X0267557Y0135823D01*
X0258557Y0135823D01*
X0257557Y0134823D01*
X0256557Y0135823D01*
X0248557Y0135823D01*
X0247557Y0134823D01*
X0246557Y0135823D01*
X0238557Y0135823D01*
X0237557Y0134823D01*
X0236557Y0135823D01*
X0228557Y0135823D01*
X0227557Y0134823D01*
X0226557Y0135823D01*
X0218557Y0135823D01*
X0217557Y0134823D01*
X0216557Y0135823D01*
X0208557Y0135823D01*
X0207557Y0134823D01*
X0206557Y0135823D01*
X0198557Y0135823D01*
X0197557Y0134823D01*
X0196557Y0135823D01*
X0188557Y0135823D01*
X0187557Y0134823D01*
X0186557Y0135823D01*
X0178557Y0135823D01*
X0177557Y0134823D01*
X0176557Y0135823D01*
X0167557Y0135823D01*
X0167557Y0125823D01*
X0182675Y0137650D02*
X0182631Y0137652D01*
X0182588Y0137658D01*
X0182546Y0137667D01*
X0182504Y0137680D01*
X0182464Y0137697D01*
X0182425Y0137717D01*
X0182388Y0137740D01*
X0182354Y0137767D01*
X0182321Y0137796D01*
X0182292Y0137829D01*
X0182265Y0137863D01*
X0182242Y0137900D01*
X0182222Y0137939D01*
X0182205Y0137979D01*
X0182192Y0138021D01*
X0182183Y0138063D01*
X0182177Y0138106D01*
X0182175Y0138150D01*
X0182177Y0138194D01*
X0182183Y0138237D01*
X0182192Y0138279D01*
X0182205Y0138321D01*
X0182222Y0138361D01*
X0182242Y0138400D01*
X0182265Y0138437D01*
X0182292Y0138471D01*
X0182321Y0138504D01*
X0182354Y0138533D01*
X0182388Y0138560D01*
X0182425Y0138583D01*
X0182464Y0138603D01*
X0182504Y0138620D01*
X0182546Y0138633D01*
X0182588Y0138642D01*
X0182631Y0138648D01*
X0182675Y0138650D01*
X0182719Y0138648D01*
X0182762Y0138642D01*
X0182804Y0138633D01*
X0182846Y0138620D01*
X0182886Y0138603D01*
X0182925Y0138583D01*
X0182962Y0138560D01*
X0182996Y0138533D01*
X0183029Y0138504D01*
X0183058Y0138471D01*
X0183085Y0138437D01*
X0183108Y0138400D01*
X0183128Y0138361D01*
X0183145Y0138321D01*
X0183158Y0138279D01*
X0183167Y0138237D01*
X0183173Y0138194D01*
X0183175Y0138150D01*
X0183173Y0138106D01*
X0183167Y0138063D01*
X0183158Y0138021D01*
X0183145Y0137979D01*
X0183128Y0137939D01*
X0183108Y0137900D01*
X0183085Y0137863D01*
X0183058Y0137829D01*
X0183029Y0137796D01*
X0182996Y0137767D01*
X0182962Y0137740D01*
X0182925Y0137717D01*
X0182886Y0137697D01*
X0182846Y0137680D01*
X0182804Y0137667D01*
X0182762Y0137658D01*
X0182719Y0137652D01*
X0182675Y0137650D01*
X0173475Y0145650D02*
X0191875Y0145650D01*
X0191875Y0187650D01*
X0173475Y0187650D01*
X0173475Y0145650D01*
X0202885Y0146043D02*
X0221285Y0146043D01*
X0221285Y0188043D01*
X0202885Y0188043D01*
X0202885Y0146043D01*
X0233081Y0139988D02*
X0244581Y0140488D01*
X0245581Y0141488D01*
X0245581Y0178488D01*
X0244581Y0179488D01*
X0233081Y0179988D01*
X0247467Y0179020D02*
X0247467Y0163020D01*
X0247469Y0162960D01*
X0247474Y0162899D01*
X0247483Y0162840D01*
X0247496Y0162781D01*
X0247512Y0162722D01*
X0247532Y0162665D01*
X0247555Y0162610D01*
X0247582Y0162555D01*
X0247611Y0162503D01*
X0247644Y0162452D01*
X0247680Y0162403D01*
X0247718Y0162357D01*
X0247760Y0162313D01*
X0247804Y0162271D01*
X0247850Y0162233D01*
X0247899Y0162197D01*
X0247950Y0162164D01*
X0248002Y0162135D01*
X0248057Y0162108D01*
X0248112Y0162085D01*
X0248169Y0162065D01*
X0248228Y0162049D01*
X0248287Y0162036D01*
X0248346Y0162027D01*
X0248407Y0162022D01*
X0248467Y0162020D01*
X0265467Y0162020D01*
X0265527Y0162022D01*
X0265588Y0162027D01*
X0265647Y0162036D01*
X0265706Y0162049D01*
X0265765Y0162065D01*
X0265822Y0162085D01*
X0265877Y0162108D01*
X0265932Y0162135D01*
X0265984Y0162164D01*
X0266035Y0162197D01*
X0266084Y0162233D01*
X0266130Y0162271D01*
X0266174Y0162313D01*
X0266216Y0162357D01*
X0266254Y0162403D01*
X0266290Y0162452D01*
X0266323Y0162503D01*
X0266352Y0162555D01*
X0266379Y0162610D01*
X0266402Y0162665D01*
X0266422Y0162722D01*
X0266438Y0162781D01*
X0266451Y0162840D01*
X0266460Y0162899D01*
X0266465Y0162960D01*
X0266467Y0163020D01*
X0266467Y0179020D01*
X0266465Y0179080D01*
X0266460Y0179141D01*
X0266451Y0179200D01*
X0266438Y0179259D01*
X0266422Y0179318D01*
X0266402Y0179375D01*
X0266379Y0179430D01*
X0266352Y0179485D01*
X0266323Y0179537D01*
X0266290Y0179588D01*
X0266254Y0179637D01*
X0266216Y0179683D01*
X0266174Y0179727D01*
X0266130Y0179769D01*
X0266084Y0179807D01*
X0266035Y0179843D01*
X0265984Y0179876D01*
X0265932Y0179905D01*
X0265877Y0179932D01*
X0265822Y0179955D01*
X0265765Y0179975D01*
X0265706Y0179991D01*
X0265647Y0180004D01*
X0265588Y0180013D01*
X0265527Y0180018D01*
X0265467Y0180020D01*
X0248467Y0180020D01*
X0248407Y0180018D01*
X0248346Y0180013D01*
X0248287Y0180004D01*
X0248228Y0179991D01*
X0248169Y0179975D01*
X0248112Y0179955D01*
X0248057Y0179932D01*
X0248002Y0179905D01*
X0247950Y0179876D01*
X0247899Y0179843D01*
X0247850Y0179807D01*
X0247804Y0179769D01*
X0247760Y0179727D01*
X0247718Y0179683D01*
X0247680Y0179637D01*
X0247644Y0179588D01*
X0247611Y0179537D01*
X0247582Y0179485D01*
X0247555Y0179430D01*
X0247532Y0179375D01*
X0247512Y0179318D01*
X0247496Y0179259D01*
X0247483Y0179200D01*
X0247474Y0179141D01*
X0247469Y0179080D01*
X0247467Y0179020D01*
X0255467Y0171020D02*
X0255967Y0171020D01*
X0257967Y0171020D02*
X0258467Y0171020D01*
X0265467Y0158681D02*
X0248467Y0158681D01*
X0248407Y0158679D01*
X0248346Y0158674D01*
X0248287Y0158665D01*
X0248228Y0158652D01*
X0248169Y0158636D01*
X0248112Y0158616D01*
X0248057Y0158593D01*
X0248002Y0158566D01*
X0247950Y0158537D01*
X0247899Y0158504D01*
X0247850Y0158468D01*
X0247804Y0158430D01*
X0247760Y0158388D01*
X0247718Y0158344D01*
X0247680Y0158298D01*
X0247644Y0158249D01*
X0247611Y0158198D01*
X0247582Y0158146D01*
X0247555Y0158091D01*
X0247532Y0158036D01*
X0247512Y0157979D01*
X0247496Y0157920D01*
X0247483Y0157861D01*
X0247474Y0157802D01*
X0247469Y0157741D01*
X0247467Y0157681D01*
X0247467Y0141681D01*
X0247469Y0141621D01*
X0247474Y0141560D01*
X0247483Y0141501D01*
X0247496Y0141442D01*
X0247512Y0141383D01*
X0247532Y0141326D01*
X0247555Y0141271D01*
X0247582Y0141216D01*
X0247611Y0141164D01*
X0247644Y0141113D01*
X0247680Y0141064D01*
X0247718Y0141018D01*
X0247760Y0140974D01*
X0247804Y0140932D01*
X0247850Y0140894D01*
X0247899Y0140858D01*
X0247950Y0140825D01*
X0248002Y0140796D01*
X0248057Y0140769D01*
X0248112Y0140746D01*
X0248169Y0140726D01*
X0248228Y0140710D01*
X0248287Y0140697D01*
X0248346Y0140688D01*
X0248407Y0140683D01*
X0248467Y0140681D01*
X0265467Y0140681D01*
X0265527Y0140683D01*
X0265588Y0140688D01*
X0265647Y0140697D01*
X0265706Y0140710D01*
X0265765Y0140726D01*
X0265822Y0140746D01*
X0265877Y0140769D01*
X0265932Y0140796D01*
X0265984Y0140825D01*
X0266035Y0140858D01*
X0266084Y0140894D01*
X0266130Y0140932D01*
X0266174Y0140974D01*
X0266216Y0141018D01*
X0266254Y0141064D01*
X0266290Y0141113D01*
X0266323Y0141164D01*
X0266352Y0141216D01*
X0266379Y0141271D01*
X0266402Y0141326D01*
X0266422Y0141383D01*
X0266438Y0141442D01*
X0266451Y0141501D01*
X0266460Y0141560D01*
X0266465Y0141621D01*
X0266467Y0141681D01*
X0266467Y0157681D01*
X0266465Y0157741D01*
X0266460Y0157802D01*
X0266451Y0157861D01*
X0266438Y0157920D01*
X0266422Y0157979D01*
X0266402Y0158036D01*
X0266379Y0158091D01*
X0266352Y0158146D01*
X0266323Y0158198D01*
X0266290Y0158249D01*
X0266254Y0158298D01*
X0266216Y0158344D01*
X0266174Y0158388D01*
X0266130Y0158430D01*
X0266084Y0158468D01*
X0266035Y0158504D01*
X0265984Y0158537D01*
X0265932Y0158566D01*
X0265877Y0158593D01*
X0265822Y0158616D01*
X0265765Y0158636D01*
X0265706Y0158652D01*
X0265647Y0158665D01*
X0265588Y0158674D01*
X0265527Y0158679D01*
X0265467Y0158681D01*
X0258467Y0149681D02*
X0257967Y0149681D01*
X0255967Y0149681D02*
X0255467Y0149681D01*
X0323069Y0136807D02*
X0323069Y0126807D01*
X0332069Y0126807D01*
X0333069Y0127807D01*
X0334069Y0126807D01*
X0342069Y0126807D01*
X0343069Y0127807D01*
X0344069Y0126807D01*
X0352069Y0126807D01*
X0353069Y0127807D01*
X0354069Y0126807D01*
X0362069Y0126807D01*
X0363069Y0127807D01*
X0364069Y0126807D01*
X0372069Y0126807D01*
X0373069Y0127807D01*
X0374069Y0126807D01*
X0382069Y0126807D01*
X0383069Y0127807D01*
X0384069Y0126807D01*
X0392069Y0126807D01*
X0393069Y0127807D01*
X0394069Y0126807D01*
X0402069Y0126807D01*
X0403069Y0127807D01*
X0404069Y0126807D01*
X0412069Y0126807D01*
X0413069Y0127807D01*
X0414069Y0126807D01*
X0423069Y0126807D01*
X0423069Y0136807D01*
X0414069Y0136807D01*
X0413069Y0135807D01*
X0412069Y0136807D01*
X0404069Y0136807D01*
X0403069Y0135807D01*
X0402069Y0136807D01*
X0394069Y0136807D01*
X0393069Y0135807D01*
X0392069Y0136807D01*
X0384069Y0136807D01*
X0383069Y0135807D01*
X0382069Y0136807D01*
X0374069Y0136807D01*
X0373069Y0135807D01*
X0372069Y0136807D01*
X0364069Y0136807D01*
X0363069Y0135807D01*
X0362069Y0136807D01*
X0354069Y0136807D01*
X0353069Y0135807D01*
X0352069Y0136807D01*
X0344069Y0136807D01*
X0343069Y0135807D01*
X0342069Y0136807D01*
X0334069Y0136807D01*
X0333069Y0135807D01*
X0332069Y0136807D01*
X0323069Y0136807D01*
X0393935Y0154366D02*
X0402935Y0154366D01*
X0403935Y0155366D01*
X0404935Y0154366D01*
X0412935Y0154366D01*
X0413935Y0155366D01*
X0414935Y0154366D01*
X0422935Y0154366D01*
X0423935Y0155366D01*
X0424935Y0154366D01*
X0432935Y0154366D01*
X0433935Y0155366D01*
X0434935Y0154366D01*
X0442935Y0154366D01*
X0443935Y0155366D01*
X0444935Y0154366D01*
X0452935Y0154366D01*
X0453935Y0155366D01*
X0454935Y0154366D01*
X0462935Y0154366D01*
X0463935Y0155366D01*
X0464935Y0154366D01*
X0472935Y0154366D01*
X0473935Y0155366D01*
X0474935Y0154366D01*
X0482935Y0154366D01*
X0483935Y0155366D01*
X0484935Y0154366D01*
X0493935Y0154366D01*
X0493935Y0164366D01*
X0484935Y0164366D01*
X0483935Y0163366D01*
X0482935Y0164366D01*
X0474935Y0164366D01*
X0473935Y0163366D01*
X0472935Y0164366D01*
X0464935Y0164366D01*
X0463935Y0163366D01*
X0462935Y0164366D01*
X0454935Y0164366D01*
X0453935Y0163366D01*
X0452935Y0164366D01*
X0444935Y0164366D01*
X0443935Y0163366D01*
X0442935Y0164366D01*
X0434935Y0164366D01*
X0433935Y0163366D01*
X0432935Y0164366D01*
X0424935Y0164366D01*
X0423935Y0163366D01*
X0422935Y0164366D01*
X0414935Y0164366D01*
X0413935Y0163366D01*
X0412935Y0164366D01*
X0404935Y0164366D01*
X0403935Y0163366D01*
X0402935Y0164366D01*
X0393935Y0164366D01*
X0393935Y0154366D01*
X0493738Y0136807D02*
X0493738Y0126807D01*
X0502738Y0126807D01*
X0503738Y0127807D01*
X0504738Y0126807D01*
X0512738Y0126807D01*
X0513738Y0127807D01*
X0514738Y0126807D01*
X0522738Y0126807D01*
X0523738Y0127807D01*
X0524738Y0126807D01*
X0532738Y0126807D01*
X0533738Y0127807D01*
X0533738Y0135807D02*
X0532738Y0136807D01*
X0524738Y0136807D01*
X0523738Y0135807D01*
X0522738Y0136807D01*
X0514738Y0136807D01*
X0513738Y0135807D01*
X0512738Y0136807D01*
X0504738Y0136807D01*
X0503738Y0135807D01*
X0502738Y0136807D01*
X0493738Y0136807D01*
X0497872Y0156390D02*
X0506872Y0156390D01*
X0507872Y0157390D01*
X0508872Y0156390D01*
X0516872Y0156390D01*
X0517872Y0157390D01*
X0518872Y0156390D01*
X0526872Y0156390D01*
X0527872Y0157390D01*
X0528872Y0156390D01*
X0536872Y0156390D01*
X0537872Y0157390D01*
X0538872Y0156390D01*
X0547872Y0156390D01*
X0547872Y0166390D01*
X0538872Y0166390D01*
X0537872Y0165390D01*
X0536872Y0166390D01*
X0528872Y0166390D01*
X0527872Y0165390D01*
X0526872Y0166390D01*
X0518872Y0166390D01*
X0517872Y0165390D01*
X0516872Y0166390D01*
X0508872Y0166390D01*
X0507872Y0165390D01*
X0506872Y0166390D01*
X0497872Y0166390D01*
X0497872Y0156390D01*
X0529648Y0171709D02*
X0529648Y0176709D01*
X0529650Y0176796D01*
X0529656Y0176883D01*
X0529665Y0176970D01*
X0529678Y0177056D01*
X0529695Y0177142D01*
X0529716Y0177227D01*
X0529741Y0177310D01*
X0529769Y0177393D01*
X0529800Y0177474D01*
X0529835Y0177554D01*
X0529874Y0177632D01*
X0529916Y0177709D01*
X0529961Y0177784D01*
X0530010Y0177856D01*
X0530061Y0177927D01*
X0530116Y0177995D01*
X0530173Y0178060D01*
X0530234Y0178123D01*
X0530297Y0178184D01*
X0530362Y0178241D01*
X0530430Y0178296D01*
X0530501Y0178347D01*
X0530573Y0178396D01*
X0530648Y0178441D01*
X0530725Y0178483D01*
X0530803Y0178522D01*
X0530883Y0178557D01*
X0530964Y0178588D01*
X0531047Y0178616D01*
X0531130Y0178641D01*
X0531215Y0178662D01*
X0531301Y0178679D01*
X0531387Y0178692D01*
X0531474Y0178701D01*
X0531561Y0178707D01*
X0531648Y0178709D01*
X0544648Y0178709D01*
X0544735Y0178707D01*
X0544822Y0178701D01*
X0544909Y0178692D01*
X0544995Y0178679D01*
X0545081Y0178662D01*
X0545166Y0178641D01*
X0545249Y0178616D01*
X0545332Y0178588D01*
X0545413Y0178557D01*
X0545493Y0178522D01*
X0545571Y0178483D01*
X0545648Y0178441D01*
X0545723Y0178396D01*
X0545795Y0178347D01*
X0545866Y0178296D01*
X0545934Y0178241D01*
X0545999Y0178184D01*
X0546062Y0178123D01*
X0546123Y0178060D01*
X0546180Y0177995D01*
X0546235Y0177927D01*
X0546286Y0177856D01*
X0546335Y0177784D01*
X0546380Y0177709D01*
X0546422Y0177632D01*
X0546461Y0177554D01*
X0546496Y0177474D01*
X0546527Y0177393D01*
X0546555Y0177310D01*
X0546580Y0177227D01*
X0546601Y0177142D01*
X0546618Y0177056D01*
X0546631Y0176970D01*
X0546640Y0176883D01*
X0546646Y0176796D01*
X0546648Y0176709D01*
X0546648Y0171709D01*
X0546646Y0171622D01*
X0546640Y0171535D01*
X0546631Y0171448D01*
X0546618Y0171362D01*
X0546601Y0171276D01*
X0546580Y0171191D01*
X0546555Y0171108D01*
X0546527Y0171025D01*
X0546496Y0170944D01*
X0546461Y0170864D01*
X0546422Y0170786D01*
X0546380Y0170709D01*
X0546335Y0170634D01*
X0546286Y0170562D01*
X0546235Y0170491D01*
X0546180Y0170423D01*
X0546123Y0170358D01*
X0546062Y0170295D01*
X0545999Y0170234D01*
X0545934Y0170177D01*
X0545866Y0170122D01*
X0545795Y0170071D01*
X0545723Y0170022D01*
X0545648Y0169977D01*
X0545571Y0169935D01*
X0545493Y0169896D01*
X0545413Y0169861D01*
X0545332Y0169830D01*
X0545249Y0169802D01*
X0545166Y0169777D01*
X0545081Y0169756D01*
X0544995Y0169739D01*
X0544909Y0169726D01*
X0544822Y0169717D01*
X0544735Y0169711D01*
X0544648Y0169709D01*
X0531648Y0169709D01*
X0531561Y0169711D01*
X0531474Y0169717D01*
X0531387Y0169726D01*
X0531301Y0169739D01*
X0531215Y0169756D01*
X0531130Y0169777D01*
X0531047Y0169802D01*
X0530964Y0169830D01*
X0530883Y0169861D01*
X0530803Y0169896D01*
X0530725Y0169935D01*
X0530648Y0169977D01*
X0530573Y0170022D01*
X0530501Y0170071D01*
X0530430Y0170122D01*
X0530362Y0170177D01*
X0530297Y0170234D01*
X0530234Y0170295D01*
X0530173Y0170358D01*
X0530116Y0170423D01*
X0530061Y0170491D01*
X0530010Y0170562D01*
X0529961Y0170634D01*
X0529916Y0170709D01*
X0529874Y0170786D01*
X0529835Y0170864D01*
X0529800Y0170944D01*
X0529769Y0171025D01*
X0529741Y0171108D01*
X0529716Y0171191D01*
X0529695Y0171276D01*
X0529678Y0171362D01*
X0529665Y0171448D01*
X0529656Y0171535D01*
X0529650Y0171622D01*
X0529648Y0171709D01*
X0553667Y0166138D02*
X0562667Y0166138D01*
X0563667Y0165138D01*
X0564667Y0166138D01*
X0572667Y0166138D01*
X0573667Y0165138D01*
X0574667Y0166138D01*
X0582667Y0166138D01*
X0583667Y0165138D01*
X0584667Y0166138D01*
X0592667Y0166138D01*
X0593667Y0165138D01*
X0594667Y0166138D01*
X0603667Y0166138D01*
X0603667Y0156138D01*
X0594667Y0156138D01*
X0593667Y0157138D01*
X0592667Y0156138D01*
X0584667Y0156138D01*
X0583667Y0157138D01*
X0582667Y0156138D01*
X0574667Y0156138D01*
X0573667Y0157138D01*
X0572667Y0156138D01*
X0564667Y0156138D01*
X0563667Y0157138D01*
X0562667Y0156138D01*
X0553667Y0156138D01*
X0553667Y0166138D01*
X0572989Y0170134D02*
X0598189Y0170134D01*
X0598189Y0235134D01*
X0572989Y0235134D01*
X0572989Y0170134D01*
X0577589Y0174634D02*
X0593589Y0174634D01*
X0593589Y0180634D01*
X0577589Y0180634D01*
X0577589Y0174634D01*
X0577589Y0184634D02*
X0593589Y0184634D01*
X0593589Y0190634D01*
X0577589Y0190634D01*
X0577589Y0184634D01*
X0577589Y0194634D02*
X0593589Y0194634D01*
X0593589Y0200634D01*
X0577589Y0200634D01*
X0577589Y0194634D01*
X0577589Y0204634D02*
X0593589Y0204634D01*
X0593589Y0210634D01*
X0577589Y0210634D01*
X0577589Y0204634D01*
X0577589Y0214634D02*
X0593589Y0214634D01*
X0593589Y0220634D01*
X0577589Y0220634D01*
X0577589Y0214634D01*
X0577589Y0224634D02*
X0593589Y0224634D01*
X0593589Y0230634D01*
X0577589Y0230634D01*
X0577589Y0224634D01*
X0577010Y0237681D02*
X0572010Y0237681D01*
X0569510Y0240181D01*
X0567010Y0237681D01*
X0562010Y0237681D01*
X0559510Y0240181D01*
X0557010Y0237681D01*
X0552010Y0237681D01*
X0549510Y0240181D01*
X0549510Y0245181D01*
X0552010Y0247681D01*
X0557010Y0247681D01*
X0559510Y0245181D01*
X0562010Y0247681D01*
X0567010Y0247681D01*
X0569510Y0245181D01*
X0572010Y0247681D01*
X0577010Y0247681D01*
X0579510Y0245181D01*
X0579510Y0240181D01*
X0577010Y0237681D01*
X0582974Y0239866D02*
X0585474Y0237366D01*
X0590474Y0237366D01*
X0592974Y0239866D01*
X0595474Y0237366D01*
X0600474Y0237366D01*
X0602974Y0239866D01*
X0605474Y0237366D01*
X0610474Y0237366D01*
X0612974Y0239866D01*
X0612974Y0244866D01*
X0610474Y0247366D01*
X0605474Y0247366D01*
X0602974Y0244866D01*
X0600474Y0247366D01*
X0595474Y0247366D01*
X0592974Y0244866D01*
X0590474Y0247366D01*
X0585474Y0247366D01*
X0582974Y0244866D01*
X0582974Y0239866D01*
X0585474Y0254453D02*
X0590474Y0254453D01*
X0592974Y0256953D01*
X0595474Y0254453D01*
X0600474Y0254453D01*
X0602974Y0256953D01*
X0605474Y0254453D01*
X0610474Y0254453D01*
X0612974Y0256953D01*
X0612974Y0261953D01*
X0610474Y0264453D01*
X0605474Y0264453D01*
X0602974Y0261953D01*
X0600474Y0264453D01*
X0595474Y0264453D01*
X0592974Y0261953D01*
X0590474Y0264453D01*
X0585474Y0264453D01*
X0582974Y0261953D01*
X0582974Y0256953D01*
X0585474Y0254453D01*
X0580297Y0256874D02*
X0580297Y0261874D01*
X0577797Y0264374D01*
X0572797Y0264374D01*
X0570297Y0261874D01*
X0567797Y0264374D01*
X0562797Y0264374D01*
X0560297Y0261874D01*
X0557797Y0264374D01*
X0552797Y0264374D01*
X0550297Y0261874D01*
X0550297Y0256874D01*
X0552797Y0254374D01*
X0557797Y0254374D01*
X0560297Y0256874D01*
X0562797Y0254374D01*
X0567797Y0254374D01*
X0570297Y0256874D01*
X0572797Y0254374D01*
X0577797Y0254374D01*
X0580297Y0256874D01*
X0585600Y0275335D02*
X0583100Y0277835D01*
X0583100Y0282835D01*
X0585600Y0285335D01*
X0590600Y0285335D01*
X0593100Y0282835D01*
X0595600Y0285335D01*
X0600600Y0285335D01*
X0603100Y0282835D01*
X0605600Y0285335D01*
X0610600Y0285335D01*
X0613100Y0282835D01*
X0613100Y0277835D01*
X0610600Y0275335D01*
X0605600Y0275335D01*
X0603100Y0277835D01*
X0600600Y0275335D01*
X0595600Y0275335D01*
X0593100Y0277835D01*
X0590600Y0275335D01*
X0585600Y0275335D01*
X0579211Y0281610D02*
X0578211Y0280610D01*
X0570211Y0280610D01*
X0569211Y0281610D01*
X0568211Y0280610D01*
X0560211Y0280610D01*
X0559211Y0281610D01*
X0558211Y0280610D01*
X0550211Y0280610D01*
X0549211Y0281610D01*
X0548211Y0280610D01*
X0539211Y0280610D01*
X0539211Y0290610D01*
X0548211Y0290610D01*
X0549211Y0289610D01*
X0550211Y0290610D01*
X0558211Y0290610D01*
X0559211Y0289610D01*
X0560211Y0290610D01*
X0568211Y0290610D01*
X0569211Y0289610D01*
X0570211Y0290610D01*
X0578211Y0290610D01*
X0579211Y0289610D01*
X0533738Y0289224D02*
X0532738Y0288224D01*
X0524738Y0288224D01*
X0523738Y0289224D01*
X0522738Y0288224D01*
X0514738Y0288224D01*
X0513738Y0289224D01*
X0512738Y0288224D01*
X0504738Y0288224D01*
X0503738Y0289224D01*
X0502738Y0288224D01*
X0493738Y0288224D01*
X0493738Y0298224D01*
X0502738Y0298224D01*
X0503738Y0297224D01*
X0504738Y0298224D01*
X0512738Y0298224D01*
X0513738Y0297224D01*
X0514738Y0298224D01*
X0522738Y0298224D01*
X0523738Y0297224D01*
X0524738Y0298224D01*
X0532738Y0298224D01*
X0533738Y0297224D01*
X0522203Y0255902D02*
X0513203Y0255902D01*
X0512203Y0254902D01*
X0511203Y0255902D01*
X0503203Y0255902D01*
X0502203Y0254902D01*
X0501203Y0255902D01*
X0493203Y0255902D01*
X0492203Y0254902D01*
X0491203Y0255902D01*
X0483203Y0255902D01*
X0482203Y0254902D01*
X0481203Y0255902D01*
X0473203Y0255902D01*
X0472203Y0254902D01*
X0471203Y0255902D01*
X0463203Y0255902D01*
X0462203Y0254902D01*
X0461203Y0255902D01*
X0453203Y0255902D01*
X0452203Y0254902D01*
X0451203Y0255902D01*
X0443203Y0255902D01*
X0442203Y0254902D01*
X0441203Y0255902D01*
X0432203Y0255902D01*
X0432203Y0245902D01*
X0441203Y0245902D01*
X0442203Y0246902D01*
X0443203Y0245902D01*
X0451203Y0245902D01*
X0452203Y0246902D01*
X0453203Y0245902D01*
X0461203Y0245902D01*
X0462203Y0246902D01*
X0463203Y0245902D01*
X0471203Y0245902D01*
X0472203Y0246902D01*
X0473203Y0245902D01*
X0481203Y0245902D01*
X0482203Y0246902D01*
X0483203Y0245902D01*
X0491203Y0245902D01*
X0492203Y0246902D01*
X0493203Y0245902D01*
X0501203Y0245902D01*
X0502203Y0246902D01*
X0503203Y0245902D01*
X0511203Y0245902D01*
X0512203Y0246902D01*
X0513203Y0245902D01*
X0522203Y0245902D01*
X0522203Y0255902D01*
X0525234Y0247043D02*
X0534234Y0247043D01*
X0535234Y0246043D01*
X0536234Y0247043D01*
X0544234Y0247043D01*
X0545234Y0246043D01*
X0545234Y0238043D02*
X0544234Y0237043D01*
X0536234Y0237043D01*
X0535234Y0238043D01*
X0534234Y0237043D01*
X0525234Y0237043D01*
X0525234Y0247043D01*
X0526589Y0235165D02*
X0539589Y0235165D01*
X0539676Y0235163D01*
X0539763Y0235157D01*
X0539850Y0235148D01*
X0539936Y0235135D01*
X0540022Y0235118D01*
X0540107Y0235097D01*
X0540190Y0235072D01*
X0540273Y0235044D01*
X0540354Y0235013D01*
X0540434Y0234978D01*
X0540512Y0234939D01*
X0540589Y0234897D01*
X0540664Y0234852D01*
X0540736Y0234803D01*
X0540807Y0234752D01*
X0540875Y0234697D01*
X0540940Y0234640D01*
X0541003Y0234579D01*
X0541064Y0234516D01*
X0541121Y0234451D01*
X0541176Y0234383D01*
X0541227Y0234312D01*
X0541276Y0234240D01*
X0541321Y0234165D01*
X0541363Y0234088D01*
X0541402Y0234010D01*
X0541437Y0233930D01*
X0541468Y0233849D01*
X0541496Y0233766D01*
X0541521Y0233683D01*
X0541542Y0233598D01*
X0541559Y0233512D01*
X0541572Y0233426D01*
X0541581Y0233339D01*
X0541587Y0233252D01*
X0541589Y0233165D01*
X0541589Y0228165D01*
X0541587Y0228078D01*
X0541581Y0227991D01*
X0541572Y0227904D01*
X0541559Y0227818D01*
X0541542Y0227732D01*
X0541521Y0227647D01*
X0541496Y0227564D01*
X0541468Y0227481D01*
X0541437Y0227400D01*
X0541402Y0227320D01*
X0541363Y0227242D01*
X0541321Y0227165D01*
X0541276Y0227090D01*
X0541227Y0227018D01*
X0541176Y0226947D01*
X0541121Y0226879D01*
X0541064Y0226814D01*
X0541003Y0226751D01*
X0540940Y0226690D01*
X0540875Y0226633D01*
X0540807Y0226578D01*
X0540736Y0226527D01*
X0540664Y0226478D01*
X0540589Y0226433D01*
X0540512Y0226391D01*
X0540434Y0226352D01*
X0540354Y0226317D01*
X0540273Y0226286D01*
X0540190Y0226258D01*
X0540107Y0226233D01*
X0540022Y0226212D01*
X0539936Y0226195D01*
X0539850Y0226182D01*
X0539763Y0226173D01*
X0539676Y0226167D01*
X0539589Y0226165D01*
X0526589Y0226165D01*
X0526502Y0226167D01*
X0526415Y0226173D01*
X0526328Y0226182D01*
X0526242Y0226195D01*
X0526156Y0226212D01*
X0526071Y0226233D01*
X0525988Y0226258D01*
X0525905Y0226286D01*
X0525824Y0226317D01*
X0525744Y0226352D01*
X0525666Y0226391D01*
X0525589Y0226433D01*
X0525514Y0226478D01*
X0525442Y0226527D01*
X0525371Y0226578D01*
X0525303Y0226633D01*
X0525238Y0226690D01*
X0525175Y0226751D01*
X0525114Y0226814D01*
X0525057Y0226879D01*
X0525002Y0226947D01*
X0524951Y0227018D01*
X0524902Y0227090D01*
X0524857Y0227165D01*
X0524815Y0227242D01*
X0524776Y0227320D01*
X0524741Y0227400D01*
X0524710Y0227481D01*
X0524682Y0227564D01*
X0524657Y0227647D01*
X0524636Y0227732D01*
X0524619Y0227818D01*
X0524606Y0227904D01*
X0524597Y0227991D01*
X0524591Y0228078D01*
X0524589Y0228165D01*
X0524589Y0233165D01*
X0524591Y0233252D01*
X0524597Y0233339D01*
X0524606Y0233426D01*
X0524619Y0233512D01*
X0524636Y0233598D01*
X0524657Y0233683D01*
X0524682Y0233766D01*
X0524710Y0233849D01*
X0524741Y0233930D01*
X0524776Y0234010D01*
X0524815Y0234088D01*
X0524857Y0234165D01*
X0524902Y0234240D01*
X0524951Y0234312D01*
X0525002Y0234383D01*
X0525057Y0234451D01*
X0525114Y0234516D01*
X0525175Y0234579D01*
X0525238Y0234640D01*
X0525303Y0234697D01*
X0525371Y0234752D01*
X0525442Y0234803D01*
X0525514Y0234852D01*
X0525589Y0234897D01*
X0525666Y0234939D01*
X0525744Y0234978D01*
X0525824Y0235013D01*
X0525905Y0235044D01*
X0525988Y0235072D01*
X0526071Y0235097D01*
X0526156Y0235118D01*
X0526242Y0235135D01*
X0526328Y0235148D01*
X0526415Y0235157D01*
X0526502Y0235163D01*
X0526589Y0235165D01*
X0628360Y0251394D02*
X0628362Y0251438D01*
X0628368Y0251481D01*
X0628377Y0251523D01*
X0628390Y0251565D01*
X0628407Y0251605D01*
X0628427Y0251644D01*
X0628450Y0251681D01*
X0628477Y0251715D01*
X0628506Y0251748D01*
X0628539Y0251777D01*
X0628573Y0251804D01*
X0628610Y0251827D01*
X0628649Y0251847D01*
X0628689Y0251864D01*
X0628731Y0251877D01*
X0628773Y0251886D01*
X0628816Y0251892D01*
X0628860Y0251894D01*
X0628904Y0251892D01*
X0628947Y0251886D01*
X0628989Y0251877D01*
X0629031Y0251864D01*
X0629071Y0251847D01*
X0629110Y0251827D01*
X0629147Y0251804D01*
X0629181Y0251777D01*
X0629214Y0251748D01*
X0629243Y0251715D01*
X0629270Y0251681D01*
X0629293Y0251644D01*
X0629313Y0251605D01*
X0629330Y0251565D01*
X0629343Y0251523D01*
X0629352Y0251481D01*
X0629358Y0251438D01*
X0629360Y0251394D01*
X0629358Y0251350D01*
X0629352Y0251307D01*
X0629343Y0251265D01*
X0629330Y0251223D01*
X0629313Y0251183D01*
X0629293Y0251144D01*
X0629270Y0251107D01*
X0629243Y0251073D01*
X0629214Y0251040D01*
X0629181Y0251011D01*
X0629147Y0250984D01*
X0629110Y0250961D01*
X0629071Y0250941D01*
X0629031Y0250924D01*
X0628989Y0250911D01*
X0628947Y0250902D01*
X0628904Y0250896D01*
X0628860Y0250894D01*
X0628816Y0250896D01*
X0628773Y0250902D01*
X0628731Y0250911D01*
X0628689Y0250924D01*
X0628649Y0250941D01*
X0628610Y0250961D01*
X0628573Y0250984D01*
X0628539Y0251011D01*
X0628506Y0251040D01*
X0628477Y0251073D01*
X0628450Y0251107D01*
X0628427Y0251144D01*
X0628407Y0251183D01*
X0628390Y0251223D01*
X0628377Y0251265D01*
X0628368Y0251307D01*
X0628362Y0251350D01*
X0628360Y0251394D01*
X0636360Y0260594D02*
X0636360Y0242194D01*
X0678360Y0242194D01*
X0678360Y0260594D01*
X0636360Y0260594D01*
X0635963Y0288224D02*
X0644963Y0288224D01*
X0645963Y0289224D01*
X0646963Y0288224D01*
X0654963Y0288224D01*
X0655963Y0289224D01*
X0656963Y0288224D01*
X0664963Y0288224D01*
X0665963Y0289224D01*
X0666963Y0288224D01*
X0674963Y0288224D01*
X0675963Y0289224D01*
X0675963Y0297224D02*
X0674963Y0298224D01*
X0666963Y0298224D01*
X0665963Y0297224D01*
X0664963Y0298224D01*
X0656963Y0298224D01*
X0655963Y0297224D01*
X0654963Y0298224D01*
X0646963Y0298224D01*
X0645963Y0297224D01*
X0644963Y0298224D01*
X0635963Y0298224D01*
X0635963Y0288224D01*
X0690077Y0289224D02*
X0691077Y0288224D01*
X0699077Y0288224D01*
X0700077Y0289224D01*
X0701077Y0288224D01*
X0710077Y0288224D01*
X0710077Y0298224D01*
X0701077Y0298224D01*
X0700077Y0297224D01*
X0699077Y0298224D01*
X0691077Y0298224D01*
X0690077Y0297224D01*
X0726494Y0270650D02*
X0727494Y0271650D01*
X0735494Y0271650D01*
X0736494Y0270650D01*
X0737494Y0271650D01*
X0746494Y0271650D01*
X0746494Y0261650D01*
X0737494Y0261650D01*
X0736494Y0262650D01*
X0735494Y0261650D01*
X0727494Y0261650D01*
X0726494Y0262650D01*
X0663344Y0217008D02*
X0662344Y0218008D01*
X0654344Y0218008D01*
X0653344Y0217008D01*
X0652344Y0218008D01*
X0643344Y0218008D01*
X0643344Y0208008D01*
X0652344Y0208008D01*
X0653344Y0209008D01*
X0654344Y0208008D01*
X0662344Y0208008D01*
X0663344Y0209008D01*
X0678852Y0182346D02*
X0636852Y0182346D01*
X0636852Y0163946D01*
X0678852Y0163946D01*
X0678852Y0182346D01*
X0629852Y0173146D02*
X0629850Y0173190D01*
X0629844Y0173233D01*
X0629835Y0173275D01*
X0629822Y0173317D01*
X0629805Y0173357D01*
X0629785Y0173396D01*
X0629762Y0173433D01*
X0629735Y0173467D01*
X0629706Y0173500D01*
X0629673Y0173529D01*
X0629639Y0173556D01*
X0629602Y0173579D01*
X0629563Y0173599D01*
X0629523Y0173616D01*
X0629481Y0173629D01*
X0629439Y0173638D01*
X0629396Y0173644D01*
X0629352Y0173646D01*
X0629308Y0173644D01*
X0629265Y0173638D01*
X0629223Y0173629D01*
X0629181Y0173616D01*
X0629141Y0173599D01*
X0629102Y0173579D01*
X0629065Y0173556D01*
X0629031Y0173529D01*
X0628998Y0173500D01*
X0628969Y0173467D01*
X0628942Y0173433D01*
X0628919Y0173396D01*
X0628899Y0173357D01*
X0628882Y0173317D01*
X0628869Y0173275D01*
X0628860Y0173233D01*
X0628854Y0173190D01*
X0628852Y0173146D01*
X0628854Y0173102D01*
X0628860Y0173059D01*
X0628869Y0173017D01*
X0628882Y0172975D01*
X0628899Y0172935D01*
X0628919Y0172896D01*
X0628942Y0172859D01*
X0628969Y0172825D01*
X0628998Y0172792D01*
X0629031Y0172763D01*
X0629065Y0172736D01*
X0629102Y0172713D01*
X0629141Y0172693D01*
X0629181Y0172676D01*
X0629223Y0172663D01*
X0629265Y0172654D01*
X0629308Y0172648D01*
X0629352Y0172646D01*
X0629396Y0172648D01*
X0629439Y0172654D01*
X0629481Y0172663D01*
X0629523Y0172676D01*
X0629563Y0172693D01*
X0629602Y0172713D01*
X0629639Y0172736D01*
X0629673Y0172763D01*
X0629706Y0172792D01*
X0629735Y0172825D01*
X0629762Y0172859D01*
X0629785Y0172896D01*
X0629805Y0172935D01*
X0629822Y0172975D01*
X0629835Y0173017D01*
X0629844Y0173059D01*
X0629850Y0173102D01*
X0629852Y0173146D01*
X0622163Y0171429D02*
X0622163Y0180429D01*
X0612163Y0180429D01*
X0612163Y0171429D01*
X0613163Y0170429D01*
X0612163Y0169429D01*
X0612163Y0161429D01*
X0613163Y0160429D01*
X0612163Y0159429D01*
X0612163Y0151429D01*
X0613163Y0150429D01*
X0612163Y0149429D01*
X0612163Y0141429D01*
X0613163Y0140429D01*
X0612163Y0139429D01*
X0612163Y0130429D01*
X0622163Y0130429D01*
X0622163Y0139429D01*
X0621163Y0140429D01*
X0622163Y0141429D01*
X0622163Y0149429D01*
X0621163Y0150429D01*
X0622163Y0151429D01*
X0622163Y0159429D01*
X0621163Y0160429D01*
X0622163Y0161429D01*
X0622163Y0169429D01*
X0621163Y0170429D01*
X0622163Y0171429D01*
X0602793Y0152555D02*
X0593793Y0152555D01*
X0592793Y0151555D01*
X0591793Y0152555D01*
X0583793Y0152555D01*
X0582793Y0151555D01*
X0581793Y0152555D01*
X0573793Y0152555D01*
X0572793Y0151555D01*
X0571793Y0152555D01*
X0563793Y0152555D01*
X0562793Y0151555D01*
X0561793Y0152555D01*
X0552793Y0152555D01*
X0552793Y0142555D01*
X0561793Y0142555D01*
X0562793Y0143555D01*
X0563793Y0142555D01*
X0571793Y0142555D01*
X0572793Y0143555D01*
X0573793Y0142555D01*
X0581793Y0142555D01*
X0582793Y0143555D01*
X0583793Y0142555D01*
X0591793Y0142555D01*
X0592793Y0143555D01*
X0593793Y0142555D01*
X0602793Y0142555D01*
X0602793Y0152555D01*
X0602793Y0140744D02*
X0593793Y0140744D01*
X0592793Y0139744D01*
X0591793Y0140744D01*
X0583793Y0140744D01*
X0582793Y0139744D01*
X0581793Y0140744D01*
X0573793Y0140744D01*
X0572793Y0139744D01*
X0571793Y0140744D01*
X0563793Y0140744D01*
X0562793Y0139744D01*
X0561793Y0140744D01*
X0552793Y0140744D01*
X0552793Y0130744D01*
X0561793Y0130744D01*
X0562793Y0131744D01*
X0563793Y0130744D01*
X0571793Y0130744D01*
X0572793Y0131744D01*
X0573793Y0130744D01*
X0581793Y0130744D01*
X0582793Y0131744D01*
X0583793Y0130744D01*
X0591793Y0130744D01*
X0592793Y0131744D01*
X0593793Y0130744D01*
X0602793Y0130744D01*
X0602793Y0140744D01*
X0635963Y0136807D02*
X0635963Y0126807D01*
X0644963Y0126807D01*
X0645963Y0127807D01*
X0646963Y0126807D01*
X0654963Y0126807D01*
X0655963Y0127807D01*
X0656963Y0126807D01*
X0664963Y0126807D01*
X0665963Y0127807D01*
X0666963Y0126807D01*
X0674963Y0126807D01*
X0675963Y0127807D01*
X0675963Y0135807D02*
X0674963Y0136807D01*
X0666963Y0136807D01*
X0665963Y0135807D01*
X0664963Y0136807D01*
X0656963Y0136807D01*
X0655963Y0135807D01*
X0654963Y0136807D01*
X0646963Y0136807D01*
X0645963Y0135807D01*
X0644963Y0136807D01*
X0635963Y0136807D01*
X0691081Y0136807D02*
X0691081Y0126807D01*
X0700081Y0126807D01*
X0701081Y0127807D01*
X0702081Y0126807D01*
X0710081Y0126807D01*
X0711081Y0127807D01*
X0711081Y0135807D02*
X0710081Y0136807D01*
X0702081Y0136807D01*
X0701081Y0135807D01*
X0700081Y0136807D01*
X0691081Y0136807D01*
X0726514Y0155843D02*
X0735514Y0155843D01*
X0736514Y0156843D01*
X0737514Y0155843D01*
X0745514Y0155843D01*
X0746514Y0156843D01*
X0746514Y0164843D02*
X0745514Y0165843D01*
X0737514Y0165843D01*
X0736514Y0164843D01*
X0735514Y0165843D01*
X0726514Y0165843D01*
X0726514Y0155843D01*
X0423069Y0288224D02*
X0423069Y0298224D01*
X0414069Y0298224D01*
X0413069Y0297224D01*
X0412069Y0298224D01*
X0404069Y0298224D01*
X0403069Y0297224D01*
X0402069Y0298224D01*
X0394069Y0298224D01*
X0393069Y0297224D01*
X0392069Y0298224D01*
X0384069Y0298224D01*
X0383069Y0297224D01*
X0382069Y0298224D01*
X0374069Y0298224D01*
X0373069Y0297224D01*
X0372069Y0298224D01*
X0364069Y0298224D01*
X0363069Y0297224D01*
X0362069Y0298224D01*
X0354069Y0298224D01*
X0353069Y0297224D01*
X0352069Y0298224D01*
X0344069Y0298224D01*
X0343069Y0297224D01*
X0342069Y0298224D01*
X0334069Y0298224D01*
X0333069Y0297224D01*
X0332069Y0298224D01*
X0323069Y0298224D01*
X0323069Y0288224D01*
X0332069Y0288224D01*
X0333069Y0289224D01*
X0334069Y0288224D01*
X0342069Y0288224D01*
X0343069Y0289224D01*
X0344069Y0288224D01*
X0352069Y0288224D01*
X0353069Y0289224D01*
X0354069Y0288224D01*
X0362069Y0288224D01*
X0363069Y0289224D01*
X0364069Y0288224D01*
X0372069Y0288224D01*
X0373069Y0289224D01*
X0374069Y0288224D01*
X0382069Y0288224D01*
X0383069Y0289224D01*
X0384069Y0288224D01*
X0392069Y0288224D01*
X0393069Y0289224D01*
X0394069Y0288224D01*
X0402069Y0288224D01*
X0403069Y0289224D01*
X0404069Y0288224D01*
X0412069Y0288224D01*
X0413069Y0289224D01*
X0414069Y0288224D01*
X0423069Y0288224D01*
X0372065Y0254917D02*
X0363065Y0254917D01*
X0362065Y0253917D01*
X0361065Y0254917D01*
X0353065Y0254917D01*
X0352065Y0253917D01*
X0351065Y0254917D01*
X0343065Y0254917D01*
X0342065Y0253917D01*
X0341065Y0254917D01*
X0333065Y0254917D01*
X0332065Y0253917D01*
X0331065Y0254917D01*
X0323065Y0254917D01*
X0322065Y0253917D01*
X0321065Y0254917D01*
X0312065Y0254917D01*
X0312065Y0244917D01*
X0321065Y0244917D01*
X0322065Y0245917D01*
X0323065Y0244917D01*
X0331065Y0244917D01*
X0332065Y0245917D01*
X0333065Y0244917D01*
X0341065Y0244917D01*
X0342065Y0245917D01*
X0343065Y0244917D01*
X0351065Y0244917D01*
X0352065Y0245917D01*
X0353065Y0244917D01*
X0361065Y0244917D01*
X0362065Y0245917D01*
X0363065Y0244917D01*
X0372065Y0244917D01*
X0372065Y0254917D01*
X0266467Y0254594D02*
X0266467Y0270594D01*
X0266465Y0270654D01*
X0266460Y0270715D01*
X0266451Y0270774D01*
X0266438Y0270833D01*
X0266422Y0270892D01*
X0266402Y0270949D01*
X0266379Y0271004D01*
X0266352Y0271059D01*
X0266323Y0271111D01*
X0266290Y0271162D01*
X0266254Y0271211D01*
X0266216Y0271257D01*
X0266174Y0271301D01*
X0266130Y0271343D01*
X0266084Y0271381D01*
X0266035Y0271417D01*
X0265984Y0271450D01*
X0265932Y0271479D01*
X0265877Y0271506D01*
X0265822Y0271529D01*
X0265765Y0271549D01*
X0265706Y0271565D01*
X0265647Y0271578D01*
X0265588Y0271587D01*
X0265527Y0271592D01*
X0265467Y0271594D01*
X0248467Y0271594D01*
X0248407Y0271592D01*
X0248346Y0271587D01*
X0248287Y0271578D01*
X0248228Y0271565D01*
X0248169Y0271549D01*
X0248112Y0271529D01*
X0248057Y0271506D01*
X0248002Y0271479D01*
X0247950Y0271450D01*
X0247899Y0271417D01*
X0247850Y0271381D01*
X0247804Y0271343D01*
X0247760Y0271301D01*
X0247718Y0271257D01*
X0247680Y0271211D01*
X0247644Y0271162D01*
X0247611Y0271111D01*
X0247582Y0271059D01*
X0247555Y0271004D01*
X0247532Y0270949D01*
X0247512Y0270892D01*
X0247496Y0270833D01*
X0247483Y0270774D01*
X0247474Y0270715D01*
X0247469Y0270654D01*
X0247467Y0270594D01*
X0247467Y0254594D01*
X0247469Y0254534D01*
X0247474Y0254473D01*
X0247483Y0254414D01*
X0247496Y0254355D01*
X0247512Y0254296D01*
X0247532Y0254239D01*
X0247555Y0254184D01*
X0247582Y0254129D01*
X0247611Y0254077D01*
X0247644Y0254026D01*
X0247680Y0253977D01*
X0247718Y0253931D01*
X0247760Y0253887D01*
X0247804Y0253845D01*
X0247850Y0253807D01*
X0247899Y0253771D01*
X0247950Y0253738D01*
X0248002Y0253709D01*
X0248057Y0253682D01*
X0248112Y0253659D01*
X0248169Y0253639D01*
X0248228Y0253623D01*
X0248287Y0253610D01*
X0248346Y0253601D01*
X0248407Y0253596D01*
X0248467Y0253594D01*
X0265467Y0253594D01*
X0265527Y0253596D01*
X0265588Y0253601D01*
X0265647Y0253610D01*
X0265706Y0253623D01*
X0265765Y0253639D01*
X0265822Y0253659D01*
X0265877Y0253682D01*
X0265932Y0253709D01*
X0265984Y0253738D01*
X0266035Y0253771D01*
X0266084Y0253807D01*
X0266130Y0253845D01*
X0266174Y0253887D01*
X0266216Y0253931D01*
X0266254Y0253977D01*
X0266290Y0254026D01*
X0266323Y0254077D01*
X0266352Y0254129D01*
X0266379Y0254184D01*
X0266402Y0254239D01*
X0266422Y0254296D01*
X0266438Y0254355D01*
X0266451Y0254414D01*
X0266460Y0254473D01*
X0266465Y0254534D01*
X0266467Y0254594D01*
X0265073Y0251634D02*
X0248073Y0251634D01*
X0248013Y0251632D01*
X0247952Y0251627D01*
X0247893Y0251618D01*
X0247834Y0251605D01*
X0247775Y0251589D01*
X0247718Y0251569D01*
X0247663Y0251546D01*
X0247608Y0251519D01*
X0247556Y0251490D01*
X0247505Y0251457D01*
X0247456Y0251421D01*
X0247410Y0251383D01*
X0247366Y0251341D01*
X0247324Y0251297D01*
X0247286Y0251251D01*
X0247250Y0251202D01*
X0247217Y0251151D01*
X0247188Y0251099D01*
X0247161Y0251044D01*
X0247138Y0250989D01*
X0247118Y0250932D01*
X0247102Y0250873D01*
X0247089Y0250814D01*
X0247080Y0250755D01*
X0247075Y0250694D01*
X0247073Y0250634D01*
X0247073Y0234634D01*
X0247075Y0234574D01*
X0247080Y0234513D01*
X0247089Y0234454D01*
X0247102Y0234395D01*
X0247118Y0234336D01*
X0247138Y0234279D01*
X0247161Y0234224D01*
X0247188Y0234169D01*
X0247217Y0234117D01*
X0247250Y0234066D01*
X0247286Y0234017D01*
X0247324Y0233971D01*
X0247366Y0233927D01*
X0247410Y0233885D01*
X0247456Y0233847D01*
X0247505Y0233811D01*
X0247556Y0233778D01*
X0247608Y0233749D01*
X0247663Y0233722D01*
X0247718Y0233699D01*
X0247775Y0233679D01*
X0247834Y0233663D01*
X0247893Y0233650D01*
X0247952Y0233641D01*
X0248013Y0233636D01*
X0248073Y0233634D01*
X0265073Y0233634D01*
X0265133Y0233636D01*
X0265194Y0233641D01*
X0265253Y0233650D01*
X0265312Y0233663D01*
X0265371Y0233679D01*
X0265428Y0233699D01*
X0265483Y0233722D01*
X0265538Y0233749D01*
X0265590Y0233778D01*
X0265641Y0233811D01*
X0265690Y0233847D01*
X0265736Y0233885D01*
X0265780Y0233927D01*
X0265822Y0233971D01*
X0265860Y0234017D01*
X0265896Y0234066D01*
X0265929Y0234117D01*
X0265958Y0234169D01*
X0265985Y0234224D01*
X0266008Y0234279D01*
X0266028Y0234336D01*
X0266044Y0234395D01*
X0266057Y0234454D01*
X0266066Y0234513D01*
X0266071Y0234574D01*
X0266073Y0234634D01*
X0266073Y0250634D01*
X0266071Y0250694D01*
X0266066Y0250755D01*
X0266057Y0250814D01*
X0266044Y0250873D01*
X0266028Y0250932D01*
X0266008Y0250989D01*
X0265985Y0251044D01*
X0265958Y0251099D01*
X0265929Y0251151D01*
X0265896Y0251202D01*
X0265860Y0251251D01*
X0265822Y0251297D01*
X0265780Y0251341D01*
X0265736Y0251383D01*
X0265690Y0251421D01*
X0265641Y0251457D01*
X0265590Y0251490D01*
X0265538Y0251519D01*
X0265483Y0251546D01*
X0265428Y0251569D01*
X0265371Y0251589D01*
X0265312Y0251605D01*
X0265253Y0251618D01*
X0265194Y0251627D01*
X0265133Y0251632D01*
X0265073Y0251634D01*
X0258073Y0242634D02*
X0257573Y0242634D01*
X0255573Y0242634D02*
X0255073Y0242634D01*
X0244793Y0233150D02*
X0243793Y0232150D01*
X0232293Y0231650D01*
X0220993Y0229941D02*
X0220993Y0271941D01*
X0202593Y0271941D01*
X0202593Y0229941D01*
X0220993Y0229941D01*
X0244793Y0233150D02*
X0244793Y0270150D01*
X0243793Y0271150D01*
X0232293Y0271650D01*
X0211793Y0278941D02*
X0211837Y0278943D01*
X0211880Y0278949D01*
X0211922Y0278958D01*
X0211964Y0278971D01*
X0212004Y0278988D01*
X0212043Y0279008D01*
X0212080Y0279031D01*
X0212114Y0279058D01*
X0212147Y0279087D01*
X0212176Y0279120D01*
X0212203Y0279154D01*
X0212226Y0279191D01*
X0212246Y0279230D01*
X0212263Y0279270D01*
X0212276Y0279312D01*
X0212285Y0279354D01*
X0212291Y0279397D01*
X0212293Y0279441D01*
X0212291Y0279485D01*
X0212285Y0279528D01*
X0212276Y0279570D01*
X0212263Y0279612D01*
X0212246Y0279652D01*
X0212226Y0279691D01*
X0212203Y0279728D01*
X0212176Y0279762D01*
X0212147Y0279795D01*
X0212114Y0279824D01*
X0212080Y0279851D01*
X0212043Y0279874D01*
X0212004Y0279894D01*
X0211964Y0279911D01*
X0211922Y0279924D01*
X0211880Y0279933D01*
X0211837Y0279939D01*
X0211793Y0279941D01*
X0211749Y0279939D01*
X0211706Y0279933D01*
X0211664Y0279924D01*
X0211622Y0279911D01*
X0211582Y0279894D01*
X0211543Y0279874D01*
X0211506Y0279851D01*
X0211472Y0279824D01*
X0211439Y0279795D01*
X0211410Y0279762D01*
X0211383Y0279728D01*
X0211360Y0279691D01*
X0211340Y0279652D01*
X0211323Y0279612D01*
X0211310Y0279570D01*
X0211301Y0279528D01*
X0211295Y0279485D01*
X0211293Y0279441D01*
X0211295Y0279397D01*
X0211301Y0279354D01*
X0211310Y0279312D01*
X0211323Y0279270D01*
X0211340Y0279230D01*
X0211360Y0279191D01*
X0211383Y0279154D01*
X0211410Y0279120D01*
X0211439Y0279087D01*
X0211472Y0279058D01*
X0211506Y0279031D01*
X0211543Y0279008D01*
X0211582Y0278988D01*
X0211622Y0278971D01*
X0211664Y0278958D01*
X0211706Y0278949D01*
X0211749Y0278943D01*
X0211793Y0278941D01*
X0208557Y0287240D02*
X0216557Y0287240D01*
X0217557Y0288240D01*
X0218557Y0287240D01*
X0226557Y0287240D01*
X0227557Y0288240D01*
X0228557Y0287240D01*
X0236557Y0287240D01*
X0237557Y0288240D01*
X0238557Y0287240D01*
X0246557Y0287240D01*
X0247557Y0288240D01*
X0248557Y0287240D01*
X0256557Y0287240D01*
X0257557Y0288240D01*
X0258557Y0287240D01*
X0267557Y0287240D01*
X0267557Y0297240D01*
X0258557Y0297240D01*
X0257557Y0296240D01*
X0256557Y0297240D01*
X0248557Y0297240D01*
X0247557Y0296240D01*
X0246557Y0297240D01*
X0238557Y0297240D01*
X0237557Y0296240D01*
X0236557Y0297240D01*
X0228557Y0297240D01*
X0227557Y0296240D01*
X0226557Y0297240D01*
X0218557Y0297240D01*
X0217557Y0296240D01*
X0216557Y0297240D01*
X0208557Y0297240D01*
X0207557Y0296240D01*
X0206557Y0297240D01*
X0198557Y0297240D01*
X0197557Y0296240D01*
X0196557Y0297240D01*
X0188557Y0297240D01*
X0187557Y0296240D01*
X0186557Y0297240D01*
X0178557Y0297240D01*
X0177557Y0296240D01*
X0176557Y0297240D01*
X0167557Y0297240D01*
X0167557Y0287240D01*
X0176557Y0287240D01*
X0177557Y0288240D01*
X0178557Y0287240D01*
X0186557Y0287240D01*
X0187557Y0288240D01*
X0188557Y0287240D01*
X0196557Y0287240D01*
X0197557Y0288240D01*
X0198557Y0287240D01*
X0206557Y0287240D01*
X0207557Y0288240D01*
X0208557Y0287240D01*
X0191198Y0271862D02*
X0172798Y0271862D01*
X0172798Y0229862D01*
X0191198Y0229862D01*
X0191198Y0271862D01*
X0255467Y0262594D02*
X0255967Y0262594D01*
X0257967Y0262594D02*
X0258467Y0262594D01*
X0181998Y0222862D02*
X0181954Y0222860D01*
X0181911Y0222854D01*
X0181869Y0222845D01*
X0181827Y0222832D01*
X0181787Y0222815D01*
X0181748Y0222795D01*
X0181711Y0222772D01*
X0181677Y0222745D01*
X0181644Y0222716D01*
X0181615Y0222683D01*
X0181588Y0222649D01*
X0181565Y0222612D01*
X0181545Y0222573D01*
X0181528Y0222533D01*
X0181515Y0222491D01*
X0181506Y0222449D01*
X0181500Y0222406D01*
X0181498Y0222362D01*
X0181500Y0222318D01*
X0181506Y0222275D01*
X0181515Y0222233D01*
X0181528Y0222191D01*
X0181545Y0222151D01*
X0181565Y0222112D01*
X0181588Y0222075D01*
X0181615Y0222041D01*
X0181644Y0222008D01*
X0181677Y0221979D01*
X0181711Y0221952D01*
X0181748Y0221929D01*
X0181787Y0221909D01*
X0181827Y0221892D01*
X0181869Y0221879D01*
X0181911Y0221870D01*
X0181954Y0221864D01*
X0181998Y0221862D01*
X0182042Y0221864D01*
X0182085Y0221870D01*
X0182127Y0221879D01*
X0182169Y0221892D01*
X0182209Y0221909D01*
X0182248Y0221929D01*
X0182285Y0221952D01*
X0182319Y0221979D01*
X0182352Y0222008D01*
X0182381Y0222041D01*
X0182408Y0222075D01*
X0182431Y0222112D01*
X0182451Y0222151D01*
X0182468Y0222191D01*
X0182481Y0222233D01*
X0182490Y0222275D01*
X0182496Y0222318D01*
X0182498Y0222362D01*
X0182496Y0222406D01*
X0182490Y0222449D01*
X0182481Y0222491D01*
X0182468Y0222533D01*
X0182451Y0222573D01*
X0182431Y0222612D01*
X0182408Y0222649D01*
X0182381Y0222683D01*
X0182352Y0222716D01*
X0182319Y0222745D01*
X0182285Y0222772D01*
X0182248Y0222795D01*
X0182209Y0222815D01*
X0182169Y0222832D01*
X0182127Y0222845D01*
X0182085Y0222854D01*
X0182042Y0222860D01*
X0181998Y0222862D01*
X0162415Y0206984D02*
X0158915Y0210484D01*
X0153915Y0210484D01*
X0150415Y0206984D01*
X0150415Y0201984D01*
X0153915Y0198484D01*
X0158915Y0198484D01*
X0162415Y0201984D01*
X0162415Y0206984D01*
X0151116Y0192378D02*
X0147616Y0195878D01*
X0142616Y0195878D01*
X0139116Y0192378D01*
X0139116Y0187378D01*
X0142616Y0183878D01*
X0147616Y0183878D01*
X0151116Y0187378D01*
X0151116Y0192378D01*
X0158010Y0182807D02*
X0163010Y0182807D01*
X0166510Y0179307D01*
X0166510Y0174307D01*
X0163010Y0170807D01*
X0158010Y0170807D01*
X0154510Y0174307D01*
X0154510Y0179307D01*
X0158010Y0182807D01*
X0135014Y0180016D02*
X0135014Y0175016D01*
X0131514Y0171516D01*
X0126514Y0171516D01*
X0123014Y0175016D01*
X0123014Y0180016D01*
X0126514Y0183516D01*
X0131514Y0183516D01*
X0135014Y0180016D01*
X0130569Y0199665D02*
X0125569Y0199665D01*
X0122069Y0203165D01*
X0122069Y0208165D01*
X0125569Y0211665D01*
X0130569Y0211665D01*
X0134069Y0208165D01*
X0134069Y0203165D01*
X0130569Y0199665D01*
X0212085Y0196043D02*
X0212129Y0196041D01*
X0212172Y0196035D01*
X0212214Y0196026D01*
X0212256Y0196013D01*
X0212296Y0195996D01*
X0212335Y0195976D01*
X0212372Y0195953D01*
X0212406Y0195926D01*
X0212439Y0195897D01*
X0212468Y0195864D01*
X0212495Y0195830D01*
X0212518Y0195793D01*
X0212538Y0195754D01*
X0212555Y0195714D01*
X0212568Y0195672D01*
X0212577Y0195630D01*
X0212583Y0195587D01*
X0212585Y0195543D01*
X0212583Y0195499D01*
X0212577Y0195456D01*
X0212568Y0195414D01*
X0212555Y0195372D01*
X0212538Y0195332D01*
X0212518Y0195293D01*
X0212495Y0195256D01*
X0212468Y0195222D01*
X0212439Y0195189D01*
X0212406Y0195160D01*
X0212372Y0195133D01*
X0212335Y0195110D01*
X0212296Y0195090D01*
X0212256Y0195073D01*
X0212214Y0195060D01*
X0212172Y0195051D01*
X0212129Y0195045D01*
X0212085Y0195043D01*
X0212041Y0195045D01*
X0211998Y0195051D01*
X0211956Y0195060D01*
X0211914Y0195073D01*
X0211874Y0195090D01*
X0211835Y0195110D01*
X0211798Y0195133D01*
X0211764Y0195160D01*
X0211731Y0195189D01*
X0211702Y0195222D01*
X0211675Y0195256D01*
X0211652Y0195293D01*
X0211632Y0195332D01*
X0211615Y0195372D01*
X0211602Y0195414D01*
X0211593Y0195456D01*
X0211587Y0195499D01*
X0211585Y0195543D01*
X0211587Y0195587D01*
X0211593Y0195630D01*
X0211602Y0195672D01*
X0211615Y0195714D01*
X0211632Y0195754D01*
X0211652Y0195793D01*
X0211675Y0195830D01*
X0211702Y0195864D01*
X0211731Y0195897D01*
X0211764Y0195926D01*
X0211798Y0195953D01*
X0211835Y0195976D01*
X0211874Y0195996D01*
X0211914Y0196013D01*
X0211956Y0196026D01*
X0211998Y0196035D01*
X0212041Y0196041D01*
X0212085Y0196043D01*
D11*
X0255967Y0174020D02*
X0255967Y0171020D01*
X0255967Y0168020D01*
X0257967Y0168020D02*
X0257967Y0171020D01*
X0257967Y0174020D01*
X0257967Y0152681D02*
X0257967Y0149681D01*
X0257967Y0146681D01*
X0255967Y0146681D02*
X0255967Y0149681D01*
X0255967Y0152681D01*
X0255573Y0239634D02*
X0255573Y0242634D01*
X0255573Y0245634D01*
X0257573Y0245634D02*
X0257573Y0242634D01*
X0257573Y0239634D01*
X0257967Y0259594D02*
X0257967Y0262594D01*
X0257967Y0265594D01*
X0255967Y0265594D02*
X0255967Y0262594D01*
X0255967Y0259594D01*
D12*
X0282100Y0242862D02*
X0282100Y0222862D01*
X0277100Y0222862D01*
X0277100Y0192862D01*
X0282100Y0192862D01*
X0282100Y0172862D01*
X0522100Y0172862D01*
X0522100Y0242862D01*
X0282100Y0242862D01*
X0282100Y0222862D02*
X0284600Y0222862D01*
X0289600Y0222862D01*
X0297100Y0222862D01*
X0297100Y0220362D01*
X0297100Y0216612D01*
X0297100Y0215362D01*
X0297100Y0212862D01*
X0297100Y0210362D01*
X0297100Y0207862D01*
X0297100Y0205362D01*
X0297100Y0202862D01*
X0297100Y0200362D01*
X0297100Y0199112D01*
X0297100Y0195362D01*
X0297100Y0192862D01*
X0289600Y0192862D01*
X0284600Y0192862D01*
X0282100Y0192862D01*
X0531789Y0227665D02*
X0531789Y0233665D01*
X0534289Y0233665D02*
X0534289Y0227665D01*
X0536848Y0177209D02*
X0536848Y0171209D01*
X0539348Y0171209D02*
X0539348Y0177209D01*
D13*
X0439912Y0277782D03*
X0242393Y0233950D03*
X0243181Y0142288D03*
D14*
X0230081Y0159988D03*
X0229293Y0251650D03*
D15*
X0231793Y0268900D03*
X0231793Y0234400D03*
X0232581Y0177238D03*
X0232581Y0142738D03*
D16*
X0232581Y0154988D03*
X0232581Y0164988D03*
X0231793Y0246650D03*
X0231793Y0256650D03*
D17*
X0590589Y0227634D03*
X0590589Y0217634D03*
X0590589Y0207634D03*
X0590589Y0197634D03*
X0590589Y0187634D03*
X0590589Y0177634D03*
D18*
X0584439Y0224601D02*
X0584439Y0227069D01*
X0584439Y0225835D02*
X0580735Y0225835D01*
X0581970Y0224601D01*
D19*
X0581227Y0240116D02*
X0578224Y0240116D01*
X0579726Y0240116D02*
X0579726Y0244620D01*
X0578224Y0243119D01*
X0549487Y0242796D02*
X0549487Y0243547D01*
X0548736Y0244297D01*
X0547235Y0244297D01*
X0546484Y0243547D01*
X0546261Y0244935D02*
X0546261Y0240431D01*
X0546484Y0239793D02*
X0549487Y0242796D01*
X0547762Y0240431D02*
X0544760Y0240431D01*
X0546484Y0239793D02*
X0549487Y0239793D01*
X0545234Y0237043D02*
X0545234Y0247043D01*
X0546261Y0244935D02*
X0544760Y0243434D01*
X0523987Y0239793D02*
X0520984Y0239793D01*
X0522486Y0239793D02*
X0522486Y0244297D01*
X0520984Y0242796D01*
X0517851Y0240152D02*
X0514849Y0240152D01*
X0516350Y0240152D02*
X0516350Y0244655D01*
X0514849Y0243154D01*
X0545547Y0257124D02*
X0548550Y0257124D01*
X0547049Y0257124D02*
X0547049Y0261628D01*
X0545547Y0260127D01*
X0578224Y0260205D02*
X0579726Y0261707D01*
X0579726Y0257203D01*
X0581227Y0257203D02*
X0578224Y0257203D01*
X0579211Y0280610D02*
X0579211Y0290610D01*
X0582713Y0287864D02*
X0580461Y0285612D01*
X0583463Y0285612D01*
X0582713Y0283360D02*
X0582713Y0287864D01*
X0613746Y0281087D02*
X0615248Y0282588D01*
X0615248Y0278085D01*
X0616749Y0278085D02*
X0613746Y0278085D01*
X0631713Y0290974D02*
X0634715Y0290974D01*
X0633214Y0290974D02*
X0633214Y0295478D01*
X0631713Y0293977D01*
X0638817Y0285350D02*
X0713817Y0285350D01*
X0713817Y0266335D01*
X0638817Y0266335D01*
X0638817Y0285350D01*
X0675963Y0288224D02*
X0675963Y0298224D01*
X0679465Y0295478D02*
X0677213Y0293226D01*
X0680215Y0293226D01*
X0679465Y0290974D02*
X0679465Y0295478D01*
X0684723Y0294728D02*
X0685473Y0295478D01*
X0686975Y0295478D01*
X0687725Y0294728D01*
X0687725Y0293977D01*
X0684723Y0290974D01*
X0687725Y0290974D01*
X0690077Y0288224D02*
X0690077Y0298224D01*
X0710223Y0293977D02*
X0711724Y0295478D01*
X0711724Y0290974D01*
X0710223Y0290974D02*
X0713225Y0290974D01*
X0714014Y0280232D02*
X0719919Y0280232D01*
X0719919Y0271571D01*
X0714014Y0271571D01*
X0721140Y0268153D02*
X0721891Y0268903D01*
X0723392Y0268903D01*
X0724143Y0268153D01*
X0724143Y0267402D01*
X0721140Y0264400D01*
X0724143Y0264400D01*
X0726494Y0261650D02*
X0726494Y0271650D01*
X0746640Y0267402D02*
X0748141Y0268903D01*
X0748141Y0264400D01*
X0746640Y0264400D02*
X0749643Y0264400D01*
X0677360Y0256394D02*
X0637360Y0256394D01*
X0680896Y0230264D02*
X0685071Y0230264D01*
X0685071Y0226264D02*
X0680896Y0226264D01*
X0680896Y0230264D01*
X0684896Y0228264D02*
X0684899Y0228546D01*
X0684910Y0228828D01*
X0684927Y0229110D01*
X0684951Y0229391D01*
X0684982Y0229672D01*
X0685020Y0229951D01*
X0685065Y0230230D01*
X0685117Y0230508D01*
X0685175Y0230784D01*
X0685241Y0231058D01*
X0685313Y0231331D01*
X0685391Y0231602D01*
X0685476Y0231871D01*
X0685568Y0232138D01*
X0685667Y0232403D01*
X0685771Y0232665D01*
X0685883Y0232924D01*
X0686000Y0233181D01*
X0686124Y0233435D01*
X0686254Y0233685D01*
X0686390Y0233932D01*
X0686532Y0234176D01*
X0686680Y0234416D01*
X0686834Y0234653D01*
X0686994Y0234886D01*
X0687159Y0235115D01*
X0687330Y0235339D01*
X0687506Y0235560D01*
X0687688Y0235775D01*
X0687875Y0235987D01*
X0688067Y0236194D01*
X0688264Y0236396D01*
X0688466Y0236593D01*
X0688673Y0236785D01*
X0688885Y0236972D01*
X0689100Y0237154D01*
X0689321Y0237330D01*
X0689545Y0237501D01*
X0689774Y0237666D01*
X0690007Y0237826D01*
X0690244Y0237980D01*
X0690484Y0238128D01*
X0690728Y0238270D01*
X0690975Y0238406D01*
X0691225Y0238536D01*
X0691479Y0238660D01*
X0691736Y0238777D01*
X0691995Y0238889D01*
X0692257Y0238993D01*
X0692522Y0239092D01*
X0692789Y0239184D01*
X0693058Y0239269D01*
X0693329Y0239347D01*
X0693602Y0239419D01*
X0693876Y0239485D01*
X0694152Y0239543D01*
X0694430Y0239595D01*
X0694709Y0239640D01*
X0694988Y0239678D01*
X0695269Y0239709D01*
X0695550Y0239733D01*
X0695832Y0239750D01*
X0696114Y0239761D01*
X0696396Y0239764D01*
X0696678Y0239761D01*
X0696960Y0239750D01*
X0697242Y0239733D01*
X0697523Y0239709D01*
X0697804Y0239678D01*
X0698083Y0239640D01*
X0698362Y0239595D01*
X0698640Y0239543D01*
X0698916Y0239485D01*
X0699190Y0239419D01*
X0699463Y0239347D01*
X0699734Y0239269D01*
X0700003Y0239184D01*
X0700270Y0239092D01*
X0700535Y0238993D01*
X0700797Y0238889D01*
X0701056Y0238777D01*
X0701313Y0238660D01*
X0701567Y0238536D01*
X0701817Y0238406D01*
X0702064Y0238270D01*
X0702308Y0238128D01*
X0702548Y0237980D01*
X0702785Y0237826D01*
X0703018Y0237666D01*
X0703247Y0237501D01*
X0703471Y0237330D01*
X0703692Y0237154D01*
X0703907Y0236972D01*
X0704119Y0236785D01*
X0704326Y0236593D01*
X0704528Y0236396D01*
X0704725Y0236194D01*
X0704917Y0235987D01*
X0705104Y0235775D01*
X0705286Y0235560D01*
X0705462Y0235339D01*
X0705633Y0235115D01*
X0705798Y0234886D01*
X0705958Y0234653D01*
X0706112Y0234416D01*
X0706260Y0234176D01*
X0706402Y0233932D01*
X0706538Y0233685D01*
X0706668Y0233435D01*
X0706792Y0233181D01*
X0706909Y0232924D01*
X0707021Y0232665D01*
X0707125Y0232403D01*
X0707224Y0232138D01*
X0707316Y0231871D01*
X0707401Y0231602D01*
X0707479Y0231331D01*
X0707551Y0231058D01*
X0707617Y0230784D01*
X0707675Y0230508D01*
X0707727Y0230230D01*
X0707772Y0229951D01*
X0707810Y0229672D01*
X0707841Y0229391D01*
X0707865Y0229110D01*
X0707882Y0228828D01*
X0707893Y0228546D01*
X0707896Y0228264D01*
X0707893Y0227982D01*
X0707882Y0227700D01*
X0707865Y0227418D01*
X0707841Y0227137D01*
X0707810Y0226856D01*
X0707772Y0226577D01*
X0707727Y0226298D01*
X0707675Y0226020D01*
X0707617Y0225744D01*
X0707551Y0225470D01*
X0707479Y0225197D01*
X0707401Y0224926D01*
X0707316Y0224657D01*
X0707224Y0224390D01*
X0707125Y0224125D01*
X0707021Y0223863D01*
X0706909Y0223604D01*
X0706792Y0223347D01*
X0706668Y0223093D01*
X0706538Y0222843D01*
X0706402Y0222596D01*
X0706260Y0222352D01*
X0706112Y0222112D01*
X0705958Y0221875D01*
X0705798Y0221642D01*
X0705633Y0221413D01*
X0705462Y0221189D01*
X0705286Y0220968D01*
X0705104Y0220753D01*
X0704917Y0220541D01*
X0704725Y0220334D01*
X0704528Y0220132D01*
X0704326Y0219935D01*
X0704119Y0219743D01*
X0703907Y0219556D01*
X0703692Y0219374D01*
X0703471Y0219198D01*
X0703247Y0219027D01*
X0703018Y0218862D01*
X0702785Y0218702D01*
X0702548Y0218548D01*
X0702308Y0218400D01*
X0702064Y0218258D01*
X0701817Y0218122D01*
X0701567Y0217992D01*
X0701313Y0217868D01*
X0701056Y0217751D01*
X0700797Y0217639D01*
X0700535Y0217535D01*
X0700270Y0217436D01*
X0700003Y0217344D01*
X0699734Y0217259D01*
X0699463Y0217181D01*
X0699190Y0217109D01*
X0698916Y0217043D01*
X0698640Y0216985D01*
X0698362Y0216933D01*
X0698083Y0216888D01*
X0697804Y0216850D01*
X0697523Y0216819D01*
X0697242Y0216795D01*
X0696960Y0216778D01*
X0696678Y0216767D01*
X0696396Y0216764D01*
X0696114Y0216767D01*
X0695832Y0216778D01*
X0695550Y0216795D01*
X0695269Y0216819D01*
X0694988Y0216850D01*
X0694709Y0216888D01*
X0694430Y0216933D01*
X0694152Y0216985D01*
X0693876Y0217043D01*
X0693602Y0217109D01*
X0693329Y0217181D01*
X0693058Y0217259D01*
X0692789Y0217344D01*
X0692522Y0217436D01*
X0692257Y0217535D01*
X0691995Y0217639D01*
X0691736Y0217751D01*
X0691479Y0217868D01*
X0691225Y0217992D01*
X0690975Y0218122D01*
X0690728Y0218258D01*
X0690484Y0218400D01*
X0690244Y0218548D01*
X0690007Y0218702D01*
X0689774Y0218862D01*
X0689545Y0219027D01*
X0689321Y0219198D01*
X0689100Y0219374D01*
X0688885Y0219556D01*
X0688673Y0219743D01*
X0688466Y0219935D01*
X0688264Y0220132D01*
X0688067Y0220334D01*
X0687875Y0220541D01*
X0687688Y0220753D01*
X0687506Y0220968D01*
X0687330Y0221189D01*
X0687159Y0221413D01*
X0686994Y0221642D01*
X0686834Y0221875D01*
X0686680Y0222112D01*
X0686532Y0222352D01*
X0686390Y0222596D01*
X0686254Y0222843D01*
X0686124Y0223093D01*
X0686000Y0223347D01*
X0685883Y0223604D01*
X0685771Y0223863D01*
X0685667Y0224125D01*
X0685568Y0224390D01*
X0685476Y0224657D01*
X0685391Y0224926D01*
X0685313Y0225197D01*
X0685241Y0225470D01*
X0685175Y0225744D01*
X0685117Y0226020D01*
X0685065Y0226298D01*
X0685020Y0226577D01*
X0684982Y0226856D01*
X0684951Y0227137D01*
X0684927Y0227418D01*
X0684910Y0227700D01*
X0684899Y0227982D01*
X0684896Y0228264D01*
X0667597Y0214511D02*
X0666846Y0215262D01*
X0665345Y0215262D01*
X0664594Y0214511D01*
X0667597Y0214511D02*
X0667597Y0213760D01*
X0664594Y0210758D01*
X0667597Y0210758D01*
X0663344Y0208008D02*
X0663344Y0218008D01*
X0642097Y0210758D02*
X0639094Y0210758D01*
X0640596Y0210758D02*
X0640596Y0215262D01*
X0639094Y0213760D01*
X0680896Y0196799D02*
X0680896Y0192799D01*
X0685071Y0192799D01*
X0685071Y0196799D02*
X0680896Y0196799D01*
X0684896Y0194799D02*
X0684899Y0195081D01*
X0684910Y0195363D01*
X0684927Y0195645D01*
X0684951Y0195926D01*
X0684982Y0196207D01*
X0685020Y0196486D01*
X0685065Y0196765D01*
X0685117Y0197043D01*
X0685175Y0197319D01*
X0685241Y0197593D01*
X0685313Y0197866D01*
X0685391Y0198137D01*
X0685476Y0198406D01*
X0685568Y0198673D01*
X0685667Y0198938D01*
X0685771Y0199200D01*
X0685883Y0199459D01*
X0686000Y0199716D01*
X0686124Y0199970D01*
X0686254Y0200220D01*
X0686390Y0200467D01*
X0686532Y0200711D01*
X0686680Y0200951D01*
X0686834Y0201188D01*
X0686994Y0201421D01*
X0687159Y0201650D01*
X0687330Y0201874D01*
X0687506Y0202095D01*
X0687688Y0202310D01*
X0687875Y0202522D01*
X0688067Y0202729D01*
X0688264Y0202931D01*
X0688466Y0203128D01*
X0688673Y0203320D01*
X0688885Y0203507D01*
X0689100Y0203689D01*
X0689321Y0203865D01*
X0689545Y0204036D01*
X0689774Y0204201D01*
X0690007Y0204361D01*
X0690244Y0204515D01*
X0690484Y0204663D01*
X0690728Y0204805D01*
X0690975Y0204941D01*
X0691225Y0205071D01*
X0691479Y0205195D01*
X0691736Y0205312D01*
X0691995Y0205424D01*
X0692257Y0205528D01*
X0692522Y0205627D01*
X0692789Y0205719D01*
X0693058Y0205804D01*
X0693329Y0205882D01*
X0693602Y0205954D01*
X0693876Y0206020D01*
X0694152Y0206078D01*
X0694430Y0206130D01*
X0694709Y0206175D01*
X0694988Y0206213D01*
X0695269Y0206244D01*
X0695550Y0206268D01*
X0695832Y0206285D01*
X0696114Y0206296D01*
X0696396Y0206299D01*
X0696678Y0206296D01*
X0696960Y0206285D01*
X0697242Y0206268D01*
X0697523Y0206244D01*
X0697804Y0206213D01*
X0698083Y0206175D01*
X0698362Y0206130D01*
X0698640Y0206078D01*
X0698916Y0206020D01*
X0699190Y0205954D01*
X0699463Y0205882D01*
X0699734Y0205804D01*
X0700003Y0205719D01*
X0700270Y0205627D01*
X0700535Y0205528D01*
X0700797Y0205424D01*
X0701056Y0205312D01*
X0701313Y0205195D01*
X0701567Y0205071D01*
X0701817Y0204941D01*
X0702064Y0204805D01*
X0702308Y0204663D01*
X0702548Y0204515D01*
X0702785Y0204361D01*
X0703018Y0204201D01*
X0703247Y0204036D01*
X0703471Y0203865D01*
X0703692Y0203689D01*
X0703907Y0203507D01*
X0704119Y0203320D01*
X0704326Y0203128D01*
X0704528Y0202931D01*
X0704725Y0202729D01*
X0704917Y0202522D01*
X0705104Y0202310D01*
X0705286Y0202095D01*
X0705462Y0201874D01*
X0705633Y0201650D01*
X0705798Y0201421D01*
X0705958Y0201188D01*
X0706112Y0200951D01*
X0706260Y0200711D01*
X0706402Y0200467D01*
X0706538Y0200220D01*
X0706668Y0199970D01*
X0706792Y0199716D01*
X0706909Y0199459D01*
X0707021Y0199200D01*
X0707125Y0198938D01*
X0707224Y0198673D01*
X0707316Y0198406D01*
X0707401Y0198137D01*
X0707479Y0197866D01*
X0707551Y0197593D01*
X0707617Y0197319D01*
X0707675Y0197043D01*
X0707727Y0196765D01*
X0707772Y0196486D01*
X0707810Y0196207D01*
X0707841Y0195926D01*
X0707865Y0195645D01*
X0707882Y0195363D01*
X0707893Y0195081D01*
X0707896Y0194799D01*
X0707893Y0194517D01*
X0707882Y0194235D01*
X0707865Y0193953D01*
X0707841Y0193672D01*
X0707810Y0193391D01*
X0707772Y0193112D01*
X0707727Y0192833D01*
X0707675Y0192555D01*
X0707617Y0192279D01*
X0707551Y0192005D01*
X0707479Y0191732D01*
X0707401Y0191461D01*
X0707316Y0191192D01*
X0707224Y0190925D01*
X0707125Y0190660D01*
X0707021Y0190398D01*
X0706909Y0190139D01*
X0706792Y0189882D01*
X0706668Y0189628D01*
X0706538Y0189378D01*
X0706402Y0189131D01*
X0706260Y0188887D01*
X0706112Y0188647D01*
X0705958Y0188410D01*
X0705798Y0188177D01*
X0705633Y0187948D01*
X0705462Y0187724D01*
X0705286Y0187503D01*
X0705104Y0187288D01*
X0704917Y0187076D01*
X0704725Y0186869D01*
X0704528Y0186667D01*
X0704326Y0186470D01*
X0704119Y0186278D01*
X0703907Y0186091D01*
X0703692Y0185909D01*
X0703471Y0185733D01*
X0703247Y0185562D01*
X0703018Y0185397D01*
X0702785Y0185237D01*
X0702548Y0185083D01*
X0702308Y0184935D01*
X0702064Y0184793D01*
X0701817Y0184657D01*
X0701567Y0184527D01*
X0701313Y0184403D01*
X0701056Y0184286D01*
X0700797Y0184174D01*
X0700535Y0184070D01*
X0700270Y0183971D01*
X0700003Y0183879D01*
X0699734Y0183794D01*
X0699463Y0183716D01*
X0699190Y0183644D01*
X0698916Y0183578D01*
X0698640Y0183520D01*
X0698362Y0183468D01*
X0698083Y0183423D01*
X0697804Y0183385D01*
X0697523Y0183354D01*
X0697242Y0183330D01*
X0696960Y0183313D01*
X0696678Y0183302D01*
X0696396Y0183299D01*
X0696114Y0183302D01*
X0695832Y0183313D01*
X0695550Y0183330D01*
X0695269Y0183354D01*
X0694988Y0183385D01*
X0694709Y0183423D01*
X0694430Y0183468D01*
X0694152Y0183520D01*
X0693876Y0183578D01*
X0693602Y0183644D01*
X0693329Y0183716D01*
X0693058Y0183794D01*
X0692789Y0183879D01*
X0692522Y0183971D01*
X0692257Y0184070D01*
X0691995Y0184174D01*
X0691736Y0184286D01*
X0691479Y0184403D01*
X0691225Y0184527D01*
X0690975Y0184657D01*
X0690728Y0184793D01*
X0690484Y0184935D01*
X0690244Y0185083D01*
X0690007Y0185237D01*
X0689774Y0185397D01*
X0689545Y0185562D01*
X0689321Y0185733D01*
X0689100Y0185909D01*
X0688885Y0186091D01*
X0688673Y0186278D01*
X0688466Y0186470D01*
X0688264Y0186667D01*
X0688067Y0186869D01*
X0687875Y0187076D01*
X0687688Y0187288D01*
X0687506Y0187503D01*
X0687330Y0187724D01*
X0687159Y0187948D01*
X0686994Y0188177D01*
X0686834Y0188410D01*
X0686680Y0188647D01*
X0686532Y0188887D01*
X0686390Y0189131D01*
X0686254Y0189378D01*
X0686124Y0189628D01*
X0686000Y0189882D01*
X0685883Y0190139D01*
X0685771Y0190398D01*
X0685667Y0190660D01*
X0685568Y0190925D01*
X0685476Y0191192D01*
X0685391Y0191461D01*
X0685313Y0191732D01*
X0685241Y0192005D01*
X0685175Y0192279D01*
X0685117Y0192555D01*
X0685065Y0192833D01*
X0685020Y0193112D01*
X0684982Y0193391D01*
X0684951Y0193672D01*
X0684927Y0193953D01*
X0684910Y0194235D01*
X0684899Y0194517D01*
X0684896Y0194799D01*
X0677852Y0178146D02*
X0637852Y0178146D01*
X0619413Y0182430D02*
X0619413Y0183931D01*
X0618663Y0184682D01*
X0617161Y0184682D01*
X0616411Y0183931D01*
X0616411Y0183180D01*
X0617161Y0181679D01*
X0614910Y0181679D01*
X0614910Y0184682D01*
X0618663Y0181679D02*
X0619413Y0182430D01*
X0607920Y0163392D02*
X0604917Y0163392D01*
X0604917Y0161140D01*
X0606419Y0161890D01*
X0607169Y0161890D01*
X0607920Y0161140D01*
X0607920Y0159638D01*
X0607169Y0158888D01*
X0605668Y0158888D01*
X0604917Y0159638D01*
X0604043Y0149809D02*
X0604043Y0147557D01*
X0605545Y0148308D01*
X0606295Y0148308D01*
X0607046Y0147557D01*
X0607046Y0146056D01*
X0606295Y0145305D01*
X0604794Y0145305D01*
X0604043Y0146056D01*
X0604043Y0149809D02*
X0607046Y0149809D01*
X0607046Y0137998D02*
X0604043Y0137998D01*
X0604043Y0135746D01*
X0605545Y0136497D01*
X0606295Y0136497D01*
X0607046Y0135746D01*
X0607046Y0134245D01*
X0606295Y0133494D01*
X0604794Y0133494D01*
X0604043Y0134245D01*
X0614910Y0127680D02*
X0619413Y0127680D01*
X0619413Y0126179D02*
X0619413Y0129182D01*
X0616411Y0126179D02*
X0614910Y0127680D01*
X0631713Y0129557D02*
X0634715Y0129557D01*
X0633214Y0129557D02*
X0633214Y0134061D01*
X0631713Y0132560D01*
X0634880Y0140350D02*
X0709880Y0140350D01*
X0709880Y0159366D01*
X0634880Y0159366D01*
X0634880Y0140350D01*
X0675963Y0136807D02*
X0675963Y0126807D01*
X0679465Y0129557D02*
X0679465Y0134061D01*
X0677213Y0131809D01*
X0680215Y0131809D01*
X0686831Y0132560D02*
X0688332Y0134061D01*
X0688332Y0129557D01*
X0686831Y0129557D02*
X0689833Y0129557D01*
X0711081Y0126807D02*
X0711081Y0136807D01*
X0713081Y0134061D02*
X0712331Y0133310D01*
X0713081Y0134061D02*
X0714583Y0134061D01*
X0715333Y0133310D01*
X0715333Y0132560D01*
X0712331Y0129557D01*
X0715333Y0129557D01*
X0715982Y0145587D02*
X0710077Y0145587D01*
X0715982Y0145587D02*
X0715982Y0154248D01*
X0710077Y0154248D01*
X0722264Y0158593D02*
X0725266Y0158593D01*
X0723765Y0158593D02*
X0723765Y0163096D01*
X0722264Y0161595D01*
X0746514Y0165843D02*
X0746514Y0155843D01*
X0747764Y0158593D02*
X0750766Y0161595D01*
X0750766Y0162346D01*
X0750016Y0163096D01*
X0748514Y0163096D01*
X0747764Y0162346D01*
X0747764Y0158593D02*
X0750766Y0158593D01*
X0552420Y0158888D02*
X0549417Y0158888D01*
X0549519Y0159140D02*
X0549519Y0163644D01*
X0548018Y0162142D01*
X0549417Y0161890D02*
X0550919Y0163392D01*
X0550919Y0158888D01*
X0551021Y0159140D02*
X0548018Y0159140D01*
X0550045Y0149809D02*
X0550045Y0145305D01*
X0551546Y0145305D02*
X0548543Y0145305D01*
X0548543Y0148308D02*
X0550045Y0149809D01*
X0550045Y0137998D02*
X0550045Y0133494D01*
X0551546Y0133494D02*
X0548543Y0133494D01*
X0548543Y0136497D02*
X0550045Y0137998D01*
X0537240Y0134061D02*
X0534988Y0131809D01*
X0537991Y0131809D01*
X0537240Y0129557D02*
X0537240Y0134061D01*
X0533738Y0136807D02*
X0533738Y0126807D01*
X0492491Y0129557D02*
X0489488Y0129557D01*
X0490989Y0129557D02*
X0490989Y0134061D01*
X0489488Y0132560D01*
X0493269Y0159140D02*
X0492518Y0159890D01*
X0493269Y0159140D02*
X0494770Y0159140D01*
X0495521Y0159890D01*
X0495521Y0161392D01*
X0494770Y0162142D01*
X0494019Y0162142D01*
X0492518Y0161392D01*
X0492518Y0163644D01*
X0495521Y0163644D01*
X0492292Y0166367D02*
X0491541Y0165616D01*
X0490040Y0165616D01*
X0489289Y0166367D01*
X0492292Y0169369D01*
X0492292Y0166367D01*
X0492292Y0169369D02*
X0491541Y0170120D01*
X0490040Y0170120D01*
X0489289Y0169369D01*
X0489289Y0166367D01*
X0487688Y0165616D02*
X0484685Y0165616D01*
X0486186Y0165616D02*
X0486186Y0170120D01*
X0484685Y0168619D01*
X0421425Y0141810D02*
X0418423Y0138808D01*
X0419173Y0138057D01*
X0420675Y0138057D01*
X0421425Y0138808D01*
X0421425Y0141810D01*
X0420675Y0142561D01*
X0419173Y0142561D01*
X0418423Y0141810D01*
X0418423Y0138808D01*
X0416821Y0138057D02*
X0413819Y0138057D01*
X0415320Y0138057D02*
X0415320Y0142561D01*
X0413819Y0141060D01*
X0400188Y0165616D02*
X0397185Y0165616D01*
X0398686Y0165616D02*
X0398686Y0170120D01*
X0397185Y0168619D01*
X0329321Y0138057D02*
X0326319Y0138057D01*
X0327820Y0138057D02*
X0327820Y0142561D01*
X0326319Y0141060D01*
X0265914Y0140826D02*
X0265914Y0137823D01*
X0265163Y0137073D01*
X0263662Y0137073D01*
X0262911Y0137823D01*
X0265914Y0140826D01*
X0265163Y0141577D01*
X0263662Y0141577D01*
X0262911Y0140826D01*
X0262911Y0137823D01*
X0261310Y0137073D02*
X0258307Y0137073D01*
X0259808Y0137073D02*
X0259808Y0141577D01*
X0258307Y0140075D01*
X0217085Y0147043D02*
X0217085Y0187043D01*
X0177675Y0186650D02*
X0177675Y0146650D01*
X0172308Y0141577D02*
X0172308Y0137073D01*
X0170807Y0137073D02*
X0173810Y0137073D01*
X0170807Y0140075D02*
X0172308Y0141577D01*
X0284600Y0187862D02*
X0284600Y0192862D01*
X0285850Y0195362D02*
X0279600Y0195362D01*
X0279600Y0200362D01*
X0285850Y0200362D01*
X0285918Y0200360D01*
X0285985Y0200355D01*
X0286052Y0200346D01*
X0286119Y0200333D01*
X0286184Y0200316D01*
X0286249Y0200297D01*
X0286313Y0200273D01*
X0286375Y0200246D01*
X0286436Y0200216D01*
X0286494Y0200183D01*
X0286551Y0200147D01*
X0286606Y0200107D01*
X0286659Y0200065D01*
X0286710Y0200019D01*
X0286757Y0199972D01*
X0286803Y0199921D01*
X0286845Y0199868D01*
X0286885Y0199813D01*
X0286921Y0199756D01*
X0286954Y0199698D01*
X0286984Y0199637D01*
X0287011Y0199575D01*
X0287035Y0199511D01*
X0287054Y0199446D01*
X0287071Y0199381D01*
X0287084Y0199314D01*
X0287093Y0199247D01*
X0287098Y0199180D01*
X0287100Y0199112D01*
X0287100Y0196612D01*
X0287098Y0196544D01*
X0287093Y0196477D01*
X0287084Y0196410D01*
X0287071Y0196343D01*
X0287054Y0196278D01*
X0287035Y0196213D01*
X0287011Y0196149D01*
X0286984Y0196087D01*
X0286954Y0196026D01*
X0286921Y0195968D01*
X0286885Y0195911D01*
X0286845Y0195856D01*
X0286803Y0195803D01*
X0286757Y0195752D01*
X0286710Y0195705D01*
X0286659Y0195659D01*
X0286606Y0195617D01*
X0286551Y0195577D01*
X0286494Y0195541D01*
X0286436Y0195508D01*
X0286375Y0195478D01*
X0286313Y0195451D01*
X0286249Y0195427D01*
X0286184Y0195408D01*
X0286119Y0195391D01*
X0286052Y0195378D01*
X0285985Y0195369D01*
X0285918Y0195364D01*
X0285850Y0195362D01*
X0289600Y0192862D02*
X0289600Y0187862D01*
X0284600Y0187862D01*
X0292100Y0195362D02*
X0293931Y0195362D01*
X0294971Y0195919D02*
X0297100Y0199112D01*
X0297100Y0200362D02*
X0302100Y0200362D01*
X0302100Y0195362D01*
X0297100Y0195362D01*
X0294971Y0195919D02*
X0294932Y0195863D01*
X0294889Y0195809D01*
X0294844Y0195758D01*
X0294796Y0195710D01*
X0294746Y0195664D01*
X0294693Y0195621D01*
X0294637Y0195581D01*
X0294580Y0195544D01*
X0294521Y0195510D01*
X0294460Y0195479D01*
X0294397Y0195452D01*
X0294333Y0195428D01*
X0294268Y0195408D01*
X0294202Y0195392D01*
X0294135Y0195379D01*
X0294067Y0195369D01*
X0293999Y0195364D01*
X0293931Y0195362D01*
X0292100Y0195362D02*
X0292100Y0202862D01*
X0297100Y0202862D01*
X0302100Y0202862D01*
X0302100Y0205362D02*
X0297100Y0205362D01*
X0297100Y0207862D02*
X0302100Y0207862D01*
X0302100Y0210362D02*
X0297100Y0210362D01*
X0297100Y0212862D02*
X0292100Y0212862D01*
X0292100Y0220362D01*
X0293931Y0220362D01*
X0294971Y0219806D02*
X0297100Y0216612D01*
X0297100Y0215362D02*
X0302100Y0215362D01*
X0302100Y0220362D01*
X0297100Y0220362D01*
X0294971Y0219805D02*
X0294932Y0219861D01*
X0294889Y0219915D01*
X0294844Y0219966D01*
X0294796Y0220014D01*
X0294746Y0220060D01*
X0294693Y0220103D01*
X0294637Y0220143D01*
X0294580Y0220180D01*
X0294521Y0220214D01*
X0294460Y0220245D01*
X0294397Y0220272D01*
X0294333Y0220296D01*
X0294268Y0220316D01*
X0294202Y0220332D01*
X0294135Y0220345D01*
X0294067Y0220355D01*
X0293999Y0220360D01*
X0293931Y0220362D01*
X0289600Y0222862D02*
X0289600Y0227862D01*
X0284600Y0227862D01*
X0284600Y0222862D01*
X0285850Y0220362D02*
X0279600Y0220362D01*
X0279600Y0215362D01*
X0285850Y0215362D01*
X0285918Y0215364D01*
X0285985Y0215369D01*
X0286052Y0215378D01*
X0286119Y0215391D01*
X0286184Y0215408D01*
X0286249Y0215427D01*
X0286313Y0215451D01*
X0286375Y0215478D01*
X0286436Y0215508D01*
X0286494Y0215541D01*
X0286551Y0215577D01*
X0286606Y0215617D01*
X0286659Y0215659D01*
X0286710Y0215705D01*
X0286757Y0215752D01*
X0286803Y0215803D01*
X0286845Y0215856D01*
X0286885Y0215911D01*
X0286921Y0215968D01*
X0286954Y0216026D01*
X0286984Y0216087D01*
X0287011Y0216149D01*
X0287035Y0216213D01*
X0287054Y0216278D01*
X0287071Y0216343D01*
X0287084Y0216410D01*
X0287093Y0216477D01*
X0287098Y0216544D01*
X0287100Y0216612D01*
X0287100Y0219112D01*
X0287098Y0219180D01*
X0287093Y0219247D01*
X0287084Y0219314D01*
X0287071Y0219381D01*
X0287054Y0219446D01*
X0287035Y0219511D01*
X0287011Y0219575D01*
X0286984Y0219637D01*
X0286954Y0219698D01*
X0286921Y0219756D01*
X0286885Y0219813D01*
X0286845Y0219868D01*
X0286803Y0219921D01*
X0286757Y0219972D01*
X0286710Y0220019D01*
X0286659Y0220065D01*
X0286606Y0220107D01*
X0286551Y0220147D01*
X0286494Y0220183D01*
X0286436Y0220216D01*
X0286375Y0220246D01*
X0286313Y0220273D01*
X0286249Y0220297D01*
X0286184Y0220316D01*
X0286119Y0220333D01*
X0286052Y0220346D01*
X0285985Y0220355D01*
X0285918Y0220360D01*
X0285850Y0220362D01*
X0297100Y0212862D02*
X0302100Y0212862D01*
X0315462Y0239167D02*
X0316963Y0239167D01*
X0317714Y0239918D01*
X0317714Y0240669D01*
X0316963Y0241419D01*
X0314711Y0241419D01*
X0314711Y0239918D01*
X0315462Y0239167D01*
X0314711Y0241419D02*
X0316212Y0242921D01*
X0317714Y0243671D01*
X0278236Y0264775D02*
X0278236Y0268525D01*
X0278236Y0274617D02*
X0278236Y0278367D01*
X0278236Y0283475D02*
X0278236Y0287225D01*
X0265914Y0299241D02*
X0265163Y0298490D01*
X0263662Y0298490D01*
X0262911Y0299241D01*
X0265914Y0302243D01*
X0265914Y0299241D01*
X0265914Y0302243D02*
X0265163Y0302994D01*
X0263662Y0302994D01*
X0262911Y0302243D01*
X0262911Y0299241D01*
X0261310Y0298490D02*
X0258307Y0298490D01*
X0259808Y0298490D02*
X0259808Y0302994D01*
X0258307Y0301493D01*
X0216793Y0270941D02*
X0216793Y0230941D01*
X0176998Y0230862D02*
X0176998Y0270862D01*
X0173810Y0298490D02*
X0170807Y0298490D01*
X0172308Y0298490D02*
X0172308Y0302994D01*
X0170807Y0301493D01*
X0326319Y0302477D02*
X0327820Y0303978D01*
X0327820Y0299474D01*
X0326319Y0299474D02*
X0329321Y0299474D01*
X0413819Y0299474D02*
X0416821Y0299474D01*
X0415320Y0299474D02*
X0415320Y0303978D01*
X0413819Y0302477D01*
X0418423Y0303228D02*
X0419173Y0303978D01*
X0420675Y0303978D01*
X0421425Y0303228D01*
X0418423Y0300225D01*
X0419173Y0299474D01*
X0420675Y0299474D01*
X0421425Y0300225D01*
X0421425Y0303228D01*
X0418423Y0303228D02*
X0418423Y0300225D01*
X0489488Y0293977D02*
X0490989Y0295478D01*
X0490989Y0290974D01*
X0489488Y0290974D02*
X0492491Y0290974D01*
X0533738Y0288224D02*
X0533738Y0298224D01*
X0537240Y0295478D02*
X0534988Y0293226D01*
X0537991Y0293226D01*
X0537240Y0290974D02*
X0537240Y0295478D01*
X0536462Y0287864D02*
X0536462Y0283360D01*
X0534961Y0283360D02*
X0537963Y0283360D01*
X0534961Y0286363D02*
X0536462Y0287864D01*
X0437851Y0243905D02*
X0437851Y0240902D01*
X0437101Y0240152D01*
X0435599Y0240152D01*
X0434849Y0240902D01*
X0435599Y0242403D02*
X0437851Y0242403D01*
X0437851Y0243905D02*
X0437101Y0244655D01*
X0435599Y0244655D01*
X0434849Y0243905D01*
X0434849Y0243154D01*
X0435599Y0242403D01*
X0367714Y0239167D02*
X0364711Y0239167D01*
X0366212Y0239167D02*
X0366212Y0243671D01*
X0364711Y0242170D01*
D20*
X0481624Y0222307D02*
X0481624Y0194709D01*
X0507825Y0194709D01*
X0509222Y0196106D01*
X0509222Y0222307D01*
X0481624Y0222307D01*
X0532435Y0221685D02*
X0532435Y0194685D01*
X0532438Y0194466D01*
X0532446Y0194247D01*
X0532459Y0194028D01*
X0532478Y0193810D01*
X0532502Y0193592D01*
X0532531Y0193375D01*
X0532565Y0193158D01*
X0532605Y0192943D01*
X0532650Y0192728D01*
X0532701Y0192515D01*
X0532756Y0192303D01*
X0532817Y0192092D01*
X0532882Y0191883D01*
X0532953Y0191676D01*
X0533029Y0191470D01*
X0533110Y0191266D01*
X0533195Y0191064D01*
X0533286Y0190865D01*
X0533381Y0190668D01*
X0533482Y0190473D01*
X0533587Y0190280D01*
X0533696Y0190090D01*
X0533810Y0189903D01*
X0533929Y0189719D01*
X0534052Y0189538D01*
X0534180Y0189360D01*
X0534312Y0189184D01*
X0534448Y0189013D01*
X0534588Y0188844D01*
X0534732Y0188679D01*
X0534880Y0188518D01*
X0535032Y0188360D01*
X0535188Y0188206D01*
X0535348Y0188056D01*
X0535511Y0187909D01*
X0535678Y0187767D01*
X0535848Y0187629D01*
X0536022Y0187495D01*
X0536198Y0187365D01*
X0536378Y0187240D01*
X0536561Y0187119D01*
X0536747Y0187003D01*
X0536935Y0186891D01*
X0537126Y0186784D01*
X0537320Y0186681D01*
X0537516Y0186583D01*
X0537714Y0186490D01*
X0537915Y0186402D01*
X0538118Y0186319D01*
X0538323Y0186240D01*
X0538529Y0186167D01*
X0538737Y0186099D01*
X0538947Y0186036D01*
X0539159Y0185978D01*
X0539371Y0185925D01*
X0539585Y0185877D01*
X0539800Y0185835D01*
X0540016Y0185798D01*
X0540233Y0185766D01*
X0540451Y0185739D01*
X0540669Y0185718D01*
X0540887Y0185702D01*
X0541106Y0185691D01*
X0541325Y0185686D01*
X0541545Y0185686D01*
X0541764Y0185691D01*
X0541983Y0185702D01*
X0542201Y0185718D01*
X0542419Y0185739D01*
X0542637Y0185766D01*
X0542854Y0185798D01*
X0543070Y0185835D01*
X0543285Y0185877D01*
X0543499Y0185925D01*
X0543711Y0185978D01*
X0543923Y0186036D01*
X0544133Y0186099D01*
X0544341Y0186167D01*
X0544547Y0186240D01*
X0544752Y0186319D01*
X0544955Y0186402D01*
X0545156Y0186490D01*
X0545354Y0186583D01*
X0545550Y0186681D01*
X0545744Y0186784D01*
X0545935Y0186891D01*
X0546123Y0187003D01*
X0546309Y0187119D01*
X0546492Y0187240D01*
X0546672Y0187365D01*
X0546848Y0187495D01*
X0547022Y0187629D01*
X0547192Y0187767D01*
X0547359Y0187909D01*
X0547522Y0188056D01*
X0547682Y0188206D01*
X0547838Y0188360D01*
X0547990Y0188518D01*
X0548138Y0188679D01*
X0548282Y0188844D01*
X0548422Y0189013D01*
X0548558Y0189184D01*
X0548690Y0189360D01*
X0548818Y0189538D01*
X0548941Y0189719D01*
X0549060Y0189903D01*
X0549174Y0190090D01*
X0549283Y0190280D01*
X0549388Y0190473D01*
X0549489Y0190668D01*
X0549584Y0190865D01*
X0549675Y0191064D01*
X0549760Y0191266D01*
X0549841Y0191470D01*
X0549917Y0191676D01*
X0549988Y0191883D01*
X0550053Y0192092D01*
X0550114Y0192303D01*
X0550169Y0192515D01*
X0550220Y0192728D01*
X0550265Y0192943D01*
X0550305Y0193158D01*
X0550339Y0193375D01*
X0550368Y0193592D01*
X0550392Y0193810D01*
X0550411Y0194028D01*
X0550424Y0194247D01*
X0550432Y0194466D01*
X0550435Y0194685D01*
X0550435Y0221685D01*
X0550432Y0221904D01*
X0550424Y0222123D01*
X0550411Y0222342D01*
X0550392Y0222560D01*
X0550368Y0222778D01*
X0550339Y0222995D01*
X0550305Y0223212D01*
X0550265Y0223427D01*
X0550220Y0223642D01*
X0550169Y0223855D01*
X0550114Y0224067D01*
X0550053Y0224278D01*
X0549988Y0224487D01*
X0549917Y0224694D01*
X0549841Y0224900D01*
X0549760Y0225104D01*
X0549675Y0225306D01*
X0549584Y0225505D01*
X0549489Y0225702D01*
X0549388Y0225897D01*
X0549283Y0226090D01*
X0549174Y0226280D01*
X0549060Y0226467D01*
X0548941Y0226651D01*
X0548818Y0226832D01*
X0548690Y0227010D01*
X0548558Y0227186D01*
X0548422Y0227357D01*
X0548282Y0227526D01*
X0548138Y0227691D01*
X0547990Y0227852D01*
X0547838Y0228010D01*
X0547682Y0228164D01*
X0547522Y0228314D01*
X0547359Y0228461D01*
X0547192Y0228603D01*
X0547022Y0228741D01*
X0546848Y0228875D01*
X0546672Y0229005D01*
X0546492Y0229130D01*
X0546309Y0229251D01*
X0546123Y0229367D01*
X0545935Y0229479D01*
X0545744Y0229586D01*
X0545550Y0229689D01*
X0545354Y0229787D01*
X0545156Y0229880D01*
X0544955Y0229968D01*
X0544752Y0230051D01*
X0544547Y0230130D01*
X0544341Y0230203D01*
X0544133Y0230271D01*
X0543923Y0230334D01*
X0543711Y0230392D01*
X0543499Y0230445D01*
X0543285Y0230493D01*
X0543070Y0230535D01*
X0542854Y0230572D01*
X0542637Y0230604D01*
X0542419Y0230631D01*
X0542201Y0230652D01*
X0541983Y0230668D01*
X0541764Y0230679D01*
X0541545Y0230684D01*
X0541325Y0230684D01*
X0541106Y0230679D01*
X0540887Y0230668D01*
X0540669Y0230652D01*
X0540451Y0230631D01*
X0540233Y0230604D01*
X0540016Y0230572D01*
X0539800Y0230535D01*
X0539585Y0230493D01*
X0539371Y0230445D01*
X0539159Y0230392D01*
X0538947Y0230334D01*
X0538737Y0230271D01*
X0538529Y0230203D01*
X0538323Y0230130D01*
X0538118Y0230051D01*
X0537915Y0229968D01*
X0537714Y0229880D01*
X0537516Y0229787D01*
X0537320Y0229689D01*
X0537126Y0229586D01*
X0536935Y0229479D01*
X0536747Y0229367D01*
X0536561Y0229251D01*
X0536378Y0229130D01*
X0536198Y0229005D01*
X0536022Y0228875D01*
X0535848Y0228741D01*
X0535678Y0228603D01*
X0535511Y0228461D01*
X0535348Y0228314D01*
X0535188Y0228164D01*
X0535032Y0228010D01*
X0534880Y0227852D01*
X0534732Y0227691D01*
X0534588Y0227526D01*
X0534448Y0227357D01*
X0534312Y0227186D01*
X0534180Y0227010D01*
X0534052Y0226832D01*
X0533929Y0226651D01*
X0533810Y0226467D01*
X0533696Y0226280D01*
X0533587Y0226090D01*
X0533482Y0225897D01*
X0533381Y0225702D01*
X0533286Y0225505D01*
X0533195Y0225306D01*
X0533110Y0225104D01*
X0533029Y0224900D01*
X0532953Y0224694D01*
X0532882Y0224487D01*
X0532817Y0224278D01*
X0532756Y0224067D01*
X0532701Y0223855D01*
X0532650Y0223642D01*
X0532605Y0223427D01*
X0532565Y0223212D01*
X0532531Y0222995D01*
X0532502Y0222778D01*
X0532478Y0222560D01*
X0532459Y0222342D01*
X0532446Y0222123D01*
X0532438Y0221904D01*
X0532435Y0221685D01*
X0509223Y0194008D02*
X0509225Y0194057D01*
X0509231Y0194105D01*
X0509241Y0194153D01*
X0509255Y0194200D01*
X0509272Y0194246D01*
X0509293Y0194290D01*
X0509318Y0194332D01*
X0509346Y0194372D01*
X0509378Y0194410D01*
X0509412Y0194445D01*
X0509449Y0194477D01*
X0509488Y0194506D01*
X0509530Y0194532D01*
X0509574Y0194554D01*
X0509619Y0194572D01*
X0509666Y0194587D01*
X0509713Y0194598D01*
X0509762Y0194605D01*
X0509811Y0194608D01*
X0509860Y0194607D01*
X0509908Y0194602D01*
X0509957Y0194593D01*
X0510004Y0194580D01*
X0510050Y0194563D01*
X0510094Y0194543D01*
X0510137Y0194519D01*
X0510178Y0194492D01*
X0510216Y0194461D01*
X0510252Y0194428D01*
X0510284Y0194392D01*
X0510314Y0194353D01*
X0510341Y0194312D01*
X0510364Y0194268D01*
X0510383Y0194223D01*
X0510399Y0194177D01*
X0510411Y0194130D01*
X0510419Y0194081D01*
X0510423Y0194032D01*
X0510423Y0193984D01*
X0510419Y0193935D01*
X0510411Y0193886D01*
X0510399Y0193839D01*
X0510383Y0193793D01*
X0510364Y0193748D01*
X0510341Y0193704D01*
X0510314Y0193663D01*
X0510284Y0193624D01*
X0510252Y0193588D01*
X0510216Y0193555D01*
X0510178Y0193524D01*
X0510137Y0193497D01*
X0510094Y0193473D01*
X0510050Y0193453D01*
X0510004Y0193436D01*
X0509957Y0193423D01*
X0509908Y0193414D01*
X0509860Y0193409D01*
X0509811Y0193408D01*
X0509762Y0193411D01*
X0509713Y0193418D01*
X0509666Y0193429D01*
X0509619Y0193444D01*
X0509574Y0193462D01*
X0509530Y0193484D01*
X0509488Y0193510D01*
X0509449Y0193539D01*
X0509412Y0193571D01*
X0509378Y0193606D01*
X0509346Y0193644D01*
X0509318Y0193684D01*
X0509293Y0193726D01*
X0509272Y0193770D01*
X0509255Y0193816D01*
X0509241Y0193863D01*
X0509231Y0193911D01*
X0509225Y0193959D01*
X0509223Y0194008D01*
X0647010Y0188402D02*
X0648010Y0188402D01*
X0648010Y0191402D01*
X0668010Y0191402D01*
X0668010Y0188402D01*
X0669010Y0188402D01*
X0668010Y0188402D02*
X0668010Y0185402D01*
X0648010Y0185402D01*
X0648010Y0188402D01*
X0647518Y0232154D02*
X0647518Y0235154D01*
X0646518Y0235154D01*
X0647518Y0235154D02*
X0647518Y0238154D01*
X0667518Y0238154D01*
X0667518Y0235154D01*
X0668518Y0235154D01*
X0667518Y0235154D02*
X0667518Y0232154D01*
X0647518Y0232154D01*
X0164242Y0232642D02*
X0164242Y0221618D01*
X0160699Y0218075D01*
X0123297Y0218075D01*
X0123297Y0232642D01*
X0123297Y0244453D02*
X0123297Y0259020D01*
X0160699Y0259020D01*
X0164242Y0255476D01*
X0164242Y0244453D01*
X0162077Y0244649D02*
X0161922Y0245096D01*
X0161756Y0245538D01*
X0161579Y0245977D01*
X0161392Y0246411D01*
X0161194Y0246840D01*
X0160986Y0247264D01*
X0160767Y0247683D01*
X0160539Y0248096D01*
X0160300Y0248504D01*
X0160051Y0248906D01*
X0159792Y0249302D01*
X0159524Y0249691D01*
X0159246Y0250073D01*
X0158960Y0250449D01*
X0158664Y0250817D01*
X0158359Y0251178D01*
X0158045Y0251532D01*
X0157723Y0251877D01*
X0157392Y0252215D01*
X0157053Y0252544D01*
X0156706Y0252866D01*
X0156352Y0253178D01*
X0155990Y0253482D01*
X0155621Y0253777D01*
X0155244Y0254062D01*
X0154861Y0254339D01*
X0154471Y0254605D01*
X0154074Y0254863D01*
X0153671Y0255110D01*
X0153263Y0255348D01*
X0152849Y0255575D01*
X0152429Y0255792D01*
X0152004Y0255999D01*
X0151574Y0256195D01*
X0151140Y0256381D01*
X0150701Y0256556D01*
X0150258Y0256721D01*
X0149811Y0256874D01*
X0149360Y0257017D01*
X0148906Y0257148D01*
X0148449Y0257268D01*
X0147989Y0257377D01*
X0147527Y0257475D01*
X0147062Y0257561D01*
X0146595Y0257636D01*
X0146127Y0257699D01*
X0145657Y0257751D01*
X0145187Y0257792D01*
X0144715Y0257821D01*
X0144243Y0257838D01*
X0143770Y0257844D01*
X0143297Y0257838D01*
X0142825Y0257821D01*
X0142353Y0257792D01*
X0141883Y0257751D01*
X0141413Y0257699D01*
X0140945Y0257636D01*
X0140478Y0257561D01*
X0140013Y0257475D01*
X0139551Y0257377D01*
X0139091Y0257268D01*
X0138634Y0257148D01*
X0138180Y0257017D01*
X0137729Y0256874D01*
X0137282Y0256721D01*
X0136839Y0256556D01*
X0136400Y0256381D01*
X0135966Y0256195D01*
X0135536Y0255999D01*
X0135111Y0255792D01*
X0134691Y0255575D01*
X0134277Y0255348D01*
X0133869Y0255110D01*
X0133466Y0254863D01*
X0133069Y0254605D01*
X0132679Y0254339D01*
X0132296Y0254062D01*
X0131919Y0253777D01*
X0131550Y0253482D01*
X0131188Y0253178D01*
X0130834Y0252866D01*
X0130487Y0252544D01*
X0130148Y0252215D01*
X0129817Y0251877D01*
X0129495Y0251532D01*
X0129181Y0251178D01*
X0128876Y0250817D01*
X0128580Y0250449D01*
X0128294Y0250073D01*
X0128016Y0249691D01*
X0127748Y0249302D01*
X0127489Y0248906D01*
X0127240Y0248504D01*
X0127001Y0248096D01*
X0126773Y0247683D01*
X0126554Y0247264D01*
X0126346Y0246840D01*
X0126148Y0246411D01*
X0125961Y0245977D01*
X0125784Y0245538D01*
X0125618Y0245096D01*
X0125463Y0244649D01*
X0125463Y0232445D02*
X0125618Y0231998D01*
X0125784Y0231556D01*
X0125961Y0231117D01*
X0126148Y0230683D01*
X0126346Y0230254D01*
X0126554Y0229830D01*
X0126773Y0229411D01*
X0127001Y0228998D01*
X0127240Y0228590D01*
X0127489Y0228188D01*
X0127748Y0227792D01*
X0128016Y0227403D01*
X0128294Y0227021D01*
X0128580Y0226645D01*
X0128876Y0226277D01*
X0129181Y0225916D01*
X0129495Y0225562D01*
X0129817Y0225217D01*
X0130148Y0224879D01*
X0130487Y0224550D01*
X0130834Y0224228D01*
X0131188Y0223916D01*
X0131550Y0223612D01*
X0131919Y0223317D01*
X0132296Y0223032D01*
X0132679Y0222755D01*
X0133069Y0222489D01*
X0133466Y0222231D01*
X0133869Y0221984D01*
X0134277Y0221746D01*
X0134691Y0221519D01*
X0135111Y0221302D01*
X0135536Y0221095D01*
X0135966Y0220899D01*
X0136400Y0220713D01*
X0136839Y0220538D01*
X0137282Y0220373D01*
X0137729Y0220220D01*
X0138180Y0220077D01*
X0138634Y0219946D01*
X0139091Y0219826D01*
X0139551Y0219717D01*
X0140013Y0219619D01*
X0140478Y0219533D01*
X0140945Y0219458D01*
X0141413Y0219395D01*
X0141883Y0219343D01*
X0142353Y0219302D01*
X0142825Y0219273D01*
X0143297Y0219256D01*
X0143770Y0219250D01*
X0144243Y0219256D01*
X0144715Y0219273D01*
X0145187Y0219302D01*
X0145657Y0219343D01*
X0146127Y0219395D01*
X0146595Y0219458D01*
X0147062Y0219533D01*
X0147527Y0219619D01*
X0147989Y0219717D01*
X0148449Y0219826D01*
X0148906Y0219946D01*
X0149360Y0220077D01*
X0149811Y0220220D01*
X0150258Y0220373D01*
X0150701Y0220538D01*
X0151140Y0220713D01*
X0151574Y0220899D01*
X0152004Y0221095D01*
X0152429Y0221302D01*
X0152849Y0221519D01*
X0153263Y0221746D01*
X0153671Y0221984D01*
X0154074Y0222231D01*
X0154471Y0222489D01*
X0154861Y0222755D01*
X0155244Y0223032D01*
X0155621Y0223317D01*
X0155990Y0223612D01*
X0156352Y0223916D01*
X0156706Y0224228D01*
X0157053Y0224550D01*
X0157392Y0224879D01*
X0157723Y0225217D01*
X0158045Y0225562D01*
X0158359Y0225916D01*
X0158664Y0226277D01*
X0158960Y0226645D01*
X0159246Y0227021D01*
X0159524Y0227403D01*
X0159792Y0227792D01*
X0160051Y0228188D01*
X0160300Y0228590D01*
X0160539Y0228998D01*
X0160767Y0229411D01*
X0160986Y0229830D01*
X0161194Y0230254D01*
X0161392Y0230683D01*
X0161579Y0231117D01*
X0161756Y0231556D01*
X0161922Y0231998D01*
X0162077Y0232445D01*
X0160337Y0259169D02*
X0122935Y0259169D01*
X0122935Y0273736D01*
X0125100Y0285744D02*
X0125255Y0286191D01*
X0125421Y0286633D01*
X0125598Y0287072D01*
X0125785Y0287506D01*
X0125983Y0287935D01*
X0126191Y0288359D01*
X0126410Y0288778D01*
X0126638Y0289191D01*
X0126877Y0289599D01*
X0127126Y0290001D01*
X0127385Y0290397D01*
X0127653Y0290786D01*
X0127931Y0291168D01*
X0128217Y0291544D01*
X0128513Y0291912D01*
X0128818Y0292273D01*
X0129132Y0292627D01*
X0129454Y0292972D01*
X0129785Y0293310D01*
X0130124Y0293639D01*
X0130471Y0293961D01*
X0130825Y0294273D01*
X0131187Y0294577D01*
X0131556Y0294872D01*
X0131933Y0295157D01*
X0132316Y0295434D01*
X0132706Y0295700D01*
X0133103Y0295958D01*
X0133506Y0296205D01*
X0133914Y0296443D01*
X0134328Y0296670D01*
X0134748Y0296887D01*
X0135173Y0297094D01*
X0135603Y0297290D01*
X0136037Y0297476D01*
X0136476Y0297651D01*
X0136919Y0297816D01*
X0137366Y0297969D01*
X0137817Y0298112D01*
X0138271Y0298243D01*
X0138728Y0298363D01*
X0139188Y0298472D01*
X0139650Y0298570D01*
X0140115Y0298656D01*
X0140582Y0298731D01*
X0141050Y0298794D01*
X0141520Y0298846D01*
X0141990Y0298887D01*
X0142462Y0298916D01*
X0142934Y0298933D01*
X0143407Y0298939D01*
X0143880Y0298933D01*
X0144352Y0298916D01*
X0144824Y0298887D01*
X0145294Y0298846D01*
X0145764Y0298794D01*
X0146232Y0298731D01*
X0146699Y0298656D01*
X0147164Y0298570D01*
X0147626Y0298472D01*
X0148086Y0298363D01*
X0148543Y0298243D01*
X0148997Y0298112D01*
X0149448Y0297969D01*
X0149895Y0297816D01*
X0150338Y0297651D01*
X0150777Y0297476D01*
X0151211Y0297290D01*
X0151641Y0297094D01*
X0152066Y0296887D01*
X0152486Y0296670D01*
X0152900Y0296443D01*
X0153308Y0296205D01*
X0153711Y0295958D01*
X0154108Y0295700D01*
X0154498Y0295434D01*
X0154881Y0295157D01*
X0155258Y0294872D01*
X0155627Y0294577D01*
X0155989Y0294273D01*
X0156343Y0293961D01*
X0156690Y0293639D01*
X0157029Y0293310D01*
X0157360Y0292972D01*
X0157682Y0292627D01*
X0157996Y0292273D01*
X0158301Y0291912D01*
X0158597Y0291544D01*
X0158883Y0291168D01*
X0159161Y0290786D01*
X0159429Y0290397D01*
X0159688Y0290001D01*
X0159937Y0289599D01*
X0160176Y0289191D01*
X0160404Y0288778D01*
X0160623Y0288359D01*
X0160831Y0287935D01*
X0161029Y0287506D01*
X0161216Y0287072D01*
X0161393Y0286633D01*
X0161559Y0286191D01*
X0161714Y0285744D01*
X0163880Y0285547D02*
X0163880Y0296571D01*
X0160337Y0300114D01*
X0122935Y0300114D01*
X0122935Y0285547D01*
X0125100Y0273540D02*
X0125255Y0273093D01*
X0125421Y0272651D01*
X0125598Y0272212D01*
X0125785Y0271778D01*
X0125983Y0271349D01*
X0126191Y0270925D01*
X0126410Y0270506D01*
X0126638Y0270093D01*
X0126877Y0269685D01*
X0127126Y0269283D01*
X0127385Y0268887D01*
X0127653Y0268498D01*
X0127931Y0268116D01*
X0128217Y0267740D01*
X0128513Y0267372D01*
X0128818Y0267011D01*
X0129132Y0266657D01*
X0129454Y0266312D01*
X0129785Y0265974D01*
X0130124Y0265645D01*
X0130471Y0265323D01*
X0130825Y0265011D01*
X0131187Y0264707D01*
X0131556Y0264412D01*
X0131933Y0264127D01*
X0132316Y0263850D01*
X0132706Y0263584D01*
X0133103Y0263326D01*
X0133506Y0263079D01*
X0133914Y0262841D01*
X0134328Y0262614D01*
X0134748Y0262397D01*
X0135173Y0262190D01*
X0135603Y0261994D01*
X0136037Y0261808D01*
X0136476Y0261633D01*
X0136919Y0261468D01*
X0137366Y0261315D01*
X0137817Y0261172D01*
X0138271Y0261041D01*
X0138728Y0260921D01*
X0139188Y0260812D01*
X0139650Y0260714D01*
X0140115Y0260628D01*
X0140582Y0260553D01*
X0141050Y0260490D01*
X0141520Y0260438D01*
X0141990Y0260397D01*
X0142462Y0260368D01*
X0142934Y0260351D01*
X0143407Y0260345D01*
X0143880Y0260351D01*
X0144352Y0260368D01*
X0144824Y0260397D01*
X0145294Y0260438D01*
X0145764Y0260490D01*
X0146232Y0260553D01*
X0146699Y0260628D01*
X0147164Y0260714D01*
X0147626Y0260812D01*
X0148086Y0260921D01*
X0148543Y0261041D01*
X0148997Y0261172D01*
X0149448Y0261315D01*
X0149895Y0261468D01*
X0150338Y0261633D01*
X0150777Y0261808D01*
X0151211Y0261994D01*
X0151641Y0262190D01*
X0152066Y0262397D01*
X0152486Y0262614D01*
X0152900Y0262841D01*
X0153308Y0263079D01*
X0153711Y0263326D01*
X0154108Y0263584D01*
X0154498Y0263850D01*
X0154881Y0264127D01*
X0155258Y0264412D01*
X0155627Y0264707D01*
X0155989Y0265011D01*
X0156343Y0265323D01*
X0156690Y0265645D01*
X0157029Y0265974D01*
X0157360Y0266312D01*
X0157682Y0266657D01*
X0157996Y0267011D01*
X0158301Y0267372D01*
X0158597Y0267740D01*
X0158883Y0268116D01*
X0159161Y0268498D01*
X0159429Y0268887D01*
X0159688Y0269283D01*
X0159937Y0269685D01*
X0160176Y0270093D01*
X0160404Y0270506D01*
X0160623Y0270925D01*
X0160831Y0271349D01*
X0161029Y0271778D01*
X0161216Y0272212D01*
X0161393Y0272651D01*
X0161559Y0273093D01*
X0161714Y0273540D01*
X0163880Y0273736D02*
X0163880Y0262713D01*
X0160337Y0259169D01*
X0160140Y0169012D02*
X0122738Y0169012D01*
X0122738Y0154445D01*
X0122738Y0142634D02*
X0122738Y0128067D01*
X0160140Y0128067D01*
X0163683Y0131610D01*
X0163683Y0142634D01*
X0161518Y0154641D02*
X0161363Y0155088D01*
X0161197Y0155530D01*
X0161020Y0155969D01*
X0160833Y0156403D01*
X0160635Y0156832D01*
X0160427Y0157256D01*
X0160208Y0157675D01*
X0159980Y0158088D01*
X0159741Y0158496D01*
X0159492Y0158898D01*
X0159233Y0159294D01*
X0158965Y0159683D01*
X0158687Y0160065D01*
X0158401Y0160441D01*
X0158105Y0160809D01*
X0157800Y0161170D01*
X0157486Y0161524D01*
X0157164Y0161869D01*
X0156833Y0162207D01*
X0156494Y0162536D01*
X0156147Y0162858D01*
X0155793Y0163170D01*
X0155431Y0163474D01*
X0155062Y0163769D01*
X0154685Y0164054D01*
X0154302Y0164331D01*
X0153912Y0164597D01*
X0153515Y0164855D01*
X0153112Y0165102D01*
X0152704Y0165340D01*
X0152290Y0165567D01*
X0151870Y0165784D01*
X0151445Y0165991D01*
X0151015Y0166187D01*
X0150581Y0166373D01*
X0150142Y0166548D01*
X0149699Y0166713D01*
X0149252Y0166866D01*
X0148801Y0167009D01*
X0148347Y0167140D01*
X0147890Y0167260D01*
X0147430Y0167369D01*
X0146968Y0167467D01*
X0146503Y0167553D01*
X0146036Y0167628D01*
X0145568Y0167691D01*
X0145098Y0167743D01*
X0144628Y0167784D01*
X0144156Y0167813D01*
X0143684Y0167830D01*
X0143211Y0167836D01*
X0142738Y0167830D01*
X0142266Y0167813D01*
X0141794Y0167784D01*
X0141324Y0167743D01*
X0140854Y0167691D01*
X0140386Y0167628D01*
X0139919Y0167553D01*
X0139454Y0167467D01*
X0138992Y0167369D01*
X0138532Y0167260D01*
X0138075Y0167140D01*
X0137621Y0167009D01*
X0137170Y0166866D01*
X0136723Y0166713D01*
X0136280Y0166548D01*
X0135841Y0166373D01*
X0135407Y0166187D01*
X0134977Y0165991D01*
X0134552Y0165784D01*
X0134132Y0165567D01*
X0133718Y0165340D01*
X0133310Y0165102D01*
X0132907Y0164855D01*
X0132510Y0164597D01*
X0132120Y0164331D01*
X0131737Y0164054D01*
X0131360Y0163769D01*
X0130991Y0163474D01*
X0130629Y0163170D01*
X0130275Y0162858D01*
X0129928Y0162536D01*
X0129589Y0162207D01*
X0129258Y0161869D01*
X0128936Y0161524D01*
X0128622Y0161170D01*
X0128317Y0160809D01*
X0128021Y0160441D01*
X0127735Y0160065D01*
X0127457Y0159683D01*
X0127189Y0159294D01*
X0126930Y0158898D01*
X0126681Y0158496D01*
X0126442Y0158088D01*
X0126214Y0157675D01*
X0125995Y0157256D01*
X0125787Y0156832D01*
X0125589Y0156403D01*
X0125402Y0155969D01*
X0125225Y0155530D01*
X0125059Y0155088D01*
X0124904Y0154641D01*
X0124904Y0142437D02*
X0125059Y0141990D01*
X0125225Y0141548D01*
X0125402Y0141109D01*
X0125589Y0140675D01*
X0125787Y0140246D01*
X0125995Y0139822D01*
X0126214Y0139403D01*
X0126442Y0138990D01*
X0126681Y0138582D01*
X0126930Y0138180D01*
X0127189Y0137784D01*
X0127457Y0137395D01*
X0127735Y0137013D01*
X0128021Y0136637D01*
X0128317Y0136269D01*
X0128622Y0135908D01*
X0128936Y0135554D01*
X0129258Y0135209D01*
X0129589Y0134871D01*
X0129928Y0134542D01*
X0130275Y0134220D01*
X0130629Y0133908D01*
X0130991Y0133604D01*
X0131360Y0133309D01*
X0131737Y0133024D01*
X0132120Y0132747D01*
X0132510Y0132481D01*
X0132907Y0132223D01*
X0133310Y0131976D01*
X0133718Y0131738D01*
X0134132Y0131511D01*
X0134552Y0131294D01*
X0134977Y0131087D01*
X0135407Y0130891D01*
X0135841Y0130705D01*
X0136280Y0130530D01*
X0136723Y0130365D01*
X0137170Y0130212D01*
X0137621Y0130069D01*
X0138075Y0129938D01*
X0138532Y0129818D01*
X0138992Y0129709D01*
X0139454Y0129611D01*
X0139919Y0129525D01*
X0140386Y0129450D01*
X0140854Y0129387D01*
X0141324Y0129335D01*
X0141794Y0129294D01*
X0142266Y0129265D01*
X0142738Y0129248D01*
X0143211Y0129242D01*
X0143684Y0129248D01*
X0144156Y0129265D01*
X0144628Y0129294D01*
X0145098Y0129335D01*
X0145568Y0129387D01*
X0146036Y0129450D01*
X0146503Y0129525D01*
X0146968Y0129611D01*
X0147430Y0129709D01*
X0147890Y0129818D01*
X0148347Y0129938D01*
X0148801Y0130069D01*
X0149252Y0130212D01*
X0149699Y0130365D01*
X0150142Y0130530D01*
X0150581Y0130705D01*
X0151015Y0130891D01*
X0151445Y0131087D01*
X0151870Y0131294D01*
X0152290Y0131511D01*
X0152704Y0131738D01*
X0153112Y0131976D01*
X0153515Y0132223D01*
X0153912Y0132481D01*
X0154302Y0132747D01*
X0154685Y0133024D01*
X0155062Y0133309D01*
X0155431Y0133604D01*
X0155793Y0133908D01*
X0156147Y0134220D01*
X0156494Y0134542D01*
X0156833Y0134871D01*
X0157164Y0135209D01*
X0157486Y0135554D01*
X0157800Y0135908D01*
X0158105Y0136269D01*
X0158401Y0136637D01*
X0158687Y0137013D01*
X0158965Y0137395D01*
X0159233Y0137784D01*
X0159492Y0138180D01*
X0159741Y0138582D01*
X0159980Y0138990D01*
X0160208Y0139403D01*
X0160427Y0139822D01*
X0160635Y0140246D01*
X0160833Y0140675D01*
X0161020Y0141109D01*
X0161197Y0141548D01*
X0161363Y0141990D01*
X0161518Y0142437D01*
X0163683Y0154445D02*
X0163683Y0165469D01*
X0160140Y0169012D01*
D21*
X0438112Y0276382D02*
X0438112Y0287882D01*
X0438112Y0276382D02*
X0439112Y0275382D01*
X0477112Y0275382D01*
X0478112Y0276382D01*
X0478112Y0287882D01*
D22*
X0475362Y0289882D03*
X0440862Y0289882D03*
D23*
X0448112Y0290882D03*
X0458112Y0290882D03*
X0468112Y0290882D03*
D24*
X0463112Y0289882D03*
X0453112Y0289882D03*
D25*
X0705164Y0231921D02*
X0705249Y0231710D01*
X0705329Y0231497D01*
X0705404Y0231282D01*
X0705473Y0231066D01*
X0705538Y0230848D01*
X0705597Y0230628D01*
X0705651Y0230407D01*
X0705700Y0230185D01*
X0705743Y0229961D01*
X0705781Y0229737D01*
X0705814Y0229512D01*
X0705841Y0229286D01*
X0705863Y0229059D01*
X0705879Y0228832D01*
X0705890Y0228605D01*
X0705895Y0228378D01*
X0705895Y0228150D01*
X0705890Y0227923D01*
X0705879Y0227696D01*
X0705863Y0227469D01*
X0705841Y0227242D01*
X0705814Y0227016D01*
X0705781Y0226791D01*
X0705743Y0226567D01*
X0705700Y0226343D01*
X0705651Y0226121D01*
X0705597Y0225900D01*
X0705538Y0225680D01*
X0705473Y0225462D01*
X0705404Y0225246D01*
X0705329Y0225031D01*
X0705249Y0224818D01*
X0705164Y0224607D01*
X0700053Y0237032D02*
X0699839Y0237118D01*
X0699622Y0237199D01*
X0699404Y0237275D01*
X0699183Y0237346D01*
X0698961Y0237411D01*
X0698738Y0237471D01*
X0698513Y0237525D01*
X0698287Y0237574D01*
X0698060Y0237617D01*
X0697832Y0237655D01*
X0697603Y0237687D01*
X0697373Y0237714D01*
X0697143Y0237735D01*
X0696912Y0237750D01*
X0696681Y0237760D01*
X0696450Y0237764D01*
X0696219Y0237762D01*
X0695988Y0237755D01*
X0695757Y0237742D01*
X0695526Y0237724D01*
X0695296Y0237700D01*
X0695067Y0237671D01*
X0694838Y0237635D01*
X0694611Y0237595D01*
X0694384Y0237549D01*
X0694159Y0237497D01*
X0693935Y0237440D01*
X0693712Y0237377D01*
X0693491Y0237309D01*
X0693272Y0237236D01*
X0693054Y0237157D01*
X0692839Y0237073D01*
X0692626Y0236984D01*
X0692415Y0236889D01*
X0692206Y0236790D01*
X0692000Y0236685D01*
X0691796Y0236576D01*
X0691595Y0236462D01*
X0691397Y0236342D01*
X0691202Y0236218D01*
X0691010Y0236089D01*
X0690821Y0235956D01*
X0690635Y0235818D01*
X0690453Y0235676D01*
X0690274Y0235529D01*
X0690099Y0235378D01*
X0689928Y0235222D01*
X0689761Y0235063D01*
X0689597Y0234899D01*
X0689438Y0234732D01*
X0689282Y0234561D01*
X0689131Y0234386D01*
X0688984Y0234207D01*
X0688842Y0234025D01*
X0688704Y0233839D01*
X0688571Y0233650D01*
X0688442Y0233458D01*
X0688318Y0233263D01*
X0688198Y0233065D01*
X0688084Y0232864D01*
X0687975Y0232660D01*
X0687870Y0232454D01*
X0687771Y0232245D01*
X0687676Y0232034D01*
X0687587Y0231821D01*
X0687503Y0231606D01*
X0687424Y0231388D01*
X0687351Y0231169D01*
X0687283Y0230948D01*
X0687220Y0230725D01*
X0687163Y0230501D01*
X0687111Y0230276D01*
X0687065Y0230049D01*
X0687025Y0229822D01*
X0686989Y0229593D01*
X0686960Y0229364D01*
X0686936Y0229134D01*
X0686918Y0228903D01*
X0686905Y0228672D01*
X0686898Y0228441D01*
X0686896Y0228210D01*
X0686900Y0227979D01*
X0686910Y0227748D01*
X0686925Y0227517D01*
X0686946Y0227287D01*
X0686973Y0227057D01*
X0687005Y0226828D01*
X0687043Y0226600D01*
X0687086Y0226373D01*
X0687135Y0226147D01*
X0687189Y0225922D01*
X0687249Y0225699D01*
X0687314Y0225477D01*
X0687385Y0225256D01*
X0687461Y0225038D01*
X0687542Y0224821D01*
X0687628Y0224607D01*
X0692739Y0219496D02*
X0692950Y0219411D01*
X0693163Y0219331D01*
X0693378Y0219256D01*
X0693594Y0219187D01*
X0693812Y0219122D01*
X0694032Y0219063D01*
X0694253Y0219009D01*
X0694475Y0218960D01*
X0694699Y0218917D01*
X0694923Y0218879D01*
X0695148Y0218846D01*
X0695374Y0218819D01*
X0695601Y0218797D01*
X0695828Y0218781D01*
X0696055Y0218770D01*
X0696282Y0218765D01*
X0696510Y0218765D01*
X0696737Y0218770D01*
X0696964Y0218781D01*
X0697191Y0218797D01*
X0697418Y0218819D01*
X0697644Y0218846D01*
X0697869Y0218879D01*
X0698093Y0218917D01*
X0698317Y0218960D01*
X0698539Y0219009D01*
X0698760Y0219063D01*
X0698980Y0219122D01*
X0699198Y0219187D01*
X0699414Y0219256D01*
X0699629Y0219331D01*
X0699842Y0219411D01*
X0700053Y0219496D01*
X0700053Y0203567D02*
X0699839Y0203653D01*
X0699622Y0203734D01*
X0699404Y0203810D01*
X0699183Y0203881D01*
X0698961Y0203946D01*
X0698738Y0204006D01*
X0698513Y0204060D01*
X0698287Y0204109D01*
X0698060Y0204152D01*
X0697832Y0204190D01*
X0697603Y0204222D01*
X0697373Y0204249D01*
X0697143Y0204270D01*
X0696912Y0204285D01*
X0696681Y0204295D01*
X0696450Y0204299D01*
X0696219Y0204297D01*
X0695988Y0204290D01*
X0695757Y0204277D01*
X0695526Y0204259D01*
X0695296Y0204235D01*
X0695067Y0204206D01*
X0694838Y0204170D01*
X0694611Y0204130D01*
X0694384Y0204084D01*
X0694159Y0204032D01*
X0693935Y0203975D01*
X0693712Y0203912D01*
X0693491Y0203844D01*
X0693272Y0203771D01*
X0693054Y0203692D01*
X0692839Y0203608D01*
X0692626Y0203519D01*
X0692415Y0203424D01*
X0692206Y0203325D01*
X0692000Y0203220D01*
X0691796Y0203111D01*
X0691595Y0202997D01*
X0691397Y0202877D01*
X0691202Y0202753D01*
X0691010Y0202624D01*
X0690821Y0202491D01*
X0690635Y0202353D01*
X0690453Y0202211D01*
X0690274Y0202064D01*
X0690099Y0201913D01*
X0689928Y0201757D01*
X0689761Y0201598D01*
X0689597Y0201434D01*
X0689438Y0201267D01*
X0689282Y0201096D01*
X0689131Y0200921D01*
X0688984Y0200742D01*
X0688842Y0200560D01*
X0688704Y0200374D01*
X0688571Y0200185D01*
X0688442Y0199993D01*
X0688318Y0199798D01*
X0688198Y0199600D01*
X0688084Y0199399D01*
X0687975Y0199195D01*
X0687870Y0198989D01*
X0687771Y0198780D01*
X0687676Y0198569D01*
X0687587Y0198356D01*
X0687503Y0198141D01*
X0687424Y0197923D01*
X0687351Y0197704D01*
X0687283Y0197483D01*
X0687220Y0197260D01*
X0687163Y0197036D01*
X0687111Y0196811D01*
X0687065Y0196584D01*
X0687025Y0196357D01*
X0686989Y0196128D01*
X0686960Y0195899D01*
X0686936Y0195669D01*
X0686918Y0195438D01*
X0686905Y0195207D01*
X0686898Y0194976D01*
X0686896Y0194745D01*
X0686900Y0194514D01*
X0686910Y0194283D01*
X0686925Y0194052D01*
X0686946Y0193822D01*
X0686973Y0193592D01*
X0687005Y0193363D01*
X0687043Y0193135D01*
X0687086Y0192908D01*
X0687135Y0192682D01*
X0687189Y0192457D01*
X0687249Y0192234D01*
X0687314Y0192012D01*
X0687385Y0191791D01*
X0687461Y0191573D01*
X0687542Y0191356D01*
X0687628Y0191142D01*
X0705164Y0191142D02*
X0705249Y0191353D01*
X0705329Y0191566D01*
X0705404Y0191781D01*
X0705473Y0191997D01*
X0705538Y0192215D01*
X0705597Y0192435D01*
X0705651Y0192656D01*
X0705700Y0192878D01*
X0705743Y0193102D01*
X0705781Y0193326D01*
X0705814Y0193551D01*
X0705841Y0193777D01*
X0705863Y0194004D01*
X0705879Y0194231D01*
X0705890Y0194458D01*
X0705895Y0194685D01*
X0705895Y0194913D01*
X0705890Y0195140D01*
X0705879Y0195367D01*
X0705863Y0195594D01*
X0705841Y0195821D01*
X0705814Y0196047D01*
X0705781Y0196272D01*
X0705743Y0196496D01*
X0705700Y0196720D01*
X0705651Y0196942D01*
X0705597Y0197163D01*
X0705538Y0197383D01*
X0705473Y0197601D01*
X0705404Y0197817D01*
X0705329Y0198032D01*
X0705249Y0198245D01*
X0705164Y0198456D01*
X0700053Y0186031D02*
X0699842Y0185946D01*
X0699629Y0185866D01*
X0699414Y0185791D01*
X0699198Y0185722D01*
X0698980Y0185657D01*
X0698760Y0185598D01*
X0698539Y0185544D01*
X0698317Y0185495D01*
X0698093Y0185452D01*
X0697869Y0185414D01*
X0697644Y0185381D01*
X0697418Y0185354D01*
X0697191Y0185332D01*
X0696964Y0185316D01*
X0696737Y0185305D01*
X0696510Y0185300D01*
X0696282Y0185300D01*
X0696055Y0185305D01*
X0695828Y0185316D01*
X0695601Y0185332D01*
X0695374Y0185354D01*
X0695148Y0185381D01*
X0694923Y0185414D01*
X0694699Y0185452D01*
X0694475Y0185495D01*
X0694253Y0185544D01*
X0694032Y0185598D01*
X0693812Y0185657D01*
X0693594Y0185722D01*
X0693378Y0185791D01*
X0693163Y0185866D01*
X0692950Y0185946D01*
X0692739Y0186031D01*
D26*
X0606688Y0272302D02*
X0606688Y0276906D01*
X0604386Y0274604D01*
X0607455Y0274604D01*
X0602852Y0272302D02*
X0599782Y0272302D01*
X0598248Y0272302D02*
X0596713Y0273837D01*
X0597480Y0273837D02*
X0595178Y0273837D01*
X0595178Y0272302D02*
X0595178Y0276906D01*
X0597480Y0276906D01*
X0598248Y0276139D01*
X0598248Y0274604D01*
X0597480Y0273837D01*
X0599782Y0275372D02*
X0601317Y0276906D01*
X0601317Y0272302D01*
X0575959Y0272302D02*
X0572890Y0272302D01*
X0575959Y0275372D01*
X0575959Y0276139D01*
X0575192Y0276906D01*
X0573657Y0276906D01*
X0572890Y0276139D01*
X0569821Y0276906D02*
X0569821Y0272302D01*
X0571355Y0272302D02*
X0568286Y0272302D01*
X0566752Y0272302D02*
X0565217Y0273837D01*
X0565984Y0273837D02*
X0563682Y0273837D01*
X0563682Y0272302D02*
X0563682Y0276906D01*
X0565984Y0276906D01*
X0566752Y0276139D01*
X0566752Y0274604D01*
X0565984Y0273837D01*
X0568286Y0275372D02*
X0569821Y0276906D01*
M02*
