%
M48
M72
T01C0.01500
T02C0.02362
T03C0.02756
T04C0.03150
T05C0.03200
T06C0.03543
T07C0.03800
T08C0.04000
T09C0.04500
T10C0.05500
%
T01
X746730Y145665
X749230Y145665
X751730Y145665
X754230Y145665
X751730Y148165
X749230Y148165
X749230Y150665
X751730Y150665
X751730Y153165
X749230Y153165
X749230Y155665
X751730Y155665
X751730Y158165
X749230Y158165
X749230Y160665
X751730Y160665
X751789Y163165
X754230Y163165
X749230Y163165
X746730Y163165
X747894Y264889
X750394Y264889
X750394Y267389
X750394Y269889
X750394Y272389
X750394Y274889
X750394Y277389
X750394Y279889
X750394Y282389
X747894Y282389
X752894Y282389
X752894Y279889
X752894Y277389
X752894Y274889
X752894Y272389
X752894Y269889
X752894Y267389
X752894Y264889
X755394Y264889
X755394Y282389
T02
X612994Y271394
X548648Y247264
X523624Y237433
X503963Y231177
X487876Y219559
X472683Y216878
X494132Y207047
X484301Y202579
X484301Y197217
X470896Y193642
X468215Y198110
X477152Y186492
X473577Y182917
X481620Y172193
X457490Y167724
X451234Y148957
X461959Y145382
X469108Y147169
X477152Y147169
X491844Y134764
X547478Y132008
X554904Y178449
X562053Y182024
X554904Y187386
X562947Y192748
X574565Y184705
X580821Y182024
X597801Y182917
X611258Y182988
X617163Y194799
X574565Y204366
X547754Y220453
X534348Y222240
X555797Y229390
X559372Y224921
X526305Y201685
X518262Y199004
X503069Y199898
X511112Y192748
X539711Y183811
X518262Y204366
X480726Y229390
X446766Y211516
X436041Y208835
X419955Y209728
X417274Y214197
X422636Y224028
X381526Y217772
X432467Y199898
X416380Y183811
X380632Y169512
X261848Y214484
X252006Y210055
X244132Y221374
X258896Y228264
X264801Y237122
X228384Y233185
X194919Y214484
X224447Y206610
X233305Y210547
X239211Y193815
X234289Y189878
X224447Y182988
X201809Y189878
X191967Y174130
X221986Y172161
X256927Y178559
X257419Y163303
X214604Y147555
X216573Y140665
X228876Y140665
X189014Y145094
X171297Y148539
X124545Y168224
X137341Y184465
X119624Y199720
X124545Y229740
X376163Y246370
X415486Y262457
X417360Y274524
X406533Y274524
X379959Y274524
X676219Y161335
T03
X538435Y192185
X538435Y212185
T04
X216573Y203657
X191967Y203657
X167360Y214484
X171297Y227280
X192951Y239091
X143738Y238106
X143246Y279445
X127990Y160350
T05
X172557Y130823
X182557Y130823
X192557Y130823
X202557Y130823
X212557Y130823
X222557Y130823
X232557Y130823
X242557Y130823
X252557Y130823
X262557Y130823
X261967Y149681
X251967Y149681
X251967Y171020
X261967Y171020
X328069Y131807
X338069Y131807
X348069Y131807
X358069Y131807
X368069Y131807
X378069Y131807
X388069Y131807
X398069Y131807
X408069Y131807
X418069Y131807
X418935Y159366
X408935Y159366
X398935Y159366
X428935Y159366
X438935Y159366
X448935Y159366
X458935Y159366
X468935Y159366
X478935Y159366
X488935Y159366
X502872Y161090
X512872Y161090
X522872Y161090
X532872Y161090
X542872Y161090
X558667Y161138
X568667Y161138
X578667Y161138
X588667Y161138
X598667Y161138
X617163Y165429
X617163Y175429
X617163Y155429
X617163Y145429
X597793Y147555
X587793Y147555
X577793Y147555
X567793Y147555
X557793Y147555
X557793Y135744
X567793Y135744
X577793Y135744
X587793Y135744
X597793Y135744
X617163Y135429
X640963Y131807
X650963Y131807
X660963Y131807
X670963Y131807
X696081Y131807
X706081Y131807
X701396Y189799
X691396Y189799
X701396Y199799
X745293Y192339
X755293Y192339
X701396Y223264
X691396Y223264
X701396Y233264
X746437Y235283
X756437Y235283
X658344Y213008
X648344Y213008
X543148Y174209
X533148Y174209
X530938Y132007
X520938Y132007
X510938Y132007
X500938Y132007
X528089Y230665
X538089Y230665
X540234Y242043
X530234Y242043
X517203Y250902
X507203Y250902
X497203Y250902
X487203Y250902
X477203Y250902
X467203Y250902
X457203Y250902
X447203Y250902
X437203Y250902
X367065Y249917
X357065Y249917
X347065Y249917
X337065Y249917
X327065Y249917
X317065Y249917
X261573Y242634
X251573Y242634
X251967Y262594
X261967Y262594
X262557Y292240
X252557Y292240
X242557Y292240
X232557Y292240
X222557Y292240
X212557Y292240
X202557Y292240
X192557Y292240
X182557Y292240
X172557Y292240
X328069Y293224
X338069Y293224
X348069Y293224
X358069Y293224
X368069Y293224
X378069Y293224
X388069Y293224
X398069Y293224
X408069Y293224
X418069Y293224
X498738Y293224
X508738Y293224
X518738Y293224
X528738Y293224
X544211Y285610
X554211Y285610
X564211Y285610
X574211Y285610
X640963Y293224
X650963Y293224
X660963Y293224
X670963Y293224
X695077Y293224
X705077Y293224
T06
X697380Y280843
X677380Y270843
X647380Y280843
X642518Y235154
X672518Y235154
X673010Y188402
X643010Y188402
X647380Y154858
X677380Y144858
X697380Y154858
T07
X517100Y177862
X507100Y177862
X497100Y177862
X487100Y177862
X477100Y177862
X467100Y177862
X457100Y177862
X447100Y177862
X437100Y177862
X427100Y177862
X417100Y177862
X407100Y177862
X397100Y177862
X387100Y177862
X377100Y177862
X367100Y177862
X357100Y177862
X347100Y177862
X337100Y177862
X327100Y177862
X317100Y177862
X307100Y177862
X297100Y177862
X287100Y177862
X297100Y227862
X297100Y237862
X287100Y237862
X307100Y237862
X317100Y237862
X327100Y237862
X337100Y237862
X347100Y237862
X357100Y237862
X367100Y237862
X377100Y237862
X387100Y237862
X397100Y237862
X407100Y237862
X417100Y237862
X427100Y237862
X437100Y237862
X447100Y237862
X457100Y237862
X467100Y237862
X477100Y237862
X487100Y237862
X497100Y237862
X507100Y237862
X517100Y237862
X337100Y227862
X327100Y227862
X317100Y227862
T08
X237793Y241650
X237793Y251650
X237793Y261650
X238581Y169988
X238581Y159988
X238581Y149988
X448112Y282382
X458112Y282382
X468112Y282382
X555297Y259374
X565297Y259374
X575297Y259374
X587974Y259453
X597974Y259453
X607974Y259453
X607974Y242366
X597974Y242366
X587974Y242366
X574510Y242681
X564510Y242681
X554510Y242681
X588100Y280835
X598100Y280835
X608100Y280835
T09
X647360Y251394
X657360Y251394
X667360Y251394
X667852Y173146
X657852Y173146
X647852Y173146
X212085Y177043
X212085Y167043
X212085Y157043
X182675Y156650
X182675Y166650
X182675Y176650
X181998Y240862
X181998Y250862
X181998Y260862
X211793Y260941
X211793Y250941
X211793Y240941
T10
X156415Y204484
X128069Y205665
X145116Y189878
X160510Y176807
X129014Y177516
M30
