G75*
%MOIN*%
%OFA0B0*%
%FSLAX25Y25*%
%IPPOS*%
%LPD*%
%AMOC8*
5,1,8,0,0,1.08239X$1,22.5*
%
%ADD10C,0.00500*%
%ADD11C,0.00400*%
%ADD12C,0.00800*%
%ADD13C,0.00600*%
%ADD14C,0.01000*%
%ADD15C,0.01200*%
%ADD16C,0.02000*%
%ADD17R,0.03000X0.42000*%
%ADD18R,0.02000X0.07500*%
%ADD19R,0.02000X0.03000*%
%ADD20R,0.06000X0.06000*%
%ADD21C,0.00300*%
%ADD22C,0.00700*%
%ADD23R,0.07500X0.05000*%
%ADD24R,0.07000X0.03000*%
%ADD25R,0.03000X0.05000*%
%ADD26C,0.00200*%
D10*
X0249245Y0142500D02*
X0249762Y0141983D01*
X0250796Y0141983D01*
X0251313Y0142500D01*
X0252560Y0141983D02*
X0254628Y0144052D01*
X0254628Y0144569D01*
X0254111Y0145086D01*
X0253077Y0145086D01*
X0252560Y0144569D01*
X0251313Y0144569D02*
X0250796Y0145086D01*
X0249762Y0145086D01*
X0249245Y0144569D01*
X0249245Y0142500D01*
X0252560Y0141983D02*
X0254628Y0141983D01*
X0217085Y0147043D02*
X0217085Y0187043D01*
X0220295Y0191713D02*
X0228770Y0191713D01*
X0228770Y0218091D01*
X0220217Y0218092D01*
X0213287Y0218092D02*
X0181389Y0218056D01*
X0173765Y0218091D02*
X0165778Y0218091D01*
X0165778Y0191713D01*
X0173557Y0191713D01*
X0177675Y0186650D02*
X0177675Y0146650D01*
X0187323Y0149917D02*
X0187840Y0149400D01*
X0189908Y0149400D01*
X0190425Y0149917D01*
X0190425Y0150951D01*
X0189908Y0151468D01*
X0189908Y0152714D02*
X0190425Y0153232D01*
X0190425Y0154266D01*
X0189908Y0154783D01*
X0189391Y0154783D01*
X0188874Y0154266D01*
X0188874Y0153232D01*
X0188357Y0152714D01*
X0187840Y0152714D01*
X0187323Y0153232D01*
X0187323Y0154266D01*
X0187840Y0154783D01*
X0187323Y0156029D02*
X0187323Y0157581D01*
X0187840Y0158098D01*
X0189908Y0158098D01*
X0190425Y0157581D01*
X0190425Y0156029D01*
X0187323Y0156029D01*
X0188357Y0159344D02*
X0187323Y0160378D01*
X0190425Y0160378D01*
X0190425Y0159344D02*
X0190425Y0161413D01*
X0189908Y0162659D02*
X0189391Y0162659D01*
X0188874Y0163176D01*
X0188874Y0164210D01*
X0189391Y0164727D01*
X0189908Y0164727D01*
X0190425Y0164210D01*
X0190425Y0163176D01*
X0189908Y0162659D01*
X0188874Y0163176D02*
X0188357Y0162659D01*
X0187840Y0162659D01*
X0187323Y0163176D01*
X0187323Y0164210D01*
X0187840Y0164727D01*
X0188357Y0164727D01*
X0188874Y0164210D01*
X0188874Y0165974D02*
X0187323Y0165974D01*
X0187323Y0168042D01*
X0188357Y0167525D02*
X0188874Y0168042D01*
X0189908Y0168042D01*
X0190425Y0167525D01*
X0190425Y0166491D01*
X0189908Y0165974D01*
X0188874Y0165974D02*
X0188357Y0167008D01*
X0188357Y0167525D01*
X0187840Y0169289D02*
X0187323Y0169806D01*
X0187323Y0170840D01*
X0187840Y0171357D01*
X0189908Y0169289D01*
X0190425Y0169806D01*
X0190425Y0170840D01*
X0189908Y0171357D01*
X0187840Y0171357D01*
X0187840Y0172603D02*
X0187323Y0173120D01*
X0187323Y0174155D01*
X0187840Y0174672D01*
X0188357Y0174672D01*
X0190425Y0172603D01*
X0190425Y0174672D01*
X0190425Y0175918D02*
X0187323Y0175918D01*
X0188874Y0176435D02*
X0190425Y0177987D01*
X0189908Y0179233D02*
X0190425Y0179750D01*
X0190425Y0180784D01*
X0189908Y0181301D01*
X0189908Y0182548D02*
X0190425Y0183065D01*
X0190425Y0184099D01*
X0189908Y0184616D01*
X0189391Y0184616D01*
X0188874Y0184099D01*
X0188874Y0183065D01*
X0188357Y0182548D01*
X0187840Y0182548D01*
X0187323Y0183065D01*
X0187323Y0184099D01*
X0187840Y0184616D01*
X0187840Y0181301D02*
X0187323Y0180784D01*
X0187323Y0179750D01*
X0187840Y0179233D01*
X0189908Y0179233D01*
X0187323Y0177987D02*
X0189391Y0175918D01*
X0189908Y0169289D02*
X0187840Y0169289D01*
X0204332Y0169770D02*
X0204332Y0168736D01*
X0204849Y0168219D01*
X0206918Y0168219D01*
X0204849Y0170288D01*
X0206918Y0170288D01*
X0207435Y0169770D01*
X0207435Y0168736D01*
X0206918Y0168219D01*
X0206918Y0166973D02*
X0207435Y0166456D01*
X0207435Y0165421D01*
X0206918Y0164904D01*
X0205883Y0164904D02*
X0205366Y0165938D01*
X0205366Y0166456D01*
X0205883Y0166973D01*
X0206918Y0166973D01*
X0205883Y0164904D02*
X0204332Y0164904D01*
X0204332Y0166973D01*
X0204332Y0169770D02*
X0204849Y0170288D01*
X0204849Y0171534D02*
X0204332Y0172051D01*
X0204332Y0173085D01*
X0204849Y0173602D01*
X0205366Y0173602D01*
X0207435Y0171534D01*
X0207435Y0173602D01*
X0207435Y0174849D02*
X0204332Y0174849D01*
X0205883Y0175366D02*
X0207435Y0176917D01*
X0206918Y0178164D02*
X0207435Y0178681D01*
X0207435Y0179715D01*
X0206918Y0180232D01*
X0206918Y0181478D02*
X0207435Y0181995D01*
X0207435Y0183030D01*
X0206918Y0183547D01*
X0206400Y0183547D01*
X0205883Y0183030D01*
X0205883Y0181995D01*
X0205366Y0181478D01*
X0204849Y0181478D01*
X0204332Y0181995D01*
X0204332Y0183030D01*
X0204849Y0183547D01*
X0204849Y0180232D02*
X0204332Y0179715D01*
X0204332Y0178681D01*
X0204849Y0178164D01*
X0206918Y0178164D01*
X0204332Y0176917D02*
X0206400Y0174849D01*
X0206400Y0163658D02*
X0206918Y0163658D01*
X0207435Y0163141D01*
X0207435Y0162107D01*
X0206918Y0161589D01*
X0206400Y0161589D01*
X0205883Y0162107D01*
X0205883Y0163141D01*
X0206400Y0163658D01*
X0205883Y0163141D02*
X0205366Y0163658D01*
X0204849Y0163658D01*
X0204332Y0163141D01*
X0204332Y0162107D01*
X0204849Y0161589D01*
X0205366Y0161589D01*
X0205883Y0162107D01*
X0207435Y0160343D02*
X0207435Y0158275D01*
X0207435Y0159309D02*
X0204332Y0159309D01*
X0205366Y0158275D01*
X0204849Y0157028D02*
X0204332Y0156511D01*
X0204332Y0154960D01*
X0207435Y0154960D01*
X0207435Y0156511D01*
X0206918Y0157028D01*
X0204849Y0157028D01*
X0204849Y0153713D02*
X0204332Y0153196D01*
X0204332Y0152162D01*
X0204849Y0151645D01*
X0205366Y0151645D01*
X0205883Y0152162D01*
X0205883Y0153196D01*
X0206400Y0153713D01*
X0206918Y0153713D01*
X0207435Y0153196D01*
X0207435Y0152162D01*
X0206918Y0151645D01*
X0206918Y0150399D02*
X0207435Y0149881D01*
X0207435Y0148847D01*
X0206918Y0148330D01*
X0204849Y0148330D01*
X0204332Y0148847D01*
X0204332Y0149881D01*
X0204849Y0150399D01*
X0187840Y0151468D02*
X0187323Y0150951D01*
X0187323Y0149917D01*
X0248945Y0164300D02*
X0249462Y0163783D01*
X0250496Y0163783D01*
X0251013Y0164300D01*
X0252260Y0163783D02*
X0254328Y0163783D01*
X0253294Y0163783D02*
X0253294Y0166886D01*
X0252260Y0165852D01*
X0251013Y0166369D02*
X0250496Y0166886D01*
X0249462Y0166886D01*
X0248945Y0166369D01*
X0248945Y0164300D01*
X0284600Y0187862D02*
X0289600Y0187862D01*
X0289600Y0192862D01*
X0292100Y0195362D02*
X0293931Y0195362D01*
X0294971Y0195919D02*
X0297100Y0199112D01*
X0297100Y0200362D02*
X0302100Y0200362D01*
X0302100Y0195362D01*
X0297100Y0195362D01*
X0294971Y0195919D02*
X0294932Y0195863D01*
X0294889Y0195809D01*
X0294844Y0195758D01*
X0294796Y0195710D01*
X0294746Y0195664D01*
X0294693Y0195621D01*
X0294637Y0195581D01*
X0294580Y0195544D01*
X0294521Y0195510D01*
X0294460Y0195479D01*
X0294397Y0195452D01*
X0294333Y0195428D01*
X0294268Y0195408D01*
X0294202Y0195392D01*
X0294135Y0195379D01*
X0294067Y0195369D01*
X0293999Y0195364D01*
X0293931Y0195362D01*
X0292100Y0195362D02*
X0292100Y0202862D01*
X0297100Y0202862D01*
X0302100Y0202862D01*
X0302100Y0205362D02*
X0297100Y0205362D01*
X0297100Y0207862D02*
X0302100Y0207862D01*
X0302100Y0210362D02*
X0297100Y0210362D01*
X0297100Y0212862D02*
X0292100Y0212862D01*
X0292100Y0220362D01*
X0293931Y0220362D01*
X0294971Y0219806D02*
X0297100Y0216612D01*
X0297100Y0215362D02*
X0302100Y0215362D01*
X0302100Y0220362D01*
X0297100Y0220362D01*
X0294971Y0219805D02*
X0294932Y0219861D01*
X0294889Y0219915D01*
X0294844Y0219966D01*
X0294796Y0220014D01*
X0294746Y0220060D01*
X0294693Y0220103D01*
X0294637Y0220143D01*
X0294580Y0220180D01*
X0294521Y0220214D01*
X0294460Y0220245D01*
X0294397Y0220272D01*
X0294333Y0220296D01*
X0294268Y0220316D01*
X0294202Y0220332D01*
X0294135Y0220345D01*
X0294067Y0220355D01*
X0293999Y0220360D01*
X0293931Y0220362D01*
X0289600Y0222862D02*
X0289600Y0227862D01*
X0284600Y0227862D01*
X0284600Y0222862D01*
X0285850Y0220362D02*
X0279600Y0220362D01*
X0279600Y0215362D01*
X0285850Y0215362D01*
X0285918Y0215364D01*
X0285985Y0215369D01*
X0286052Y0215378D01*
X0286119Y0215391D01*
X0286184Y0215408D01*
X0286249Y0215427D01*
X0286313Y0215451D01*
X0286375Y0215478D01*
X0286436Y0215508D01*
X0286494Y0215541D01*
X0286551Y0215577D01*
X0286606Y0215617D01*
X0286659Y0215659D01*
X0286710Y0215705D01*
X0286757Y0215752D01*
X0286803Y0215803D01*
X0286845Y0215856D01*
X0286885Y0215911D01*
X0286921Y0215968D01*
X0286954Y0216026D01*
X0286984Y0216087D01*
X0287011Y0216149D01*
X0287035Y0216213D01*
X0287054Y0216278D01*
X0287071Y0216343D01*
X0287084Y0216410D01*
X0287093Y0216477D01*
X0287098Y0216544D01*
X0287100Y0216612D01*
X0287100Y0219112D01*
X0287098Y0219180D01*
X0287093Y0219247D01*
X0287084Y0219314D01*
X0287071Y0219381D01*
X0287054Y0219446D01*
X0287035Y0219511D01*
X0287011Y0219575D01*
X0286984Y0219637D01*
X0286954Y0219698D01*
X0286921Y0219756D01*
X0286885Y0219813D01*
X0286845Y0219868D01*
X0286803Y0219921D01*
X0286757Y0219972D01*
X0286710Y0220019D01*
X0286659Y0220065D01*
X0286606Y0220107D01*
X0286551Y0220147D01*
X0286494Y0220183D01*
X0286436Y0220216D01*
X0286375Y0220246D01*
X0286313Y0220273D01*
X0286249Y0220297D01*
X0286184Y0220316D01*
X0286119Y0220333D01*
X0286052Y0220346D01*
X0285985Y0220355D01*
X0285918Y0220360D01*
X0285850Y0220362D01*
X0297100Y0212862D02*
X0302100Y0212862D01*
X0287100Y0199112D02*
X0287100Y0196612D01*
X0287098Y0196544D01*
X0287093Y0196477D01*
X0287084Y0196410D01*
X0287071Y0196343D01*
X0287054Y0196278D01*
X0287035Y0196213D01*
X0287011Y0196149D01*
X0286984Y0196087D01*
X0286954Y0196026D01*
X0286921Y0195968D01*
X0286885Y0195911D01*
X0286845Y0195856D01*
X0286803Y0195803D01*
X0286757Y0195752D01*
X0286710Y0195705D01*
X0286659Y0195659D01*
X0286606Y0195617D01*
X0286551Y0195577D01*
X0286494Y0195541D01*
X0286436Y0195508D01*
X0286375Y0195478D01*
X0286313Y0195451D01*
X0286249Y0195427D01*
X0286184Y0195408D01*
X0286119Y0195391D01*
X0286052Y0195378D01*
X0285985Y0195369D01*
X0285918Y0195364D01*
X0285850Y0195362D01*
X0279600Y0195362D01*
X0279600Y0200362D01*
X0285850Y0200362D01*
X0285918Y0200360D01*
X0285985Y0200355D01*
X0286052Y0200346D01*
X0286119Y0200333D01*
X0286184Y0200316D01*
X0286249Y0200297D01*
X0286313Y0200273D01*
X0286375Y0200246D01*
X0286436Y0200216D01*
X0286494Y0200183D01*
X0286551Y0200147D01*
X0286606Y0200107D01*
X0286659Y0200065D01*
X0286710Y0200019D01*
X0286757Y0199972D01*
X0286803Y0199921D01*
X0286845Y0199868D01*
X0286885Y0199813D01*
X0286921Y0199756D01*
X0286954Y0199698D01*
X0286984Y0199637D01*
X0287011Y0199575D01*
X0287035Y0199511D01*
X0287054Y0199446D01*
X0287071Y0199381D01*
X0287084Y0199314D01*
X0287093Y0199247D01*
X0287098Y0199180D01*
X0287100Y0199112D01*
X0284600Y0192862D02*
X0284600Y0187862D01*
X0346145Y0219483D02*
X0346145Y0222586D01*
X0347696Y0222586D01*
X0348213Y0222069D01*
X0348213Y0221034D01*
X0347696Y0220517D01*
X0346145Y0220517D01*
X0347179Y0220517D02*
X0348213Y0219483D01*
X0349460Y0220000D02*
X0349977Y0219483D01*
X0351011Y0219483D01*
X0351528Y0220000D01*
X0351528Y0220517D01*
X0351011Y0221034D01*
X0350494Y0221034D01*
X0351011Y0221034D02*
X0351528Y0221552D01*
X0351528Y0222069D01*
X0351011Y0222586D01*
X0349977Y0222586D01*
X0349460Y0222069D01*
X0357145Y0222486D02*
X0357145Y0219383D01*
X0357145Y0220417D02*
X0358696Y0220417D01*
X0359213Y0220934D01*
X0359213Y0221969D01*
X0358696Y0222486D01*
X0357145Y0222486D01*
X0358179Y0220417D02*
X0359213Y0219383D01*
X0360460Y0220934D02*
X0362011Y0222486D01*
X0362011Y0219383D01*
X0362528Y0220934D02*
X0360460Y0220934D01*
X0371245Y0220186D02*
X0371245Y0217083D01*
X0371245Y0218117D02*
X0372796Y0218117D01*
X0373313Y0218634D01*
X0373313Y0219669D01*
X0372796Y0220186D01*
X0371245Y0220186D01*
X0372279Y0218117D02*
X0373313Y0217083D01*
X0374560Y0217083D02*
X0376628Y0219152D01*
X0376628Y0219669D01*
X0376111Y0220186D01*
X0375077Y0220186D01*
X0374560Y0219669D01*
X0374560Y0217083D02*
X0376628Y0217083D01*
X0391245Y0216883D02*
X0391245Y0219986D01*
X0392796Y0219986D01*
X0393313Y0219469D01*
X0393313Y0218434D01*
X0392796Y0217917D01*
X0391245Y0217917D01*
X0392279Y0217917D02*
X0393313Y0216883D01*
X0394560Y0216883D02*
X0396628Y0216883D01*
X0395594Y0216883D02*
X0395594Y0219986D01*
X0394560Y0218952D01*
X0367714Y0239167D02*
X0364711Y0239167D01*
X0366212Y0239167D02*
X0366212Y0243671D01*
X0364711Y0242170D01*
X0366159Y0256183D02*
X0368228Y0256183D01*
X0368745Y0256700D01*
X0368745Y0257734D01*
X0368228Y0258252D01*
X0367194Y0258252D01*
X0367194Y0257217D01*
X0366159Y0256183D02*
X0365642Y0256700D01*
X0365642Y0257734D01*
X0366159Y0258252D01*
X0365642Y0259498D02*
X0368745Y0261566D01*
X0365642Y0261566D01*
X0365642Y0262813D02*
X0365642Y0264364D01*
X0366159Y0264881D01*
X0368228Y0264881D01*
X0368745Y0264364D01*
X0368745Y0262813D01*
X0365642Y0262813D01*
X0365642Y0259498D02*
X0368745Y0259498D01*
X0358745Y0260632D02*
X0357711Y0259598D01*
X0355642Y0259598D01*
X0355642Y0258352D02*
X0355642Y0256283D01*
X0357194Y0256283D01*
X0356676Y0257317D01*
X0356676Y0257834D01*
X0357194Y0258352D01*
X0358228Y0258352D01*
X0358745Y0257834D01*
X0358745Y0256800D01*
X0358228Y0256283D01*
X0348645Y0256700D02*
X0348645Y0257734D01*
X0348128Y0258252D01*
X0347611Y0258252D01*
X0347094Y0257734D01*
X0347094Y0256700D01*
X0346576Y0256183D01*
X0346059Y0256183D01*
X0345542Y0256700D01*
X0345542Y0257734D01*
X0346059Y0258252D01*
X0345542Y0259498D02*
X0348645Y0259498D01*
X0348645Y0261566D01*
X0348645Y0262813D02*
X0345542Y0262813D01*
X0345542Y0264364D01*
X0346059Y0264881D01*
X0347094Y0264881D01*
X0347611Y0264364D01*
X0347611Y0262813D01*
X0347611Y0263847D02*
X0348645Y0264881D01*
X0347611Y0266128D02*
X0348645Y0267162D01*
X0347611Y0268196D01*
X0345542Y0268196D01*
X0346059Y0269442D02*
X0348128Y0269442D01*
X0348645Y0269959D01*
X0348645Y0270994D01*
X0348128Y0271511D01*
X0346059Y0271511D01*
X0345542Y0270994D01*
X0345542Y0269959D01*
X0346059Y0269442D01*
X0345542Y0266128D02*
X0347611Y0266128D01*
X0345542Y0261566D02*
X0345542Y0259498D01*
X0347094Y0259498D02*
X0347094Y0260532D01*
X0338645Y0260115D02*
X0338645Y0261149D01*
X0338128Y0261666D01*
X0336059Y0261666D01*
X0335542Y0261149D01*
X0335542Y0260115D01*
X0336059Y0259598D01*
X0338128Y0259598D01*
X0338645Y0260115D01*
X0338645Y0258352D02*
X0335542Y0258352D01*
X0336576Y0257317D01*
X0335542Y0256283D01*
X0338645Y0256283D01*
X0348128Y0256183D02*
X0348645Y0256700D01*
X0355642Y0261666D02*
X0357711Y0261666D01*
X0358745Y0260632D01*
X0338645Y0263947D02*
X0335542Y0263947D01*
X0335542Y0262913D02*
X0335542Y0264981D01*
X0336059Y0266228D02*
X0338128Y0266228D01*
X0338645Y0266745D01*
X0338645Y0267779D01*
X0338128Y0268296D01*
X0336059Y0268296D01*
X0335542Y0267779D01*
X0335542Y0266745D01*
X0336059Y0266228D01*
X0335542Y0269542D02*
X0335542Y0271094D01*
X0336059Y0271611D01*
X0337094Y0271611D01*
X0337611Y0271094D01*
X0337611Y0269542D01*
X0338645Y0269542D02*
X0335542Y0269542D01*
X0337611Y0270577D02*
X0338645Y0271611D01*
X0328445Y0261449D02*
X0328445Y0260415D01*
X0327928Y0259898D01*
X0327411Y0259898D01*
X0326894Y0260415D01*
X0326894Y0261449D01*
X0327411Y0261966D01*
X0327928Y0261966D01*
X0328445Y0261449D01*
X0326894Y0261449D02*
X0326376Y0261966D01*
X0325859Y0261966D01*
X0325342Y0261449D01*
X0325342Y0260415D01*
X0325859Y0259898D01*
X0326376Y0259898D01*
X0326894Y0260415D01*
X0326894Y0258652D02*
X0326894Y0256583D01*
X0326376Y0256583D02*
X0325342Y0257617D01*
X0326376Y0258652D01*
X0328445Y0258652D01*
X0328445Y0256583D02*
X0326376Y0256583D01*
X0318245Y0256483D02*
X0316176Y0256483D01*
X0315142Y0257517D01*
X0316176Y0258552D01*
X0318245Y0258552D01*
X0317728Y0259798D02*
X0318245Y0260315D01*
X0318245Y0261349D01*
X0317728Y0261866D01*
X0315659Y0261866D01*
X0315142Y0261349D01*
X0315142Y0260315D01*
X0315659Y0259798D01*
X0316176Y0259798D01*
X0316694Y0260315D01*
X0316694Y0261866D01*
X0316694Y0258552D02*
X0316694Y0256483D01*
X0310845Y0253764D02*
X0310845Y0252730D01*
X0310328Y0252213D01*
X0308259Y0252213D01*
X0307742Y0252730D01*
X0307742Y0253764D01*
X0308259Y0254281D01*
X0310328Y0254281D02*
X0310845Y0253764D01*
X0310845Y0250966D02*
X0310845Y0248898D01*
X0307742Y0248898D01*
X0307742Y0250966D01*
X0309294Y0249932D02*
X0309294Y0248898D01*
X0309294Y0247652D02*
X0309811Y0247134D01*
X0309811Y0245583D01*
X0310845Y0245583D02*
X0307742Y0245583D01*
X0307742Y0247134D01*
X0308259Y0247652D01*
X0309294Y0247652D01*
X0309811Y0246617D02*
X0310845Y0247652D01*
X0316212Y0242921D02*
X0314711Y0241419D01*
X0316963Y0241419D01*
X0317714Y0240669D01*
X0317714Y0239918D01*
X0316963Y0239167D01*
X0315462Y0239167D01*
X0314711Y0239918D01*
X0314711Y0241419D01*
X0316212Y0242921D02*
X0317714Y0243671D01*
X0316643Y0265283D02*
X0314575Y0265283D01*
X0315609Y0265283D02*
X0315609Y0268386D01*
X0314575Y0267352D01*
X0313328Y0265283D02*
X0311260Y0265283D01*
X0312294Y0265283D02*
X0312294Y0268386D01*
X0311260Y0267352D01*
X0310013Y0267869D02*
X0310013Y0266834D01*
X0309496Y0266317D01*
X0307945Y0266317D01*
X0307945Y0265283D02*
X0307945Y0268386D01*
X0309496Y0268386D01*
X0310013Y0267869D01*
X0308979Y0266317D02*
X0310013Y0265283D01*
X0310113Y0275283D02*
X0309079Y0276317D01*
X0309596Y0276317D02*
X0308045Y0276317D01*
X0308045Y0275283D02*
X0308045Y0278386D01*
X0309596Y0278386D01*
X0310113Y0277869D01*
X0310113Y0276834D01*
X0309596Y0276317D01*
X0311360Y0275283D02*
X0313428Y0275283D01*
X0312394Y0275283D02*
X0312394Y0278386D01*
X0311360Y0277352D01*
X0314675Y0277869D02*
X0315192Y0278386D01*
X0316226Y0278386D01*
X0316743Y0277869D01*
X0314675Y0275800D01*
X0315192Y0275283D01*
X0316226Y0275283D01*
X0316743Y0275800D01*
X0316743Y0277869D01*
X0314675Y0277869D02*
X0314675Y0275800D01*
X0312811Y0283683D02*
X0313328Y0284200D01*
X0313328Y0286269D01*
X0312811Y0286786D01*
X0311777Y0286786D01*
X0311260Y0286269D01*
X0311260Y0285752D01*
X0311777Y0285234D01*
X0313328Y0285234D01*
X0312811Y0283683D02*
X0311777Y0283683D01*
X0311260Y0284200D01*
X0310013Y0283683D02*
X0308979Y0284717D01*
X0309496Y0284717D02*
X0307945Y0284717D01*
X0307945Y0283683D02*
X0307945Y0286786D01*
X0309496Y0286786D01*
X0310013Y0286269D01*
X0310013Y0285234D01*
X0309496Y0284717D01*
X0287728Y0288483D02*
X0285660Y0288483D01*
X0286694Y0288483D02*
X0286694Y0291586D01*
X0285660Y0290552D01*
X0284413Y0291069D02*
X0283896Y0291586D01*
X0282345Y0291586D01*
X0282345Y0288483D01*
X0283896Y0288483D01*
X0284413Y0289000D01*
X0284413Y0291069D01*
X0278236Y0287225D02*
X0278236Y0283475D01*
X0282045Y0282386D02*
X0282045Y0279283D01*
X0283596Y0279283D01*
X0284113Y0279800D01*
X0284113Y0281869D01*
X0283596Y0282386D01*
X0282045Y0282386D01*
X0285360Y0281869D02*
X0285877Y0282386D01*
X0286911Y0282386D01*
X0287428Y0281869D01*
X0287428Y0281352D01*
X0285360Y0279283D01*
X0287428Y0279283D01*
X0278236Y0278367D02*
X0278236Y0274617D01*
X0282145Y0272686D02*
X0283696Y0272686D01*
X0284213Y0272169D01*
X0284213Y0270100D01*
X0283696Y0269583D01*
X0282145Y0269583D01*
X0282145Y0272686D01*
X0285460Y0272169D02*
X0285977Y0272686D01*
X0287011Y0272686D01*
X0287528Y0272169D01*
X0287528Y0271652D01*
X0287011Y0271134D01*
X0287528Y0270617D01*
X0287528Y0270100D01*
X0287011Y0269583D01*
X0285977Y0269583D01*
X0285460Y0270100D01*
X0286494Y0271134D02*
X0287011Y0271134D01*
X0278236Y0268525D02*
X0278236Y0264775D01*
X0254428Y0256734D02*
X0252360Y0256734D01*
X0253911Y0258286D01*
X0253911Y0255183D01*
X0251113Y0255700D02*
X0250596Y0255183D01*
X0249562Y0255183D01*
X0249045Y0255700D01*
X0249045Y0257769D01*
X0249562Y0258286D01*
X0250596Y0258286D01*
X0251113Y0257769D01*
X0216793Y0270941D02*
X0216793Y0230941D01*
X0207143Y0232745D02*
X0207143Y0233779D01*
X0206626Y0234296D01*
X0206626Y0235543D02*
X0207143Y0236060D01*
X0207143Y0237094D01*
X0206626Y0237611D01*
X0206109Y0237611D01*
X0205592Y0237094D01*
X0205592Y0236060D01*
X0205075Y0235543D01*
X0204558Y0235543D01*
X0204041Y0236060D01*
X0204041Y0237094D01*
X0204558Y0237611D01*
X0204041Y0238857D02*
X0204041Y0240409D01*
X0204558Y0240926D01*
X0206626Y0240926D01*
X0207143Y0240409D01*
X0207143Y0238857D01*
X0204041Y0238857D01*
X0205075Y0242172D02*
X0204041Y0243206D01*
X0207143Y0243206D01*
X0207143Y0242172D02*
X0207143Y0244241D01*
X0206626Y0245487D02*
X0206109Y0245487D01*
X0205592Y0246004D01*
X0205592Y0247038D01*
X0206109Y0247556D01*
X0206626Y0247556D01*
X0207143Y0247038D01*
X0207143Y0246004D01*
X0206626Y0245487D01*
X0205592Y0246004D02*
X0205075Y0245487D01*
X0204558Y0245487D01*
X0204041Y0246004D01*
X0204041Y0247038D01*
X0204558Y0247556D01*
X0205075Y0247556D01*
X0205592Y0247038D01*
X0205592Y0248802D02*
X0205075Y0249836D01*
X0205075Y0250353D01*
X0205592Y0250870D01*
X0206626Y0250870D01*
X0207143Y0250353D01*
X0207143Y0249319D01*
X0206626Y0248802D01*
X0205592Y0248802D02*
X0204041Y0248802D01*
X0204041Y0250870D01*
X0204558Y0252117D02*
X0204041Y0252634D01*
X0204041Y0253668D01*
X0204558Y0254185D01*
X0206626Y0252117D01*
X0207143Y0252634D01*
X0207143Y0253668D01*
X0206626Y0254185D01*
X0204558Y0254185D01*
X0204558Y0255432D02*
X0204041Y0255949D01*
X0204041Y0256983D01*
X0204558Y0257500D01*
X0205075Y0257500D01*
X0207143Y0255432D01*
X0207143Y0257500D01*
X0207143Y0258746D02*
X0204041Y0258746D01*
X0205592Y0259263D02*
X0207143Y0260815D01*
X0206626Y0262061D02*
X0207143Y0262578D01*
X0207143Y0263613D01*
X0206626Y0264130D01*
X0206626Y0265376D02*
X0207143Y0265893D01*
X0207143Y0266927D01*
X0206626Y0267444D01*
X0206109Y0267444D01*
X0205592Y0266927D01*
X0205592Y0265893D01*
X0205075Y0265376D01*
X0204558Y0265376D01*
X0204041Y0265893D01*
X0204041Y0266927D01*
X0204558Y0267444D01*
X0204558Y0264130D02*
X0204041Y0263613D01*
X0204041Y0262578D01*
X0204558Y0262061D01*
X0206626Y0262061D01*
X0204041Y0260815D02*
X0206109Y0258746D01*
X0206626Y0252117D02*
X0204558Y0252117D01*
X0189748Y0251738D02*
X0189748Y0250703D01*
X0189231Y0250186D01*
X0188197Y0250186D02*
X0187680Y0251221D01*
X0187680Y0251738D01*
X0188197Y0252255D01*
X0189231Y0252255D01*
X0189748Y0251738D01*
X0189231Y0253501D02*
X0187162Y0255570D01*
X0189231Y0255570D01*
X0189748Y0255052D01*
X0189748Y0254018D01*
X0189231Y0253501D01*
X0187162Y0253501D01*
X0186645Y0254018D01*
X0186645Y0255052D01*
X0187162Y0255570D01*
X0187162Y0256816D02*
X0186645Y0257333D01*
X0186645Y0258367D01*
X0187162Y0258884D01*
X0187680Y0258884D01*
X0189748Y0256816D01*
X0189748Y0258884D01*
X0189748Y0260131D02*
X0186645Y0260131D01*
X0188197Y0260648D02*
X0189748Y0262199D01*
X0189231Y0263446D02*
X0189748Y0263963D01*
X0189748Y0264997D01*
X0189231Y0265514D01*
X0189231Y0266760D02*
X0189748Y0267278D01*
X0189748Y0268312D01*
X0189231Y0268829D01*
X0188714Y0268829D01*
X0188197Y0268312D01*
X0188197Y0267278D01*
X0187680Y0266760D01*
X0187162Y0266760D01*
X0186645Y0267278D01*
X0186645Y0268312D01*
X0187162Y0268829D01*
X0187162Y0265514D02*
X0186645Y0264997D01*
X0186645Y0263963D01*
X0187162Y0263446D01*
X0189231Y0263446D01*
X0186645Y0262199D02*
X0188714Y0260131D01*
X0186645Y0252255D02*
X0186645Y0250186D01*
X0188197Y0250186D01*
X0188714Y0248940D02*
X0189231Y0248940D01*
X0189748Y0248423D01*
X0189748Y0247389D01*
X0189231Y0246872D01*
X0188714Y0246872D01*
X0188197Y0247389D01*
X0188197Y0248423D01*
X0188714Y0248940D01*
X0188197Y0248423D02*
X0187680Y0248940D01*
X0187162Y0248940D01*
X0186645Y0248423D01*
X0186645Y0247389D01*
X0187162Y0246872D01*
X0187680Y0246872D01*
X0188197Y0247389D01*
X0189748Y0245625D02*
X0189748Y0243557D01*
X0189748Y0244591D02*
X0186645Y0244591D01*
X0187680Y0243557D01*
X0187162Y0242310D02*
X0186645Y0241793D01*
X0186645Y0240242D01*
X0189748Y0240242D01*
X0189748Y0241793D01*
X0189231Y0242310D01*
X0187162Y0242310D01*
X0187162Y0238995D02*
X0186645Y0238478D01*
X0186645Y0237444D01*
X0187162Y0236927D01*
X0187680Y0236927D01*
X0188197Y0237444D01*
X0188197Y0238478D01*
X0188714Y0238995D01*
X0189231Y0238995D01*
X0189748Y0238478D01*
X0189748Y0237444D01*
X0189231Y0236927D01*
X0189231Y0235681D02*
X0189748Y0235164D01*
X0189748Y0234129D01*
X0189231Y0233612D01*
X0187162Y0233612D01*
X0186645Y0234129D01*
X0186645Y0235164D01*
X0187162Y0235681D01*
X0176998Y0230862D02*
X0176998Y0270862D01*
X0202545Y0281483D02*
X0202545Y0282000D01*
X0204613Y0284069D01*
X0204613Y0284586D01*
X0202545Y0284586D01*
X0205860Y0282000D02*
X0206377Y0282000D01*
X0206377Y0281483D01*
X0205860Y0281483D01*
X0205860Y0282000D01*
X0207517Y0283034D02*
X0209586Y0283034D01*
X0210832Y0282517D02*
X0211866Y0281483D01*
X0212900Y0282517D01*
X0212900Y0284586D01*
X0210832Y0284586D02*
X0210832Y0282517D01*
X0209068Y0281483D02*
X0209068Y0284586D01*
X0207517Y0283034D01*
X0243345Y0282200D02*
X0243862Y0281683D01*
X0244896Y0281683D01*
X0245413Y0282200D01*
X0245413Y0283234D01*
X0244379Y0283234D01*
X0243345Y0282200D02*
X0243345Y0284269D01*
X0243862Y0284786D01*
X0244896Y0284786D01*
X0245413Y0284269D01*
X0246660Y0284786D02*
X0248728Y0281683D01*
X0248728Y0284786D01*
X0249975Y0284786D02*
X0251526Y0284786D01*
X0252043Y0284269D01*
X0252043Y0282200D01*
X0251526Y0281683D01*
X0249975Y0281683D01*
X0249975Y0284786D01*
X0246660Y0284786D02*
X0246660Y0281683D01*
X0249162Y0238286D02*
X0248645Y0237769D01*
X0248645Y0235700D01*
X0249162Y0235183D01*
X0250196Y0235183D01*
X0250713Y0235700D01*
X0251960Y0235700D02*
X0252477Y0235183D01*
X0253511Y0235183D01*
X0254028Y0235700D01*
X0254028Y0236217D01*
X0253511Y0236734D01*
X0252994Y0236734D01*
X0253511Y0236734D02*
X0254028Y0237252D01*
X0254028Y0237769D01*
X0253511Y0238286D01*
X0252477Y0238286D01*
X0251960Y0237769D01*
X0250713Y0237769D02*
X0250196Y0238286D01*
X0249162Y0238286D01*
X0207143Y0232745D02*
X0206626Y0232228D01*
X0204558Y0232228D01*
X0204041Y0232745D01*
X0204041Y0233779D01*
X0204558Y0234296D01*
X0170545Y0210896D02*
X0170545Y0208828D01*
X0167442Y0208828D01*
X0167442Y0210896D01*
X0168994Y0209862D02*
X0168994Y0208828D01*
X0169511Y0207581D02*
X0170028Y0207581D01*
X0170545Y0207064D01*
X0170545Y0206030D01*
X0170028Y0205513D01*
X0168994Y0206030D02*
X0168994Y0207064D01*
X0169511Y0207581D01*
X0167959Y0207581D02*
X0167442Y0207064D01*
X0167442Y0206030D01*
X0167959Y0205513D01*
X0168476Y0205513D01*
X0168994Y0206030D01*
X0170028Y0204266D02*
X0167442Y0204266D01*
X0167442Y0202198D02*
X0170028Y0202198D01*
X0170545Y0202715D01*
X0170545Y0203749D01*
X0170028Y0204266D01*
X0167442Y0200952D02*
X0167442Y0198883D01*
X0170545Y0198883D01*
X0168994Y0198883D02*
X0168994Y0199917D01*
X0182082Y0191765D02*
X0213209Y0191695D01*
X0136145Y0212000D02*
X0136145Y0213034D01*
X0135628Y0213552D01*
X0135628Y0214798D02*
X0136145Y0214798D01*
X0135628Y0214798D02*
X0133559Y0216866D01*
X0133042Y0216866D01*
X0133042Y0214798D01*
X0133559Y0213552D02*
X0133042Y0213034D01*
X0133042Y0212000D01*
X0133559Y0211483D01*
X0135628Y0211483D01*
X0136145Y0212000D01*
X0358145Y0282183D02*
X0358145Y0282700D01*
X0360213Y0284769D01*
X0360213Y0285286D01*
X0358145Y0285286D01*
X0361460Y0282700D02*
X0361977Y0282700D01*
X0361977Y0282183D01*
X0361460Y0282183D01*
X0361460Y0282700D01*
X0363117Y0283734D02*
X0365186Y0283734D01*
X0366432Y0283217D02*
X0367466Y0282183D01*
X0368500Y0283217D01*
X0368500Y0285286D01*
X0366432Y0285286D02*
X0366432Y0283217D01*
X0364668Y0282183D02*
X0364668Y0285286D01*
X0363117Y0283734D01*
X0398945Y0282900D02*
X0399462Y0282383D01*
X0400496Y0282383D01*
X0401013Y0282900D01*
X0401013Y0283934D01*
X0399979Y0283934D01*
X0398945Y0282900D02*
X0398945Y0284969D01*
X0399462Y0285486D01*
X0400496Y0285486D01*
X0401013Y0284969D01*
X0402260Y0285486D02*
X0404328Y0282383D01*
X0404328Y0285486D01*
X0405575Y0285486D02*
X0407126Y0285486D01*
X0407643Y0284969D01*
X0407643Y0282900D01*
X0407126Y0282383D01*
X0405575Y0282383D01*
X0405575Y0285486D01*
X0402260Y0285486D02*
X0402260Y0282383D01*
X0435342Y0265564D02*
X0435342Y0264530D01*
X0435859Y0264013D01*
X0435859Y0262766D02*
X0435342Y0262249D01*
X0435342Y0261215D01*
X0435859Y0260698D01*
X0436376Y0259452D02*
X0438445Y0259452D01*
X0438445Y0260698D02*
X0436376Y0262766D01*
X0435859Y0262766D01*
X0438445Y0262766D02*
X0438445Y0260698D01*
X0436894Y0259452D02*
X0436894Y0257383D01*
X0436376Y0257383D02*
X0435342Y0258417D01*
X0436376Y0259452D01*
X0436376Y0257383D02*
X0438445Y0257383D01*
X0445142Y0258317D02*
X0446176Y0259352D01*
X0448245Y0259352D01*
X0448245Y0260598D02*
X0446176Y0262666D01*
X0445659Y0262666D01*
X0445142Y0262149D01*
X0445142Y0261115D01*
X0445659Y0260598D01*
X0446694Y0259352D02*
X0446694Y0257283D01*
X0446176Y0257283D02*
X0445142Y0258317D01*
X0446176Y0257283D02*
X0448245Y0257283D01*
X0448245Y0260598D02*
X0448245Y0262666D01*
X0448245Y0263913D02*
X0448245Y0265981D01*
X0448245Y0264947D02*
X0445142Y0264947D01*
X0446176Y0263913D01*
X0445228Y0267783D02*
X0445745Y0268300D01*
X0445745Y0269334D01*
X0445228Y0269852D01*
X0445228Y0271098D02*
X0444711Y0271098D01*
X0444194Y0271615D01*
X0444194Y0272649D01*
X0444711Y0273166D01*
X0445228Y0273166D01*
X0445745Y0272649D01*
X0445745Y0271615D01*
X0445228Y0271098D01*
X0444194Y0271615D02*
X0443676Y0271098D01*
X0443159Y0271098D01*
X0442642Y0271615D01*
X0442642Y0272649D01*
X0443159Y0273166D01*
X0443676Y0273166D01*
X0444194Y0272649D01*
X0443159Y0269852D02*
X0442642Y0269334D01*
X0442642Y0268300D01*
X0443159Y0267783D01*
X0445228Y0267783D01*
X0438445Y0266081D02*
X0438445Y0264013D01*
X0436376Y0266081D01*
X0435859Y0266081D01*
X0435342Y0265564D01*
X0430928Y0258006D02*
X0428859Y0258006D01*
X0428342Y0257489D01*
X0428342Y0256455D01*
X0428859Y0255937D01*
X0430928Y0255937D01*
X0431445Y0256455D01*
X0431445Y0257489D01*
X0430928Y0258006D01*
X0431445Y0254762D02*
X0431445Y0253728D01*
X0431445Y0254245D02*
X0428342Y0254245D01*
X0428342Y0253728D02*
X0428342Y0254762D01*
X0428859Y0252481D02*
X0429894Y0252481D01*
X0430411Y0251964D01*
X0430411Y0250413D01*
X0431445Y0250413D02*
X0428342Y0250413D01*
X0428342Y0251964D01*
X0428859Y0252481D01*
X0428859Y0249166D02*
X0428342Y0248649D01*
X0428342Y0247615D01*
X0428859Y0247098D01*
X0430928Y0247098D01*
X0431445Y0247615D01*
X0431445Y0248649D01*
X0430928Y0249166D01*
X0429894Y0249166D01*
X0429894Y0248132D01*
X0428342Y0245852D02*
X0428342Y0243783D01*
X0428342Y0244817D02*
X0431445Y0244817D01*
X0434849Y0243905D02*
X0434849Y0243154D01*
X0435599Y0242403D01*
X0437851Y0242403D01*
X0437851Y0240902D02*
X0437851Y0243905D01*
X0437101Y0244655D01*
X0435599Y0244655D01*
X0434849Y0243905D01*
X0434849Y0240902D02*
X0435599Y0240152D01*
X0437101Y0240152D01*
X0437851Y0240902D01*
X0455342Y0258117D02*
X0456376Y0259152D01*
X0458445Y0259152D01*
X0458445Y0260398D02*
X0456376Y0262466D01*
X0455859Y0262466D01*
X0455342Y0261949D01*
X0455342Y0260915D01*
X0455859Y0260398D01*
X0456894Y0259152D02*
X0456894Y0257083D01*
X0456376Y0257083D02*
X0455342Y0258117D01*
X0456376Y0257083D02*
X0458445Y0257083D01*
X0458445Y0260398D02*
X0458445Y0262466D01*
X0457928Y0263713D02*
X0455859Y0265781D01*
X0457928Y0265781D01*
X0458445Y0265264D01*
X0458445Y0264230D01*
X0457928Y0263713D01*
X0455859Y0263713D01*
X0455342Y0264230D01*
X0455342Y0265264D01*
X0455859Y0265781D01*
X0465342Y0265264D02*
X0465342Y0264230D01*
X0465859Y0263713D01*
X0466376Y0263713D01*
X0466894Y0264230D01*
X0466894Y0265781D01*
X0467928Y0265781D02*
X0465859Y0265781D01*
X0465342Y0265264D01*
X0467928Y0265781D02*
X0468445Y0265264D01*
X0468445Y0264230D01*
X0467928Y0263713D01*
X0468445Y0262466D02*
X0468445Y0260398D01*
X0468445Y0261432D02*
X0465342Y0261432D01*
X0466376Y0260398D01*
X0466376Y0259152D02*
X0468445Y0259152D01*
X0466894Y0259152D02*
X0466894Y0257083D01*
X0466376Y0257083D02*
X0465342Y0258117D01*
X0466376Y0259152D01*
X0466376Y0257083D02*
X0468445Y0257083D01*
X0475342Y0258117D02*
X0476376Y0259152D01*
X0478445Y0259152D01*
X0478445Y0260398D02*
X0478445Y0262466D01*
X0478445Y0261432D02*
X0475342Y0261432D01*
X0476376Y0260398D01*
X0476894Y0259152D02*
X0476894Y0257083D01*
X0476376Y0257083D02*
X0475342Y0258117D01*
X0476376Y0257083D02*
X0478445Y0257083D01*
X0477928Y0263713D02*
X0477411Y0263713D01*
X0476894Y0264230D01*
X0476894Y0265264D01*
X0477411Y0265781D01*
X0477928Y0265781D01*
X0478445Y0265264D01*
X0478445Y0264230D01*
X0477928Y0263713D01*
X0476894Y0264230D02*
X0476376Y0263713D01*
X0475859Y0263713D01*
X0475342Y0264230D01*
X0475342Y0265264D01*
X0475859Y0265781D01*
X0476376Y0265781D01*
X0476894Y0265264D01*
X0485042Y0265881D02*
X0485042Y0263813D01*
X0485042Y0265881D02*
X0485559Y0265881D01*
X0487628Y0263813D01*
X0488145Y0263813D01*
X0488145Y0262566D02*
X0488145Y0260498D01*
X0488145Y0261532D02*
X0485042Y0261532D01*
X0486076Y0260498D01*
X0486076Y0259252D02*
X0488145Y0259252D01*
X0486594Y0259252D02*
X0486594Y0257183D01*
X0486076Y0257183D02*
X0485042Y0258217D01*
X0486076Y0259252D01*
X0486076Y0257183D02*
X0488145Y0257183D01*
X0495342Y0258217D02*
X0496376Y0259252D01*
X0498445Y0259252D01*
X0498445Y0260498D02*
X0498445Y0262566D01*
X0498445Y0261532D02*
X0495342Y0261532D01*
X0496376Y0260498D01*
X0496894Y0259252D02*
X0496894Y0257183D01*
X0496376Y0257183D02*
X0495342Y0258217D01*
X0496376Y0257183D02*
X0498445Y0257183D01*
X0497928Y0263813D02*
X0498445Y0264330D01*
X0498445Y0265364D01*
X0497928Y0265881D01*
X0497411Y0265881D01*
X0496894Y0265364D01*
X0496894Y0263813D01*
X0497928Y0263813D01*
X0496894Y0263813D02*
X0495859Y0264847D01*
X0495342Y0265881D01*
X0505242Y0265881D02*
X0505242Y0263813D01*
X0506794Y0263813D01*
X0506276Y0264847D01*
X0506276Y0265364D01*
X0506794Y0265881D01*
X0507828Y0265881D01*
X0508345Y0265364D01*
X0508345Y0264330D01*
X0507828Y0263813D01*
X0508345Y0262566D02*
X0508345Y0260498D01*
X0508345Y0261532D02*
X0505242Y0261532D01*
X0506276Y0260498D01*
X0506276Y0259252D02*
X0508345Y0259252D01*
X0506794Y0259252D02*
X0506794Y0257183D01*
X0506276Y0257183D02*
X0505242Y0258217D01*
X0506276Y0259252D01*
X0506276Y0257183D02*
X0508345Y0257183D01*
X0515542Y0258517D02*
X0516576Y0259552D01*
X0518645Y0259552D01*
X0518645Y0260798D02*
X0518645Y0262866D01*
X0518645Y0261832D02*
X0515542Y0261832D01*
X0516576Y0260798D01*
X0517094Y0259552D02*
X0517094Y0257483D01*
X0516576Y0257483D02*
X0515542Y0258517D01*
X0516576Y0257483D02*
X0518645Y0257483D01*
X0517094Y0264113D02*
X0515542Y0265664D01*
X0518645Y0265664D01*
X0517094Y0266181D02*
X0517094Y0264113D01*
X0546071Y0262979D02*
X0549173Y0262979D01*
X0549173Y0261945D02*
X0549173Y0264013D01*
X0547105Y0261945D02*
X0546071Y0262979D01*
X0549173Y0260699D02*
X0549173Y0258630D01*
X0546071Y0258630D01*
X0546071Y0257384D02*
X0549173Y0257384D01*
X0547622Y0257384D02*
X0547622Y0255315D01*
X0549173Y0255315D02*
X0546071Y0255315D01*
X0542828Y0251086D02*
X0540760Y0247983D01*
X0542828Y0247983D02*
X0540760Y0251086D01*
X0539513Y0251086D02*
X0537445Y0251086D01*
X0538479Y0251086D02*
X0538479Y0247983D01*
X0532428Y0247983D02*
X0530360Y0251086D01*
X0529113Y0250569D02*
X0529113Y0249534D01*
X0528596Y0249017D01*
X0527045Y0249017D01*
X0527045Y0247983D02*
X0527045Y0251086D01*
X0528596Y0251086D01*
X0529113Y0250569D01*
X0528079Y0249017D02*
X0529113Y0247983D01*
X0530360Y0247983D02*
X0532428Y0251086D01*
X0545234Y0247043D02*
X0545234Y0237043D01*
X0546142Y0236952D02*
X0549245Y0236952D01*
X0549245Y0238198D02*
X0549245Y0240266D01*
X0549245Y0241513D02*
X0547176Y0243581D01*
X0546659Y0243581D01*
X0546142Y0243064D01*
X0546142Y0242030D01*
X0546659Y0241513D01*
X0549245Y0241513D02*
X0549245Y0243581D01*
X0551962Y0249483D02*
X0551445Y0250000D01*
X0551962Y0249483D02*
X0552996Y0249483D01*
X0553513Y0250000D01*
X0553513Y0250517D01*
X0552996Y0251034D01*
X0552479Y0251034D01*
X0552996Y0251034D02*
X0553513Y0251552D01*
X0553513Y0252069D01*
X0552996Y0252586D01*
X0551962Y0252586D01*
X0551445Y0252069D01*
X0554760Y0250000D02*
X0555277Y0250000D01*
X0555277Y0249483D01*
X0554760Y0249483D01*
X0554760Y0250000D01*
X0556417Y0250000D02*
X0556934Y0249483D01*
X0557968Y0249483D01*
X0558486Y0250000D01*
X0558486Y0250517D01*
X0557968Y0251034D01*
X0557451Y0251034D01*
X0557968Y0251034D02*
X0558486Y0251552D01*
X0558486Y0252069D01*
X0557968Y0252586D01*
X0556934Y0252586D01*
X0556417Y0252069D01*
X0561045Y0251969D02*
X0561045Y0249900D01*
X0561562Y0249383D01*
X0562596Y0249383D01*
X0563113Y0249900D01*
X0563113Y0250934D01*
X0562079Y0250934D01*
X0561045Y0251969D02*
X0561562Y0252486D01*
X0562596Y0252486D01*
X0563113Y0251969D01*
X0564360Y0252486D02*
X0566428Y0249383D01*
X0566428Y0252486D01*
X0567675Y0252486D02*
X0569226Y0252486D01*
X0569743Y0251969D01*
X0569743Y0249900D01*
X0569226Y0249383D01*
X0567675Y0249383D01*
X0567675Y0252486D01*
X0564360Y0252486D02*
X0564360Y0249383D01*
X0571845Y0249900D02*
X0572362Y0249383D01*
X0573396Y0249383D01*
X0573913Y0249900D01*
X0573913Y0251969D01*
X0573396Y0252486D01*
X0572362Y0252486D01*
X0571845Y0251969D01*
X0571845Y0249900D01*
X0575160Y0249900D02*
X0575677Y0249383D01*
X0576711Y0249383D01*
X0577228Y0249900D01*
X0577228Y0252486D01*
X0578475Y0252486D02*
X0580543Y0252486D01*
X0579509Y0252486D02*
X0579509Y0249383D01*
X0575160Y0249900D02*
X0575160Y0252486D01*
X0584145Y0252069D02*
X0584662Y0252586D01*
X0585696Y0252586D01*
X0586213Y0252069D01*
X0586213Y0251552D01*
X0585696Y0251034D01*
X0586213Y0250517D01*
X0586213Y0250000D01*
X0585696Y0249483D01*
X0584662Y0249483D01*
X0584145Y0250000D01*
X0585179Y0251034D02*
X0585696Y0251034D01*
X0587460Y0250000D02*
X0587460Y0249483D01*
X0587977Y0249483D01*
X0587977Y0250000D01*
X0587460Y0250000D01*
X0589117Y0250000D02*
X0589634Y0249483D01*
X0590668Y0249483D01*
X0591186Y0250000D01*
X0591186Y0250517D01*
X0590668Y0251034D01*
X0590151Y0251034D01*
X0590668Y0251034D02*
X0591186Y0251552D01*
X0591186Y0252069D01*
X0590668Y0252586D01*
X0589634Y0252586D01*
X0589117Y0252069D01*
X0593445Y0251769D02*
X0593445Y0249700D01*
X0593962Y0249183D01*
X0594996Y0249183D01*
X0595513Y0249700D01*
X0595513Y0250734D01*
X0594479Y0250734D01*
X0593445Y0251769D02*
X0593962Y0252286D01*
X0594996Y0252286D01*
X0595513Y0251769D01*
X0596760Y0252286D02*
X0598828Y0249183D01*
X0598828Y0252286D01*
X0600075Y0252286D02*
X0601626Y0252286D01*
X0602143Y0251769D01*
X0602143Y0249700D01*
X0601626Y0249183D01*
X0600075Y0249183D01*
X0600075Y0252286D01*
X0596760Y0252286D02*
X0596760Y0249183D01*
X0604245Y0249700D02*
X0604245Y0251769D01*
X0604762Y0252286D01*
X0605796Y0252286D01*
X0606313Y0251769D01*
X0606313Y0249700D01*
X0605796Y0249183D01*
X0604762Y0249183D01*
X0604245Y0249700D01*
X0607560Y0249700D02*
X0608077Y0249183D01*
X0609111Y0249183D01*
X0609628Y0249700D01*
X0609628Y0252286D01*
X0610875Y0252286D02*
X0612943Y0252286D01*
X0611909Y0252286D02*
X0611909Y0249183D01*
X0614642Y0247579D02*
X0615159Y0248096D01*
X0615676Y0248096D01*
X0616194Y0247579D01*
X0616194Y0246028D01*
X0615676Y0244781D02*
X0615159Y0244781D01*
X0614642Y0244264D01*
X0614642Y0243230D01*
X0615159Y0242713D01*
X0615676Y0244781D02*
X0617745Y0242713D01*
X0617745Y0244781D01*
X0617745Y0246028D02*
X0617745Y0247579D01*
X0617228Y0248096D01*
X0616711Y0248096D01*
X0616194Y0247579D01*
X0614642Y0247579D02*
X0614642Y0246028D01*
X0617745Y0246028D01*
X0617745Y0241466D02*
X0617745Y0239398D01*
X0614642Y0239398D01*
X0614642Y0238152D02*
X0617745Y0238152D01*
X0616194Y0238152D02*
X0616194Y0236083D01*
X0617745Y0236083D02*
X0614642Y0236083D01*
X0608243Y0233469D02*
X0607726Y0233986D01*
X0606175Y0233986D01*
X0606175Y0230883D01*
X0607726Y0230883D01*
X0608243Y0231400D01*
X0608243Y0233469D01*
X0604928Y0233986D02*
X0604928Y0230883D01*
X0602860Y0233986D01*
X0602860Y0230883D01*
X0601613Y0231400D02*
X0601613Y0232434D01*
X0600579Y0232434D01*
X0599545Y0231400D02*
X0599545Y0233469D01*
X0600062Y0233986D01*
X0601096Y0233986D01*
X0601613Y0233469D01*
X0601613Y0231400D02*
X0601096Y0230883D01*
X0600062Y0230883D01*
X0599545Y0231400D01*
X0598189Y0235134D02*
X0572989Y0235134D01*
X0572989Y0170134D01*
X0598189Y0170134D01*
X0598189Y0235134D01*
X0600062Y0224086D02*
X0599545Y0223569D01*
X0599545Y0221500D01*
X0600062Y0220983D01*
X0601096Y0220983D01*
X0601613Y0221500D01*
X0601613Y0222534D01*
X0600579Y0222534D01*
X0601613Y0223569D02*
X0601096Y0224086D01*
X0600062Y0224086D01*
X0602860Y0224086D02*
X0604928Y0220983D01*
X0604928Y0224086D01*
X0606175Y0224086D02*
X0607726Y0224086D01*
X0608243Y0223569D01*
X0608243Y0221500D01*
X0607726Y0220983D01*
X0606175Y0220983D01*
X0606175Y0224086D01*
X0602860Y0224086D02*
X0602860Y0220983D01*
X0602960Y0213986D02*
X0605028Y0210883D01*
X0605028Y0213986D01*
X0606275Y0213986D02*
X0607826Y0213986D01*
X0608343Y0213469D01*
X0608343Y0211400D01*
X0607826Y0210883D01*
X0606275Y0210883D01*
X0606275Y0213986D01*
X0602960Y0213986D02*
X0602960Y0210883D01*
X0601713Y0211400D02*
X0601713Y0212434D01*
X0600679Y0212434D01*
X0599645Y0211400D02*
X0600162Y0210883D01*
X0601196Y0210883D01*
X0601713Y0211400D01*
X0599645Y0211400D02*
X0599645Y0213469D01*
X0600162Y0213986D01*
X0601196Y0213986D01*
X0601713Y0213469D01*
X0601196Y0203986D02*
X0600162Y0203986D01*
X0599645Y0203469D01*
X0599645Y0201400D01*
X0600162Y0200883D01*
X0601196Y0200883D01*
X0601713Y0201400D01*
X0601713Y0202434D01*
X0600679Y0202434D01*
X0601713Y0203469D02*
X0601196Y0203986D01*
X0602960Y0203986D02*
X0605028Y0200883D01*
X0605028Y0203986D01*
X0606275Y0203986D02*
X0607826Y0203986D01*
X0608343Y0203469D01*
X0608343Y0201400D01*
X0607826Y0200883D01*
X0606275Y0200883D01*
X0606275Y0203986D01*
X0602960Y0203986D02*
X0602960Y0200883D01*
X0603513Y0183986D02*
X0601445Y0183986D01*
X0601445Y0182434D01*
X0602479Y0182952D01*
X0602996Y0182952D01*
X0603513Y0182434D01*
X0603513Y0181400D01*
X0602996Y0180883D01*
X0601962Y0180883D01*
X0601445Y0181400D01*
X0604760Y0181917D02*
X0604760Y0183986D01*
X0606828Y0183986D02*
X0606828Y0181917D01*
X0605794Y0180883D01*
X0604760Y0181917D01*
X0604542Y0165381D02*
X0607645Y0165381D01*
X0607645Y0163313D02*
X0604542Y0163313D01*
X0605576Y0164347D01*
X0604542Y0165381D01*
X0605576Y0162066D02*
X0607645Y0162066D01*
X0606094Y0162066D02*
X0606094Y0159998D01*
X0605576Y0159998D02*
X0604542Y0161032D01*
X0605576Y0162066D01*
X0605576Y0159998D02*
X0607645Y0159998D01*
X0607128Y0158752D02*
X0607645Y0158234D01*
X0607645Y0157200D01*
X0607128Y0156683D01*
X0605059Y0156683D01*
X0604542Y0157200D01*
X0604542Y0158234D01*
X0605059Y0158752D01*
X0604242Y0149866D02*
X0606311Y0149866D01*
X0607345Y0148832D01*
X0606311Y0147798D01*
X0604242Y0147798D01*
X0604242Y0146552D02*
X0604242Y0144483D01*
X0605794Y0144483D01*
X0605276Y0145517D01*
X0605276Y0146034D01*
X0605794Y0146552D01*
X0606828Y0146552D01*
X0607345Y0146034D01*
X0607345Y0145000D01*
X0606828Y0144483D01*
X0606211Y0140539D02*
X0604142Y0140539D01*
X0606211Y0140539D02*
X0607245Y0139504D01*
X0606211Y0138470D01*
X0604142Y0138470D01*
X0604659Y0137224D02*
X0605176Y0137224D01*
X0605694Y0136707D01*
X0606211Y0137224D01*
X0606728Y0137224D01*
X0607245Y0136707D01*
X0607245Y0135672D01*
X0606728Y0135155D01*
X0606728Y0134015D02*
X0607245Y0134015D01*
X0607245Y0133498D01*
X0606728Y0133498D01*
X0606728Y0134015D01*
X0606728Y0132252D02*
X0607245Y0131734D01*
X0607245Y0130700D01*
X0606728Y0130183D01*
X0605694Y0131217D02*
X0605694Y0131734D01*
X0606211Y0132252D01*
X0606728Y0132252D01*
X0605694Y0131734D02*
X0605176Y0132252D01*
X0604659Y0132252D01*
X0604142Y0131734D01*
X0604142Y0130700D01*
X0604659Y0130183D01*
X0604659Y0135155D02*
X0604142Y0135672D01*
X0604142Y0136707D01*
X0604659Y0137224D01*
X0605694Y0136707D02*
X0605694Y0136190D01*
X0612845Y0128969D02*
X0612845Y0126900D01*
X0613362Y0126383D01*
X0614396Y0126383D01*
X0614913Y0126900D01*
X0614913Y0127934D01*
X0613879Y0127934D01*
X0612845Y0128969D02*
X0613362Y0129486D01*
X0614396Y0129486D01*
X0614913Y0128969D01*
X0616160Y0129486D02*
X0618228Y0126383D01*
X0618228Y0129486D01*
X0619475Y0129486D02*
X0621026Y0129486D01*
X0621543Y0128969D01*
X0621543Y0126900D01*
X0621026Y0126383D01*
X0619475Y0126383D01*
X0619475Y0129486D01*
X0616160Y0129486D02*
X0616160Y0126383D01*
X0634880Y0140350D02*
X0709880Y0140350D01*
X0709880Y0159366D01*
X0634880Y0159366D01*
X0634880Y0140350D01*
X0675963Y0136807D02*
X0675963Y0126807D01*
X0711081Y0126807D02*
X0711081Y0136807D01*
X0723081Y0138747D02*
X0725431Y0138747D01*
X0715982Y0145587D02*
X0710077Y0145587D01*
X0715982Y0145587D02*
X0715982Y0154248D01*
X0710077Y0154248D01*
X0675819Y0165913D02*
X0675302Y0165396D01*
X0674268Y0165396D01*
X0673751Y0165913D01*
X0674268Y0166947D02*
X0675302Y0166947D01*
X0675819Y0166430D01*
X0675819Y0165913D01*
X0674268Y0166947D02*
X0673751Y0167464D01*
X0673751Y0167981D01*
X0674268Y0168498D01*
X0675302Y0168498D01*
X0675819Y0167981D01*
X0672504Y0167981D02*
X0671987Y0168498D01*
X0670953Y0168498D01*
X0670436Y0167981D01*
X0670436Y0165913D01*
X0670953Y0165396D01*
X0671987Y0165396D01*
X0672504Y0165913D01*
X0669189Y0165396D02*
X0667638Y0166947D01*
X0667121Y0166430D02*
X0669189Y0168498D01*
X0667121Y0168498D02*
X0667121Y0165396D01*
X0665875Y0165396D02*
X0663806Y0165396D01*
X0665875Y0167464D01*
X0665875Y0167981D01*
X0665357Y0168498D01*
X0664323Y0168498D01*
X0663806Y0167981D01*
X0662560Y0167981D02*
X0660491Y0165913D01*
X0661008Y0165396D01*
X0662043Y0165396D01*
X0662560Y0165913D01*
X0662560Y0167981D01*
X0662043Y0168498D01*
X0661008Y0168498D01*
X0660491Y0167981D01*
X0660491Y0165913D01*
X0659245Y0165913D02*
X0658728Y0165396D01*
X0657694Y0165396D01*
X0657176Y0165913D01*
X0657176Y0166947D02*
X0658211Y0167464D01*
X0658728Y0167464D01*
X0659245Y0166947D01*
X0659245Y0165913D01*
X0657176Y0166947D02*
X0657176Y0168498D01*
X0659245Y0168498D01*
X0655930Y0167981D02*
X0655930Y0167464D01*
X0655413Y0166947D01*
X0654379Y0166947D01*
X0653862Y0167464D01*
X0653862Y0167981D01*
X0654379Y0168498D01*
X0655413Y0168498D01*
X0655930Y0167981D01*
X0655413Y0166947D02*
X0655930Y0166430D01*
X0655930Y0165913D01*
X0655413Y0165396D01*
X0654379Y0165396D01*
X0653862Y0165913D01*
X0653862Y0166430D01*
X0654379Y0166947D01*
X0652615Y0165396D02*
X0650547Y0165396D01*
X0651581Y0165396D02*
X0651581Y0168498D01*
X0650547Y0167464D01*
X0649300Y0167981D02*
X0648783Y0168498D01*
X0647232Y0168498D01*
X0647232Y0165396D01*
X0648783Y0165396D01*
X0649300Y0165913D01*
X0649300Y0167981D01*
X0645986Y0167981D02*
X0645469Y0168498D01*
X0644434Y0168498D01*
X0643917Y0167981D01*
X0643917Y0167464D01*
X0644434Y0166947D01*
X0645469Y0166947D01*
X0645986Y0166430D01*
X0645986Y0165913D01*
X0645469Y0165396D01*
X0644434Y0165396D01*
X0643917Y0165913D01*
X0642671Y0165913D02*
X0642154Y0165396D01*
X0641119Y0165396D01*
X0640602Y0165913D01*
X0640602Y0167981D01*
X0641119Y0168498D01*
X0642154Y0168498D01*
X0642671Y0167981D01*
X0637852Y0178146D02*
X0677852Y0178146D01*
X0693445Y0174786D02*
X0693445Y0171683D01*
X0693445Y0172717D02*
X0694996Y0172717D01*
X0695513Y0173234D01*
X0695513Y0174269D01*
X0694996Y0174786D01*
X0693445Y0174786D01*
X0694479Y0172717D02*
X0695513Y0171683D01*
X0696760Y0171683D02*
X0696760Y0172200D01*
X0698828Y0174269D01*
X0698828Y0174786D01*
X0696760Y0174786D01*
X0685071Y0192799D02*
X0680896Y0192799D01*
X0680896Y0196799D01*
X0685071Y0196799D01*
X0690745Y0198186D02*
X0692813Y0198186D01*
X0691779Y0198186D02*
X0691779Y0195083D01*
X0694060Y0195083D02*
X0696128Y0197152D01*
X0696128Y0197669D01*
X0695611Y0198186D01*
X0694577Y0198186D01*
X0694060Y0197669D01*
X0694060Y0195083D02*
X0696128Y0195083D01*
X0684896Y0194799D02*
X0684899Y0195081D01*
X0684910Y0195363D01*
X0684927Y0195645D01*
X0684951Y0195926D01*
X0684982Y0196207D01*
X0685020Y0196486D01*
X0685065Y0196765D01*
X0685117Y0197043D01*
X0685175Y0197319D01*
X0685241Y0197593D01*
X0685313Y0197866D01*
X0685391Y0198137D01*
X0685476Y0198406D01*
X0685568Y0198673D01*
X0685667Y0198938D01*
X0685771Y0199200D01*
X0685883Y0199459D01*
X0686000Y0199716D01*
X0686124Y0199970D01*
X0686254Y0200220D01*
X0686390Y0200467D01*
X0686532Y0200711D01*
X0686680Y0200951D01*
X0686834Y0201188D01*
X0686994Y0201421D01*
X0687159Y0201650D01*
X0687330Y0201874D01*
X0687506Y0202095D01*
X0687688Y0202310D01*
X0687875Y0202522D01*
X0688067Y0202729D01*
X0688264Y0202931D01*
X0688466Y0203128D01*
X0688673Y0203320D01*
X0688885Y0203507D01*
X0689100Y0203689D01*
X0689321Y0203865D01*
X0689545Y0204036D01*
X0689774Y0204201D01*
X0690007Y0204361D01*
X0690244Y0204515D01*
X0690484Y0204663D01*
X0690728Y0204805D01*
X0690975Y0204941D01*
X0691225Y0205071D01*
X0691479Y0205195D01*
X0691736Y0205312D01*
X0691995Y0205424D01*
X0692257Y0205528D01*
X0692522Y0205627D01*
X0692789Y0205719D01*
X0693058Y0205804D01*
X0693329Y0205882D01*
X0693602Y0205954D01*
X0693876Y0206020D01*
X0694152Y0206078D01*
X0694430Y0206130D01*
X0694709Y0206175D01*
X0694988Y0206213D01*
X0695269Y0206244D01*
X0695550Y0206268D01*
X0695832Y0206285D01*
X0696114Y0206296D01*
X0696396Y0206299D01*
X0696678Y0206296D01*
X0696960Y0206285D01*
X0697242Y0206268D01*
X0697523Y0206244D01*
X0697804Y0206213D01*
X0698083Y0206175D01*
X0698362Y0206130D01*
X0698640Y0206078D01*
X0698916Y0206020D01*
X0699190Y0205954D01*
X0699463Y0205882D01*
X0699734Y0205804D01*
X0700003Y0205719D01*
X0700270Y0205627D01*
X0700535Y0205528D01*
X0700797Y0205424D01*
X0701056Y0205312D01*
X0701313Y0205195D01*
X0701567Y0205071D01*
X0701817Y0204941D01*
X0702064Y0204805D01*
X0702308Y0204663D01*
X0702548Y0204515D01*
X0702785Y0204361D01*
X0703018Y0204201D01*
X0703247Y0204036D01*
X0703471Y0203865D01*
X0703692Y0203689D01*
X0703907Y0203507D01*
X0704119Y0203320D01*
X0704326Y0203128D01*
X0704528Y0202931D01*
X0704725Y0202729D01*
X0704917Y0202522D01*
X0705104Y0202310D01*
X0705286Y0202095D01*
X0705462Y0201874D01*
X0705633Y0201650D01*
X0705798Y0201421D01*
X0705958Y0201188D01*
X0706112Y0200951D01*
X0706260Y0200711D01*
X0706402Y0200467D01*
X0706538Y0200220D01*
X0706668Y0199970D01*
X0706792Y0199716D01*
X0706909Y0199459D01*
X0707021Y0199200D01*
X0707125Y0198938D01*
X0707224Y0198673D01*
X0707316Y0198406D01*
X0707401Y0198137D01*
X0707479Y0197866D01*
X0707551Y0197593D01*
X0707617Y0197319D01*
X0707675Y0197043D01*
X0707727Y0196765D01*
X0707772Y0196486D01*
X0707810Y0196207D01*
X0707841Y0195926D01*
X0707865Y0195645D01*
X0707882Y0195363D01*
X0707893Y0195081D01*
X0707896Y0194799D01*
X0707893Y0194517D01*
X0707882Y0194235D01*
X0707865Y0193953D01*
X0707841Y0193672D01*
X0707810Y0193391D01*
X0707772Y0193112D01*
X0707727Y0192833D01*
X0707675Y0192555D01*
X0707617Y0192279D01*
X0707551Y0192005D01*
X0707479Y0191732D01*
X0707401Y0191461D01*
X0707316Y0191192D01*
X0707224Y0190925D01*
X0707125Y0190660D01*
X0707021Y0190398D01*
X0706909Y0190139D01*
X0706792Y0189882D01*
X0706668Y0189628D01*
X0706538Y0189378D01*
X0706402Y0189131D01*
X0706260Y0188887D01*
X0706112Y0188647D01*
X0705958Y0188410D01*
X0705798Y0188177D01*
X0705633Y0187948D01*
X0705462Y0187724D01*
X0705286Y0187503D01*
X0705104Y0187288D01*
X0704917Y0187076D01*
X0704725Y0186869D01*
X0704528Y0186667D01*
X0704326Y0186470D01*
X0704119Y0186278D01*
X0703907Y0186091D01*
X0703692Y0185909D01*
X0703471Y0185733D01*
X0703247Y0185562D01*
X0703018Y0185397D01*
X0702785Y0185237D01*
X0702548Y0185083D01*
X0702308Y0184935D01*
X0702064Y0184793D01*
X0701817Y0184657D01*
X0701567Y0184527D01*
X0701313Y0184403D01*
X0701056Y0184286D01*
X0700797Y0184174D01*
X0700535Y0184070D01*
X0700270Y0183971D01*
X0700003Y0183879D01*
X0699734Y0183794D01*
X0699463Y0183716D01*
X0699190Y0183644D01*
X0698916Y0183578D01*
X0698640Y0183520D01*
X0698362Y0183468D01*
X0698083Y0183423D01*
X0697804Y0183385D01*
X0697523Y0183354D01*
X0697242Y0183330D01*
X0696960Y0183313D01*
X0696678Y0183302D01*
X0696396Y0183299D01*
X0696114Y0183302D01*
X0695832Y0183313D01*
X0695550Y0183330D01*
X0695269Y0183354D01*
X0694988Y0183385D01*
X0694709Y0183423D01*
X0694430Y0183468D01*
X0694152Y0183520D01*
X0693876Y0183578D01*
X0693602Y0183644D01*
X0693329Y0183716D01*
X0693058Y0183794D01*
X0692789Y0183879D01*
X0692522Y0183971D01*
X0692257Y0184070D01*
X0691995Y0184174D01*
X0691736Y0184286D01*
X0691479Y0184403D01*
X0691225Y0184527D01*
X0690975Y0184657D01*
X0690728Y0184793D01*
X0690484Y0184935D01*
X0690244Y0185083D01*
X0690007Y0185237D01*
X0689774Y0185397D01*
X0689545Y0185562D01*
X0689321Y0185733D01*
X0689100Y0185909D01*
X0688885Y0186091D01*
X0688673Y0186278D01*
X0688466Y0186470D01*
X0688264Y0186667D01*
X0688067Y0186869D01*
X0687875Y0187076D01*
X0687688Y0187288D01*
X0687506Y0187503D01*
X0687330Y0187724D01*
X0687159Y0187948D01*
X0686994Y0188177D01*
X0686834Y0188410D01*
X0686680Y0188647D01*
X0686532Y0188887D01*
X0686390Y0189131D01*
X0686254Y0189378D01*
X0686124Y0189628D01*
X0686000Y0189882D01*
X0685883Y0190139D01*
X0685771Y0190398D01*
X0685667Y0190660D01*
X0685568Y0190925D01*
X0685476Y0191192D01*
X0685391Y0191461D01*
X0685313Y0191732D01*
X0685241Y0192005D01*
X0685175Y0192279D01*
X0685117Y0192555D01*
X0685065Y0192833D01*
X0685020Y0193112D01*
X0684982Y0193391D01*
X0684951Y0193672D01*
X0684927Y0193953D01*
X0684910Y0194235D01*
X0684899Y0194517D01*
X0684896Y0194799D01*
X0662068Y0203683D02*
X0662068Y0206786D01*
X0660517Y0205234D01*
X0662586Y0205234D01*
X0663344Y0208008D02*
X0663344Y0218008D01*
X0657613Y0206786D02*
X0655545Y0206786D01*
X0657613Y0206786D02*
X0657613Y0206269D01*
X0655545Y0204200D01*
X0655545Y0203683D01*
X0652443Y0204300D02*
X0651926Y0203783D01*
X0650375Y0203783D01*
X0650375Y0206886D01*
X0651926Y0206886D01*
X0652443Y0206369D01*
X0652443Y0204300D01*
X0649128Y0203783D02*
X0649128Y0206886D01*
X0647060Y0206886D02*
X0647060Y0203783D01*
X0645813Y0204300D02*
X0645296Y0203783D01*
X0644262Y0203783D01*
X0643745Y0204300D01*
X0643745Y0206369D01*
X0644262Y0206886D01*
X0645296Y0206886D01*
X0645813Y0206369D01*
X0645813Y0205334D02*
X0644779Y0205334D01*
X0645813Y0205334D02*
X0645813Y0204300D01*
X0647060Y0206886D02*
X0649128Y0203783D01*
X0658860Y0203683D02*
X0658860Y0204200D01*
X0659377Y0204200D01*
X0659377Y0203683D01*
X0658860Y0203683D01*
X0659077Y0189986D02*
X0660111Y0189986D01*
X0660628Y0189469D01*
X0660628Y0188952D01*
X0660111Y0188434D01*
X0659077Y0188434D01*
X0658560Y0188952D01*
X0658560Y0189469D01*
X0659077Y0189986D01*
X0659077Y0188434D02*
X0658560Y0187917D01*
X0658560Y0187400D01*
X0659077Y0186883D01*
X0660111Y0186883D01*
X0660628Y0187400D01*
X0660628Y0187917D01*
X0660111Y0188434D01*
X0657313Y0188434D02*
X0656796Y0187917D01*
X0655245Y0187917D01*
X0655245Y0186883D02*
X0655245Y0189986D01*
X0656796Y0189986D01*
X0657313Y0189469D01*
X0657313Y0188434D01*
X0656279Y0187917D02*
X0657313Y0186883D01*
X0680896Y0226264D02*
X0685071Y0226264D01*
X0685071Y0230264D02*
X0680896Y0230264D01*
X0680896Y0226264D01*
X0692079Y0228583D02*
X0692079Y0231686D01*
X0691045Y0231686D02*
X0693113Y0231686D01*
X0694360Y0230652D02*
X0695394Y0231686D01*
X0695394Y0228583D01*
X0694360Y0228583D02*
X0696428Y0228583D01*
X0684896Y0228264D02*
X0684899Y0228546D01*
X0684910Y0228828D01*
X0684927Y0229110D01*
X0684951Y0229391D01*
X0684982Y0229672D01*
X0685020Y0229951D01*
X0685065Y0230230D01*
X0685117Y0230508D01*
X0685175Y0230784D01*
X0685241Y0231058D01*
X0685313Y0231331D01*
X0685391Y0231602D01*
X0685476Y0231871D01*
X0685568Y0232138D01*
X0685667Y0232403D01*
X0685771Y0232665D01*
X0685883Y0232924D01*
X0686000Y0233181D01*
X0686124Y0233435D01*
X0686254Y0233685D01*
X0686390Y0233932D01*
X0686532Y0234176D01*
X0686680Y0234416D01*
X0686834Y0234653D01*
X0686994Y0234886D01*
X0687159Y0235115D01*
X0687330Y0235339D01*
X0687506Y0235560D01*
X0687688Y0235775D01*
X0687875Y0235987D01*
X0688067Y0236194D01*
X0688264Y0236396D01*
X0688466Y0236593D01*
X0688673Y0236785D01*
X0688885Y0236972D01*
X0689100Y0237154D01*
X0689321Y0237330D01*
X0689545Y0237501D01*
X0689774Y0237666D01*
X0690007Y0237826D01*
X0690244Y0237980D01*
X0690484Y0238128D01*
X0690728Y0238270D01*
X0690975Y0238406D01*
X0691225Y0238536D01*
X0691479Y0238660D01*
X0691736Y0238777D01*
X0691995Y0238889D01*
X0692257Y0238993D01*
X0692522Y0239092D01*
X0692789Y0239184D01*
X0693058Y0239269D01*
X0693329Y0239347D01*
X0693602Y0239419D01*
X0693876Y0239485D01*
X0694152Y0239543D01*
X0694430Y0239595D01*
X0694709Y0239640D01*
X0694988Y0239678D01*
X0695269Y0239709D01*
X0695550Y0239733D01*
X0695832Y0239750D01*
X0696114Y0239761D01*
X0696396Y0239764D01*
X0696678Y0239761D01*
X0696960Y0239750D01*
X0697242Y0239733D01*
X0697523Y0239709D01*
X0697804Y0239678D01*
X0698083Y0239640D01*
X0698362Y0239595D01*
X0698640Y0239543D01*
X0698916Y0239485D01*
X0699190Y0239419D01*
X0699463Y0239347D01*
X0699734Y0239269D01*
X0700003Y0239184D01*
X0700270Y0239092D01*
X0700535Y0238993D01*
X0700797Y0238889D01*
X0701056Y0238777D01*
X0701313Y0238660D01*
X0701567Y0238536D01*
X0701817Y0238406D01*
X0702064Y0238270D01*
X0702308Y0238128D01*
X0702548Y0237980D01*
X0702785Y0237826D01*
X0703018Y0237666D01*
X0703247Y0237501D01*
X0703471Y0237330D01*
X0703692Y0237154D01*
X0703907Y0236972D01*
X0704119Y0236785D01*
X0704326Y0236593D01*
X0704528Y0236396D01*
X0704725Y0236194D01*
X0704917Y0235987D01*
X0705104Y0235775D01*
X0705286Y0235560D01*
X0705462Y0235339D01*
X0705633Y0235115D01*
X0705798Y0234886D01*
X0705958Y0234653D01*
X0706112Y0234416D01*
X0706260Y0234176D01*
X0706402Y0233932D01*
X0706538Y0233685D01*
X0706668Y0233435D01*
X0706792Y0233181D01*
X0706909Y0232924D01*
X0707021Y0232665D01*
X0707125Y0232403D01*
X0707224Y0232138D01*
X0707316Y0231871D01*
X0707401Y0231602D01*
X0707479Y0231331D01*
X0707551Y0231058D01*
X0707617Y0230784D01*
X0707675Y0230508D01*
X0707727Y0230230D01*
X0707772Y0229951D01*
X0707810Y0229672D01*
X0707841Y0229391D01*
X0707865Y0229110D01*
X0707882Y0228828D01*
X0707893Y0228546D01*
X0707896Y0228264D01*
X0707893Y0227982D01*
X0707882Y0227700D01*
X0707865Y0227418D01*
X0707841Y0227137D01*
X0707810Y0226856D01*
X0707772Y0226577D01*
X0707727Y0226298D01*
X0707675Y0226020D01*
X0707617Y0225744D01*
X0707551Y0225470D01*
X0707479Y0225197D01*
X0707401Y0224926D01*
X0707316Y0224657D01*
X0707224Y0224390D01*
X0707125Y0224125D01*
X0707021Y0223863D01*
X0706909Y0223604D01*
X0706792Y0223347D01*
X0706668Y0223093D01*
X0706538Y0222843D01*
X0706402Y0222596D01*
X0706260Y0222352D01*
X0706112Y0222112D01*
X0705958Y0221875D01*
X0705798Y0221642D01*
X0705633Y0221413D01*
X0705462Y0221189D01*
X0705286Y0220968D01*
X0705104Y0220753D01*
X0704917Y0220541D01*
X0704725Y0220334D01*
X0704528Y0220132D01*
X0704326Y0219935D01*
X0704119Y0219743D01*
X0703907Y0219556D01*
X0703692Y0219374D01*
X0703471Y0219198D01*
X0703247Y0219027D01*
X0703018Y0218862D01*
X0702785Y0218702D01*
X0702548Y0218548D01*
X0702308Y0218400D01*
X0702064Y0218258D01*
X0701817Y0218122D01*
X0701567Y0217992D01*
X0701313Y0217868D01*
X0701056Y0217751D01*
X0700797Y0217639D01*
X0700535Y0217535D01*
X0700270Y0217436D01*
X0700003Y0217344D01*
X0699734Y0217259D01*
X0699463Y0217181D01*
X0699190Y0217109D01*
X0698916Y0217043D01*
X0698640Y0216985D01*
X0698362Y0216933D01*
X0698083Y0216888D01*
X0697804Y0216850D01*
X0697523Y0216819D01*
X0697242Y0216795D01*
X0696960Y0216778D01*
X0696678Y0216767D01*
X0696396Y0216764D01*
X0696114Y0216767D01*
X0695832Y0216778D01*
X0695550Y0216795D01*
X0695269Y0216819D01*
X0694988Y0216850D01*
X0694709Y0216888D01*
X0694430Y0216933D01*
X0694152Y0216985D01*
X0693876Y0217043D01*
X0693602Y0217109D01*
X0693329Y0217181D01*
X0693058Y0217259D01*
X0692789Y0217344D01*
X0692522Y0217436D01*
X0692257Y0217535D01*
X0691995Y0217639D01*
X0691736Y0217751D01*
X0691479Y0217868D01*
X0691225Y0217992D01*
X0690975Y0218122D01*
X0690728Y0218258D01*
X0690484Y0218400D01*
X0690244Y0218548D01*
X0690007Y0218702D01*
X0689774Y0218862D01*
X0689545Y0219027D01*
X0689321Y0219198D01*
X0689100Y0219374D01*
X0688885Y0219556D01*
X0688673Y0219743D01*
X0688466Y0219935D01*
X0688264Y0220132D01*
X0688067Y0220334D01*
X0687875Y0220541D01*
X0687688Y0220753D01*
X0687506Y0220968D01*
X0687330Y0221189D01*
X0687159Y0221413D01*
X0686994Y0221642D01*
X0686834Y0221875D01*
X0686680Y0222112D01*
X0686532Y0222352D01*
X0686390Y0222596D01*
X0686254Y0222843D01*
X0686124Y0223093D01*
X0686000Y0223347D01*
X0685883Y0223604D01*
X0685771Y0223863D01*
X0685667Y0224125D01*
X0685568Y0224390D01*
X0685476Y0224657D01*
X0685391Y0224926D01*
X0685313Y0225197D01*
X0685241Y0225470D01*
X0685175Y0225744D01*
X0685117Y0226020D01*
X0685065Y0226298D01*
X0685020Y0226577D01*
X0684982Y0226856D01*
X0684951Y0227137D01*
X0684927Y0227418D01*
X0684910Y0227700D01*
X0684899Y0227982D01*
X0684896Y0228264D01*
X0660428Y0234100D02*
X0660428Y0234617D01*
X0659911Y0235134D01*
X0658360Y0235134D01*
X0658360Y0234100D01*
X0658877Y0233583D01*
X0659911Y0233583D01*
X0660428Y0234100D01*
X0659394Y0236169D02*
X0658360Y0235134D01*
X0657113Y0235134D02*
X0656596Y0234617D01*
X0655045Y0234617D01*
X0655045Y0233583D02*
X0655045Y0236686D01*
X0656596Y0236686D01*
X0657113Y0236169D01*
X0657113Y0235134D01*
X0656079Y0234617D02*
X0657113Y0233583D01*
X0659394Y0236169D02*
X0660428Y0236686D01*
X0660516Y0243644D02*
X0659999Y0244161D01*
X0662068Y0246229D01*
X0662068Y0244161D01*
X0661551Y0243644D01*
X0660516Y0243644D01*
X0659999Y0244161D02*
X0659999Y0246229D01*
X0660516Y0246746D01*
X0661551Y0246746D01*
X0662068Y0246229D01*
X0663314Y0246229D02*
X0663831Y0246746D01*
X0664865Y0246746D01*
X0665382Y0246229D01*
X0665382Y0245712D01*
X0663314Y0243644D01*
X0665382Y0243644D01*
X0666629Y0243644D02*
X0666629Y0246746D01*
X0667146Y0245195D02*
X0668697Y0243644D01*
X0669944Y0244161D02*
X0670461Y0243644D01*
X0671495Y0243644D01*
X0672012Y0244161D01*
X0673258Y0244161D02*
X0673776Y0243644D01*
X0674810Y0243644D01*
X0675327Y0244161D01*
X0675327Y0244678D01*
X0674810Y0245195D01*
X0673776Y0245195D01*
X0673258Y0245712D01*
X0673258Y0246229D01*
X0673776Y0246746D01*
X0674810Y0246746D01*
X0675327Y0246229D01*
X0672012Y0246229D02*
X0671495Y0246746D01*
X0670461Y0246746D01*
X0669944Y0246229D01*
X0669944Y0244161D01*
X0668697Y0246746D02*
X0666629Y0244678D01*
X0658753Y0245195D02*
X0658753Y0244161D01*
X0658236Y0243644D01*
X0657201Y0243644D01*
X0656684Y0244161D01*
X0656684Y0245195D02*
X0657719Y0245712D01*
X0658236Y0245712D01*
X0658753Y0245195D01*
X0658753Y0246746D02*
X0656684Y0246746D01*
X0656684Y0245195D01*
X0655438Y0244678D02*
X0655438Y0244161D01*
X0654921Y0243644D01*
X0653887Y0243644D01*
X0653370Y0244161D01*
X0653370Y0244678D01*
X0653887Y0245195D01*
X0654921Y0245195D01*
X0655438Y0244678D01*
X0654921Y0245195D02*
X0655438Y0245712D01*
X0655438Y0246229D01*
X0654921Y0246746D01*
X0653887Y0246746D01*
X0653370Y0246229D01*
X0653370Y0245712D01*
X0653887Y0245195D01*
X0652123Y0243644D02*
X0650055Y0243644D01*
X0651089Y0243644D02*
X0651089Y0246746D01*
X0650055Y0245712D01*
X0648808Y0246229D02*
X0648291Y0246746D01*
X0646740Y0246746D01*
X0646740Y0243644D01*
X0648291Y0243644D01*
X0648808Y0244161D01*
X0648808Y0246229D01*
X0645493Y0246229D02*
X0644976Y0246746D01*
X0643942Y0246746D01*
X0643425Y0246229D01*
X0643425Y0245712D01*
X0643942Y0245195D01*
X0644976Y0245195D01*
X0645493Y0244678D01*
X0645493Y0244161D01*
X0644976Y0243644D01*
X0643942Y0243644D01*
X0643425Y0244161D01*
X0642179Y0244161D02*
X0641662Y0243644D01*
X0640627Y0243644D01*
X0640110Y0244161D01*
X0640110Y0246229D01*
X0640627Y0246746D01*
X0641662Y0246746D01*
X0642179Y0246229D01*
X0637360Y0256394D02*
X0677360Y0256394D01*
X0709880Y0266335D02*
X0709880Y0285350D01*
X0634880Y0285350D01*
X0634880Y0266335D01*
X0709880Y0266335D01*
X0710077Y0271571D02*
X0715982Y0271571D01*
X0715982Y0280232D01*
X0710077Y0280232D01*
X0723181Y0288303D02*
X0725531Y0288303D01*
X0724281Y0289503D02*
X0724281Y0286903D01*
X0744131Y0288253D02*
X0746481Y0288253D01*
X0724526Y0271650D02*
X0724526Y0261650D01*
X0690077Y0288224D02*
X0690077Y0298224D01*
X0675963Y0298224D02*
X0675963Y0288224D01*
X0616945Y0284264D02*
X0616428Y0284781D01*
X0614359Y0284781D01*
X0613842Y0284264D01*
X0613842Y0283230D01*
X0614359Y0282713D01*
X0616428Y0282713D01*
X0616945Y0283230D01*
X0616945Y0284264D01*
X0615911Y0281466D02*
X0613842Y0281466D01*
X0613842Y0279398D02*
X0615911Y0279398D01*
X0616945Y0280432D01*
X0615911Y0281466D01*
X0615911Y0278152D02*
X0616428Y0278152D01*
X0616945Y0277634D01*
X0616945Y0276600D01*
X0616428Y0276083D01*
X0615394Y0276600D02*
X0615394Y0277634D01*
X0615911Y0278152D01*
X0614359Y0278152D02*
X0613842Y0277634D01*
X0613842Y0276600D01*
X0614359Y0276083D01*
X0614876Y0276083D01*
X0615394Y0276600D01*
X0615476Y0265096D02*
X0615994Y0264579D01*
X0615994Y0263028D01*
X0615994Y0264579D02*
X0616511Y0265096D01*
X0617028Y0265096D01*
X0617545Y0264579D01*
X0617545Y0263028D01*
X0614442Y0263028D01*
X0614442Y0264579D01*
X0614959Y0265096D01*
X0615476Y0265096D01*
X0617545Y0261781D02*
X0617545Y0259713D01*
X0617545Y0260747D02*
X0614442Y0260747D01*
X0615476Y0259713D01*
X0617545Y0258466D02*
X0617545Y0256398D01*
X0614442Y0256398D01*
X0614442Y0255152D02*
X0617545Y0255152D01*
X0615994Y0255152D02*
X0615994Y0253083D01*
X0617545Y0253083D02*
X0614442Y0253083D01*
X0607560Y0252286D02*
X0607560Y0249700D01*
X0590509Y0268052D02*
X0590509Y0271155D01*
X0588958Y0269604D01*
X0591026Y0269604D01*
X0587712Y0268052D02*
X0585643Y0268052D01*
X0586677Y0268052D02*
X0586677Y0271155D01*
X0585643Y0270121D01*
X0584397Y0270638D02*
X0584397Y0269604D01*
X0583880Y0269087D01*
X0582328Y0269087D01*
X0583363Y0269087D02*
X0584397Y0268052D01*
X0582328Y0268052D02*
X0582328Y0271155D01*
X0583880Y0271155D01*
X0584397Y0270638D01*
X0570630Y0272852D02*
X0568562Y0272852D01*
X0570630Y0274921D01*
X0570630Y0275438D01*
X0570113Y0275955D01*
X0569079Y0275955D01*
X0568562Y0275438D01*
X0566281Y0275955D02*
X0566281Y0272852D01*
X0565247Y0272852D02*
X0567316Y0272852D01*
X0565247Y0274921D02*
X0566281Y0275955D01*
X0564001Y0275438D02*
X0564001Y0274404D01*
X0563484Y0273887D01*
X0561932Y0273887D01*
X0562966Y0273887D02*
X0564001Y0272852D01*
X0561932Y0272852D02*
X0561932Y0275955D01*
X0563484Y0275955D01*
X0564001Y0275438D01*
X0579211Y0280610D02*
X0579211Y0290610D01*
X0575945Y0292700D02*
X0575428Y0292183D01*
X0575945Y0292700D02*
X0575945Y0293734D01*
X0575428Y0294252D01*
X0574911Y0294252D01*
X0574394Y0293734D01*
X0574394Y0293217D01*
X0574394Y0293734D02*
X0573876Y0294252D01*
X0573359Y0294252D01*
X0572842Y0293734D01*
X0572842Y0292700D01*
X0573359Y0292183D01*
X0575428Y0295498D02*
X0575428Y0296015D01*
X0575945Y0296015D01*
X0575945Y0295498D01*
X0575428Y0295498D01*
X0575428Y0297155D02*
X0575945Y0297672D01*
X0575945Y0298707D01*
X0575428Y0299224D01*
X0574911Y0299224D01*
X0574394Y0298707D01*
X0574394Y0298190D01*
X0574394Y0298707D02*
X0573876Y0299224D01*
X0573359Y0299224D01*
X0572842Y0298707D01*
X0572842Y0297672D01*
X0573359Y0297155D01*
X0565945Y0297566D02*
X0562842Y0297566D01*
X0562842Y0298813D02*
X0562842Y0300364D01*
X0563359Y0300881D01*
X0565428Y0300881D01*
X0565945Y0300364D01*
X0565945Y0298813D01*
X0562842Y0298813D01*
X0562842Y0295498D02*
X0565945Y0297566D01*
X0565945Y0295498D02*
X0562842Y0295498D01*
X0563359Y0294252D02*
X0562842Y0293734D01*
X0562842Y0292700D01*
X0563359Y0292183D01*
X0565428Y0292183D01*
X0565945Y0292700D01*
X0565945Y0293734D01*
X0565428Y0294252D01*
X0564394Y0294252D01*
X0564394Y0293217D01*
X0555945Y0293217D02*
X0552842Y0293217D01*
X0552842Y0292183D02*
X0552842Y0294252D01*
X0552842Y0295498D02*
X0555945Y0297566D01*
X0555945Y0295498D02*
X0552842Y0297566D01*
X0545945Y0297566D02*
X0542842Y0295498D01*
X0543359Y0294252D02*
X0544394Y0294252D01*
X0544911Y0293734D01*
X0544911Y0292183D01*
X0545945Y0292183D02*
X0542842Y0292183D01*
X0542842Y0293734D01*
X0543359Y0294252D01*
X0544911Y0293217D02*
X0545945Y0294252D01*
X0545945Y0295498D02*
X0542842Y0297566D01*
X0533738Y0298224D02*
X0533738Y0288224D01*
X0535242Y0288413D02*
X0535242Y0290481D01*
X0535242Y0289447D02*
X0538345Y0289447D01*
X0538345Y0287166D02*
X0538345Y0285098D01*
X0535242Y0285098D01*
X0535759Y0283852D02*
X0536276Y0283852D01*
X0536794Y0283334D01*
X0536794Y0281783D01*
X0538345Y0281783D02*
X0538345Y0283334D01*
X0537828Y0283852D01*
X0537311Y0283852D01*
X0536794Y0283334D01*
X0535759Y0283852D02*
X0535242Y0283334D01*
X0535242Y0281783D01*
X0538345Y0281783D01*
X0529945Y0281498D02*
X0526842Y0281498D01*
X0529945Y0283566D01*
X0526842Y0283566D01*
X0526842Y0284813D02*
X0526842Y0286364D01*
X0527359Y0286881D01*
X0529428Y0286881D01*
X0529945Y0286364D01*
X0529945Y0284813D01*
X0526842Y0284813D01*
X0527359Y0280252D02*
X0526842Y0279734D01*
X0526842Y0278700D01*
X0527359Y0278183D01*
X0529428Y0278183D01*
X0529945Y0278700D01*
X0529945Y0279734D01*
X0529428Y0280252D01*
X0528394Y0280252D01*
X0528394Y0279217D01*
X0520545Y0281283D02*
X0517442Y0281283D01*
X0520545Y0283352D01*
X0517442Y0283352D01*
X0517959Y0284598D02*
X0520028Y0284598D01*
X0520545Y0285115D01*
X0520545Y0286149D01*
X0520028Y0286666D01*
X0517959Y0286666D02*
X0517442Y0286149D01*
X0517442Y0285115D01*
X0517959Y0284598D01*
X0510245Y0285115D02*
X0510245Y0286149D01*
X0509728Y0286666D01*
X0510245Y0285115D02*
X0509728Y0284598D01*
X0507659Y0284598D01*
X0507142Y0285115D01*
X0507142Y0286149D01*
X0507659Y0286666D01*
X0507142Y0283352D02*
X0510245Y0283352D01*
X0507142Y0281283D01*
X0510245Y0281283D01*
X0500945Y0280183D02*
X0500428Y0280183D01*
X0498359Y0282252D01*
X0497842Y0282252D01*
X0497842Y0280183D01*
X0500428Y0283498D02*
X0500428Y0284015D01*
X0500945Y0284015D01*
X0500945Y0283498D01*
X0500428Y0283498D01*
X0499394Y0285155D02*
X0499394Y0287224D01*
X0500945Y0286707D02*
X0497842Y0286707D01*
X0499394Y0285155D01*
X0468087Y0293700D02*
X0468087Y0294217D01*
X0467570Y0294734D01*
X0466019Y0294734D01*
X0466019Y0293700D01*
X0466536Y0293183D01*
X0467570Y0293183D01*
X0468087Y0293700D01*
X0467053Y0295769D02*
X0466019Y0294734D01*
X0464773Y0294217D02*
X0464773Y0293700D01*
X0464255Y0293183D01*
X0463221Y0293183D01*
X0462704Y0293700D01*
X0462704Y0294217D01*
X0463221Y0294734D01*
X0464255Y0294734D01*
X0464773Y0294217D01*
X0464255Y0294734D02*
X0464773Y0295252D01*
X0464773Y0295769D01*
X0464255Y0296286D01*
X0463221Y0296286D01*
X0462704Y0295769D01*
X0462704Y0295252D01*
X0463221Y0294734D01*
X0461458Y0293700D02*
X0460941Y0293183D01*
X0459906Y0293183D01*
X0459389Y0293700D01*
X0461458Y0295769D01*
X0461458Y0293700D01*
X0461458Y0295769D02*
X0460941Y0296286D01*
X0459906Y0296286D01*
X0459389Y0295769D01*
X0459389Y0293700D01*
X0458143Y0293183D02*
X0456075Y0293183D01*
X0457109Y0293183D02*
X0457109Y0296286D01*
X0456075Y0295252D01*
X0454828Y0296286D02*
X0454828Y0293183D01*
X0452760Y0293183D02*
X0452760Y0296286D01*
X0453794Y0295252D01*
X0454828Y0296286D01*
X0451513Y0293183D02*
X0449445Y0293183D01*
X0449445Y0296286D01*
X0467053Y0295769D02*
X0468087Y0296286D01*
X0516350Y0244655D02*
X0514849Y0243154D01*
X0516350Y0244655D02*
X0516350Y0240152D01*
X0514849Y0240152D02*
X0517851Y0240152D01*
X0542542Y0233166D02*
X0542542Y0231098D01*
X0544094Y0231098D01*
X0543576Y0232132D01*
X0543576Y0232649D01*
X0544094Y0233166D01*
X0545128Y0233166D01*
X0545645Y0232649D01*
X0545645Y0231615D01*
X0545128Y0231098D01*
X0545128Y0229852D02*
X0545645Y0229334D01*
X0545645Y0228300D01*
X0545128Y0227783D01*
X0543059Y0227783D01*
X0542542Y0228300D01*
X0542542Y0229334D01*
X0543059Y0229852D01*
X0546142Y0234883D02*
X0549245Y0234883D01*
X0547694Y0234883D02*
X0547694Y0236952D01*
X0549245Y0238198D02*
X0546142Y0238198D01*
X0540394Y0203986D02*
X0539360Y0202952D01*
X0538113Y0203469D02*
X0538113Y0203986D01*
X0538113Y0203469D02*
X0537079Y0202434D01*
X0537079Y0200883D01*
X0537079Y0202434D02*
X0536045Y0203469D01*
X0536045Y0203986D01*
X0540394Y0203986D02*
X0540394Y0200883D01*
X0539360Y0200883D02*
X0541428Y0200883D01*
X0547742Y0176566D02*
X0548259Y0175532D01*
X0549294Y0174498D01*
X0549294Y0176049D01*
X0549811Y0176566D01*
X0550328Y0176566D01*
X0550845Y0176049D01*
X0550845Y0175015D01*
X0550328Y0174498D01*
X0549294Y0174498D01*
X0550328Y0173252D02*
X0550845Y0172734D01*
X0550845Y0171700D01*
X0550328Y0171183D01*
X0548259Y0171183D01*
X0547742Y0171700D01*
X0547742Y0172734D01*
X0548259Y0173252D01*
X0549159Y0168553D02*
X0549676Y0168553D01*
X0550194Y0168036D01*
X0550194Y0166485D01*
X0551228Y0165345D02*
X0551745Y0165345D01*
X0551745Y0164828D01*
X0551228Y0164828D01*
X0551228Y0165345D01*
X0551745Y0166485D02*
X0551745Y0168036D01*
X0551228Y0168553D01*
X0550711Y0168553D01*
X0550194Y0168036D01*
X0549159Y0168553D02*
X0548642Y0168036D01*
X0548642Y0166485D01*
X0551745Y0166485D01*
X0551745Y0163581D02*
X0548642Y0163581D01*
X0549676Y0162547D01*
X0548642Y0161513D01*
X0551745Y0161513D01*
X0551745Y0160266D02*
X0549676Y0160266D01*
X0548642Y0159232D01*
X0549676Y0158198D01*
X0551745Y0158198D01*
X0551228Y0156952D02*
X0551745Y0156434D01*
X0551745Y0155400D01*
X0551228Y0154883D01*
X0549159Y0154883D01*
X0548642Y0155400D01*
X0548642Y0156434D01*
X0549159Y0156952D01*
X0550194Y0158198D02*
X0550194Y0160266D01*
X0533045Y0154507D02*
X0533045Y0153472D01*
X0532528Y0152955D01*
X0532528Y0151815D02*
X0533045Y0151815D01*
X0533045Y0151298D01*
X0532528Y0151298D01*
X0532528Y0151815D01*
X0532528Y0150052D02*
X0533045Y0149534D01*
X0533045Y0148500D01*
X0532528Y0147983D01*
X0531494Y0149017D02*
X0531494Y0149534D01*
X0532011Y0150052D01*
X0532528Y0150052D01*
X0531494Y0149534D02*
X0530976Y0150052D01*
X0530459Y0150052D01*
X0529942Y0149534D01*
X0529942Y0148500D01*
X0530459Y0147983D01*
X0530459Y0152955D02*
X0529942Y0153472D01*
X0529942Y0154507D01*
X0530459Y0155024D01*
X0530976Y0155024D01*
X0531494Y0154507D01*
X0532011Y0155024D01*
X0532528Y0155024D01*
X0533045Y0154507D01*
X0531494Y0154507D02*
X0531494Y0153990D01*
X0523145Y0153515D02*
X0522628Y0152998D01*
X0520559Y0155066D01*
X0522628Y0155066D01*
X0523145Y0154549D01*
X0523145Y0153515D01*
X0522628Y0152998D02*
X0520559Y0152998D01*
X0520042Y0153515D01*
X0520042Y0154549D01*
X0520559Y0155066D01*
X0521076Y0151752D02*
X0523145Y0151752D01*
X0521594Y0151752D02*
X0521594Y0149683D01*
X0521076Y0149683D02*
X0520042Y0150717D01*
X0521076Y0151752D01*
X0521076Y0149683D02*
X0523145Y0149683D01*
X0513445Y0149598D02*
X0513445Y0151666D01*
X0513445Y0152913D02*
X0510342Y0152913D01*
X0511894Y0153430D02*
X0513445Y0154981D01*
X0512411Y0152913D02*
X0510342Y0154981D01*
X0502645Y0155032D02*
X0502645Y0153998D01*
X0502645Y0154515D02*
X0499542Y0154515D01*
X0499542Y0153998D02*
X0499542Y0155032D01*
X0500059Y0152752D02*
X0499542Y0152234D01*
X0499542Y0151200D01*
X0500059Y0150683D01*
X0500576Y0150683D01*
X0501094Y0151200D01*
X0501094Y0152234D01*
X0501611Y0152752D01*
X0502128Y0152752D01*
X0502645Y0152234D01*
X0502645Y0151200D01*
X0502128Y0150683D01*
X0510342Y0149598D02*
X0513445Y0149598D01*
X0512928Y0148352D02*
X0513445Y0147834D01*
X0513445Y0146800D01*
X0512928Y0146283D01*
X0510859Y0146283D01*
X0510342Y0146800D01*
X0510342Y0147834D01*
X0510859Y0148352D01*
X0513445Y0141886D02*
X0515380Y0138983D01*
X0515380Y0141886D01*
X0516576Y0141402D02*
X0516576Y0139467D01*
X0517059Y0138983D01*
X0518027Y0138983D01*
X0518511Y0139467D01*
X0518511Y0141402D02*
X0518027Y0141886D01*
X0517059Y0141886D01*
X0516576Y0141402D01*
X0513445Y0141886D02*
X0513445Y0138983D01*
X0535938Y0137007D02*
X0535938Y0127007D01*
X0548742Y0130800D02*
X0548742Y0131834D01*
X0549259Y0132352D01*
X0549776Y0132352D01*
X0550294Y0131834D01*
X0550811Y0132352D01*
X0551328Y0132352D01*
X0551845Y0131834D01*
X0551845Y0130800D01*
X0551328Y0130283D01*
X0550294Y0131317D02*
X0550294Y0131834D01*
X0549259Y0130283D02*
X0548742Y0130800D01*
X0551328Y0133598D02*
X0551328Y0134115D01*
X0551845Y0134115D01*
X0551845Y0133598D01*
X0551328Y0133598D01*
X0551328Y0135255D02*
X0551845Y0135772D01*
X0551845Y0136807D01*
X0551328Y0137324D01*
X0550811Y0137324D01*
X0550294Y0136807D01*
X0550294Y0136290D01*
X0550294Y0136807D02*
X0549776Y0137324D01*
X0549259Y0137324D01*
X0548742Y0136807D01*
X0548742Y0135772D01*
X0549259Y0135255D01*
X0548742Y0138570D02*
X0550811Y0138570D01*
X0551845Y0139604D01*
X0550811Y0140639D01*
X0548742Y0140639D01*
X0546345Y0140998D02*
X0545311Y0142032D01*
X0546345Y0143066D01*
X0543242Y0143066D01*
X0543242Y0144313D02*
X0543242Y0145864D01*
X0543759Y0146381D01*
X0544794Y0146381D01*
X0545311Y0145864D01*
X0545311Y0144313D01*
X0546345Y0144313D02*
X0543242Y0144313D01*
X0545311Y0145347D02*
X0546345Y0146381D01*
X0548642Y0147052D02*
X0548642Y0144983D01*
X0550194Y0144983D01*
X0549676Y0146017D01*
X0549676Y0146534D01*
X0550194Y0147052D01*
X0551228Y0147052D01*
X0551745Y0146534D01*
X0551745Y0145500D01*
X0551228Y0144983D01*
X0550711Y0148298D02*
X0551745Y0149332D01*
X0550711Y0150366D01*
X0548642Y0150366D01*
X0548642Y0148298D02*
X0550711Y0148298D01*
X0546345Y0140998D02*
X0543242Y0140998D01*
X0543759Y0139752D02*
X0544794Y0139752D01*
X0545311Y0139234D01*
X0545311Y0137683D01*
X0546345Y0137683D02*
X0543242Y0137683D01*
X0543242Y0139234D01*
X0543759Y0139752D01*
X0494243Y0165583D02*
X0492175Y0165583D01*
X0493209Y0165583D02*
X0493209Y0168686D01*
X0492175Y0167652D01*
X0490928Y0167652D02*
X0490411Y0167134D01*
X0488860Y0167134D01*
X0487613Y0167134D02*
X0487096Y0166617D01*
X0485545Y0166617D01*
X0485545Y0165583D02*
X0485545Y0168686D01*
X0487096Y0168686D01*
X0487613Y0168169D01*
X0487613Y0167134D01*
X0488860Y0165583D02*
X0490411Y0165583D01*
X0490928Y0166100D01*
X0490928Y0166617D01*
X0490411Y0167134D01*
X0490928Y0167652D02*
X0490928Y0168169D01*
X0490411Y0168686D01*
X0488860Y0168686D01*
X0488860Y0165583D01*
X0473943Y0167234D02*
X0471875Y0167234D01*
X0473426Y0168786D01*
X0473426Y0165683D01*
X0470628Y0166200D02*
X0470628Y0168269D01*
X0470111Y0168786D01*
X0468560Y0168786D01*
X0468560Y0165683D01*
X0470111Y0165683D01*
X0470628Y0166200D01*
X0467313Y0167234D02*
X0466796Y0166717D01*
X0465245Y0166717D01*
X0465245Y0165683D02*
X0465245Y0168786D01*
X0466796Y0168786D01*
X0467313Y0168269D01*
X0467313Y0167234D01*
X0455058Y0166517D02*
X0454541Y0167034D01*
X0452989Y0167034D01*
X0452989Y0166000D01*
X0453506Y0165483D01*
X0454541Y0165483D01*
X0455058Y0166000D01*
X0455058Y0166517D01*
X0454024Y0168069D02*
X0452989Y0167034D01*
X0454024Y0168069D02*
X0455058Y0168586D01*
X0451743Y0168069D02*
X0451226Y0168586D01*
X0450192Y0168586D01*
X0449675Y0168069D01*
X0449675Y0166000D01*
X0450192Y0165483D01*
X0451226Y0165483D01*
X0451743Y0166000D01*
X0448428Y0166000D02*
X0448428Y0168069D01*
X0447911Y0168586D01*
X0446360Y0168586D01*
X0446360Y0165483D01*
X0447911Y0165483D01*
X0448428Y0166000D01*
X0445113Y0165483D02*
X0445113Y0167552D01*
X0444079Y0168586D01*
X0443045Y0167552D01*
X0443045Y0165483D01*
X0443045Y0167034D02*
X0445113Y0167034D01*
X0439928Y0152681D02*
X0440445Y0152164D01*
X0440445Y0151130D01*
X0439928Y0150613D01*
X0438894Y0150613D02*
X0438376Y0151647D01*
X0438376Y0152164D01*
X0438894Y0152681D01*
X0439928Y0152681D01*
X0438894Y0150613D02*
X0437342Y0150613D01*
X0437342Y0152681D01*
X0437859Y0149366D02*
X0437342Y0148849D01*
X0437342Y0147815D01*
X0437859Y0147298D01*
X0439928Y0147298D01*
X0440445Y0147815D01*
X0440445Y0148849D01*
X0439928Y0149366D01*
X0438894Y0146052D02*
X0437859Y0146052D01*
X0437342Y0145534D01*
X0437342Y0143983D01*
X0440445Y0143983D01*
X0439411Y0143983D02*
X0439411Y0145534D01*
X0438894Y0146052D01*
X0430445Y0147815D02*
X0430445Y0148849D01*
X0429928Y0149366D01*
X0428894Y0150613D02*
X0428894Y0152681D01*
X0430445Y0152164D02*
X0427342Y0152164D01*
X0428894Y0150613D01*
X0427859Y0149366D02*
X0427342Y0148849D01*
X0427342Y0147815D01*
X0427859Y0147298D01*
X0429928Y0147298D01*
X0430445Y0147815D01*
X0428894Y0146052D02*
X0429411Y0145534D01*
X0429411Y0143983D01*
X0430445Y0143983D02*
X0427342Y0143983D01*
X0427342Y0145534D01*
X0427859Y0146052D01*
X0428894Y0146052D01*
X0420445Y0147815D02*
X0420445Y0148849D01*
X0419928Y0149366D01*
X0419928Y0150613D02*
X0420445Y0151130D01*
X0420445Y0152164D01*
X0419928Y0152681D01*
X0419411Y0152681D01*
X0418894Y0152164D01*
X0418894Y0151647D01*
X0418894Y0152164D02*
X0418376Y0152681D01*
X0417859Y0152681D01*
X0417342Y0152164D01*
X0417342Y0151130D01*
X0417859Y0150613D01*
X0417859Y0149366D02*
X0417342Y0148849D01*
X0417342Y0147815D01*
X0417859Y0147298D01*
X0419928Y0147298D01*
X0420445Y0147815D01*
X0418894Y0146052D02*
X0419411Y0145534D01*
X0419411Y0143983D01*
X0420445Y0143983D02*
X0417342Y0143983D01*
X0417342Y0145534D01*
X0417859Y0146052D01*
X0418894Y0146052D01*
X0410545Y0147815D02*
X0410545Y0148849D01*
X0410028Y0149366D01*
X0410545Y0150613D02*
X0408476Y0152681D01*
X0407959Y0152681D01*
X0407442Y0152164D01*
X0407442Y0151130D01*
X0407959Y0150613D01*
X0407959Y0149366D02*
X0407442Y0148849D01*
X0407442Y0147815D01*
X0407959Y0147298D01*
X0410028Y0147298D01*
X0410545Y0147815D01*
X0408994Y0146052D02*
X0409511Y0145534D01*
X0409511Y0143983D01*
X0410545Y0143983D02*
X0407442Y0143983D01*
X0407442Y0145534D01*
X0407959Y0146052D01*
X0408994Y0146052D01*
X0410545Y0150613D02*
X0410545Y0152681D01*
X0400445Y0152881D02*
X0400445Y0150813D01*
X0400445Y0151847D02*
X0397342Y0151847D01*
X0398376Y0150813D01*
X0397859Y0149566D02*
X0397342Y0149049D01*
X0397342Y0148015D01*
X0397859Y0147498D01*
X0399928Y0147498D01*
X0400445Y0148015D01*
X0400445Y0149049D01*
X0399928Y0149566D01*
X0398894Y0146252D02*
X0397859Y0146252D01*
X0397342Y0145734D01*
X0397342Y0144183D01*
X0400445Y0144183D01*
X0399411Y0144183D02*
X0399411Y0145734D01*
X0398894Y0146252D01*
X0392645Y0150083D02*
X0390576Y0150083D01*
X0389542Y0151117D01*
X0390576Y0152152D01*
X0392645Y0152152D01*
X0391094Y0152152D02*
X0391094Y0150083D01*
X0389542Y0153398D02*
X0389542Y0155466D01*
X0389542Y0154432D02*
X0392645Y0154432D01*
X0392128Y0156713D02*
X0390059Y0156713D01*
X0389542Y0157230D01*
X0389542Y0158264D01*
X0390059Y0158781D01*
X0391094Y0158781D02*
X0391094Y0157747D01*
X0391094Y0158781D02*
X0392128Y0158781D01*
X0392645Y0158264D01*
X0392645Y0157230D01*
X0392128Y0156713D01*
X0392645Y0160028D02*
X0389542Y0160028D01*
X0389542Y0161579D01*
X0390059Y0162096D01*
X0391094Y0162096D01*
X0391611Y0161579D01*
X0391611Y0160028D01*
X0392645Y0163342D02*
X0392645Y0164377D01*
X0392645Y0163859D02*
X0389542Y0163859D01*
X0389542Y0163342D02*
X0389542Y0164377D01*
X0390059Y0165552D02*
X0392128Y0165552D01*
X0392645Y0166069D01*
X0392645Y0167104D01*
X0392128Y0167621D01*
X0390059Y0167621D01*
X0389542Y0167104D01*
X0389542Y0166069D01*
X0390059Y0165552D01*
X0453545Y0152052D02*
X0453545Y0149983D01*
X0453545Y0151534D02*
X0455613Y0151534D01*
X0455613Y0152052D02*
X0455613Y0149983D01*
X0456860Y0150500D02*
X0457377Y0149983D01*
X0458411Y0149983D01*
X0458928Y0150500D01*
X0460175Y0149983D02*
X0461726Y0149983D01*
X0462243Y0150500D01*
X0462243Y0152569D01*
X0461726Y0153086D01*
X0460175Y0153086D01*
X0460175Y0149983D01*
X0458928Y0152569D02*
X0458411Y0153086D01*
X0457377Y0153086D01*
X0456860Y0152569D01*
X0456860Y0150500D01*
X0455613Y0152052D02*
X0454579Y0153086D01*
X0453545Y0152052D01*
X0463489Y0153086D02*
X0465558Y0153086D01*
X0465558Y0152569D01*
X0463489Y0150500D01*
X0463489Y0149983D01*
X0474845Y0149883D02*
X0474845Y0152986D01*
X0476396Y0152986D01*
X0476913Y0152469D01*
X0476913Y0151434D01*
X0476396Y0150917D01*
X0474845Y0150917D01*
X0478160Y0149883D02*
X0478160Y0152986D01*
X0479711Y0152986D01*
X0480228Y0152469D01*
X0480228Y0150400D01*
X0479711Y0149883D01*
X0478160Y0149883D01*
X0481475Y0150400D02*
X0481992Y0149883D01*
X0483026Y0149883D01*
X0483543Y0150400D01*
X0483543Y0151434D01*
X0483026Y0151952D01*
X0482509Y0151952D01*
X0481475Y0151434D01*
X0481475Y0152986D01*
X0483543Y0152986D01*
X0744031Y0138697D02*
X0746381Y0138697D01*
X0745281Y0137497D02*
X0745281Y0140097D01*
X0744545Y0155843D02*
X0744545Y0165843D01*
X0609945Y0288700D02*
X0609428Y0288183D01*
X0607359Y0288183D01*
X0606842Y0288700D01*
X0606842Y0289734D01*
X0607359Y0290252D01*
X0608394Y0290252D02*
X0608394Y0289217D01*
X0608394Y0290252D02*
X0609428Y0290252D01*
X0609945Y0289734D01*
X0609945Y0288700D01*
X0609945Y0291498D02*
X0606842Y0291498D01*
X0609945Y0293566D01*
X0606842Y0293566D01*
X0606842Y0294813D02*
X0606842Y0296364D01*
X0607359Y0296881D01*
X0609428Y0296881D01*
X0609945Y0296364D01*
X0609945Y0294813D01*
X0606842Y0294813D01*
X0599945Y0292532D02*
X0598911Y0291498D01*
X0596842Y0291498D01*
X0596842Y0290252D02*
X0596842Y0288183D01*
X0598394Y0288183D01*
X0597876Y0289217D01*
X0597876Y0289734D01*
X0598394Y0290252D01*
X0599428Y0290252D01*
X0599945Y0289734D01*
X0599945Y0288700D01*
X0599428Y0288183D01*
X0589945Y0288700D02*
X0589428Y0288183D01*
X0589945Y0288700D02*
X0589945Y0289734D01*
X0589428Y0290252D01*
X0588911Y0290252D01*
X0588394Y0289734D01*
X0588394Y0288700D01*
X0587876Y0288183D01*
X0587359Y0288183D01*
X0586842Y0288700D01*
X0586842Y0289734D01*
X0587359Y0290252D01*
X0586842Y0291498D02*
X0586842Y0292532D01*
X0586842Y0292015D02*
X0589945Y0292015D01*
X0589945Y0291498D02*
X0589945Y0292532D01*
X0589428Y0293708D02*
X0589945Y0294225D01*
X0589945Y0295259D01*
X0589428Y0295776D01*
X0588394Y0295776D01*
X0588394Y0294742D01*
X0589428Y0293708D02*
X0587359Y0293708D01*
X0586842Y0294225D01*
X0586842Y0295259D01*
X0587359Y0295776D01*
X0596842Y0293566D02*
X0598911Y0293566D01*
X0599945Y0292532D01*
D11*
X0507941Y0219368D02*
X0507941Y0217633D01*
X0507941Y0218934D02*
X0506207Y0218934D01*
X0506207Y0219368D02*
X0507074Y0220235D01*
X0507941Y0219368D01*
X0506207Y0219368D02*
X0506207Y0217633D01*
X0505179Y0218067D02*
X0505179Y0218934D01*
X0504312Y0218934D01*
X0505179Y0218067D02*
X0504745Y0217633D01*
X0503878Y0217633D01*
X0503444Y0218067D01*
X0503444Y0219802D01*
X0503878Y0220235D01*
X0504745Y0220235D01*
X0505179Y0219802D01*
X0502417Y0220235D02*
X0500682Y0220235D01*
X0500682Y0217633D01*
X0502417Y0217633D01*
X0501549Y0218934D02*
X0500682Y0218934D01*
X0499654Y0220235D02*
X0499654Y0217633D01*
X0497920Y0217633D02*
X0497920Y0220235D01*
X0498787Y0219368D01*
X0499654Y0220235D01*
X0496892Y0220235D02*
X0495157Y0220235D01*
X0496025Y0220235D02*
X0496025Y0217633D01*
X0494130Y0217633D02*
X0494130Y0219368D01*
X0493262Y0220235D01*
X0492395Y0219368D01*
X0492395Y0217633D01*
X0492395Y0218934D02*
X0494130Y0218934D01*
X0493696Y0215735D02*
X0494130Y0215302D01*
X0494130Y0214868D01*
X0493696Y0214434D01*
X0494130Y0214000D01*
X0494130Y0213567D01*
X0493696Y0213133D01*
X0492829Y0213133D01*
X0492395Y0213567D01*
X0493262Y0214434D02*
X0493696Y0214434D01*
X0493696Y0215735D02*
X0492829Y0215735D01*
X0492395Y0215302D01*
X0495157Y0215302D02*
X0495591Y0215735D01*
X0496458Y0215735D01*
X0496892Y0215302D01*
X0496892Y0214868D01*
X0495157Y0213133D01*
X0496892Y0213133D01*
X0497920Y0213567D02*
X0497920Y0214000D01*
X0498353Y0214434D01*
X0499221Y0214434D01*
X0499654Y0214000D01*
X0499654Y0213567D01*
X0499221Y0213133D01*
X0498353Y0213133D01*
X0497920Y0213567D01*
X0498353Y0214434D02*
X0497920Y0214868D01*
X0497920Y0215302D01*
X0498353Y0215735D01*
X0499221Y0215735D01*
X0499654Y0215302D01*
X0499654Y0214868D01*
X0499221Y0214434D01*
X0500682Y0214000D02*
X0501983Y0214000D01*
X0502417Y0214434D01*
X0502417Y0215302D01*
X0501983Y0215735D01*
X0500682Y0215735D01*
X0500682Y0213133D01*
X0554795Y0169468D02*
X0554795Y0167600D01*
X0555262Y0167133D01*
X0556196Y0167133D01*
X0556663Y0167600D01*
X0556663Y0168534D01*
X0555729Y0168534D01*
X0554795Y0169468D02*
X0555262Y0169935D01*
X0556196Y0169935D01*
X0556663Y0169468D01*
X0557741Y0169935D02*
X0559610Y0167133D01*
X0559610Y0169935D01*
X0560688Y0169935D02*
X0562089Y0169935D01*
X0562556Y0169468D01*
X0562556Y0167600D01*
X0562089Y0167133D01*
X0560688Y0167133D01*
X0560688Y0169935D01*
X0557741Y0169935D02*
X0557741Y0167133D01*
X0565295Y0167600D02*
X0565762Y0167133D01*
X0566696Y0167133D01*
X0567163Y0167600D01*
X0567163Y0168067D01*
X0566696Y0168534D01*
X0566229Y0168534D01*
X0566696Y0168534D02*
X0567163Y0169001D01*
X0567163Y0169468D01*
X0566696Y0169935D01*
X0565762Y0169935D01*
X0565295Y0169468D01*
X0568241Y0167600D02*
X0568708Y0167600D01*
X0568708Y0167133D01*
X0568241Y0167133D01*
X0568241Y0167600D01*
X0569715Y0167600D02*
X0570182Y0167133D01*
X0571116Y0167133D01*
X0571583Y0167600D01*
X0571583Y0168067D01*
X0571116Y0168534D01*
X0570649Y0168534D01*
X0571116Y0168534D02*
X0571583Y0169001D01*
X0571583Y0169468D01*
X0571116Y0169935D01*
X0570182Y0169935D01*
X0569715Y0169468D01*
X0576295Y0168901D02*
X0576295Y0167033D01*
X0576295Y0168434D02*
X0578163Y0168434D01*
X0578163Y0168901D02*
X0578163Y0167033D01*
X0579241Y0167500D02*
X0581110Y0169368D01*
X0581110Y0167500D01*
X0580643Y0167033D01*
X0579708Y0167033D01*
X0579241Y0167500D01*
X0579241Y0169368D01*
X0579708Y0169835D01*
X0580643Y0169835D01*
X0581110Y0169368D01*
X0578163Y0168901D02*
X0577229Y0169835D01*
X0576295Y0168901D01*
X0584695Y0169368D02*
X0584695Y0167500D01*
X0585162Y0167033D01*
X0586096Y0167033D01*
X0586563Y0167500D01*
X0587641Y0167033D02*
X0589510Y0167033D01*
X0590588Y0167033D02*
X0590588Y0169835D01*
X0591055Y0168434D02*
X0592456Y0167033D01*
X0590588Y0167967D02*
X0592456Y0169835D01*
X0596495Y0169268D02*
X0596495Y0168801D01*
X0596962Y0168334D01*
X0597896Y0168334D01*
X0598363Y0167867D01*
X0598363Y0167400D01*
X0597896Y0166933D01*
X0596962Y0166933D01*
X0596495Y0167400D01*
X0596495Y0169268D02*
X0596962Y0169735D01*
X0597896Y0169735D01*
X0598363Y0169268D01*
X0599441Y0169735D02*
X0600376Y0169735D01*
X0599908Y0169735D02*
X0599908Y0166933D01*
X0599441Y0166933D02*
X0600376Y0166933D01*
X0587641Y0167033D02*
X0587641Y0169835D01*
X0586563Y0169368D02*
X0586096Y0169835D01*
X0585162Y0169835D01*
X0584695Y0169368D01*
X0613595Y0169667D02*
X0614029Y0169233D01*
X0614896Y0169233D01*
X0615330Y0169667D01*
X0615330Y0170534D01*
X0614462Y0170534D01*
X0613595Y0171402D02*
X0613595Y0169667D01*
X0613595Y0171402D02*
X0614029Y0171835D01*
X0614896Y0171835D01*
X0615330Y0171402D01*
X0616357Y0171835D02*
X0618092Y0169233D01*
X0618092Y0171835D01*
X0619120Y0171835D02*
X0620421Y0171835D01*
X0620854Y0171402D01*
X0620854Y0169667D01*
X0620421Y0169233D01*
X0619120Y0169233D01*
X0619120Y0171835D01*
X0616357Y0171835D02*
X0616357Y0169233D01*
X0542495Y0154827D02*
X0542495Y0153426D01*
X0539692Y0153426D01*
X0539692Y0154827D01*
X0540160Y0155294D01*
X0542028Y0155294D01*
X0542495Y0154827D01*
X0542495Y0152348D02*
X0539692Y0152348D01*
X0539692Y0150480D02*
X0542495Y0152348D01*
X0542495Y0150480D02*
X0539692Y0150480D01*
X0540160Y0149401D02*
X0539692Y0148934D01*
X0539692Y0148000D01*
X0540160Y0147533D01*
X0542028Y0147533D01*
X0542495Y0148000D01*
X0542495Y0148934D01*
X0542028Y0149401D01*
X0541094Y0149401D01*
X0541094Y0148467D01*
X0223879Y0298533D02*
X0223012Y0299400D01*
X0223445Y0299400D02*
X0222144Y0299400D01*
X0222144Y0298533D02*
X0222144Y0301135D01*
X0223445Y0301135D01*
X0223879Y0300702D01*
X0223879Y0299834D01*
X0223445Y0299400D01*
X0221117Y0298533D02*
X0219382Y0298533D01*
X0219382Y0301135D01*
X0221117Y0301135D01*
X0220249Y0299834D02*
X0219382Y0299834D01*
X0218354Y0298533D02*
X0218354Y0301135D01*
X0216620Y0301135D02*
X0216620Y0298533D01*
X0217487Y0299400D01*
X0218354Y0298533D01*
X0215592Y0298967D02*
X0215592Y0300702D01*
X0215158Y0301135D01*
X0214291Y0301135D01*
X0213857Y0300702D01*
X0213857Y0298967D01*
X0214291Y0298533D01*
X0215158Y0298533D01*
X0215592Y0298967D01*
X0212830Y0299834D02*
X0212396Y0299400D01*
X0211095Y0299400D01*
X0211095Y0298533D02*
X0211095Y0301135D01*
X0212396Y0301135D01*
X0212830Y0300702D01*
X0212830Y0299834D01*
X0366695Y0300100D02*
X0367996Y0300100D01*
X0368430Y0300534D01*
X0368430Y0301402D01*
X0367996Y0301835D01*
X0366695Y0301835D01*
X0366695Y0299233D01*
X0369457Y0299667D02*
X0369891Y0299233D01*
X0370758Y0299233D01*
X0371192Y0299667D01*
X0371192Y0301402D01*
X0370758Y0301835D01*
X0369891Y0301835D01*
X0369457Y0301402D01*
X0369457Y0299667D01*
X0372220Y0299233D02*
X0373087Y0300100D01*
X0373954Y0299233D01*
X0373954Y0301835D01*
X0374982Y0301835D02*
X0374982Y0299233D01*
X0376717Y0299233D01*
X0377744Y0299233D02*
X0377744Y0301835D01*
X0379045Y0301835D01*
X0379479Y0301402D01*
X0379479Y0300534D01*
X0379045Y0300100D01*
X0377744Y0300100D01*
X0378612Y0300100D02*
X0379479Y0299233D01*
X0376717Y0301835D02*
X0374982Y0301835D01*
X0374982Y0300534D02*
X0375849Y0300534D01*
X0372220Y0301835D02*
X0372220Y0299233D01*
D12*
X0378195Y0285933D02*
X0378195Y0283933D01*
X0370195Y0283933D01*
X0356195Y0283933D02*
X0348195Y0283933D01*
X0348195Y0285933D01*
X0388195Y0285933D02*
X0388195Y0283933D01*
X0397195Y0283933D01*
X0409195Y0283933D02*
X0418195Y0283933D01*
X0418195Y0285933D01*
X0481624Y0222307D02*
X0509222Y0222307D01*
X0509222Y0196106D01*
X0507825Y0194709D01*
X0481624Y0194709D01*
X0481624Y0222307D01*
X0529435Y0215685D02*
X0529435Y0188685D01*
X0529438Y0188466D01*
X0529446Y0188247D01*
X0529459Y0188028D01*
X0529478Y0187810D01*
X0529502Y0187592D01*
X0529531Y0187375D01*
X0529565Y0187158D01*
X0529605Y0186943D01*
X0529650Y0186728D01*
X0529701Y0186515D01*
X0529756Y0186303D01*
X0529817Y0186092D01*
X0529882Y0185883D01*
X0529953Y0185676D01*
X0530029Y0185470D01*
X0530110Y0185266D01*
X0530195Y0185064D01*
X0530286Y0184865D01*
X0530381Y0184668D01*
X0530482Y0184473D01*
X0530587Y0184280D01*
X0530696Y0184090D01*
X0530810Y0183903D01*
X0530929Y0183719D01*
X0531052Y0183538D01*
X0531180Y0183360D01*
X0531312Y0183184D01*
X0531448Y0183013D01*
X0531588Y0182844D01*
X0531732Y0182679D01*
X0531880Y0182518D01*
X0532032Y0182360D01*
X0532188Y0182206D01*
X0532348Y0182056D01*
X0532511Y0181909D01*
X0532678Y0181767D01*
X0532848Y0181629D01*
X0533022Y0181495D01*
X0533198Y0181365D01*
X0533378Y0181240D01*
X0533561Y0181119D01*
X0533747Y0181003D01*
X0533935Y0180891D01*
X0534126Y0180784D01*
X0534320Y0180681D01*
X0534516Y0180583D01*
X0534714Y0180490D01*
X0534915Y0180402D01*
X0535118Y0180319D01*
X0535323Y0180240D01*
X0535529Y0180167D01*
X0535737Y0180099D01*
X0535947Y0180036D01*
X0536159Y0179978D01*
X0536371Y0179925D01*
X0536585Y0179877D01*
X0536800Y0179835D01*
X0537016Y0179798D01*
X0537233Y0179766D01*
X0537451Y0179739D01*
X0537669Y0179718D01*
X0537887Y0179702D01*
X0538106Y0179691D01*
X0538325Y0179686D01*
X0538545Y0179686D01*
X0538764Y0179691D01*
X0538983Y0179702D01*
X0539201Y0179718D01*
X0539419Y0179739D01*
X0539637Y0179766D01*
X0539854Y0179798D01*
X0540070Y0179835D01*
X0540285Y0179877D01*
X0540499Y0179925D01*
X0540711Y0179978D01*
X0540923Y0180036D01*
X0541133Y0180099D01*
X0541341Y0180167D01*
X0541547Y0180240D01*
X0541752Y0180319D01*
X0541955Y0180402D01*
X0542156Y0180490D01*
X0542354Y0180583D01*
X0542550Y0180681D01*
X0542744Y0180784D01*
X0542935Y0180891D01*
X0543123Y0181003D01*
X0543309Y0181119D01*
X0543492Y0181240D01*
X0543672Y0181365D01*
X0543848Y0181495D01*
X0544022Y0181629D01*
X0544192Y0181767D01*
X0544359Y0181909D01*
X0544522Y0182056D01*
X0544682Y0182206D01*
X0544838Y0182360D01*
X0544990Y0182518D01*
X0545138Y0182679D01*
X0545282Y0182844D01*
X0545422Y0183013D01*
X0545558Y0183184D01*
X0545690Y0183360D01*
X0545818Y0183538D01*
X0545941Y0183719D01*
X0546060Y0183903D01*
X0546174Y0184090D01*
X0546283Y0184280D01*
X0546388Y0184473D01*
X0546489Y0184668D01*
X0546584Y0184865D01*
X0546675Y0185064D01*
X0546760Y0185266D01*
X0546841Y0185470D01*
X0546917Y0185676D01*
X0546988Y0185883D01*
X0547053Y0186092D01*
X0547114Y0186303D01*
X0547169Y0186515D01*
X0547220Y0186728D01*
X0547265Y0186943D01*
X0547305Y0187158D01*
X0547339Y0187375D01*
X0547368Y0187592D01*
X0547392Y0187810D01*
X0547411Y0188028D01*
X0547424Y0188247D01*
X0547432Y0188466D01*
X0547435Y0188685D01*
X0547435Y0215685D01*
X0547432Y0215904D01*
X0547424Y0216123D01*
X0547411Y0216342D01*
X0547392Y0216560D01*
X0547368Y0216778D01*
X0547339Y0216995D01*
X0547305Y0217212D01*
X0547265Y0217427D01*
X0547220Y0217642D01*
X0547169Y0217855D01*
X0547114Y0218067D01*
X0547053Y0218278D01*
X0546988Y0218487D01*
X0546917Y0218694D01*
X0546841Y0218900D01*
X0546760Y0219104D01*
X0546675Y0219306D01*
X0546584Y0219505D01*
X0546489Y0219702D01*
X0546388Y0219897D01*
X0546283Y0220090D01*
X0546174Y0220280D01*
X0546060Y0220467D01*
X0545941Y0220651D01*
X0545818Y0220832D01*
X0545690Y0221010D01*
X0545558Y0221186D01*
X0545422Y0221357D01*
X0545282Y0221526D01*
X0545138Y0221691D01*
X0544990Y0221852D01*
X0544838Y0222010D01*
X0544682Y0222164D01*
X0544522Y0222314D01*
X0544359Y0222461D01*
X0544192Y0222603D01*
X0544022Y0222741D01*
X0543848Y0222875D01*
X0543672Y0223005D01*
X0543492Y0223130D01*
X0543309Y0223251D01*
X0543123Y0223367D01*
X0542935Y0223479D01*
X0542744Y0223586D01*
X0542550Y0223689D01*
X0542354Y0223787D01*
X0542156Y0223880D01*
X0541955Y0223968D01*
X0541752Y0224051D01*
X0541547Y0224130D01*
X0541341Y0224203D01*
X0541133Y0224271D01*
X0540923Y0224334D01*
X0540711Y0224392D01*
X0540499Y0224445D01*
X0540285Y0224493D01*
X0540070Y0224535D01*
X0539854Y0224572D01*
X0539637Y0224604D01*
X0539419Y0224631D01*
X0539201Y0224652D01*
X0538983Y0224668D01*
X0538764Y0224679D01*
X0538545Y0224684D01*
X0538325Y0224684D01*
X0538106Y0224679D01*
X0537887Y0224668D01*
X0537669Y0224652D01*
X0537451Y0224631D01*
X0537233Y0224604D01*
X0537016Y0224572D01*
X0536800Y0224535D01*
X0536585Y0224493D01*
X0536371Y0224445D01*
X0536159Y0224392D01*
X0535947Y0224334D01*
X0535737Y0224271D01*
X0535529Y0224203D01*
X0535323Y0224130D01*
X0535118Y0224051D01*
X0534915Y0223968D01*
X0534714Y0223880D01*
X0534516Y0223787D01*
X0534320Y0223689D01*
X0534126Y0223586D01*
X0533935Y0223479D01*
X0533747Y0223367D01*
X0533561Y0223251D01*
X0533378Y0223130D01*
X0533198Y0223005D01*
X0533022Y0222875D01*
X0532848Y0222741D01*
X0532678Y0222603D01*
X0532511Y0222461D01*
X0532348Y0222314D01*
X0532188Y0222164D01*
X0532032Y0222010D01*
X0531880Y0221852D01*
X0531732Y0221691D01*
X0531588Y0221526D01*
X0531448Y0221357D01*
X0531312Y0221186D01*
X0531180Y0221010D01*
X0531052Y0220832D01*
X0530929Y0220651D01*
X0530810Y0220467D01*
X0530696Y0220280D01*
X0530587Y0220090D01*
X0530482Y0219897D01*
X0530381Y0219702D01*
X0530286Y0219505D01*
X0530195Y0219306D01*
X0530110Y0219104D01*
X0530029Y0218900D01*
X0529953Y0218694D01*
X0529882Y0218487D01*
X0529817Y0218278D01*
X0529756Y0218067D01*
X0529701Y0217855D01*
X0529650Y0217642D01*
X0529605Y0217427D01*
X0529565Y0217212D01*
X0529531Y0216995D01*
X0529502Y0216778D01*
X0529478Y0216560D01*
X0529459Y0216342D01*
X0529446Y0216123D01*
X0529438Y0215904D01*
X0529435Y0215685D01*
X0506723Y0196508D02*
X0506725Y0196557D01*
X0506731Y0196605D01*
X0506741Y0196653D01*
X0506755Y0196700D01*
X0506772Y0196746D01*
X0506793Y0196790D01*
X0506818Y0196832D01*
X0506846Y0196872D01*
X0506878Y0196910D01*
X0506912Y0196945D01*
X0506949Y0196977D01*
X0506988Y0197006D01*
X0507030Y0197032D01*
X0507074Y0197054D01*
X0507119Y0197072D01*
X0507166Y0197087D01*
X0507213Y0197098D01*
X0507262Y0197105D01*
X0507311Y0197108D01*
X0507360Y0197107D01*
X0507408Y0197102D01*
X0507457Y0197093D01*
X0507504Y0197080D01*
X0507550Y0197063D01*
X0507594Y0197043D01*
X0507637Y0197019D01*
X0507678Y0196992D01*
X0507716Y0196961D01*
X0507752Y0196928D01*
X0507784Y0196892D01*
X0507814Y0196853D01*
X0507841Y0196812D01*
X0507864Y0196768D01*
X0507883Y0196723D01*
X0507899Y0196677D01*
X0507911Y0196630D01*
X0507919Y0196581D01*
X0507923Y0196532D01*
X0507923Y0196484D01*
X0507919Y0196435D01*
X0507911Y0196386D01*
X0507899Y0196339D01*
X0507883Y0196293D01*
X0507864Y0196248D01*
X0507841Y0196204D01*
X0507814Y0196163D01*
X0507784Y0196124D01*
X0507752Y0196088D01*
X0507716Y0196055D01*
X0507678Y0196024D01*
X0507637Y0195997D01*
X0507594Y0195973D01*
X0507550Y0195953D01*
X0507504Y0195936D01*
X0507457Y0195923D01*
X0507408Y0195914D01*
X0507360Y0195909D01*
X0507311Y0195908D01*
X0507262Y0195911D01*
X0507213Y0195918D01*
X0507166Y0195929D01*
X0507119Y0195944D01*
X0507074Y0195962D01*
X0507030Y0195984D01*
X0506988Y0196010D01*
X0506949Y0196039D01*
X0506912Y0196071D01*
X0506878Y0196106D01*
X0506846Y0196144D01*
X0506818Y0196184D01*
X0506793Y0196226D01*
X0506772Y0196270D01*
X0506755Y0196316D01*
X0506741Y0196363D01*
X0506731Y0196411D01*
X0506725Y0196459D01*
X0506723Y0196508D01*
X0545195Y0151933D02*
X0547195Y0151933D01*
X0545195Y0151933D02*
X0545195Y0147933D01*
X0531295Y0140533D02*
X0519695Y0140533D01*
X0511695Y0140533D02*
X0501695Y0140533D01*
X0501695Y0138233D01*
X0531295Y0138233D02*
X0531295Y0140533D01*
X0545195Y0135933D02*
X0545195Y0130933D01*
X0547195Y0130933D01*
X0648010Y0185402D02*
X0648010Y0188402D01*
X0647010Y0188402D01*
X0648010Y0188402D02*
X0648010Y0191402D01*
X0668010Y0191402D01*
X0668010Y0188402D01*
X0669010Y0188402D01*
X0668010Y0188402D02*
X0668010Y0185402D01*
X0648010Y0185402D01*
X0647518Y0232154D02*
X0647518Y0235154D01*
X0646518Y0235154D01*
X0647518Y0235154D02*
X0647518Y0238154D01*
X0667518Y0238154D01*
X0667518Y0235154D01*
X0668518Y0235154D01*
X0667518Y0235154D02*
X0667518Y0232154D01*
X0647518Y0232154D01*
X0262595Y0283233D02*
X0262595Y0285233D01*
X0262595Y0283233D02*
X0253595Y0283233D01*
X0241595Y0283233D02*
X0232595Y0283233D01*
X0232595Y0285233D01*
X0222595Y0285233D02*
X0222595Y0283233D01*
X0214595Y0283233D01*
X0200595Y0283233D02*
X0192595Y0283233D01*
X0192595Y0285233D01*
X0163880Y0285547D02*
X0163880Y0296571D01*
X0160337Y0300114D01*
X0122935Y0300114D01*
X0122935Y0285547D01*
X0125100Y0273540D02*
X0125255Y0273093D01*
X0125421Y0272651D01*
X0125598Y0272212D01*
X0125785Y0271778D01*
X0125983Y0271349D01*
X0126191Y0270925D01*
X0126410Y0270506D01*
X0126638Y0270093D01*
X0126877Y0269685D01*
X0127126Y0269283D01*
X0127385Y0268887D01*
X0127653Y0268498D01*
X0127931Y0268116D01*
X0128217Y0267740D01*
X0128513Y0267372D01*
X0128818Y0267011D01*
X0129132Y0266657D01*
X0129454Y0266312D01*
X0129785Y0265974D01*
X0130124Y0265645D01*
X0130471Y0265323D01*
X0130825Y0265011D01*
X0131187Y0264707D01*
X0131556Y0264412D01*
X0131933Y0264127D01*
X0132316Y0263850D01*
X0132706Y0263584D01*
X0133103Y0263326D01*
X0133506Y0263079D01*
X0133914Y0262841D01*
X0134328Y0262614D01*
X0134748Y0262397D01*
X0135173Y0262190D01*
X0135603Y0261994D01*
X0136037Y0261808D01*
X0136476Y0261633D01*
X0136919Y0261468D01*
X0137366Y0261315D01*
X0137817Y0261172D01*
X0138271Y0261041D01*
X0138728Y0260921D01*
X0139188Y0260812D01*
X0139650Y0260714D01*
X0140115Y0260628D01*
X0140582Y0260553D01*
X0141050Y0260490D01*
X0141520Y0260438D01*
X0141990Y0260397D01*
X0142462Y0260368D01*
X0142934Y0260351D01*
X0143407Y0260345D01*
X0143880Y0260351D01*
X0144352Y0260368D01*
X0144824Y0260397D01*
X0145294Y0260438D01*
X0145764Y0260490D01*
X0146232Y0260553D01*
X0146699Y0260628D01*
X0147164Y0260714D01*
X0147626Y0260812D01*
X0148086Y0260921D01*
X0148543Y0261041D01*
X0148997Y0261172D01*
X0149448Y0261315D01*
X0149895Y0261468D01*
X0150338Y0261633D01*
X0150777Y0261808D01*
X0151211Y0261994D01*
X0151641Y0262190D01*
X0152066Y0262397D01*
X0152486Y0262614D01*
X0152900Y0262841D01*
X0153308Y0263079D01*
X0153711Y0263326D01*
X0154108Y0263584D01*
X0154498Y0263850D01*
X0154881Y0264127D01*
X0155258Y0264412D01*
X0155627Y0264707D01*
X0155989Y0265011D01*
X0156343Y0265323D01*
X0156690Y0265645D01*
X0157029Y0265974D01*
X0157360Y0266312D01*
X0157682Y0266657D01*
X0157996Y0267011D01*
X0158301Y0267372D01*
X0158597Y0267740D01*
X0158883Y0268116D01*
X0159161Y0268498D01*
X0159429Y0268887D01*
X0159688Y0269283D01*
X0159937Y0269685D01*
X0160176Y0270093D01*
X0160404Y0270506D01*
X0160623Y0270925D01*
X0160831Y0271349D01*
X0161029Y0271778D01*
X0161216Y0272212D01*
X0161393Y0272651D01*
X0161559Y0273093D01*
X0161714Y0273540D01*
X0163880Y0273736D02*
X0163880Y0262713D01*
X0160337Y0259169D01*
X0122935Y0259169D01*
X0122935Y0273736D01*
X0125100Y0285744D02*
X0125255Y0286191D01*
X0125421Y0286633D01*
X0125598Y0287072D01*
X0125785Y0287506D01*
X0125983Y0287935D01*
X0126191Y0288359D01*
X0126410Y0288778D01*
X0126638Y0289191D01*
X0126877Y0289599D01*
X0127126Y0290001D01*
X0127385Y0290397D01*
X0127653Y0290786D01*
X0127931Y0291168D01*
X0128217Y0291544D01*
X0128513Y0291912D01*
X0128818Y0292273D01*
X0129132Y0292627D01*
X0129454Y0292972D01*
X0129785Y0293310D01*
X0130124Y0293639D01*
X0130471Y0293961D01*
X0130825Y0294273D01*
X0131187Y0294577D01*
X0131556Y0294872D01*
X0131933Y0295157D01*
X0132316Y0295434D01*
X0132706Y0295700D01*
X0133103Y0295958D01*
X0133506Y0296205D01*
X0133914Y0296443D01*
X0134328Y0296670D01*
X0134748Y0296887D01*
X0135173Y0297094D01*
X0135603Y0297290D01*
X0136037Y0297476D01*
X0136476Y0297651D01*
X0136919Y0297816D01*
X0137366Y0297969D01*
X0137817Y0298112D01*
X0138271Y0298243D01*
X0138728Y0298363D01*
X0139188Y0298472D01*
X0139650Y0298570D01*
X0140115Y0298656D01*
X0140582Y0298731D01*
X0141050Y0298794D01*
X0141520Y0298846D01*
X0141990Y0298887D01*
X0142462Y0298916D01*
X0142934Y0298933D01*
X0143407Y0298939D01*
X0143880Y0298933D01*
X0144352Y0298916D01*
X0144824Y0298887D01*
X0145294Y0298846D01*
X0145764Y0298794D01*
X0146232Y0298731D01*
X0146699Y0298656D01*
X0147164Y0298570D01*
X0147626Y0298472D01*
X0148086Y0298363D01*
X0148543Y0298243D01*
X0148997Y0298112D01*
X0149448Y0297969D01*
X0149895Y0297816D01*
X0150338Y0297651D01*
X0150777Y0297476D01*
X0151211Y0297290D01*
X0151641Y0297094D01*
X0152066Y0296887D01*
X0152486Y0296670D01*
X0152900Y0296443D01*
X0153308Y0296205D01*
X0153711Y0295958D01*
X0154108Y0295700D01*
X0154498Y0295434D01*
X0154881Y0295157D01*
X0155258Y0294872D01*
X0155627Y0294577D01*
X0155989Y0294273D01*
X0156343Y0293961D01*
X0156690Y0293639D01*
X0157029Y0293310D01*
X0157360Y0292972D01*
X0157682Y0292627D01*
X0157996Y0292273D01*
X0158301Y0291912D01*
X0158597Y0291544D01*
X0158883Y0291168D01*
X0159161Y0290786D01*
X0159429Y0290397D01*
X0159688Y0290001D01*
X0159937Y0289599D01*
X0160176Y0289191D01*
X0160404Y0288778D01*
X0160623Y0288359D01*
X0160831Y0287935D01*
X0161029Y0287506D01*
X0161216Y0287072D01*
X0161393Y0286633D01*
X0161559Y0286191D01*
X0161714Y0285744D01*
X0160699Y0259020D02*
X0123297Y0259020D01*
X0123297Y0244453D01*
X0123297Y0232642D02*
X0123297Y0218075D01*
X0160699Y0218075D01*
X0164242Y0221618D01*
X0164242Y0232642D01*
X0164242Y0244453D02*
X0164242Y0255476D01*
X0160699Y0259020D01*
X0162077Y0244649D02*
X0161922Y0245096D01*
X0161756Y0245538D01*
X0161579Y0245977D01*
X0161392Y0246411D01*
X0161194Y0246840D01*
X0160986Y0247264D01*
X0160767Y0247683D01*
X0160539Y0248096D01*
X0160300Y0248504D01*
X0160051Y0248906D01*
X0159792Y0249302D01*
X0159524Y0249691D01*
X0159246Y0250073D01*
X0158960Y0250449D01*
X0158664Y0250817D01*
X0158359Y0251178D01*
X0158045Y0251532D01*
X0157723Y0251877D01*
X0157392Y0252215D01*
X0157053Y0252544D01*
X0156706Y0252866D01*
X0156352Y0253178D01*
X0155990Y0253482D01*
X0155621Y0253777D01*
X0155244Y0254062D01*
X0154861Y0254339D01*
X0154471Y0254605D01*
X0154074Y0254863D01*
X0153671Y0255110D01*
X0153263Y0255348D01*
X0152849Y0255575D01*
X0152429Y0255792D01*
X0152004Y0255999D01*
X0151574Y0256195D01*
X0151140Y0256381D01*
X0150701Y0256556D01*
X0150258Y0256721D01*
X0149811Y0256874D01*
X0149360Y0257017D01*
X0148906Y0257148D01*
X0148449Y0257268D01*
X0147989Y0257377D01*
X0147527Y0257475D01*
X0147062Y0257561D01*
X0146595Y0257636D01*
X0146127Y0257699D01*
X0145657Y0257751D01*
X0145187Y0257792D01*
X0144715Y0257821D01*
X0144243Y0257838D01*
X0143770Y0257844D01*
X0143297Y0257838D01*
X0142825Y0257821D01*
X0142353Y0257792D01*
X0141883Y0257751D01*
X0141413Y0257699D01*
X0140945Y0257636D01*
X0140478Y0257561D01*
X0140013Y0257475D01*
X0139551Y0257377D01*
X0139091Y0257268D01*
X0138634Y0257148D01*
X0138180Y0257017D01*
X0137729Y0256874D01*
X0137282Y0256721D01*
X0136839Y0256556D01*
X0136400Y0256381D01*
X0135966Y0256195D01*
X0135536Y0255999D01*
X0135111Y0255792D01*
X0134691Y0255575D01*
X0134277Y0255348D01*
X0133869Y0255110D01*
X0133466Y0254863D01*
X0133069Y0254605D01*
X0132679Y0254339D01*
X0132296Y0254062D01*
X0131919Y0253777D01*
X0131550Y0253482D01*
X0131188Y0253178D01*
X0130834Y0252866D01*
X0130487Y0252544D01*
X0130148Y0252215D01*
X0129817Y0251877D01*
X0129495Y0251532D01*
X0129181Y0251178D01*
X0128876Y0250817D01*
X0128580Y0250449D01*
X0128294Y0250073D01*
X0128016Y0249691D01*
X0127748Y0249302D01*
X0127489Y0248906D01*
X0127240Y0248504D01*
X0127001Y0248096D01*
X0126773Y0247683D01*
X0126554Y0247264D01*
X0126346Y0246840D01*
X0126148Y0246411D01*
X0125961Y0245977D01*
X0125784Y0245538D01*
X0125618Y0245096D01*
X0125463Y0244649D01*
X0125463Y0232445D02*
X0125618Y0231998D01*
X0125784Y0231556D01*
X0125961Y0231117D01*
X0126148Y0230683D01*
X0126346Y0230254D01*
X0126554Y0229830D01*
X0126773Y0229411D01*
X0127001Y0228998D01*
X0127240Y0228590D01*
X0127489Y0228188D01*
X0127748Y0227792D01*
X0128016Y0227403D01*
X0128294Y0227021D01*
X0128580Y0226645D01*
X0128876Y0226277D01*
X0129181Y0225916D01*
X0129495Y0225562D01*
X0129817Y0225217D01*
X0130148Y0224879D01*
X0130487Y0224550D01*
X0130834Y0224228D01*
X0131188Y0223916D01*
X0131550Y0223612D01*
X0131919Y0223317D01*
X0132296Y0223032D01*
X0132679Y0222755D01*
X0133069Y0222489D01*
X0133466Y0222231D01*
X0133869Y0221984D01*
X0134277Y0221746D01*
X0134691Y0221519D01*
X0135111Y0221302D01*
X0135536Y0221095D01*
X0135966Y0220899D01*
X0136400Y0220713D01*
X0136839Y0220538D01*
X0137282Y0220373D01*
X0137729Y0220220D01*
X0138180Y0220077D01*
X0138634Y0219946D01*
X0139091Y0219826D01*
X0139551Y0219717D01*
X0140013Y0219619D01*
X0140478Y0219533D01*
X0140945Y0219458D01*
X0141413Y0219395D01*
X0141883Y0219343D01*
X0142353Y0219302D01*
X0142825Y0219273D01*
X0143297Y0219256D01*
X0143770Y0219250D01*
X0144243Y0219256D01*
X0144715Y0219273D01*
X0145187Y0219302D01*
X0145657Y0219343D01*
X0146127Y0219395D01*
X0146595Y0219458D01*
X0147062Y0219533D01*
X0147527Y0219619D01*
X0147989Y0219717D01*
X0148449Y0219826D01*
X0148906Y0219946D01*
X0149360Y0220077D01*
X0149811Y0220220D01*
X0150258Y0220373D01*
X0150701Y0220538D01*
X0151140Y0220713D01*
X0151574Y0220899D01*
X0152004Y0221095D01*
X0152429Y0221302D01*
X0152849Y0221519D01*
X0153263Y0221746D01*
X0153671Y0221984D01*
X0154074Y0222231D01*
X0154471Y0222489D01*
X0154861Y0222755D01*
X0155244Y0223032D01*
X0155621Y0223317D01*
X0155990Y0223612D01*
X0156352Y0223916D01*
X0156706Y0224228D01*
X0157053Y0224550D01*
X0157392Y0224879D01*
X0157723Y0225217D01*
X0158045Y0225562D01*
X0158359Y0225916D01*
X0158664Y0226277D01*
X0158960Y0226645D01*
X0159246Y0227021D01*
X0159524Y0227403D01*
X0159792Y0227792D01*
X0160051Y0228188D01*
X0160300Y0228590D01*
X0160539Y0228998D01*
X0160767Y0229411D01*
X0160986Y0229830D01*
X0161194Y0230254D01*
X0161392Y0230683D01*
X0161579Y0231117D01*
X0161756Y0231556D01*
X0161922Y0231998D01*
X0162077Y0232445D01*
X0160140Y0169012D02*
X0122738Y0169012D01*
X0122738Y0154445D01*
X0122738Y0142634D02*
X0122738Y0128067D01*
X0160140Y0128067D01*
X0163683Y0131610D01*
X0163683Y0142634D01*
X0161518Y0154641D02*
X0161363Y0155088D01*
X0161197Y0155530D01*
X0161020Y0155969D01*
X0160833Y0156403D01*
X0160635Y0156832D01*
X0160427Y0157256D01*
X0160208Y0157675D01*
X0159980Y0158088D01*
X0159741Y0158496D01*
X0159492Y0158898D01*
X0159233Y0159294D01*
X0158965Y0159683D01*
X0158687Y0160065D01*
X0158401Y0160441D01*
X0158105Y0160809D01*
X0157800Y0161170D01*
X0157486Y0161524D01*
X0157164Y0161869D01*
X0156833Y0162207D01*
X0156494Y0162536D01*
X0156147Y0162858D01*
X0155793Y0163170D01*
X0155431Y0163474D01*
X0155062Y0163769D01*
X0154685Y0164054D01*
X0154302Y0164331D01*
X0153912Y0164597D01*
X0153515Y0164855D01*
X0153112Y0165102D01*
X0152704Y0165340D01*
X0152290Y0165567D01*
X0151870Y0165784D01*
X0151445Y0165991D01*
X0151015Y0166187D01*
X0150581Y0166373D01*
X0150142Y0166548D01*
X0149699Y0166713D01*
X0149252Y0166866D01*
X0148801Y0167009D01*
X0148347Y0167140D01*
X0147890Y0167260D01*
X0147430Y0167369D01*
X0146968Y0167467D01*
X0146503Y0167553D01*
X0146036Y0167628D01*
X0145568Y0167691D01*
X0145098Y0167743D01*
X0144628Y0167784D01*
X0144156Y0167813D01*
X0143684Y0167830D01*
X0143211Y0167836D01*
X0142738Y0167830D01*
X0142266Y0167813D01*
X0141794Y0167784D01*
X0141324Y0167743D01*
X0140854Y0167691D01*
X0140386Y0167628D01*
X0139919Y0167553D01*
X0139454Y0167467D01*
X0138992Y0167369D01*
X0138532Y0167260D01*
X0138075Y0167140D01*
X0137621Y0167009D01*
X0137170Y0166866D01*
X0136723Y0166713D01*
X0136280Y0166548D01*
X0135841Y0166373D01*
X0135407Y0166187D01*
X0134977Y0165991D01*
X0134552Y0165784D01*
X0134132Y0165567D01*
X0133718Y0165340D01*
X0133310Y0165102D01*
X0132907Y0164855D01*
X0132510Y0164597D01*
X0132120Y0164331D01*
X0131737Y0164054D01*
X0131360Y0163769D01*
X0130991Y0163474D01*
X0130629Y0163170D01*
X0130275Y0162858D01*
X0129928Y0162536D01*
X0129589Y0162207D01*
X0129258Y0161869D01*
X0128936Y0161524D01*
X0128622Y0161170D01*
X0128317Y0160809D01*
X0128021Y0160441D01*
X0127735Y0160065D01*
X0127457Y0159683D01*
X0127189Y0159294D01*
X0126930Y0158898D01*
X0126681Y0158496D01*
X0126442Y0158088D01*
X0126214Y0157675D01*
X0125995Y0157256D01*
X0125787Y0156832D01*
X0125589Y0156403D01*
X0125402Y0155969D01*
X0125225Y0155530D01*
X0125059Y0155088D01*
X0124904Y0154641D01*
X0124904Y0142437D02*
X0125059Y0141990D01*
X0125225Y0141548D01*
X0125402Y0141109D01*
X0125589Y0140675D01*
X0125787Y0140246D01*
X0125995Y0139822D01*
X0126214Y0139403D01*
X0126442Y0138990D01*
X0126681Y0138582D01*
X0126930Y0138180D01*
X0127189Y0137784D01*
X0127457Y0137395D01*
X0127735Y0137013D01*
X0128021Y0136637D01*
X0128317Y0136269D01*
X0128622Y0135908D01*
X0128936Y0135554D01*
X0129258Y0135209D01*
X0129589Y0134871D01*
X0129928Y0134542D01*
X0130275Y0134220D01*
X0130629Y0133908D01*
X0130991Y0133604D01*
X0131360Y0133309D01*
X0131737Y0133024D01*
X0132120Y0132747D01*
X0132510Y0132481D01*
X0132907Y0132223D01*
X0133310Y0131976D01*
X0133718Y0131738D01*
X0134132Y0131511D01*
X0134552Y0131294D01*
X0134977Y0131087D01*
X0135407Y0130891D01*
X0135841Y0130705D01*
X0136280Y0130530D01*
X0136723Y0130365D01*
X0137170Y0130212D01*
X0137621Y0130069D01*
X0138075Y0129938D01*
X0138532Y0129818D01*
X0138992Y0129709D01*
X0139454Y0129611D01*
X0139919Y0129525D01*
X0140386Y0129450D01*
X0140854Y0129387D01*
X0141324Y0129335D01*
X0141794Y0129294D01*
X0142266Y0129265D01*
X0142738Y0129248D01*
X0143211Y0129242D01*
X0143684Y0129248D01*
X0144156Y0129265D01*
X0144628Y0129294D01*
X0145098Y0129335D01*
X0145568Y0129387D01*
X0146036Y0129450D01*
X0146503Y0129525D01*
X0146968Y0129611D01*
X0147430Y0129709D01*
X0147890Y0129818D01*
X0148347Y0129938D01*
X0148801Y0130069D01*
X0149252Y0130212D01*
X0149699Y0130365D01*
X0150142Y0130530D01*
X0150581Y0130705D01*
X0151015Y0130891D01*
X0151445Y0131087D01*
X0151870Y0131294D01*
X0152290Y0131511D01*
X0152704Y0131738D01*
X0153112Y0131976D01*
X0153515Y0132223D01*
X0153912Y0132481D01*
X0154302Y0132747D01*
X0154685Y0133024D01*
X0155062Y0133309D01*
X0155431Y0133604D01*
X0155793Y0133908D01*
X0156147Y0134220D01*
X0156494Y0134542D01*
X0156833Y0134871D01*
X0157164Y0135209D01*
X0157486Y0135554D01*
X0157800Y0135908D01*
X0158105Y0136269D01*
X0158401Y0136637D01*
X0158687Y0137013D01*
X0158965Y0137395D01*
X0159233Y0137784D01*
X0159492Y0138180D01*
X0159741Y0138582D01*
X0159980Y0138990D01*
X0160208Y0139403D01*
X0160427Y0139822D01*
X0160635Y0140246D01*
X0160833Y0140675D01*
X0161020Y0141109D01*
X0161197Y0141548D01*
X0161363Y0141990D01*
X0161518Y0142437D01*
X0163683Y0154445D02*
X0163683Y0165469D01*
X0160140Y0169012D01*
D13*
X0167557Y0125823D02*
X0176557Y0125823D01*
X0177557Y0126823D01*
X0178557Y0125823D01*
X0186557Y0125823D01*
X0187557Y0126823D01*
X0188557Y0125823D01*
X0196557Y0125823D01*
X0197557Y0126823D01*
X0198557Y0125823D01*
X0206557Y0125823D01*
X0207557Y0126823D01*
X0208557Y0125823D01*
X0216557Y0125823D01*
X0217557Y0126823D01*
X0218557Y0125823D01*
X0226557Y0125823D01*
X0227557Y0126823D01*
X0228557Y0125823D01*
X0236557Y0125823D01*
X0237557Y0126823D01*
X0238557Y0125823D01*
X0246557Y0125823D01*
X0247557Y0126823D01*
X0248557Y0125823D01*
X0256557Y0125823D01*
X0257557Y0126823D01*
X0258557Y0125823D01*
X0267557Y0125823D01*
X0267557Y0135823D01*
X0258557Y0135823D01*
X0257557Y0134823D01*
X0256557Y0135823D01*
X0248557Y0135823D01*
X0247557Y0134823D01*
X0246557Y0135823D01*
X0238557Y0135823D01*
X0237557Y0134823D01*
X0236557Y0135823D01*
X0228557Y0135823D01*
X0227557Y0134823D01*
X0226557Y0135823D01*
X0218557Y0135823D01*
X0217557Y0134823D01*
X0216557Y0135823D01*
X0208557Y0135823D01*
X0207557Y0134823D01*
X0206557Y0135823D01*
X0198557Y0135823D01*
X0197557Y0134823D01*
X0196557Y0135823D01*
X0188557Y0135823D01*
X0187557Y0134823D01*
X0186557Y0135823D01*
X0178557Y0135823D01*
X0177557Y0134823D01*
X0176557Y0135823D01*
X0167557Y0135823D01*
X0167557Y0125823D01*
X0177675Y0142650D02*
X0177631Y0142652D01*
X0177588Y0142658D01*
X0177546Y0142667D01*
X0177504Y0142680D01*
X0177464Y0142697D01*
X0177425Y0142717D01*
X0177388Y0142740D01*
X0177354Y0142767D01*
X0177321Y0142796D01*
X0177292Y0142829D01*
X0177265Y0142863D01*
X0177242Y0142900D01*
X0177222Y0142939D01*
X0177205Y0142979D01*
X0177192Y0143021D01*
X0177183Y0143063D01*
X0177177Y0143106D01*
X0177175Y0143150D01*
X0177177Y0143194D01*
X0177183Y0143237D01*
X0177192Y0143279D01*
X0177205Y0143321D01*
X0177222Y0143361D01*
X0177242Y0143400D01*
X0177265Y0143437D01*
X0177292Y0143471D01*
X0177321Y0143504D01*
X0177354Y0143533D01*
X0177388Y0143560D01*
X0177425Y0143583D01*
X0177464Y0143603D01*
X0177504Y0143620D01*
X0177546Y0143633D01*
X0177588Y0143642D01*
X0177631Y0143648D01*
X0177675Y0143650D01*
X0177719Y0143648D01*
X0177762Y0143642D01*
X0177804Y0143633D01*
X0177846Y0143620D01*
X0177886Y0143603D01*
X0177925Y0143583D01*
X0177962Y0143560D01*
X0177996Y0143533D01*
X0178029Y0143504D01*
X0178058Y0143471D01*
X0178085Y0143437D01*
X0178108Y0143400D01*
X0178128Y0143361D01*
X0178145Y0143321D01*
X0178158Y0143279D01*
X0178167Y0143237D01*
X0178173Y0143194D01*
X0178175Y0143150D01*
X0178173Y0143106D01*
X0178167Y0143063D01*
X0178158Y0143021D01*
X0178145Y0142979D01*
X0178128Y0142939D01*
X0178108Y0142900D01*
X0178085Y0142863D01*
X0178058Y0142829D01*
X0178029Y0142796D01*
X0177996Y0142767D01*
X0177962Y0142740D01*
X0177925Y0142717D01*
X0177886Y0142697D01*
X0177846Y0142680D01*
X0177804Y0142667D01*
X0177762Y0142658D01*
X0177719Y0142652D01*
X0177675Y0142650D01*
X0173475Y0145650D02*
X0191875Y0145650D01*
X0191875Y0187650D01*
X0173475Y0187650D01*
X0173475Y0145650D01*
X0202885Y0146043D02*
X0221285Y0146043D01*
X0221285Y0188043D01*
X0202885Y0188043D01*
X0202885Y0146043D01*
X0233081Y0139988D02*
X0244581Y0140488D01*
X0245581Y0141488D01*
X0245581Y0178488D01*
X0244581Y0179488D01*
X0233081Y0179988D01*
X0247467Y0179020D02*
X0247467Y0163020D01*
X0247469Y0162960D01*
X0247474Y0162899D01*
X0247483Y0162840D01*
X0247496Y0162781D01*
X0247512Y0162722D01*
X0247532Y0162665D01*
X0247555Y0162610D01*
X0247582Y0162555D01*
X0247611Y0162503D01*
X0247644Y0162452D01*
X0247680Y0162403D01*
X0247718Y0162357D01*
X0247760Y0162313D01*
X0247804Y0162271D01*
X0247850Y0162233D01*
X0247899Y0162197D01*
X0247950Y0162164D01*
X0248002Y0162135D01*
X0248057Y0162108D01*
X0248112Y0162085D01*
X0248169Y0162065D01*
X0248228Y0162049D01*
X0248287Y0162036D01*
X0248346Y0162027D01*
X0248407Y0162022D01*
X0248467Y0162020D01*
X0265467Y0162020D01*
X0265527Y0162022D01*
X0265588Y0162027D01*
X0265647Y0162036D01*
X0265706Y0162049D01*
X0265765Y0162065D01*
X0265822Y0162085D01*
X0265877Y0162108D01*
X0265932Y0162135D01*
X0265984Y0162164D01*
X0266035Y0162197D01*
X0266084Y0162233D01*
X0266130Y0162271D01*
X0266174Y0162313D01*
X0266216Y0162357D01*
X0266254Y0162403D01*
X0266290Y0162452D01*
X0266323Y0162503D01*
X0266352Y0162555D01*
X0266379Y0162610D01*
X0266402Y0162665D01*
X0266422Y0162722D01*
X0266438Y0162781D01*
X0266451Y0162840D01*
X0266460Y0162899D01*
X0266465Y0162960D01*
X0266467Y0163020D01*
X0266467Y0179020D01*
X0266465Y0179080D01*
X0266460Y0179141D01*
X0266451Y0179200D01*
X0266438Y0179259D01*
X0266422Y0179318D01*
X0266402Y0179375D01*
X0266379Y0179430D01*
X0266352Y0179485D01*
X0266323Y0179537D01*
X0266290Y0179588D01*
X0266254Y0179637D01*
X0266216Y0179683D01*
X0266174Y0179727D01*
X0266130Y0179769D01*
X0266084Y0179807D01*
X0266035Y0179843D01*
X0265984Y0179876D01*
X0265932Y0179905D01*
X0265877Y0179932D01*
X0265822Y0179955D01*
X0265765Y0179975D01*
X0265706Y0179991D01*
X0265647Y0180004D01*
X0265588Y0180013D01*
X0265527Y0180018D01*
X0265467Y0180020D01*
X0248467Y0180020D01*
X0248407Y0180018D01*
X0248346Y0180013D01*
X0248287Y0180004D01*
X0248228Y0179991D01*
X0248169Y0179975D01*
X0248112Y0179955D01*
X0248057Y0179932D01*
X0248002Y0179905D01*
X0247950Y0179876D01*
X0247899Y0179843D01*
X0247850Y0179807D01*
X0247804Y0179769D01*
X0247760Y0179727D01*
X0247718Y0179683D01*
X0247680Y0179637D01*
X0247644Y0179588D01*
X0247611Y0179537D01*
X0247582Y0179485D01*
X0247555Y0179430D01*
X0247532Y0179375D01*
X0247512Y0179318D01*
X0247496Y0179259D01*
X0247483Y0179200D01*
X0247474Y0179141D01*
X0247469Y0179080D01*
X0247467Y0179020D01*
X0255467Y0171020D02*
X0255967Y0171020D01*
X0257967Y0171020D02*
X0258467Y0171020D01*
X0265467Y0158681D02*
X0248467Y0158681D01*
X0248407Y0158679D01*
X0248346Y0158674D01*
X0248287Y0158665D01*
X0248228Y0158652D01*
X0248169Y0158636D01*
X0248112Y0158616D01*
X0248057Y0158593D01*
X0248002Y0158566D01*
X0247950Y0158537D01*
X0247899Y0158504D01*
X0247850Y0158468D01*
X0247804Y0158430D01*
X0247760Y0158388D01*
X0247718Y0158344D01*
X0247680Y0158298D01*
X0247644Y0158249D01*
X0247611Y0158198D01*
X0247582Y0158146D01*
X0247555Y0158091D01*
X0247532Y0158036D01*
X0247512Y0157979D01*
X0247496Y0157920D01*
X0247483Y0157861D01*
X0247474Y0157802D01*
X0247469Y0157741D01*
X0247467Y0157681D01*
X0247467Y0141681D01*
X0247469Y0141621D01*
X0247474Y0141560D01*
X0247483Y0141501D01*
X0247496Y0141442D01*
X0247512Y0141383D01*
X0247532Y0141326D01*
X0247555Y0141271D01*
X0247582Y0141216D01*
X0247611Y0141164D01*
X0247644Y0141113D01*
X0247680Y0141064D01*
X0247718Y0141018D01*
X0247760Y0140974D01*
X0247804Y0140932D01*
X0247850Y0140894D01*
X0247899Y0140858D01*
X0247950Y0140825D01*
X0248002Y0140796D01*
X0248057Y0140769D01*
X0248112Y0140746D01*
X0248169Y0140726D01*
X0248228Y0140710D01*
X0248287Y0140697D01*
X0248346Y0140688D01*
X0248407Y0140683D01*
X0248467Y0140681D01*
X0265467Y0140681D01*
X0265527Y0140683D01*
X0265588Y0140688D01*
X0265647Y0140697D01*
X0265706Y0140710D01*
X0265765Y0140726D01*
X0265822Y0140746D01*
X0265877Y0140769D01*
X0265932Y0140796D01*
X0265984Y0140825D01*
X0266035Y0140858D01*
X0266084Y0140894D01*
X0266130Y0140932D01*
X0266174Y0140974D01*
X0266216Y0141018D01*
X0266254Y0141064D01*
X0266290Y0141113D01*
X0266323Y0141164D01*
X0266352Y0141216D01*
X0266379Y0141271D01*
X0266402Y0141326D01*
X0266422Y0141383D01*
X0266438Y0141442D01*
X0266451Y0141501D01*
X0266460Y0141560D01*
X0266465Y0141621D01*
X0266467Y0141681D01*
X0266467Y0157681D01*
X0266465Y0157741D01*
X0266460Y0157802D01*
X0266451Y0157861D01*
X0266438Y0157920D01*
X0266422Y0157979D01*
X0266402Y0158036D01*
X0266379Y0158091D01*
X0266352Y0158146D01*
X0266323Y0158198D01*
X0266290Y0158249D01*
X0266254Y0158298D01*
X0266216Y0158344D01*
X0266174Y0158388D01*
X0266130Y0158430D01*
X0266084Y0158468D01*
X0266035Y0158504D01*
X0265984Y0158537D01*
X0265932Y0158566D01*
X0265877Y0158593D01*
X0265822Y0158616D01*
X0265765Y0158636D01*
X0265706Y0158652D01*
X0265647Y0158665D01*
X0265588Y0158674D01*
X0265527Y0158679D01*
X0265467Y0158681D01*
X0258467Y0149681D02*
X0257967Y0149681D01*
X0255967Y0149681D02*
X0255467Y0149681D01*
X0323069Y0136807D02*
X0323069Y0126807D01*
X0332069Y0126807D01*
X0333069Y0127807D01*
X0334069Y0126807D01*
X0342069Y0126807D01*
X0343069Y0127807D01*
X0344069Y0126807D01*
X0352069Y0126807D01*
X0353069Y0127807D01*
X0354069Y0126807D01*
X0362069Y0126807D01*
X0363069Y0127807D01*
X0364069Y0126807D01*
X0372069Y0126807D01*
X0373069Y0127807D01*
X0374069Y0126807D01*
X0382069Y0126807D01*
X0383069Y0127807D01*
X0384069Y0126807D01*
X0392069Y0126807D01*
X0393069Y0127807D01*
X0394069Y0126807D01*
X0402069Y0126807D01*
X0403069Y0127807D01*
X0404069Y0126807D01*
X0412069Y0126807D01*
X0413069Y0127807D01*
X0414069Y0126807D01*
X0423069Y0126807D01*
X0423069Y0136807D01*
X0414069Y0136807D01*
X0413069Y0135807D01*
X0412069Y0136807D01*
X0404069Y0136807D01*
X0403069Y0135807D01*
X0402069Y0136807D01*
X0394069Y0136807D01*
X0393069Y0135807D01*
X0392069Y0136807D01*
X0384069Y0136807D01*
X0383069Y0135807D01*
X0382069Y0136807D01*
X0374069Y0136807D01*
X0373069Y0135807D01*
X0372069Y0136807D01*
X0364069Y0136807D01*
X0363069Y0135807D01*
X0362069Y0136807D01*
X0354069Y0136807D01*
X0353069Y0135807D01*
X0352069Y0136807D01*
X0344069Y0136807D01*
X0343069Y0135807D01*
X0342069Y0136807D01*
X0334069Y0136807D01*
X0333069Y0135807D01*
X0332069Y0136807D01*
X0323069Y0136807D01*
X0393935Y0154366D02*
X0402935Y0154366D01*
X0403935Y0155366D01*
X0404935Y0154366D01*
X0412935Y0154366D01*
X0413935Y0155366D01*
X0414935Y0154366D01*
X0422935Y0154366D01*
X0423935Y0155366D01*
X0424935Y0154366D01*
X0432935Y0154366D01*
X0433935Y0155366D01*
X0434935Y0154366D01*
X0442935Y0154366D01*
X0443935Y0155366D01*
X0444935Y0154366D01*
X0452935Y0154366D01*
X0453935Y0155366D01*
X0454935Y0154366D01*
X0462935Y0154366D01*
X0463935Y0155366D01*
X0464935Y0154366D01*
X0472935Y0154366D01*
X0473935Y0155366D01*
X0474935Y0154366D01*
X0482935Y0154366D01*
X0483935Y0155366D01*
X0484935Y0154366D01*
X0493935Y0154366D01*
X0493935Y0164366D01*
X0484935Y0164366D01*
X0483935Y0163366D01*
X0482935Y0164366D01*
X0474935Y0164366D01*
X0473935Y0163366D01*
X0472935Y0164366D01*
X0464935Y0164366D01*
X0463935Y0163366D01*
X0462935Y0164366D01*
X0454935Y0164366D01*
X0453935Y0163366D01*
X0452935Y0164366D01*
X0444935Y0164366D01*
X0443935Y0163366D01*
X0442935Y0164366D01*
X0434935Y0164366D01*
X0433935Y0163366D01*
X0432935Y0164366D01*
X0424935Y0164366D01*
X0423935Y0163366D01*
X0422935Y0164366D01*
X0414935Y0164366D01*
X0413935Y0163366D01*
X0412935Y0164366D01*
X0404935Y0164366D01*
X0403935Y0163366D01*
X0402935Y0164366D01*
X0393935Y0164366D01*
X0393935Y0154366D01*
X0495938Y0137007D02*
X0495938Y0127007D01*
X0504938Y0127007D01*
X0505938Y0128007D01*
X0506938Y0127007D01*
X0514938Y0127007D01*
X0515938Y0128007D01*
X0516938Y0127007D01*
X0524938Y0127007D01*
X0525938Y0128007D01*
X0526938Y0127007D01*
X0534938Y0127007D01*
X0535938Y0128007D01*
X0535938Y0136007D02*
X0534938Y0137007D01*
X0526938Y0137007D01*
X0525938Y0136007D01*
X0524938Y0137007D01*
X0516938Y0137007D01*
X0515938Y0136007D01*
X0514938Y0137007D01*
X0506938Y0137007D01*
X0505938Y0136007D01*
X0504938Y0137007D01*
X0495938Y0137007D01*
X0497872Y0156090D02*
X0506872Y0156090D01*
X0507872Y0157090D01*
X0508872Y0156090D01*
X0516872Y0156090D01*
X0517872Y0157090D01*
X0518872Y0156090D01*
X0526872Y0156090D01*
X0527872Y0157090D01*
X0528872Y0156090D01*
X0536872Y0156090D01*
X0537872Y0157090D01*
X0538872Y0156090D01*
X0547872Y0156090D01*
X0547872Y0166090D01*
X0538872Y0166090D01*
X0537872Y0165090D01*
X0536872Y0166090D01*
X0528872Y0166090D01*
X0527872Y0165090D01*
X0526872Y0166090D01*
X0518872Y0166090D01*
X0517872Y0165090D01*
X0516872Y0166090D01*
X0508872Y0166090D01*
X0507872Y0165090D01*
X0506872Y0166090D01*
X0497872Y0166090D01*
X0497872Y0156090D01*
X0529648Y0171709D02*
X0529648Y0176709D01*
X0529650Y0176796D01*
X0529656Y0176883D01*
X0529665Y0176970D01*
X0529678Y0177056D01*
X0529695Y0177142D01*
X0529716Y0177227D01*
X0529741Y0177310D01*
X0529769Y0177393D01*
X0529800Y0177474D01*
X0529835Y0177554D01*
X0529874Y0177632D01*
X0529916Y0177709D01*
X0529961Y0177784D01*
X0530010Y0177856D01*
X0530061Y0177927D01*
X0530116Y0177995D01*
X0530173Y0178060D01*
X0530234Y0178123D01*
X0530297Y0178184D01*
X0530362Y0178241D01*
X0530430Y0178296D01*
X0530501Y0178347D01*
X0530573Y0178396D01*
X0530648Y0178441D01*
X0530725Y0178483D01*
X0530803Y0178522D01*
X0530883Y0178557D01*
X0530964Y0178588D01*
X0531047Y0178616D01*
X0531130Y0178641D01*
X0531215Y0178662D01*
X0531301Y0178679D01*
X0531387Y0178692D01*
X0531474Y0178701D01*
X0531561Y0178707D01*
X0531648Y0178709D01*
X0544648Y0178709D01*
X0544735Y0178707D01*
X0544822Y0178701D01*
X0544909Y0178692D01*
X0544995Y0178679D01*
X0545081Y0178662D01*
X0545166Y0178641D01*
X0545249Y0178616D01*
X0545332Y0178588D01*
X0545413Y0178557D01*
X0545493Y0178522D01*
X0545571Y0178483D01*
X0545648Y0178441D01*
X0545723Y0178396D01*
X0545795Y0178347D01*
X0545866Y0178296D01*
X0545934Y0178241D01*
X0545999Y0178184D01*
X0546062Y0178123D01*
X0546123Y0178060D01*
X0546180Y0177995D01*
X0546235Y0177927D01*
X0546286Y0177856D01*
X0546335Y0177784D01*
X0546380Y0177709D01*
X0546422Y0177632D01*
X0546461Y0177554D01*
X0546496Y0177474D01*
X0546527Y0177393D01*
X0546555Y0177310D01*
X0546580Y0177227D01*
X0546601Y0177142D01*
X0546618Y0177056D01*
X0546631Y0176970D01*
X0546640Y0176883D01*
X0546646Y0176796D01*
X0546648Y0176709D01*
X0546648Y0171709D01*
X0546646Y0171622D01*
X0546640Y0171535D01*
X0546631Y0171448D01*
X0546618Y0171362D01*
X0546601Y0171276D01*
X0546580Y0171191D01*
X0546555Y0171108D01*
X0546527Y0171025D01*
X0546496Y0170944D01*
X0546461Y0170864D01*
X0546422Y0170786D01*
X0546380Y0170709D01*
X0546335Y0170634D01*
X0546286Y0170562D01*
X0546235Y0170491D01*
X0546180Y0170423D01*
X0546123Y0170358D01*
X0546062Y0170295D01*
X0545999Y0170234D01*
X0545934Y0170177D01*
X0545866Y0170122D01*
X0545795Y0170071D01*
X0545723Y0170022D01*
X0545648Y0169977D01*
X0545571Y0169935D01*
X0545493Y0169896D01*
X0545413Y0169861D01*
X0545332Y0169830D01*
X0545249Y0169802D01*
X0545166Y0169777D01*
X0545081Y0169756D01*
X0544995Y0169739D01*
X0544909Y0169726D01*
X0544822Y0169717D01*
X0544735Y0169711D01*
X0544648Y0169709D01*
X0531648Y0169709D01*
X0531561Y0169711D01*
X0531474Y0169717D01*
X0531387Y0169726D01*
X0531301Y0169739D01*
X0531215Y0169756D01*
X0531130Y0169777D01*
X0531047Y0169802D01*
X0530964Y0169830D01*
X0530883Y0169861D01*
X0530803Y0169896D01*
X0530725Y0169935D01*
X0530648Y0169977D01*
X0530573Y0170022D01*
X0530501Y0170071D01*
X0530430Y0170122D01*
X0530362Y0170177D01*
X0530297Y0170234D01*
X0530234Y0170295D01*
X0530173Y0170358D01*
X0530116Y0170423D01*
X0530061Y0170491D01*
X0530010Y0170562D01*
X0529961Y0170634D01*
X0529916Y0170709D01*
X0529874Y0170786D01*
X0529835Y0170864D01*
X0529800Y0170944D01*
X0529769Y0171025D01*
X0529741Y0171108D01*
X0529716Y0171191D01*
X0529695Y0171276D01*
X0529678Y0171362D01*
X0529665Y0171448D01*
X0529656Y0171535D01*
X0529650Y0171622D01*
X0529648Y0171709D01*
X0553667Y0166138D02*
X0562667Y0166138D01*
X0563667Y0165138D01*
X0564667Y0166138D01*
X0572667Y0166138D01*
X0573667Y0165138D01*
X0574667Y0166138D01*
X0582667Y0166138D01*
X0583667Y0165138D01*
X0584667Y0166138D01*
X0592667Y0166138D01*
X0593667Y0165138D01*
X0594667Y0166138D01*
X0603667Y0166138D01*
X0603667Y0156138D01*
X0594667Y0156138D01*
X0593667Y0157138D01*
X0592667Y0156138D01*
X0584667Y0156138D01*
X0583667Y0157138D01*
X0582667Y0156138D01*
X0574667Y0156138D01*
X0573667Y0157138D01*
X0572667Y0156138D01*
X0564667Y0156138D01*
X0563667Y0157138D01*
X0562667Y0156138D01*
X0553667Y0156138D01*
X0553667Y0166138D01*
X0577589Y0174634D02*
X0593589Y0174634D01*
X0593589Y0180634D01*
X0577589Y0180634D01*
X0577589Y0174634D01*
X0577589Y0184634D02*
X0593589Y0184634D01*
X0593589Y0190634D01*
X0577589Y0190634D01*
X0577589Y0184634D01*
X0577589Y0194634D02*
X0593589Y0194634D01*
X0593589Y0200634D01*
X0577589Y0200634D01*
X0577589Y0194634D01*
X0577589Y0204634D02*
X0593589Y0204634D01*
X0593589Y0210634D01*
X0577589Y0210634D01*
X0577589Y0204634D01*
X0577589Y0214634D02*
X0593589Y0214634D01*
X0593589Y0220634D01*
X0577589Y0220634D01*
X0577589Y0214634D01*
X0577589Y0224634D02*
X0593589Y0224634D01*
X0593589Y0230634D01*
X0577589Y0230634D01*
X0577589Y0224634D01*
X0577010Y0237681D02*
X0572010Y0237681D01*
X0569510Y0240181D01*
X0567010Y0237681D01*
X0562010Y0237681D01*
X0559510Y0240181D01*
X0557010Y0237681D01*
X0552010Y0237681D01*
X0549510Y0240181D01*
X0549510Y0245181D01*
X0552010Y0247681D01*
X0557010Y0247681D01*
X0559510Y0245181D01*
X0562010Y0247681D01*
X0567010Y0247681D01*
X0569510Y0245181D01*
X0572010Y0247681D01*
X0577010Y0247681D01*
X0579510Y0245181D01*
X0579510Y0240181D01*
X0577010Y0237681D01*
X0582974Y0239866D02*
X0585474Y0237366D01*
X0590474Y0237366D01*
X0592974Y0239866D01*
X0595474Y0237366D01*
X0600474Y0237366D01*
X0602974Y0239866D01*
X0605474Y0237366D01*
X0610474Y0237366D01*
X0612974Y0239866D01*
X0612974Y0244866D01*
X0610474Y0247366D01*
X0605474Y0247366D01*
X0602974Y0244866D01*
X0600474Y0247366D01*
X0595474Y0247366D01*
X0592974Y0244866D01*
X0590474Y0247366D01*
X0585474Y0247366D01*
X0582974Y0244866D01*
X0582974Y0239866D01*
X0585474Y0254453D02*
X0590474Y0254453D01*
X0592974Y0256953D01*
X0595474Y0254453D01*
X0600474Y0254453D01*
X0602974Y0256953D01*
X0605474Y0254453D01*
X0610474Y0254453D01*
X0612974Y0256953D01*
X0612974Y0261953D01*
X0610474Y0264453D01*
X0605474Y0264453D01*
X0602974Y0261953D01*
X0600474Y0264453D01*
X0595474Y0264453D01*
X0592974Y0261953D01*
X0590474Y0264453D01*
X0585474Y0264453D01*
X0582974Y0261953D01*
X0582974Y0256953D01*
X0585474Y0254453D01*
X0580297Y0256874D02*
X0580297Y0261874D01*
X0577797Y0264374D01*
X0572797Y0264374D01*
X0570297Y0261874D01*
X0567797Y0264374D01*
X0562797Y0264374D01*
X0560297Y0261874D01*
X0557797Y0264374D01*
X0552797Y0264374D01*
X0550297Y0261874D01*
X0550297Y0256874D01*
X0552797Y0254374D01*
X0557797Y0254374D01*
X0560297Y0256874D01*
X0562797Y0254374D01*
X0567797Y0254374D01*
X0570297Y0256874D01*
X0572797Y0254374D01*
X0577797Y0254374D01*
X0580297Y0256874D01*
X0585600Y0275835D02*
X0583100Y0278335D01*
X0583100Y0283335D01*
X0585600Y0285835D01*
X0590600Y0285835D01*
X0593100Y0283335D01*
X0595600Y0285835D01*
X0600600Y0285835D01*
X0603100Y0283335D01*
X0605600Y0285835D01*
X0610600Y0285835D01*
X0613100Y0283335D01*
X0613100Y0278335D01*
X0610600Y0275835D01*
X0605600Y0275835D01*
X0603100Y0278335D01*
X0600600Y0275835D01*
X0595600Y0275835D01*
X0593100Y0278335D01*
X0590600Y0275835D01*
X0585600Y0275835D01*
X0579211Y0281610D02*
X0578211Y0280610D01*
X0570211Y0280610D01*
X0569211Y0281610D01*
X0568211Y0280610D01*
X0560211Y0280610D01*
X0559211Y0281610D01*
X0558211Y0280610D01*
X0550211Y0280610D01*
X0549211Y0281610D01*
X0548211Y0280610D01*
X0539211Y0280610D01*
X0539211Y0290610D01*
X0548211Y0290610D01*
X0549211Y0289610D01*
X0550211Y0290610D01*
X0558211Y0290610D01*
X0559211Y0289610D01*
X0560211Y0290610D01*
X0568211Y0290610D01*
X0569211Y0289610D01*
X0570211Y0290610D01*
X0578211Y0290610D01*
X0579211Y0289610D01*
X0533738Y0289224D02*
X0532738Y0288224D01*
X0524738Y0288224D01*
X0523738Y0289224D01*
X0522738Y0288224D01*
X0514738Y0288224D01*
X0513738Y0289224D01*
X0512738Y0288224D01*
X0504738Y0288224D01*
X0503738Y0289224D01*
X0502738Y0288224D01*
X0493738Y0288224D01*
X0493738Y0298224D01*
X0502738Y0298224D01*
X0503738Y0297224D01*
X0504738Y0298224D01*
X0512738Y0298224D01*
X0513738Y0297224D01*
X0514738Y0298224D01*
X0522738Y0298224D01*
X0523738Y0297224D01*
X0524738Y0298224D01*
X0532738Y0298224D01*
X0533738Y0297224D01*
X0522203Y0255902D02*
X0513203Y0255902D01*
X0512203Y0254902D01*
X0511203Y0255902D01*
X0503203Y0255902D01*
X0502203Y0254902D01*
X0501203Y0255902D01*
X0493203Y0255902D01*
X0492203Y0254902D01*
X0491203Y0255902D01*
X0483203Y0255902D01*
X0482203Y0254902D01*
X0481203Y0255902D01*
X0473203Y0255902D01*
X0472203Y0254902D01*
X0471203Y0255902D01*
X0463203Y0255902D01*
X0462203Y0254902D01*
X0461203Y0255902D01*
X0453203Y0255902D01*
X0452203Y0254902D01*
X0451203Y0255902D01*
X0443203Y0255902D01*
X0442203Y0254902D01*
X0441203Y0255902D01*
X0432203Y0255902D01*
X0432203Y0245902D01*
X0441203Y0245902D01*
X0442203Y0246902D01*
X0443203Y0245902D01*
X0451203Y0245902D01*
X0452203Y0246902D01*
X0453203Y0245902D01*
X0461203Y0245902D01*
X0462203Y0246902D01*
X0463203Y0245902D01*
X0471203Y0245902D01*
X0472203Y0246902D01*
X0473203Y0245902D01*
X0481203Y0245902D01*
X0482203Y0246902D01*
X0483203Y0245902D01*
X0491203Y0245902D01*
X0492203Y0246902D01*
X0493203Y0245902D01*
X0501203Y0245902D01*
X0502203Y0246902D01*
X0503203Y0245902D01*
X0511203Y0245902D01*
X0512203Y0246902D01*
X0513203Y0245902D01*
X0522203Y0245902D01*
X0522203Y0255902D01*
X0525234Y0247043D02*
X0534234Y0247043D01*
X0535234Y0246043D01*
X0536234Y0247043D01*
X0544234Y0247043D01*
X0545234Y0246043D01*
X0545234Y0238043D02*
X0544234Y0237043D01*
X0536234Y0237043D01*
X0535234Y0238043D01*
X0534234Y0237043D01*
X0525234Y0237043D01*
X0525234Y0247043D01*
X0526589Y0235165D02*
X0539589Y0235165D01*
X0539676Y0235163D01*
X0539763Y0235157D01*
X0539850Y0235148D01*
X0539936Y0235135D01*
X0540022Y0235118D01*
X0540107Y0235097D01*
X0540190Y0235072D01*
X0540273Y0235044D01*
X0540354Y0235013D01*
X0540434Y0234978D01*
X0540512Y0234939D01*
X0540589Y0234897D01*
X0540664Y0234852D01*
X0540736Y0234803D01*
X0540807Y0234752D01*
X0540875Y0234697D01*
X0540940Y0234640D01*
X0541003Y0234579D01*
X0541064Y0234516D01*
X0541121Y0234451D01*
X0541176Y0234383D01*
X0541227Y0234312D01*
X0541276Y0234240D01*
X0541321Y0234165D01*
X0541363Y0234088D01*
X0541402Y0234010D01*
X0541437Y0233930D01*
X0541468Y0233849D01*
X0541496Y0233766D01*
X0541521Y0233683D01*
X0541542Y0233598D01*
X0541559Y0233512D01*
X0541572Y0233426D01*
X0541581Y0233339D01*
X0541587Y0233252D01*
X0541589Y0233165D01*
X0541589Y0228165D01*
X0541587Y0228078D01*
X0541581Y0227991D01*
X0541572Y0227904D01*
X0541559Y0227818D01*
X0541542Y0227732D01*
X0541521Y0227647D01*
X0541496Y0227564D01*
X0541468Y0227481D01*
X0541437Y0227400D01*
X0541402Y0227320D01*
X0541363Y0227242D01*
X0541321Y0227165D01*
X0541276Y0227090D01*
X0541227Y0227018D01*
X0541176Y0226947D01*
X0541121Y0226879D01*
X0541064Y0226814D01*
X0541003Y0226751D01*
X0540940Y0226690D01*
X0540875Y0226633D01*
X0540807Y0226578D01*
X0540736Y0226527D01*
X0540664Y0226478D01*
X0540589Y0226433D01*
X0540512Y0226391D01*
X0540434Y0226352D01*
X0540354Y0226317D01*
X0540273Y0226286D01*
X0540190Y0226258D01*
X0540107Y0226233D01*
X0540022Y0226212D01*
X0539936Y0226195D01*
X0539850Y0226182D01*
X0539763Y0226173D01*
X0539676Y0226167D01*
X0539589Y0226165D01*
X0526589Y0226165D01*
X0526502Y0226167D01*
X0526415Y0226173D01*
X0526328Y0226182D01*
X0526242Y0226195D01*
X0526156Y0226212D01*
X0526071Y0226233D01*
X0525988Y0226258D01*
X0525905Y0226286D01*
X0525824Y0226317D01*
X0525744Y0226352D01*
X0525666Y0226391D01*
X0525589Y0226433D01*
X0525514Y0226478D01*
X0525442Y0226527D01*
X0525371Y0226578D01*
X0525303Y0226633D01*
X0525238Y0226690D01*
X0525175Y0226751D01*
X0525114Y0226814D01*
X0525057Y0226879D01*
X0525002Y0226947D01*
X0524951Y0227018D01*
X0524902Y0227090D01*
X0524857Y0227165D01*
X0524815Y0227242D01*
X0524776Y0227320D01*
X0524741Y0227400D01*
X0524710Y0227481D01*
X0524682Y0227564D01*
X0524657Y0227647D01*
X0524636Y0227732D01*
X0524619Y0227818D01*
X0524606Y0227904D01*
X0524597Y0227991D01*
X0524591Y0228078D01*
X0524589Y0228165D01*
X0524589Y0233165D01*
X0524591Y0233252D01*
X0524597Y0233339D01*
X0524606Y0233426D01*
X0524619Y0233512D01*
X0524636Y0233598D01*
X0524657Y0233683D01*
X0524682Y0233766D01*
X0524710Y0233849D01*
X0524741Y0233930D01*
X0524776Y0234010D01*
X0524815Y0234088D01*
X0524857Y0234165D01*
X0524902Y0234240D01*
X0524951Y0234312D01*
X0525002Y0234383D01*
X0525057Y0234451D01*
X0525114Y0234516D01*
X0525175Y0234579D01*
X0525238Y0234640D01*
X0525303Y0234697D01*
X0525371Y0234752D01*
X0525442Y0234803D01*
X0525514Y0234852D01*
X0525589Y0234897D01*
X0525666Y0234939D01*
X0525744Y0234978D01*
X0525824Y0235013D01*
X0525905Y0235044D01*
X0525988Y0235072D01*
X0526071Y0235097D01*
X0526156Y0235118D01*
X0526242Y0235135D01*
X0526328Y0235148D01*
X0526415Y0235157D01*
X0526502Y0235163D01*
X0526589Y0235165D01*
X0633360Y0256394D02*
X0633362Y0256438D01*
X0633368Y0256481D01*
X0633377Y0256523D01*
X0633390Y0256565D01*
X0633407Y0256605D01*
X0633427Y0256644D01*
X0633450Y0256681D01*
X0633477Y0256715D01*
X0633506Y0256748D01*
X0633539Y0256777D01*
X0633573Y0256804D01*
X0633610Y0256827D01*
X0633649Y0256847D01*
X0633689Y0256864D01*
X0633731Y0256877D01*
X0633773Y0256886D01*
X0633816Y0256892D01*
X0633860Y0256894D01*
X0633904Y0256892D01*
X0633947Y0256886D01*
X0633989Y0256877D01*
X0634031Y0256864D01*
X0634071Y0256847D01*
X0634110Y0256827D01*
X0634147Y0256804D01*
X0634181Y0256777D01*
X0634214Y0256748D01*
X0634243Y0256715D01*
X0634270Y0256681D01*
X0634293Y0256644D01*
X0634313Y0256605D01*
X0634330Y0256565D01*
X0634343Y0256523D01*
X0634352Y0256481D01*
X0634358Y0256438D01*
X0634360Y0256394D01*
X0634358Y0256350D01*
X0634352Y0256307D01*
X0634343Y0256265D01*
X0634330Y0256223D01*
X0634313Y0256183D01*
X0634293Y0256144D01*
X0634270Y0256107D01*
X0634243Y0256073D01*
X0634214Y0256040D01*
X0634181Y0256011D01*
X0634147Y0255984D01*
X0634110Y0255961D01*
X0634071Y0255941D01*
X0634031Y0255924D01*
X0633989Y0255911D01*
X0633947Y0255902D01*
X0633904Y0255896D01*
X0633860Y0255894D01*
X0633816Y0255896D01*
X0633773Y0255902D01*
X0633731Y0255911D01*
X0633689Y0255924D01*
X0633649Y0255941D01*
X0633610Y0255961D01*
X0633573Y0255984D01*
X0633539Y0256011D01*
X0633506Y0256040D01*
X0633477Y0256073D01*
X0633450Y0256107D01*
X0633427Y0256144D01*
X0633407Y0256183D01*
X0633390Y0256223D01*
X0633377Y0256265D01*
X0633368Y0256307D01*
X0633362Y0256350D01*
X0633360Y0256394D01*
X0636360Y0260594D02*
X0636360Y0242194D01*
X0678360Y0242194D01*
X0678360Y0260594D01*
X0636360Y0260594D01*
X0635963Y0288224D02*
X0644963Y0288224D01*
X0645963Y0289224D01*
X0646963Y0288224D01*
X0654963Y0288224D01*
X0655963Y0289224D01*
X0656963Y0288224D01*
X0664963Y0288224D01*
X0665963Y0289224D01*
X0666963Y0288224D01*
X0674963Y0288224D01*
X0675963Y0289224D01*
X0675963Y0297224D02*
X0674963Y0298224D01*
X0666963Y0298224D01*
X0665963Y0297224D01*
X0664963Y0298224D01*
X0656963Y0298224D01*
X0655963Y0297224D01*
X0654963Y0298224D01*
X0646963Y0298224D01*
X0645963Y0297224D01*
X0644963Y0298224D01*
X0635963Y0298224D01*
X0635963Y0288224D01*
X0690077Y0289224D02*
X0691077Y0288224D01*
X0699077Y0288224D01*
X0700077Y0289224D01*
X0701077Y0288224D01*
X0710077Y0288224D01*
X0710077Y0298224D01*
X0701077Y0298224D01*
X0700077Y0297224D01*
X0699077Y0298224D01*
X0691077Y0298224D01*
X0690077Y0297224D01*
X0724526Y0270650D02*
X0725526Y0271650D01*
X0733526Y0271650D01*
X0734526Y0270650D01*
X0735526Y0271650D01*
X0744526Y0271650D01*
X0744526Y0261650D01*
X0735526Y0261650D01*
X0734526Y0262650D01*
X0733526Y0261650D01*
X0725526Y0261650D01*
X0724526Y0262650D01*
X0663344Y0217008D02*
X0662344Y0218008D01*
X0654344Y0218008D01*
X0653344Y0217008D01*
X0652344Y0218008D01*
X0643344Y0218008D01*
X0643344Y0208008D01*
X0652344Y0208008D01*
X0653344Y0209008D01*
X0654344Y0208008D01*
X0662344Y0208008D01*
X0663344Y0209008D01*
X0678852Y0182346D02*
X0636852Y0182346D01*
X0636852Y0163946D01*
X0678852Y0163946D01*
X0678852Y0182346D01*
X0634852Y0178146D02*
X0634850Y0178190D01*
X0634844Y0178233D01*
X0634835Y0178275D01*
X0634822Y0178317D01*
X0634805Y0178357D01*
X0634785Y0178396D01*
X0634762Y0178433D01*
X0634735Y0178467D01*
X0634706Y0178500D01*
X0634673Y0178529D01*
X0634639Y0178556D01*
X0634602Y0178579D01*
X0634563Y0178599D01*
X0634523Y0178616D01*
X0634481Y0178629D01*
X0634439Y0178638D01*
X0634396Y0178644D01*
X0634352Y0178646D01*
X0634308Y0178644D01*
X0634265Y0178638D01*
X0634223Y0178629D01*
X0634181Y0178616D01*
X0634141Y0178599D01*
X0634102Y0178579D01*
X0634065Y0178556D01*
X0634031Y0178529D01*
X0633998Y0178500D01*
X0633969Y0178467D01*
X0633942Y0178433D01*
X0633919Y0178396D01*
X0633899Y0178357D01*
X0633882Y0178317D01*
X0633869Y0178275D01*
X0633860Y0178233D01*
X0633854Y0178190D01*
X0633852Y0178146D01*
X0633854Y0178102D01*
X0633860Y0178059D01*
X0633869Y0178017D01*
X0633882Y0177975D01*
X0633899Y0177935D01*
X0633919Y0177896D01*
X0633942Y0177859D01*
X0633969Y0177825D01*
X0633998Y0177792D01*
X0634031Y0177763D01*
X0634065Y0177736D01*
X0634102Y0177713D01*
X0634141Y0177693D01*
X0634181Y0177676D01*
X0634223Y0177663D01*
X0634265Y0177654D01*
X0634308Y0177648D01*
X0634352Y0177646D01*
X0634396Y0177648D01*
X0634439Y0177654D01*
X0634481Y0177663D01*
X0634523Y0177676D01*
X0634563Y0177693D01*
X0634602Y0177713D01*
X0634639Y0177736D01*
X0634673Y0177763D01*
X0634706Y0177792D01*
X0634735Y0177825D01*
X0634762Y0177859D01*
X0634785Y0177896D01*
X0634805Y0177935D01*
X0634822Y0177975D01*
X0634835Y0178017D01*
X0634844Y0178059D01*
X0634850Y0178102D01*
X0634852Y0178146D01*
X0622163Y0180429D02*
X0622163Y0171429D01*
X0621163Y0170429D01*
X0622163Y0169429D01*
X0622163Y0161429D01*
X0621163Y0160429D01*
X0622163Y0159429D01*
X0622163Y0151429D01*
X0621163Y0150429D01*
X0622163Y0149429D01*
X0622163Y0141429D01*
X0621163Y0140429D01*
X0622163Y0139429D01*
X0622163Y0130429D01*
X0612163Y0130429D01*
X0612163Y0139429D01*
X0613163Y0140429D01*
X0612163Y0141429D01*
X0612163Y0149429D01*
X0613163Y0150429D01*
X0612163Y0151429D01*
X0612163Y0159429D01*
X0613163Y0160429D01*
X0612163Y0161429D01*
X0612163Y0169429D01*
X0613163Y0170429D01*
X0612163Y0171429D01*
X0612163Y0180429D01*
X0622163Y0180429D01*
X0602793Y0152555D02*
X0593793Y0152555D01*
X0592793Y0151555D01*
X0591793Y0152555D01*
X0583793Y0152555D01*
X0582793Y0151555D01*
X0581793Y0152555D01*
X0573793Y0152555D01*
X0572793Y0151555D01*
X0571793Y0152555D01*
X0563793Y0152555D01*
X0562793Y0151555D01*
X0561793Y0152555D01*
X0552793Y0152555D01*
X0552793Y0142555D01*
X0561793Y0142555D01*
X0562793Y0143555D01*
X0563793Y0142555D01*
X0571793Y0142555D01*
X0572793Y0143555D01*
X0573793Y0142555D01*
X0581793Y0142555D01*
X0582793Y0143555D01*
X0583793Y0142555D01*
X0591793Y0142555D01*
X0592793Y0143555D01*
X0593793Y0142555D01*
X0602793Y0142555D01*
X0602793Y0152555D01*
X0602793Y0140744D02*
X0593793Y0140744D01*
X0592793Y0139744D01*
X0591793Y0140744D01*
X0583793Y0140744D01*
X0582793Y0139744D01*
X0581793Y0140744D01*
X0573793Y0140744D01*
X0572793Y0139744D01*
X0571793Y0140744D01*
X0563793Y0140744D01*
X0562793Y0139744D01*
X0561793Y0140744D01*
X0552793Y0140744D01*
X0552793Y0130744D01*
X0561793Y0130744D01*
X0562793Y0131744D01*
X0563793Y0130744D01*
X0571793Y0130744D01*
X0572793Y0131744D01*
X0573793Y0130744D01*
X0581793Y0130744D01*
X0582793Y0131744D01*
X0583793Y0130744D01*
X0591793Y0130744D01*
X0592793Y0131744D01*
X0593793Y0130744D01*
X0602793Y0130744D01*
X0602793Y0140744D01*
X0635963Y0136807D02*
X0635963Y0126807D01*
X0644963Y0126807D01*
X0645963Y0127807D01*
X0646963Y0126807D01*
X0654963Y0126807D01*
X0655963Y0127807D01*
X0656963Y0126807D01*
X0664963Y0126807D01*
X0665963Y0127807D01*
X0666963Y0126807D01*
X0674963Y0126807D01*
X0675963Y0127807D01*
X0675963Y0135807D02*
X0674963Y0136807D01*
X0666963Y0136807D01*
X0665963Y0135807D01*
X0664963Y0136807D01*
X0656963Y0136807D01*
X0655963Y0135807D01*
X0654963Y0136807D01*
X0646963Y0136807D01*
X0645963Y0135807D01*
X0644963Y0136807D01*
X0635963Y0136807D01*
X0691081Y0136807D02*
X0691081Y0126807D01*
X0700081Y0126807D01*
X0701081Y0127807D01*
X0702081Y0126807D01*
X0710081Y0126807D01*
X0711081Y0127807D01*
X0711081Y0135807D02*
X0710081Y0136807D01*
X0702081Y0136807D01*
X0701081Y0135807D01*
X0700081Y0136807D01*
X0691081Y0136807D01*
X0724545Y0155843D02*
X0733545Y0155843D01*
X0734545Y0156843D01*
X0735545Y0155843D01*
X0743545Y0155843D01*
X0744545Y0156843D01*
X0744545Y0164843D02*
X0743545Y0165843D01*
X0735545Y0165843D01*
X0734545Y0164843D01*
X0733545Y0165843D01*
X0724545Y0165843D01*
X0724545Y0155843D01*
X0423069Y0288224D02*
X0423069Y0298224D01*
X0414069Y0298224D01*
X0413069Y0297224D01*
X0412069Y0298224D01*
X0404069Y0298224D01*
X0403069Y0297224D01*
X0402069Y0298224D01*
X0394069Y0298224D01*
X0393069Y0297224D01*
X0392069Y0298224D01*
X0384069Y0298224D01*
X0383069Y0297224D01*
X0382069Y0298224D01*
X0374069Y0298224D01*
X0373069Y0297224D01*
X0372069Y0298224D01*
X0364069Y0298224D01*
X0363069Y0297224D01*
X0362069Y0298224D01*
X0354069Y0298224D01*
X0353069Y0297224D01*
X0352069Y0298224D01*
X0344069Y0298224D01*
X0343069Y0297224D01*
X0342069Y0298224D01*
X0334069Y0298224D01*
X0333069Y0297224D01*
X0332069Y0298224D01*
X0323069Y0298224D01*
X0323069Y0288224D01*
X0332069Y0288224D01*
X0333069Y0289224D01*
X0334069Y0288224D01*
X0342069Y0288224D01*
X0343069Y0289224D01*
X0344069Y0288224D01*
X0352069Y0288224D01*
X0353069Y0289224D01*
X0354069Y0288224D01*
X0362069Y0288224D01*
X0363069Y0289224D01*
X0364069Y0288224D01*
X0372069Y0288224D01*
X0373069Y0289224D01*
X0374069Y0288224D01*
X0382069Y0288224D01*
X0383069Y0289224D01*
X0384069Y0288224D01*
X0392069Y0288224D01*
X0393069Y0289224D01*
X0394069Y0288224D01*
X0402069Y0288224D01*
X0403069Y0289224D01*
X0404069Y0288224D01*
X0412069Y0288224D01*
X0413069Y0289224D01*
X0414069Y0288224D01*
X0423069Y0288224D01*
X0372065Y0254917D02*
X0363065Y0254917D01*
X0362065Y0253917D01*
X0361065Y0254917D01*
X0353065Y0254917D01*
X0352065Y0253917D01*
X0351065Y0254917D01*
X0343065Y0254917D01*
X0342065Y0253917D01*
X0341065Y0254917D01*
X0333065Y0254917D01*
X0332065Y0253917D01*
X0331065Y0254917D01*
X0323065Y0254917D01*
X0322065Y0253917D01*
X0321065Y0254917D01*
X0312065Y0254917D01*
X0312065Y0244917D01*
X0321065Y0244917D01*
X0322065Y0245917D01*
X0323065Y0244917D01*
X0331065Y0244917D01*
X0332065Y0245917D01*
X0333065Y0244917D01*
X0341065Y0244917D01*
X0342065Y0245917D01*
X0343065Y0244917D01*
X0351065Y0244917D01*
X0352065Y0245917D01*
X0353065Y0244917D01*
X0361065Y0244917D01*
X0362065Y0245917D01*
X0363065Y0244917D01*
X0372065Y0244917D01*
X0372065Y0254917D01*
X0266467Y0254594D02*
X0266467Y0270594D01*
X0266465Y0270654D01*
X0266460Y0270715D01*
X0266451Y0270774D01*
X0266438Y0270833D01*
X0266422Y0270892D01*
X0266402Y0270949D01*
X0266379Y0271004D01*
X0266352Y0271059D01*
X0266323Y0271111D01*
X0266290Y0271162D01*
X0266254Y0271211D01*
X0266216Y0271257D01*
X0266174Y0271301D01*
X0266130Y0271343D01*
X0266084Y0271381D01*
X0266035Y0271417D01*
X0265984Y0271450D01*
X0265932Y0271479D01*
X0265877Y0271506D01*
X0265822Y0271529D01*
X0265765Y0271549D01*
X0265706Y0271565D01*
X0265647Y0271578D01*
X0265588Y0271587D01*
X0265527Y0271592D01*
X0265467Y0271594D01*
X0248467Y0271594D01*
X0248407Y0271592D01*
X0248346Y0271587D01*
X0248287Y0271578D01*
X0248228Y0271565D01*
X0248169Y0271549D01*
X0248112Y0271529D01*
X0248057Y0271506D01*
X0248002Y0271479D01*
X0247950Y0271450D01*
X0247899Y0271417D01*
X0247850Y0271381D01*
X0247804Y0271343D01*
X0247760Y0271301D01*
X0247718Y0271257D01*
X0247680Y0271211D01*
X0247644Y0271162D01*
X0247611Y0271111D01*
X0247582Y0271059D01*
X0247555Y0271004D01*
X0247532Y0270949D01*
X0247512Y0270892D01*
X0247496Y0270833D01*
X0247483Y0270774D01*
X0247474Y0270715D01*
X0247469Y0270654D01*
X0247467Y0270594D01*
X0247467Y0254594D01*
X0247469Y0254534D01*
X0247474Y0254473D01*
X0247483Y0254414D01*
X0247496Y0254355D01*
X0247512Y0254296D01*
X0247532Y0254239D01*
X0247555Y0254184D01*
X0247582Y0254129D01*
X0247611Y0254077D01*
X0247644Y0254026D01*
X0247680Y0253977D01*
X0247718Y0253931D01*
X0247760Y0253887D01*
X0247804Y0253845D01*
X0247850Y0253807D01*
X0247899Y0253771D01*
X0247950Y0253738D01*
X0248002Y0253709D01*
X0248057Y0253682D01*
X0248112Y0253659D01*
X0248169Y0253639D01*
X0248228Y0253623D01*
X0248287Y0253610D01*
X0248346Y0253601D01*
X0248407Y0253596D01*
X0248467Y0253594D01*
X0265467Y0253594D01*
X0265527Y0253596D01*
X0265588Y0253601D01*
X0265647Y0253610D01*
X0265706Y0253623D01*
X0265765Y0253639D01*
X0265822Y0253659D01*
X0265877Y0253682D01*
X0265932Y0253709D01*
X0265984Y0253738D01*
X0266035Y0253771D01*
X0266084Y0253807D01*
X0266130Y0253845D01*
X0266174Y0253887D01*
X0266216Y0253931D01*
X0266254Y0253977D01*
X0266290Y0254026D01*
X0266323Y0254077D01*
X0266352Y0254129D01*
X0266379Y0254184D01*
X0266402Y0254239D01*
X0266422Y0254296D01*
X0266438Y0254355D01*
X0266451Y0254414D01*
X0266460Y0254473D01*
X0266465Y0254534D01*
X0266467Y0254594D01*
X0265073Y0251634D02*
X0248073Y0251634D01*
X0248013Y0251632D01*
X0247952Y0251627D01*
X0247893Y0251618D01*
X0247834Y0251605D01*
X0247775Y0251589D01*
X0247718Y0251569D01*
X0247663Y0251546D01*
X0247608Y0251519D01*
X0247556Y0251490D01*
X0247505Y0251457D01*
X0247456Y0251421D01*
X0247410Y0251383D01*
X0247366Y0251341D01*
X0247324Y0251297D01*
X0247286Y0251251D01*
X0247250Y0251202D01*
X0247217Y0251151D01*
X0247188Y0251099D01*
X0247161Y0251044D01*
X0247138Y0250989D01*
X0247118Y0250932D01*
X0247102Y0250873D01*
X0247089Y0250814D01*
X0247080Y0250755D01*
X0247075Y0250694D01*
X0247073Y0250634D01*
X0247073Y0234634D01*
X0247075Y0234574D01*
X0247080Y0234513D01*
X0247089Y0234454D01*
X0247102Y0234395D01*
X0247118Y0234336D01*
X0247138Y0234279D01*
X0247161Y0234224D01*
X0247188Y0234169D01*
X0247217Y0234117D01*
X0247250Y0234066D01*
X0247286Y0234017D01*
X0247324Y0233971D01*
X0247366Y0233927D01*
X0247410Y0233885D01*
X0247456Y0233847D01*
X0247505Y0233811D01*
X0247556Y0233778D01*
X0247608Y0233749D01*
X0247663Y0233722D01*
X0247718Y0233699D01*
X0247775Y0233679D01*
X0247834Y0233663D01*
X0247893Y0233650D01*
X0247952Y0233641D01*
X0248013Y0233636D01*
X0248073Y0233634D01*
X0265073Y0233634D01*
X0265133Y0233636D01*
X0265194Y0233641D01*
X0265253Y0233650D01*
X0265312Y0233663D01*
X0265371Y0233679D01*
X0265428Y0233699D01*
X0265483Y0233722D01*
X0265538Y0233749D01*
X0265590Y0233778D01*
X0265641Y0233811D01*
X0265690Y0233847D01*
X0265736Y0233885D01*
X0265780Y0233927D01*
X0265822Y0233971D01*
X0265860Y0234017D01*
X0265896Y0234066D01*
X0265929Y0234117D01*
X0265958Y0234169D01*
X0265985Y0234224D01*
X0266008Y0234279D01*
X0266028Y0234336D01*
X0266044Y0234395D01*
X0266057Y0234454D01*
X0266066Y0234513D01*
X0266071Y0234574D01*
X0266073Y0234634D01*
X0266073Y0250634D01*
X0266071Y0250694D01*
X0266066Y0250755D01*
X0266057Y0250814D01*
X0266044Y0250873D01*
X0266028Y0250932D01*
X0266008Y0250989D01*
X0265985Y0251044D01*
X0265958Y0251099D01*
X0265929Y0251151D01*
X0265896Y0251202D01*
X0265860Y0251251D01*
X0265822Y0251297D01*
X0265780Y0251341D01*
X0265736Y0251383D01*
X0265690Y0251421D01*
X0265641Y0251457D01*
X0265590Y0251490D01*
X0265538Y0251519D01*
X0265483Y0251546D01*
X0265428Y0251569D01*
X0265371Y0251589D01*
X0265312Y0251605D01*
X0265253Y0251618D01*
X0265194Y0251627D01*
X0265133Y0251632D01*
X0265073Y0251634D01*
X0258073Y0242634D02*
X0257573Y0242634D01*
X0255573Y0242634D02*
X0255073Y0242634D01*
X0244793Y0233150D02*
X0243793Y0232150D01*
X0232293Y0231650D01*
X0220993Y0229941D02*
X0220993Y0271941D01*
X0202593Y0271941D01*
X0202593Y0229941D01*
X0220993Y0229941D01*
X0244793Y0233150D02*
X0244793Y0270150D01*
X0243793Y0271150D01*
X0232293Y0271650D01*
X0216793Y0273941D02*
X0216837Y0273943D01*
X0216880Y0273949D01*
X0216922Y0273958D01*
X0216964Y0273971D01*
X0217004Y0273988D01*
X0217043Y0274008D01*
X0217080Y0274031D01*
X0217114Y0274058D01*
X0217147Y0274087D01*
X0217176Y0274120D01*
X0217203Y0274154D01*
X0217226Y0274191D01*
X0217246Y0274230D01*
X0217263Y0274270D01*
X0217276Y0274312D01*
X0217285Y0274354D01*
X0217291Y0274397D01*
X0217293Y0274441D01*
X0217291Y0274485D01*
X0217285Y0274528D01*
X0217276Y0274570D01*
X0217263Y0274612D01*
X0217246Y0274652D01*
X0217226Y0274691D01*
X0217203Y0274728D01*
X0217176Y0274762D01*
X0217147Y0274795D01*
X0217114Y0274824D01*
X0217080Y0274851D01*
X0217043Y0274874D01*
X0217004Y0274894D01*
X0216964Y0274911D01*
X0216922Y0274924D01*
X0216880Y0274933D01*
X0216837Y0274939D01*
X0216793Y0274941D01*
X0216749Y0274939D01*
X0216706Y0274933D01*
X0216664Y0274924D01*
X0216622Y0274911D01*
X0216582Y0274894D01*
X0216543Y0274874D01*
X0216506Y0274851D01*
X0216472Y0274824D01*
X0216439Y0274795D01*
X0216410Y0274762D01*
X0216383Y0274728D01*
X0216360Y0274691D01*
X0216340Y0274652D01*
X0216323Y0274612D01*
X0216310Y0274570D01*
X0216301Y0274528D01*
X0216295Y0274485D01*
X0216293Y0274441D01*
X0216295Y0274397D01*
X0216301Y0274354D01*
X0216310Y0274312D01*
X0216323Y0274270D01*
X0216340Y0274230D01*
X0216360Y0274191D01*
X0216383Y0274154D01*
X0216410Y0274120D01*
X0216439Y0274087D01*
X0216472Y0274058D01*
X0216506Y0274031D01*
X0216543Y0274008D01*
X0216582Y0273988D01*
X0216622Y0273971D01*
X0216664Y0273958D01*
X0216706Y0273949D01*
X0216749Y0273943D01*
X0216793Y0273941D01*
X0191198Y0271862D02*
X0172798Y0271862D01*
X0172798Y0229862D01*
X0191198Y0229862D01*
X0191198Y0271862D01*
X0188557Y0287240D02*
X0187557Y0288240D01*
X0186557Y0287240D01*
X0178557Y0287240D01*
X0177557Y0288240D01*
X0176557Y0287240D01*
X0167557Y0287240D01*
X0167557Y0297240D01*
X0176557Y0297240D01*
X0177557Y0296240D01*
X0178557Y0297240D01*
X0186557Y0297240D01*
X0187557Y0296240D01*
X0188557Y0297240D01*
X0196557Y0297240D01*
X0197557Y0296240D01*
X0198557Y0297240D01*
X0206557Y0297240D01*
X0207557Y0296240D01*
X0208557Y0297240D01*
X0216557Y0297240D01*
X0217557Y0296240D01*
X0218557Y0297240D01*
X0226557Y0297240D01*
X0227557Y0296240D01*
X0228557Y0297240D01*
X0236557Y0297240D01*
X0237557Y0296240D01*
X0238557Y0297240D01*
X0246557Y0297240D01*
X0247557Y0296240D01*
X0248557Y0297240D01*
X0256557Y0297240D01*
X0257557Y0296240D01*
X0258557Y0297240D01*
X0267557Y0297240D01*
X0267557Y0287240D01*
X0258557Y0287240D01*
X0257557Y0288240D01*
X0256557Y0287240D01*
X0248557Y0287240D01*
X0247557Y0288240D01*
X0246557Y0287240D01*
X0238557Y0287240D01*
X0237557Y0288240D01*
X0236557Y0287240D01*
X0228557Y0287240D01*
X0227557Y0288240D01*
X0226557Y0287240D01*
X0218557Y0287240D01*
X0217557Y0288240D01*
X0216557Y0287240D01*
X0208557Y0287240D01*
X0207557Y0288240D01*
X0206557Y0287240D01*
X0198557Y0287240D01*
X0197557Y0288240D01*
X0196557Y0287240D01*
X0188557Y0287240D01*
X0255467Y0262594D02*
X0255967Y0262594D01*
X0257967Y0262594D02*
X0258467Y0262594D01*
X0176998Y0227862D02*
X0176954Y0227860D01*
X0176911Y0227854D01*
X0176869Y0227845D01*
X0176827Y0227832D01*
X0176787Y0227815D01*
X0176748Y0227795D01*
X0176711Y0227772D01*
X0176677Y0227745D01*
X0176644Y0227716D01*
X0176615Y0227683D01*
X0176588Y0227649D01*
X0176565Y0227612D01*
X0176545Y0227573D01*
X0176528Y0227533D01*
X0176515Y0227491D01*
X0176506Y0227449D01*
X0176500Y0227406D01*
X0176498Y0227362D01*
X0176500Y0227318D01*
X0176506Y0227275D01*
X0176515Y0227233D01*
X0176528Y0227191D01*
X0176545Y0227151D01*
X0176565Y0227112D01*
X0176588Y0227075D01*
X0176615Y0227041D01*
X0176644Y0227008D01*
X0176677Y0226979D01*
X0176711Y0226952D01*
X0176748Y0226929D01*
X0176787Y0226909D01*
X0176827Y0226892D01*
X0176869Y0226879D01*
X0176911Y0226870D01*
X0176954Y0226864D01*
X0176998Y0226862D01*
X0177042Y0226864D01*
X0177085Y0226870D01*
X0177127Y0226879D01*
X0177169Y0226892D01*
X0177209Y0226909D01*
X0177248Y0226929D01*
X0177285Y0226952D01*
X0177319Y0226979D01*
X0177352Y0227008D01*
X0177381Y0227041D01*
X0177408Y0227075D01*
X0177431Y0227112D01*
X0177451Y0227151D01*
X0177468Y0227191D01*
X0177481Y0227233D01*
X0177490Y0227275D01*
X0177496Y0227318D01*
X0177498Y0227362D01*
X0177496Y0227406D01*
X0177490Y0227449D01*
X0177481Y0227491D01*
X0177468Y0227533D01*
X0177451Y0227573D01*
X0177431Y0227612D01*
X0177408Y0227649D01*
X0177381Y0227683D01*
X0177352Y0227716D01*
X0177319Y0227745D01*
X0177285Y0227772D01*
X0177248Y0227795D01*
X0177209Y0227815D01*
X0177169Y0227832D01*
X0177127Y0227845D01*
X0177085Y0227854D01*
X0177042Y0227860D01*
X0176998Y0227862D01*
X0158915Y0210484D02*
X0153915Y0210484D01*
X0150415Y0206984D01*
X0150415Y0201984D01*
X0153915Y0198484D01*
X0158915Y0198484D01*
X0162415Y0201984D01*
X0162415Y0206984D01*
X0158915Y0210484D01*
X0134069Y0208165D02*
X0134069Y0203165D01*
X0130569Y0199665D01*
X0125569Y0199665D01*
X0122069Y0203165D01*
X0122069Y0208165D01*
X0125569Y0211665D01*
X0130569Y0211665D01*
X0134069Y0208165D01*
X0142616Y0195878D02*
X0147616Y0195878D01*
X0151116Y0192378D01*
X0151116Y0187378D01*
X0147616Y0183878D01*
X0142616Y0183878D01*
X0139116Y0187378D01*
X0139116Y0192378D01*
X0142616Y0195878D01*
X0131514Y0183516D02*
X0126514Y0183516D01*
X0123014Y0180016D01*
X0123014Y0175016D01*
X0126514Y0171516D01*
X0131514Y0171516D01*
X0135014Y0175016D01*
X0135014Y0180016D01*
X0131514Y0183516D01*
X0154510Y0179307D02*
X0154510Y0174307D01*
X0158010Y0170807D01*
X0163010Y0170807D01*
X0166510Y0174307D01*
X0166510Y0179307D01*
X0163010Y0182807D01*
X0158010Y0182807D01*
X0154510Y0179307D01*
X0217085Y0190043D02*
X0217129Y0190045D01*
X0217172Y0190051D01*
X0217214Y0190060D01*
X0217256Y0190073D01*
X0217296Y0190090D01*
X0217335Y0190110D01*
X0217372Y0190133D01*
X0217406Y0190160D01*
X0217439Y0190189D01*
X0217468Y0190222D01*
X0217495Y0190256D01*
X0217518Y0190293D01*
X0217538Y0190332D01*
X0217555Y0190372D01*
X0217568Y0190414D01*
X0217577Y0190456D01*
X0217583Y0190499D01*
X0217585Y0190543D01*
X0217583Y0190587D01*
X0217577Y0190630D01*
X0217568Y0190672D01*
X0217555Y0190714D01*
X0217538Y0190754D01*
X0217518Y0190793D01*
X0217495Y0190830D01*
X0217468Y0190864D01*
X0217439Y0190897D01*
X0217406Y0190926D01*
X0217372Y0190953D01*
X0217335Y0190976D01*
X0217296Y0190996D01*
X0217256Y0191013D01*
X0217214Y0191026D01*
X0217172Y0191035D01*
X0217129Y0191041D01*
X0217085Y0191043D01*
X0217041Y0191041D01*
X0216998Y0191035D01*
X0216956Y0191026D01*
X0216914Y0191013D01*
X0216874Y0190996D01*
X0216835Y0190976D01*
X0216798Y0190953D01*
X0216764Y0190926D01*
X0216731Y0190897D01*
X0216702Y0190864D01*
X0216675Y0190830D01*
X0216652Y0190793D01*
X0216632Y0190754D01*
X0216615Y0190714D01*
X0216602Y0190672D01*
X0216593Y0190630D01*
X0216587Y0190587D01*
X0216585Y0190543D01*
X0216587Y0190499D01*
X0216593Y0190456D01*
X0216602Y0190414D01*
X0216615Y0190372D01*
X0216632Y0190332D01*
X0216652Y0190293D01*
X0216675Y0190256D01*
X0216702Y0190222D01*
X0216731Y0190189D01*
X0216764Y0190160D01*
X0216798Y0190133D01*
X0216835Y0190110D01*
X0216874Y0190090D01*
X0216914Y0190073D01*
X0216956Y0190060D01*
X0216998Y0190051D01*
X0217041Y0190045D01*
X0217085Y0190043D01*
D14*
X0255967Y0174020D02*
X0255967Y0171020D01*
X0255967Y0168020D01*
X0257967Y0168020D02*
X0257967Y0171020D01*
X0257967Y0174020D01*
X0282100Y0172862D02*
X0282100Y0192862D01*
X0284600Y0192862D01*
X0289600Y0192862D01*
X0297100Y0192862D01*
X0297100Y0195362D01*
X0297100Y0199112D01*
X0297100Y0200362D01*
X0297100Y0202862D01*
X0297100Y0205362D01*
X0297100Y0207862D01*
X0297100Y0210362D01*
X0297100Y0212862D01*
X0297100Y0215362D01*
X0297100Y0216612D01*
X0297100Y0220362D01*
X0297100Y0222862D01*
X0289600Y0222862D01*
X0284600Y0222862D01*
X0282100Y0222862D01*
X0282100Y0242862D01*
X0522100Y0242862D01*
X0522100Y0172862D01*
X0282100Y0172862D01*
X0282100Y0192862D02*
X0277100Y0192862D01*
X0277100Y0222862D01*
X0282100Y0222862D01*
X0257573Y0239634D02*
X0257573Y0242634D01*
X0257573Y0245634D01*
X0255573Y0245634D02*
X0255573Y0242634D01*
X0255573Y0239634D01*
X0255967Y0259594D02*
X0255967Y0262594D01*
X0255967Y0265594D01*
X0257967Y0265594D02*
X0257967Y0262594D01*
X0257967Y0259594D01*
X0257967Y0152681D02*
X0257967Y0149681D01*
X0257967Y0146681D01*
X0255967Y0146681D02*
X0255967Y0149681D01*
X0255967Y0152681D01*
D15*
X0531789Y0227665D02*
X0531789Y0233665D01*
X0534289Y0233665D02*
X0534289Y0227665D01*
X0536848Y0177209D02*
X0536848Y0171209D01*
X0539348Y0171209D02*
X0539348Y0177209D01*
D16*
X0439912Y0277782D03*
X0242393Y0233950D03*
X0243181Y0142288D03*
D17*
X0230081Y0159988D03*
X0229293Y0251650D03*
D18*
X0231793Y0268900D03*
X0231793Y0234400D03*
X0232581Y0177238D03*
X0232581Y0142738D03*
D19*
X0232581Y0154988D03*
X0232581Y0164988D03*
X0231793Y0246650D03*
X0231793Y0256650D03*
D20*
X0590589Y0227634D03*
X0590589Y0217634D03*
X0590589Y0207634D03*
X0590589Y0197634D03*
X0590589Y0187634D03*
X0590589Y0177634D03*
D21*
X0584439Y0224601D02*
X0584439Y0227069D01*
X0584439Y0225835D02*
X0580735Y0225835D01*
X0581970Y0224601D01*
D22*
X0478112Y0276382D02*
X0478112Y0287882D01*
X0478112Y0276382D02*
X0477112Y0275382D01*
X0439112Y0275382D01*
X0438112Y0276382D01*
X0438112Y0287882D01*
D23*
X0440862Y0289882D03*
X0475362Y0289882D03*
D24*
X0468112Y0290882D03*
X0458112Y0290882D03*
X0448112Y0290882D03*
D25*
X0453112Y0289882D03*
X0463112Y0289882D03*
D26*
X0705164Y0231921D02*
X0705249Y0231710D01*
X0705329Y0231497D01*
X0705404Y0231282D01*
X0705473Y0231066D01*
X0705538Y0230848D01*
X0705597Y0230628D01*
X0705651Y0230407D01*
X0705700Y0230185D01*
X0705743Y0229961D01*
X0705781Y0229737D01*
X0705814Y0229512D01*
X0705841Y0229286D01*
X0705863Y0229059D01*
X0705879Y0228832D01*
X0705890Y0228605D01*
X0705895Y0228378D01*
X0705895Y0228150D01*
X0705890Y0227923D01*
X0705879Y0227696D01*
X0705863Y0227469D01*
X0705841Y0227242D01*
X0705814Y0227016D01*
X0705781Y0226791D01*
X0705743Y0226567D01*
X0705700Y0226343D01*
X0705651Y0226121D01*
X0705597Y0225900D01*
X0705538Y0225680D01*
X0705473Y0225462D01*
X0705404Y0225246D01*
X0705329Y0225031D01*
X0705249Y0224818D01*
X0705164Y0224607D01*
X0700053Y0237032D02*
X0699839Y0237118D01*
X0699622Y0237199D01*
X0699404Y0237275D01*
X0699183Y0237346D01*
X0698961Y0237411D01*
X0698738Y0237471D01*
X0698513Y0237525D01*
X0698287Y0237574D01*
X0698060Y0237617D01*
X0697832Y0237655D01*
X0697603Y0237687D01*
X0697373Y0237714D01*
X0697143Y0237735D01*
X0696912Y0237750D01*
X0696681Y0237760D01*
X0696450Y0237764D01*
X0696219Y0237762D01*
X0695988Y0237755D01*
X0695757Y0237742D01*
X0695526Y0237724D01*
X0695296Y0237700D01*
X0695067Y0237671D01*
X0694838Y0237635D01*
X0694611Y0237595D01*
X0694384Y0237549D01*
X0694159Y0237497D01*
X0693935Y0237440D01*
X0693712Y0237377D01*
X0693491Y0237309D01*
X0693272Y0237236D01*
X0693054Y0237157D01*
X0692839Y0237073D01*
X0692626Y0236984D01*
X0692415Y0236889D01*
X0692206Y0236790D01*
X0692000Y0236685D01*
X0691796Y0236576D01*
X0691595Y0236462D01*
X0691397Y0236342D01*
X0691202Y0236218D01*
X0691010Y0236089D01*
X0690821Y0235956D01*
X0690635Y0235818D01*
X0690453Y0235676D01*
X0690274Y0235529D01*
X0690099Y0235378D01*
X0689928Y0235222D01*
X0689761Y0235063D01*
X0689597Y0234899D01*
X0689438Y0234732D01*
X0689282Y0234561D01*
X0689131Y0234386D01*
X0688984Y0234207D01*
X0688842Y0234025D01*
X0688704Y0233839D01*
X0688571Y0233650D01*
X0688442Y0233458D01*
X0688318Y0233263D01*
X0688198Y0233065D01*
X0688084Y0232864D01*
X0687975Y0232660D01*
X0687870Y0232454D01*
X0687771Y0232245D01*
X0687676Y0232034D01*
X0687587Y0231821D01*
X0687503Y0231606D01*
X0687424Y0231388D01*
X0687351Y0231169D01*
X0687283Y0230948D01*
X0687220Y0230725D01*
X0687163Y0230501D01*
X0687111Y0230276D01*
X0687065Y0230049D01*
X0687025Y0229822D01*
X0686989Y0229593D01*
X0686960Y0229364D01*
X0686936Y0229134D01*
X0686918Y0228903D01*
X0686905Y0228672D01*
X0686898Y0228441D01*
X0686896Y0228210D01*
X0686900Y0227979D01*
X0686910Y0227748D01*
X0686925Y0227517D01*
X0686946Y0227287D01*
X0686973Y0227057D01*
X0687005Y0226828D01*
X0687043Y0226600D01*
X0687086Y0226373D01*
X0687135Y0226147D01*
X0687189Y0225922D01*
X0687249Y0225699D01*
X0687314Y0225477D01*
X0687385Y0225256D01*
X0687461Y0225038D01*
X0687542Y0224821D01*
X0687628Y0224607D01*
X0692739Y0219496D02*
X0692950Y0219411D01*
X0693163Y0219331D01*
X0693378Y0219256D01*
X0693594Y0219187D01*
X0693812Y0219122D01*
X0694032Y0219063D01*
X0694253Y0219009D01*
X0694475Y0218960D01*
X0694699Y0218917D01*
X0694923Y0218879D01*
X0695148Y0218846D01*
X0695374Y0218819D01*
X0695601Y0218797D01*
X0695828Y0218781D01*
X0696055Y0218770D01*
X0696282Y0218765D01*
X0696510Y0218765D01*
X0696737Y0218770D01*
X0696964Y0218781D01*
X0697191Y0218797D01*
X0697418Y0218819D01*
X0697644Y0218846D01*
X0697869Y0218879D01*
X0698093Y0218917D01*
X0698317Y0218960D01*
X0698539Y0219009D01*
X0698760Y0219063D01*
X0698980Y0219122D01*
X0699198Y0219187D01*
X0699414Y0219256D01*
X0699629Y0219331D01*
X0699842Y0219411D01*
X0700053Y0219496D01*
X0700053Y0203567D02*
X0699839Y0203653D01*
X0699622Y0203734D01*
X0699404Y0203810D01*
X0699183Y0203881D01*
X0698961Y0203946D01*
X0698738Y0204006D01*
X0698513Y0204060D01*
X0698287Y0204109D01*
X0698060Y0204152D01*
X0697832Y0204190D01*
X0697603Y0204222D01*
X0697373Y0204249D01*
X0697143Y0204270D01*
X0696912Y0204285D01*
X0696681Y0204295D01*
X0696450Y0204299D01*
X0696219Y0204297D01*
X0695988Y0204290D01*
X0695757Y0204277D01*
X0695526Y0204259D01*
X0695296Y0204235D01*
X0695067Y0204206D01*
X0694838Y0204170D01*
X0694611Y0204130D01*
X0694384Y0204084D01*
X0694159Y0204032D01*
X0693935Y0203975D01*
X0693712Y0203912D01*
X0693491Y0203844D01*
X0693272Y0203771D01*
X0693054Y0203692D01*
X0692839Y0203608D01*
X0692626Y0203519D01*
X0692415Y0203424D01*
X0692206Y0203325D01*
X0692000Y0203220D01*
X0691796Y0203111D01*
X0691595Y0202997D01*
X0691397Y0202877D01*
X0691202Y0202753D01*
X0691010Y0202624D01*
X0690821Y0202491D01*
X0690635Y0202353D01*
X0690453Y0202211D01*
X0690274Y0202064D01*
X0690099Y0201913D01*
X0689928Y0201757D01*
X0689761Y0201598D01*
X0689597Y0201434D01*
X0689438Y0201267D01*
X0689282Y0201096D01*
X0689131Y0200921D01*
X0688984Y0200742D01*
X0688842Y0200560D01*
X0688704Y0200374D01*
X0688571Y0200185D01*
X0688442Y0199993D01*
X0688318Y0199798D01*
X0688198Y0199600D01*
X0688084Y0199399D01*
X0687975Y0199195D01*
X0687870Y0198989D01*
X0687771Y0198780D01*
X0687676Y0198569D01*
X0687587Y0198356D01*
X0687503Y0198141D01*
X0687424Y0197923D01*
X0687351Y0197704D01*
X0687283Y0197483D01*
X0687220Y0197260D01*
X0687163Y0197036D01*
X0687111Y0196811D01*
X0687065Y0196584D01*
X0687025Y0196357D01*
X0686989Y0196128D01*
X0686960Y0195899D01*
X0686936Y0195669D01*
X0686918Y0195438D01*
X0686905Y0195207D01*
X0686898Y0194976D01*
X0686896Y0194745D01*
X0686900Y0194514D01*
X0686910Y0194283D01*
X0686925Y0194052D01*
X0686946Y0193822D01*
X0686973Y0193592D01*
X0687005Y0193363D01*
X0687043Y0193135D01*
X0687086Y0192908D01*
X0687135Y0192682D01*
X0687189Y0192457D01*
X0687249Y0192234D01*
X0687314Y0192012D01*
X0687385Y0191791D01*
X0687461Y0191573D01*
X0687542Y0191356D01*
X0687628Y0191142D01*
X0705164Y0191142D02*
X0705249Y0191353D01*
X0705329Y0191566D01*
X0705404Y0191781D01*
X0705473Y0191997D01*
X0705538Y0192215D01*
X0705597Y0192435D01*
X0705651Y0192656D01*
X0705700Y0192878D01*
X0705743Y0193102D01*
X0705781Y0193326D01*
X0705814Y0193551D01*
X0705841Y0193777D01*
X0705863Y0194004D01*
X0705879Y0194231D01*
X0705890Y0194458D01*
X0705895Y0194685D01*
X0705895Y0194913D01*
X0705890Y0195140D01*
X0705879Y0195367D01*
X0705863Y0195594D01*
X0705841Y0195821D01*
X0705814Y0196047D01*
X0705781Y0196272D01*
X0705743Y0196496D01*
X0705700Y0196720D01*
X0705651Y0196942D01*
X0705597Y0197163D01*
X0705538Y0197383D01*
X0705473Y0197601D01*
X0705404Y0197817D01*
X0705329Y0198032D01*
X0705249Y0198245D01*
X0705164Y0198456D01*
X0700053Y0186031D02*
X0699842Y0185946D01*
X0699629Y0185866D01*
X0699414Y0185791D01*
X0699198Y0185722D01*
X0698980Y0185657D01*
X0698760Y0185598D01*
X0698539Y0185544D01*
X0698317Y0185495D01*
X0698093Y0185452D01*
X0697869Y0185414D01*
X0697644Y0185381D01*
X0697418Y0185354D01*
X0697191Y0185332D01*
X0696964Y0185316D01*
X0696737Y0185305D01*
X0696510Y0185300D01*
X0696282Y0185300D01*
X0696055Y0185305D01*
X0695828Y0185316D01*
X0695601Y0185332D01*
X0695374Y0185354D01*
X0695148Y0185381D01*
X0694923Y0185414D01*
X0694699Y0185452D01*
X0694475Y0185495D01*
X0694253Y0185544D01*
X0694032Y0185598D01*
X0693812Y0185657D01*
X0693594Y0185722D01*
X0693378Y0185791D01*
X0693163Y0185866D01*
X0692950Y0185946D01*
X0692739Y0186031D01*
M02*
