G75*
%MOIN*%
%OFA0B0*%
%FSLAX25Y25*%
%IPPOS*%
%LPD*%
%AMOC8*
5,1,8,0,0,1.08239X$1,22.5*
%
%ADD10OC8,0.06000*%
%ADD11C,0.06800*%
%ADD12OC8,0.10800*%
%ADD13C,0.06600*%
%ADD14C,0.07550*%
%ADD15R,0.02900X0.07100*%
%ADD16C,0.07300*%
%ADD17C,0.06000*%
%ADD18R,0.16548X0.10643*%
%ADD19R,0.35800X0.07800*%
%ADD20R,0.06343X0.06343*%
%ADD21C,0.06343*%
%ADD22C,0.08200*%
%ADD23R,0.04737X0.05131*%
%ADD24R,0.07887X0.13398*%
%ADD25R,0.05524X0.03162*%
%ADD26C,0.04762*%
%ADD27R,0.04762X0.04762*%
%ADD28C,0.04369*%
D10*
X0251967Y0149681D03*
X0261967Y0149681D03*
X0261967Y0171020D03*
X0251967Y0171020D03*
X0251573Y0242634D03*
X0261573Y0242634D03*
X0261967Y0262594D03*
X0251967Y0262594D03*
X0528089Y0230665D03*
X0538089Y0230665D03*
X0533148Y0174209D03*
X0543148Y0174209D03*
X0691396Y0189799D03*
X0701396Y0189799D03*
X0701396Y0199799D03*
X0701396Y0223264D03*
X0691396Y0223264D03*
X0701396Y0233264D03*
D11*
X0607974Y0239366D02*
X0607974Y0245366D01*
X0597974Y0245366D02*
X0597974Y0239366D01*
X0587974Y0239366D02*
X0587974Y0245366D01*
X0574510Y0245681D02*
X0574510Y0239681D01*
X0564510Y0239681D02*
X0564510Y0245681D01*
X0554510Y0245681D02*
X0554510Y0239681D01*
X0555297Y0256374D02*
X0555297Y0262374D01*
X0565297Y0262374D02*
X0565297Y0256374D01*
X0575297Y0256374D02*
X0575297Y0262374D01*
X0587974Y0262453D02*
X0587974Y0256453D01*
X0597974Y0256453D02*
X0597974Y0262453D01*
X0607974Y0262453D02*
X0607974Y0256453D01*
X0608100Y0277835D02*
X0608100Y0283835D01*
X0598100Y0283835D02*
X0598100Y0277835D01*
X0588100Y0277835D02*
X0588100Y0283835D01*
X0468112Y0285382D02*
X0468112Y0279382D01*
X0458112Y0279382D02*
X0458112Y0285382D01*
X0448112Y0285382D02*
X0448112Y0279382D01*
X0240793Y0261650D02*
X0234793Y0261650D01*
X0234793Y0251650D02*
X0240793Y0251650D01*
X0240793Y0241650D02*
X0234793Y0241650D01*
X0235581Y0169988D02*
X0241581Y0169988D01*
X0241581Y0159988D02*
X0235581Y0159988D01*
X0235581Y0149988D02*
X0241581Y0149988D01*
D12*
X0160510Y0176807D03*
X0145116Y0189878D03*
X0129014Y0177516D03*
X0128069Y0205665D03*
X0156415Y0204484D03*
D13*
X0287100Y0177862D03*
X0297100Y0177862D03*
X0307100Y0177862D03*
X0317100Y0177862D03*
X0327100Y0177862D03*
X0337100Y0177862D03*
X0347100Y0177862D03*
X0357100Y0177862D03*
X0367100Y0177862D03*
X0377100Y0177862D03*
X0387100Y0177862D03*
X0397100Y0177862D03*
X0407100Y0177862D03*
X0417100Y0177862D03*
X0427100Y0177862D03*
X0437100Y0177862D03*
X0447100Y0177862D03*
X0457100Y0177862D03*
X0467100Y0177862D03*
X0477100Y0177862D03*
X0487100Y0177862D03*
X0497100Y0177862D03*
X0507100Y0177862D03*
X0517100Y0177862D03*
X0517100Y0237862D03*
X0507100Y0237862D03*
X0497100Y0237862D03*
X0487100Y0237862D03*
X0477100Y0237862D03*
X0467100Y0237862D03*
X0457100Y0237862D03*
X0447100Y0237862D03*
X0437100Y0237862D03*
X0427100Y0237862D03*
X0417100Y0237862D03*
X0407100Y0237862D03*
X0397100Y0237862D03*
X0387100Y0237862D03*
X0377100Y0237862D03*
X0367100Y0237862D03*
X0357100Y0237862D03*
X0347100Y0237862D03*
X0337100Y0237862D03*
X0327100Y0237862D03*
X0317100Y0237862D03*
X0307100Y0237862D03*
X0297100Y0237862D03*
X0287100Y0237862D03*
X0297100Y0227862D03*
X0317100Y0227862D03*
X0327100Y0227862D03*
X0337100Y0227862D03*
D14*
X0211793Y0240941D03*
X0211793Y0250941D03*
X0211793Y0260941D03*
X0181998Y0260862D03*
X0181998Y0250862D03*
X0181998Y0240862D03*
X0182675Y0176650D03*
X0182675Y0166650D03*
X0182675Y0156650D03*
X0212085Y0157043D03*
X0212085Y0167043D03*
X0212085Y0177043D03*
X0647852Y0173146D03*
X0657852Y0173146D03*
X0667852Y0173146D03*
X0667360Y0251394D03*
X0657360Y0251394D03*
X0647360Y0251394D03*
D15*
X0263955Y0221312D03*
X0258955Y0221312D03*
X0253955Y0221312D03*
X0248955Y0221312D03*
X0239545Y0221312D03*
X0234545Y0221312D03*
X0229545Y0221312D03*
X0224545Y0221312D03*
X0224545Y0200412D03*
X0229545Y0200412D03*
X0234545Y0200412D03*
X0239545Y0200412D03*
X0248955Y0200412D03*
X0253955Y0200412D03*
X0258955Y0200412D03*
X0263955Y0200412D03*
D16*
X0538435Y0192185D03*
X0538435Y0212185D03*
D17*
X0172557Y0133423D02*
X0172557Y0128223D01*
X0182557Y0128223D02*
X0182557Y0133423D01*
X0192557Y0133423D02*
X0192557Y0128223D01*
X0202557Y0128223D02*
X0202557Y0133423D01*
X0212557Y0133423D02*
X0212557Y0128223D01*
X0222557Y0128223D02*
X0222557Y0133423D01*
X0232557Y0133423D02*
X0232557Y0128223D01*
X0242557Y0128223D02*
X0242557Y0133423D01*
X0252557Y0133423D02*
X0252557Y0128223D01*
X0262557Y0128223D02*
X0262557Y0133423D01*
X0328069Y0134407D02*
X0328069Y0129207D01*
X0338069Y0129207D02*
X0338069Y0134407D01*
X0348069Y0134407D02*
X0348069Y0129207D01*
X0358069Y0129207D02*
X0358069Y0134407D01*
X0368069Y0134407D02*
X0368069Y0129207D01*
X0378069Y0129207D02*
X0378069Y0134407D01*
X0388069Y0134407D02*
X0388069Y0129207D01*
X0398069Y0129207D02*
X0398069Y0134407D01*
X0408069Y0134407D02*
X0408069Y0129207D01*
X0418069Y0129207D02*
X0418069Y0134407D01*
X0418935Y0156766D02*
X0418935Y0161966D01*
X0408935Y0161966D02*
X0408935Y0156766D01*
X0398935Y0156766D02*
X0398935Y0161966D01*
X0428935Y0161966D02*
X0428935Y0156766D01*
X0438935Y0156766D02*
X0438935Y0161966D01*
X0448935Y0161966D02*
X0448935Y0156766D01*
X0458935Y0156766D02*
X0458935Y0161966D01*
X0468935Y0161966D02*
X0468935Y0156766D01*
X0478935Y0156766D02*
X0478935Y0161966D01*
X0488935Y0161966D02*
X0488935Y0156766D01*
X0502872Y0158490D02*
X0502872Y0163690D01*
X0512872Y0163690D02*
X0512872Y0158490D01*
X0522872Y0158490D02*
X0522872Y0163690D01*
X0532872Y0163690D02*
X0532872Y0158490D01*
X0542872Y0158490D02*
X0542872Y0163690D01*
X0558667Y0163738D02*
X0558667Y0158538D01*
X0568667Y0158538D02*
X0568667Y0163738D01*
X0578667Y0163738D02*
X0578667Y0158538D01*
X0588667Y0158538D02*
X0588667Y0163738D01*
X0598667Y0163738D02*
X0598667Y0158538D01*
X0614563Y0155429D02*
X0619763Y0155429D01*
X0619763Y0145429D02*
X0614563Y0145429D01*
X0597793Y0144955D02*
X0597793Y0150155D01*
X0587793Y0150155D02*
X0587793Y0144955D01*
X0587793Y0138344D02*
X0587793Y0133144D01*
X0597793Y0133144D02*
X0597793Y0138344D01*
X0614563Y0135429D02*
X0619763Y0135429D01*
X0640963Y0134407D02*
X0640963Y0129207D01*
X0650963Y0129207D02*
X0650963Y0134407D01*
X0660963Y0134407D02*
X0660963Y0129207D01*
X0670963Y0129207D02*
X0670963Y0134407D01*
X0696081Y0134407D02*
X0696081Y0129207D01*
X0706081Y0129207D02*
X0706081Y0134407D01*
X0731514Y0158243D02*
X0731514Y0163443D01*
X0741514Y0163443D02*
X0741514Y0158243D01*
X0658344Y0210408D02*
X0658344Y0215608D01*
X0648344Y0215608D02*
X0648344Y0210408D01*
X0619763Y0175429D02*
X0614563Y0175429D01*
X0614563Y0165429D02*
X0619763Y0165429D01*
X0577793Y0150155D02*
X0577793Y0144955D01*
X0567793Y0144955D02*
X0567793Y0150155D01*
X0557793Y0150155D02*
X0557793Y0144955D01*
X0557793Y0138344D02*
X0557793Y0133144D01*
X0567793Y0133144D02*
X0567793Y0138344D01*
X0577793Y0138344D02*
X0577793Y0133144D01*
X0530938Y0134607D02*
X0530938Y0129407D01*
X0520938Y0129407D02*
X0520938Y0134607D01*
X0510938Y0134607D02*
X0510938Y0129407D01*
X0500938Y0129407D02*
X0500938Y0134607D01*
X0530234Y0239443D02*
X0530234Y0244643D01*
X0517203Y0248302D02*
X0517203Y0253502D01*
X0507203Y0253502D02*
X0507203Y0248302D01*
X0497203Y0248302D02*
X0497203Y0253502D01*
X0487203Y0253502D02*
X0487203Y0248302D01*
X0477203Y0248302D02*
X0477203Y0253502D01*
X0467203Y0253502D02*
X0467203Y0248302D01*
X0457203Y0248302D02*
X0457203Y0253502D01*
X0447203Y0253502D02*
X0447203Y0248302D01*
X0437203Y0248302D02*
X0437203Y0253502D01*
X0367065Y0252517D02*
X0367065Y0247317D01*
X0357065Y0247317D02*
X0357065Y0252517D01*
X0347065Y0252517D02*
X0347065Y0247317D01*
X0337065Y0247317D02*
X0337065Y0252517D01*
X0327065Y0252517D02*
X0327065Y0247317D01*
X0317065Y0247317D02*
X0317065Y0252517D01*
X0328069Y0290624D02*
X0328069Y0295824D01*
X0338069Y0295824D02*
X0338069Y0290624D01*
X0348069Y0290624D02*
X0348069Y0295824D01*
X0358069Y0295824D02*
X0358069Y0290624D01*
X0368069Y0290624D02*
X0368069Y0295824D01*
X0378069Y0295824D02*
X0378069Y0290624D01*
X0388069Y0290624D02*
X0388069Y0295824D01*
X0398069Y0295824D02*
X0398069Y0290624D01*
X0408069Y0290624D02*
X0408069Y0295824D01*
X0418069Y0295824D02*
X0418069Y0290624D01*
X0498738Y0290624D02*
X0498738Y0295824D01*
X0508738Y0295824D02*
X0508738Y0290624D01*
X0518738Y0290624D02*
X0518738Y0295824D01*
X0528738Y0295824D02*
X0528738Y0290624D01*
X0544211Y0288210D02*
X0544211Y0283010D01*
X0554211Y0283010D02*
X0554211Y0288210D01*
X0564211Y0288210D02*
X0564211Y0283010D01*
X0574211Y0283010D02*
X0574211Y0288210D01*
X0640963Y0290624D02*
X0640963Y0295824D01*
X0650963Y0295824D02*
X0650963Y0290624D01*
X0660963Y0290624D02*
X0660963Y0295824D01*
X0670963Y0295824D02*
X0670963Y0290624D01*
X0695077Y0290624D02*
X0695077Y0295824D01*
X0705077Y0295824D02*
X0705077Y0290624D01*
X0731494Y0269250D02*
X0731494Y0264050D01*
X0741494Y0264050D02*
X0741494Y0269250D01*
X0540234Y0244643D02*
X0540234Y0239443D01*
X0262557Y0289640D02*
X0262557Y0294840D01*
X0252557Y0294840D02*
X0252557Y0289640D01*
X0242557Y0289640D02*
X0242557Y0294840D01*
X0232557Y0294840D02*
X0232557Y0289640D01*
X0222557Y0289640D02*
X0222557Y0294840D01*
X0212557Y0294840D02*
X0212557Y0289640D01*
X0202557Y0289640D02*
X0202557Y0294840D01*
X0192557Y0294840D02*
X0192557Y0289640D01*
X0182557Y0289640D02*
X0182557Y0294840D01*
X0172557Y0294840D02*
X0172557Y0289640D01*
D18*
X0159156Y0148933D03*
X0127659Y0148933D03*
D19*
X0139439Y0222988D03*
X0139439Y0259602D03*
X0139439Y0296295D03*
D20*
X0647380Y0154858D03*
X0651317Y0280843D03*
D21*
X0681317Y0270843D03*
X0701317Y0280843D03*
X0697380Y0154858D03*
X0677380Y0144858D03*
D22*
X0673010Y0188402D03*
X0643010Y0188402D03*
X0642518Y0235154D03*
X0672518Y0235154D03*
D23*
X0600825Y0230232D03*
X0594132Y0230232D03*
X0569329Y0230232D03*
X0562636Y0230232D03*
X0192360Y0191846D03*
X0185667Y0191846D03*
X0145608Y0204642D03*
X0138915Y0204642D03*
D24*
G36*
X0156546Y0189392D02*
X0162123Y0194969D01*
X0171596Y0185496D01*
X0166019Y0179919D01*
X0156546Y0189392D01*
G37*
G36*
X0172136Y0204982D02*
X0177713Y0210559D01*
X0187186Y0201086D01*
X0181609Y0195509D01*
X0172136Y0204982D01*
G37*
D25*
X0131163Y0195587D03*
X0131163Y0191846D03*
X0131163Y0188106D03*
X0120880Y0188106D03*
X0120880Y0195587D03*
D26*
X0167360Y0214484D03*
X0191967Y0203657D03*
X0194919Y0214484D03*
X0216573Y0203657D03*
X0224447Y0206610D03*
X0233305Y0210547D03*
X0244132Y0221374D03*
X0258896Y0228264D03*
X0261848Y0214484D03*
X0252006Y0210055D03*
X0239211Y0193815D03*
X0234289Y0189878D03*
X0224447Y0182988D03*
X0201809Y0189878D03*
X0191967Y0174130D03*
X0214604Y0147555D03*
X0257419Y0163303D03*
X0256927Y0178559D03*
X0171297Y0227280D03*
X0192951Y0239091D03*
X0228384Y0233185D03*
X0143738Y0238106D03*
X0376163Y0246370D03*
X0415486Y0262457D03*
X0480726Y0229390D03*
X0487876Y0219559D03*
X0472683Y0216878D03*
X0494132Y0207047D03*
X0484301Y0202579D03*
X0484301Y0197217D03*
X0470896Y0193642D03*
X0468215Y0198110D03*
X0477152Y0186492D03*
X0473577Y0182917D03*
X0481620Y0172193D03*
X0457490Y0167724D03*
X0451234Y0148957D03*
X0461959Y0145382D03*
X0469108Y0147169D03*
X0477152Y0147169D03*
X0492238Y0135551D03*
X0538817Y0135551D03*
X0554904Y0178449D03*
X0562053Y0182024D03*
X0554904Y0187386D03*
X0562947Y0192748D03*
X0574565Y0184705D03*
X0580821Y0182024D03*
X0597801Y0182917D03*
X0574565Y0204366D03*
X0547754Y0220453D03*
X0559372Y0224921D03*
X0555797Y0229390D03*
X0534348Y0222240D03*
X0523624Y0237433D03*
X0503963Y0231177D03*
X0548648Y0247264D03*
X0612994Y0271394D03*
X0518262Y0204366D03*
X0526305Y0201685D03*
X0518262Y0199004D03*
X0511112Y0192748D03*
X0503069Y0199898D03*
X0539711Y0183811D03*
X0446766Y0211516D03*
X0436041Y0208835D03*
X0419955Y0209728D03*
X0417274Y0214197D03*
X0422636Y0224028D03*
X0381526Y0217772D03*
X0432467Y0199898D03*
X0416380Y0183811D03*
X0380632Y0169512D03*
D27*
X0228876Y0140665D03*
X0216573Y0140665D03*
X0189014Y0145094D03*
X0124545Y0168224D03*
X0137341Y0184465D03*
X0119624Y0199720D03*
X0124545Y0229740D03*
X0143246Y0279445D03*
X0379959Y0274524D03*
X0406533Y0274524D03*
X0417360Y0274524D03*
X0617163Y0194799D03*
X0611258Y0182988D03*
X0676219Y0161335D03*
D28*
X0264801Y0237122D03*
X0221986Y0172161D03*
X0171297Y0148539D03*
X0127990Y0160350D03*
M02*
