G75*
%MOIN*%
%OFA0B0*%
%FSLAX25Y25*%
%IPPOS*%
%LPD*%
%AMOC8*
5,1,8,0,0,1.08239X$1,22.5*
%
%ADD10R,0.07900X0.04300*%
%ADD11R,0.05000X0.02200*%
%ADD12R,0.02200X0.05000*%
%ADD13R,0.15748X0.09843*%
%ADD14R,0.06181X0.11102*%
%ADD15R,0.03150X0.04724*%
%ADD16R,0.04724X0.03150*%
%ADD17R,0.07087X0.12598*%
%ADD18R,0.05118X0.05906*%
%ADD19C,0.01181*%
%ADD20R,0.01969X0.12992*%
%ADD21R,0.01575X0.01969*%
%ADD22R,0.05118X0.12992*%
%ADD23R,0.03937X0.04331*%
%ADD24R,0.04331X0.03937*%
D10*
X0567889Y0177634D03*
X0567889Y0187634D03*
X0567889Y0197634D03*
X0567889Y0207634D03*
X0567889Y0217634D03*
X0567889Y0227634D03*
X0603289Y0227634D03*
X0603289Y0217634D03*
X0603289Y0207634D03*
X0603289Y0197634D03*
X0603289Y0187634D03*
X0603289Y0177634D03*
D11*
X0512323Y0197484D03*
X0512323Y0200634D03*
X0512323Y0203783D03*
X0512323Y0206933D03*
X0512323Y0210083D03*
X0512323Y0213232D03*
X0512323Y0216382D03*
X0512323Y0219531D03*
X0478523Y0219531D03*
X0478523Y0216382D03*
X0478523Y0213232D03*
X0478523Y0210083D03*
X0478523Y0206933D03*
X0478523Y0203783D03*
X0478523Y0200634D03*
X0478523Y0197484D03*
D12*
X0484400Y0191608D03*
X0487549Y0191608D03*
X0490699Y0191608D03*
X0493848Y0191608D03*
X0496998Y0191608D03*
X0500148Y0191608D03*
X0503297Y0191608D03*
X0506447Y0191608D03*
X0506447Y0225408D03*
X0503297Y0225408D03*
X0500148Y0225408D03*
X0496998Y0225408D03*
X0493848Y0225408D03*
X0490699Y0225408D03*
X0487549Y0225408D03*
X0484400Y0225408D03*
D13*
X0127463Y0148539D03*
X0158959Y0148539D03*
X0159518Y0238547D03*
X0128022Y0238547D03*
X0127659Y0279642D03*
X0159156Y0279642D03*
D14*
X0177746Y0216831D03*
X0216801Y0216831D03*
X0216801Y0192972D03*
X0177746Y0192972D03*
D15*
X0370321Y0213461D03*
X0377407Y0213461D03*
X0389833Y0213461D03*
X0396919Y0213461D03*
D16*
X0359329Y0216413D03*
X0348423Y0216665D03*
X0348423Y0209579D03*
X0359329Y0209327D03*
D17*
X0682419Y0250902D03*
X0704467Y0250902D03*
X0706927Y0173146D03*
X0684880Y0173146D03*
D18*
X0457026Y0270587D03*
X0449545Y0270587D03*
X0303974Y0266650D03*
X0296494Y0266650D03*
X0296494Y0276492D03*
X0303974Y0276492D03*
X0303974Y0285350D03*
X0296494Y0285350D03*
D19*
X0289317Y0286728D02*
X0289317Y0283972D01*
X0286561Y0283972D01*
X0286561Y0286728D01*
X0289317Y0286728D01*
X0289317Y0285152D02*
X0286561Y0285152D01*
X0286561Y0286332D02*
X0289317Y0286332D01*
X0282411Y0286728D02*
X0282411Y0283972D01*
X0279655Y0283972D01*
X0279655Y0286728D01*
X0282411Y0286728D01*
X0282411Y0285152D02*
X0279655Y0285152D01*
X0279655Y0286332D02*
X0282411Y0286332D01*
X0282411Y0277870D02*
X0282411Y0275114D01*
X0279655Y0275114D01*
X0279655Y0277870D01*
X0282411Y0277870D01*
X0282411Y0276294D02*
X0279655Y0276294D01*
X0279655Y0277474D02*
X0282411Y0277474D01*
X0289317Y0277870D02*
X0289317Y0275114D01*
X0286561Y0275114D01*
X0286561Y0277870D01*
X0289317Y0277870D01*
X0289317Y0276294D02*
X0286561Y0276294D01*
X0286561Y0277474D02*
X0289317Y0277474D01*
X0289317Y0268028D02*
X0289317Y0265272D01*
X0286561Y0265272D01*
X0286561Y0268028D01*
X0289317Y0268028D01*
X0289317Y0266452D02*
X0286561Y0266452D01*
X0286561Y0267632D02*
X0289317Y0267632D01*
X0282411Y0268028D02*
X0282411Y0265272D01*
X0279655Y0265272D01*
X0279655Y0268028D01*
X0282411Y0268028D01*
X0282411Y0266452D02*
X0279655Y0266452D01*
X0279655Y0267632D02*
X0282411Y0267632D01*
D20*
X0728876Y0288303D03*
X0740687Y0288303D03*
X0740687Y0138697D03*
X0728876Y0138697D03*
D21*
X0727498Y0138697D03*
X0742065Y0138697D03*
X0742065Y0288303D03*
X0727498Y0288303D03*
D22*
X0734781Y0288303D03*
X0734781Y0138697D03*
D23*
X0600825Y0269602D03*
X0594132Y0269602D03*
X0569329Y0269602D03*
X0562636Y0269602D03*
D24*
X0146100Y0213992D03*
X0139407Y0213992D03*
M02*
