G75*
%MOIN*%
%OFA0B0*%
%FSLAX25Y25*%
%IPPOS*%
%LPD*%
%AMOC8*
5,1,8,0,0,1.08239X$1,22.5*
%
%ADD10C,0.00000*%
%ADD11R,0.04331X0.03937*%
%ADD12C,0.06000*%
%ADD13OC8,0.10000*%
%ADD14R,0.07900X0.04300*%
%ADD15C,0.05800*%
%ADD16C,0.06750*%
%ADD17R,0.05000X0.02200*%
%ADD18R,0.02200X0.05000*%
%ADD19C,0.06500*%
%ADD20C,0.05200*%
%ADD21R,0.15748X0.09843*%
%ADD22R,0.06181X0.11102*%
%ADD23R,0.03150X0.04724*%
%ADD24R,0.04724X0.03150*%
%ADD25R,0.05543X0.05543*%
%ADD26C,0.05543*%
%ADD27R,0.07087X0.12598*%
%ADD28OC8,0.05200*%
%ADD29C,0.07400*%
%ADD30R,0.05118X0.05906*%
%ADD31C,0.01181*%
%ADD32R,0.01969X0.12992*%
%ADD33R,0.01575X0.01969*%
%ADD34R,0.05118X0.12992*%
%ADD35R,0.03937X0.04331*%
%ADD36C,0.00984*%
%ADD37C,0.01000*%
%ADD38C,0.03962*%
%ADD39C,0.02400*%
%ADD40C,0.01200*%
%ADD41C,0.01575*%
%ADD42R,0.03962X0.03962*%
%ADD43C,0.00600*%
%ADD44C,0.03100*%
%ADD45C,0.07874*%
%ADD46C,0.07600*%
%ADD47C,0.04750*%
%ADD48R,0.04750X0.04750*%
%ADD49C,0.03200*%
%ADD50C,0.01600*%
%ADD51R,0.03100X0.03100*%
D10*
X0115195Y0123933D02*
X0115195Y0302634D01*
X0784486Y0302634D01*
X1453778Y0302634D01*
X1453778Y0123933D01*
X0784486Y0123933D01*
X0115195Y0123933D01*
D11*
X0139407Y0213992D03*
X0146100Y0213992D03*
X0529742Y0230665D03*
X0536435Y0230665D03*
X0535401Y0174209D03*
X0542094Y0174209D03*
X0808699Y0213992D03*
X0815392Y0213992D03*
X1199033Y0230665D03*
X1205726Y0230665D03*
X1204693Y0174209D03*
X1211385Y0174209D03*
D12*
X1191363Y0163490D02*
X1191363Y0157490D01*
X1181363Y0157490D02*
X1181363Y0163490D01*
X1171363Y0163490D02*
X1171363Y0157490D01*
X1241285Y0149955D02*
X1241285Y0143955D01*
X1246085Y0138744D02*
X1246085Y0132744D01*
X1256085Y0132744D02*
X1256085Y0138744D01*
X1251285Y0143955D02*
X1251285Y0149955D01*
X1261285Y0149955D02*
X1261285Y0143955D01*
X1266085Y0138744D02*
X1266085Y0132744D01*
X0910872Y0149988D02*
X0904872Y0149988D01*
X0904872Y0159988D02*
X0910872Y0159988D01*
X0910872Y0169988D02*
X0904872Y0169988D01*
X0904085Y0241650D02*
X0910085Y0241650D01*
X0910085Y0251650D02*
X0904085Y0251650D01*
X0904085Y0261650D02*
X0910085Y0261650D01*
X1117404Y0279382D02*
X1117404Y0285382D01*
X1127404Y0285382D02*
X1127404Y0279382D01*
X1137404Y0279382D02*
X1137404Y0285382D01*
X1224589Y0262374D02*
X1224589Y0256374D01*
X1234589Y0256374D02*
X1234589Y0262374D01*
X1244589Y0262374D02*
X1244589Y0256374D01*
X1257266Y0256453D02*
X1257266Y0262453D01*
X1267266Y0262453D02*
X1267266Y0256453D01*
X1277266Y0256453D02*
X1277266Y0262453D01*
X1277392Y0277835D02*
X1277392Y0283835D01*
X1267392Y0283835D02*
X1267392Y0277835D01*
X1257392Y0277835D02*
X1257392Y0283835D01*
X1257266Y0245366D02*
X1257266Y0239366D01*
X1267266Y0239366D02*
X1267266Y0245366D01*
X1277266Y0245366D02*
X1277266Y0239366D01*
X1243801Y0239681D02*
X1243801Y0245681D01*
X1233801Y0245681D02*
X1233801Y0239681D01*
X1223801Y0239681D02*
X1223801Y0245681D01*
X0607974Y0245366D02*
X0607974Y0239366D01*
X0597974Y0239366D02*
X0597974Y0245366D01*
X0587974Y0245366D02*
X0587974Y0239366D01*
X0574510Y0239681D02*
X0574510Y0245681D01*
X0564510Y0245681D02*
X0564510Y0239681D01*
X0554510Y0239681D02*
X0554510Y0245681D01*
X0555297Y0256374D02*
X0555297Y0262374D01*
X0565297Y0262374D02*
X0565297Y0256374D01*
X0575297Y0256374D02*
X0575297Y0262374D01*
X0587974Y0262453D02*
X0587974Y0256453D01*
X0597974Y0256453D02*
X0597974Y0262453D01*
X0607974Y0262453D02*
X0607974Y0256453D01*
X0608100Y0277835D02*
X0608100Y0283835D01*
X0598100Y0283835D02*
X0598100Y0277835D01*
X0588100Y0277835D02*
X0588100Y0283835D01*
X0468112Y0285382D02*
X0468112Y0279382D01*
X0458112Y0279382D02*
X0458112Y0285382D01*
X0448112Y0285382D02*
X0448112Y0279382D01*
X0240793Y0261650D02*
X0234793Y0261650D01*
X0234793Y0251650D02*
X0240793Y0251650D01*
X0240793Y0241650D02*
X0234793Y0241650D01*
X0235581Y0169988D02*
X0241581Y0169988D01*
X0241581Y0159988D02*
X0235581Y0159988D01*
X0235581Y0149988D02*
X0241581Y0149988D01*
X0502072Y0157490D02*
X0502072Y0163490D01*
X0512072Y0163490D02*
X0512072Y0157490D01*
X0522072Y0157490D02*
X0522072Y0163490D01*
X0571993Y0149955D02*
X0571993Y0143955D01*
X0576793Y0138744D02*
X0576793Y0132744D01*
X0586793Y0132744D02*
X0586793Y0138744D01*
X0581993Y0143955D02*
X0581993Y0149955D01*
X0591993Y0149955D02*
X0591993Y0143955D01*
X0596793Y0138744D02*
X0596793Y0132744D01*
D13*
X0798305Y0177516D03*
X0814407Y0189878D03*
X0829801Y0176807D03*
X0825707Y0204484D03*
X0797360Y0205665D03*
X0160510Y0176807D03*
X0145116Y0189878D03*
X0129014Y0177516D03*
X0128069Y0205665D03*
X0156415Y0204484D03*
D14*
X0567889Y0207634D03*
X0567889Y0217634D03*
X0603289Y0217634D03*
X0603289Y0207634D03*
X0603289Y0197634D03*
X0567889Y0197634D03*
X0567889Y0187634D03*
X0603289Y0187634D03*
X0603289Y0177634D03*
X0567889Y0177634D03*
X0567889Y0227634D03*
X0603289Y0227634D03*
X1237180Y0227634D03*
X1272580Y0227634D03*
X1272580Y0217634D03*
X1272580Y0207634D03*
X1237180Y0207634D03*
X1237180Y0217634D03*
X1237180Y0197634D03*
X1272580Y0197634D03*
X1272580Y0187634D03*
X1237180Y0187634D03*
X1237180Y0177634D03*
X1272580Y0177634D03*
D15*
X1176392Y0177862D03*
X1166392Y0177862D03*
X1156392Y0177862D03*
X1146392Y0177862D03*
X1136392Y0177862D03*
X1126392Y0177862D03*
X1116392Y0177862D03*
X1106392Y0177862D03*
X1086392Y0177862D03*
X1076392Y0177862D03*
X1066392Y0177862D03*
X1056392Y0177862D03*
X1046392Y0177862D03*
X1036392Y0177862D03*
X1026392Y0177862D03*
X1016392Y0177862D03*
X1006392Y0177862D03*
X0996392Y0177862D03*
X0986392Y0177862D03*
X0976392Y0177862D03*
X0956392Y0177862D03*
X0966392Y0227862D03*
X0966392Y0237862D03*
X0976392Y0237862D03*
X0986392Y0237862D03*
X0996392Y0237862D03*
X1006392Y0237862D03*
X1016392Y0237862D03*
X1026392Y0237862D03*
X1036392Y0237862D03*
X1046392Y0237862D03*
X1056392Y0237862D03*
X1066392Y0237862D03*
X1076392Y0237862D03*
X1086392Y0237862D03*
X1096392Y0237862D03*
X0956392Y0237862D03*
X0507100Y0177862D03*
X0497100Y0177862D03*
X0487100Y0177862D03*
X0477100Y0177862D03*
X0467100Y0177862D03*
X0457100Y0177862D03*
X0447100Y0177862D03*
X0437100Y0177862D03*
X0417100Y0177862D03*
X0407100Y0177862D03*
X0397100Y0177862D03*
X0387100Y0177862D03*
X0377100Y0177862D03*
X0367100Y0177862D03*
X0357100Y0177862D03*
X0347100Y0177862D03*
X0337100Y0177862D03*
X0327100Y0177862D03*
X0317100Y0177862D03*
X0307100Y0177862D03*
X0287100Y0177862D03*
X0297100Y0227862D03*
X0297100Y0237862D03*
X0287100Y0237862D03*
X0307100Y0237862D03*
X0317100Y0237862D03*
X0327100Y0237862D03*
X0337100Y0237862D03*
X0347100Y0237862D03*
X0357100Y0237862D03*
X0367100Y0237862D03*
X0377100Y0237862D03*
X0387100Y0237862D03*
X0397100Y0237862D03*
X0407100Y0237862D03*
X0417100Y0237862D03*
X0427100Y0237862D03*
D16*
X0211793Y0240941D03*
X0181998Y0240862D03*
X0181998Y0250862D03*
X0211793Y0250941D03*
X0211793Y0260941D03*
X0181998Y0260862D03*
X0182675Y0176650D03*
X0212085Y0177043D03*
X0212085Y0167043D03*
X0182675Y0166650D03*
X0182675Y0156650D03*
X0212085Y0157043D03*
X0647852Y0173146D03*
X0657852Y0173146D03*
X0667852Y0173146D03*
X0851967Y0176650D03*
X0881376Y0177043D03*
X0881376Y0167043D03*
X0851967Y0166650D03*
X0851967Y0156650D03*
X0881376Y0157043D03*
X0881085Y0240941D03*
X0851289Y0240862D03*
X0851289Y0250862D03*
X0881085Y0250941D03*
X0881085Y0260941D03*
X0851289Y0260862D03*
X0667360Y0251394D03*
X0657360Y0251394D03*
X0647360Y0251394D03*
X1316652Y0251394D03*
X1326652Y0251394D03*
X1336652Y0251394D03*
X1337144Y0173146D03*
X1327144Y0173146D03*
X1317144Y0173146D03*
D17*
X1181615Y0197484D03*
X1181615Y0200634D03*
X1181615Y0203783D03*
X1181615Y0206933D03*
X1181615Y0210083D03*
X1181615Y0213232D03*
X1181615Y0216382D03*
X1181615Y0219531D03*
X1147815Y0219531D03*
X1147815Y0216382D03*
X1147815Y0213232D03*
X1147815Y0210083D03*
X1147815Y0206933D03*
X1147815Y0203783D03*
X1147815Y0200634D03*
X1147815Y0197484D03*
X0512323Y0197484D03*
X0512323Y0200634D03*
X0512323Y0203783D03*
X0512323Y0206933D03*
X0512323Y0210083D03*
X0512323Y0213232D03*
X0512323Y0216382D03*
X0512323Y0219531D03*
X0478523Y0219531D03*
X0478523Y0216382D03*
X0478523Y0213232D03*
X0478523Y0210083D03*
X0478523Y0206933D03*
X0478523Y0203783D03*
X0478523Y0200634D03*
X0478523Y0197484D03*
D18*
X0484400Y0191608D03*
X0487549Y0191608D03*
X0490699Y0191608D03*
X0493848Y0191608D03*
X0496998Y0191608D03*
X0500148Y0191608D03*
X0503297Y0191608D03*
X0506447Y0191608D03*
X0506447Y0225408D03*
X0503297Y0225408D03*
X0500148Y0225408D03*
X0496998Y0225408D03*
X0493848Y0225408D03*
X0490699Y0225408D03*
X0487549Y0225408D03*
X0484400Y0225408D03*
X1153691Y0225408D03*
X1156841Y0225408D03*
X1159990Y0225408D03*
X1163140Y0225408D03*
X1166289Y0225408D03*
X1169439Y0225408D03*
X1172589Y0225408D03*
X1175738Y0225408D03*
X1175738Y0191608D03*
X1172589Y0191608D03*
X1169439Y0191608D03*
X1166289Y0191608D03*
X1163140Y0191608D03*
X1159990Y0191608D03*
X1156841Y0191608D03*
X1153691Y0191608D03*
D19*
X1207726Y0192185D03*
X1207726Y0212185D03*
X0538435Y0212185D03*
X0538435Y0192185D03*
D20*
X0614563Y0165429D02*
X0619763Y0165429D01*
X0598667Y0163738D02*
X0598667Y0158538D01*
X0588667Y0158538D02*
X0588667Y0163738D01*
X0578667Y0163738D02*
X0578667Y0158538D01*
X0568667Y0158538D02*
X0568667Y0163738D01*
X0558667Y0163738D02*
X0558667Y0158538D01*
X0614563Y0155429D02*
X0619763Y0155429D01*
X0619763Y0145429D02*
X0614563Y0145429D01*
X0614563Y0135429D02*
X0619763Y0135429D01*
X0640963Y0134407D02*
X0640963Y0129207D01*
X0650963Y0129207D02*
X0650963Y0134407D01*
X0660963Y0134407D02*
X0660963Y0129207D01*
X0670963Y0129207D02*
X0670963Y0134407D01*
X0696081Y0134407D02*
X0696081Y0129207D01*
X0706081Y0129207D02*
X0706081Y0134407D01*
X0841886Y0134433D02*
X0841886Y0129233D01*
X0851886Y0129233D02*
X0851886Y0134433D01*
X0861886Y0134433D02*
X0861886Y0129233D01*
X0871886Y0129233D02*
X0871886Y0134433D01*
X0881886Y0134433D02*
X0881886Y0129233D01*
X0997427Y0129093D02*
X0997427Y0134293D01*
X1007427Y0134293D02*
X1007427Y0129093D01*
X1017427Y0129093D02*
X1017427Y0134293D01*
X1027427Y0134293D02*
X1027427Y0129093D01*
X1037427Y0129093D02*
X1037427Y0134293D01*
X1068176Y0156566D02*
X1068176Y0161766D01*
X1078176Y0161766D02*
X1078176Y0156566D01*
X1088176Y0156566D02*
X1088176Y0161766D01*
X1098176Y0161766D02*
X1098176Y0156566D01*
X1108176Y0156566D02*
X1108176Y0161766D01*
X1118176Y0161766D02*
X1118176Y0156566D01*
X1128176Y0156566D02*
X1128176Y0161766D01*
X1138176Y0161766D02*
X1138176Y0156566D01*
X1148176Y0156566D02*
X1148176Y0161766D01*
X1158176Y0161766D02*
X1158176Y0156566D01*
X1227959Y0158538D02*
X1227959Y0163738D01*
X1237959Y0163738D02*
X1237959Y0158538D01*
X1247959Y0158538D02*
X1247959Y0163738D01*
X1257959Y0163738D02*
X1257959Y0158538D01*
X1267959Y0158538D02*
X1267959Y0163738D01*
X1283855Y0165429D02*
X1289055Y0165429D01*
X1289055Y0155429D02*
X1283855Y0155429D01*
X1283855Y0145429D02*
X1289055Y0145429D01*
X1289055Y0135429D02*
X1283855Y0135429D01*
X1310254Y0134407D02*
X1310254Y0129207D01*
X1320254Y0129207D02*
X1320254Y0134407D01*
X1330254Y0134407D02*
X1330254Y0129207D01*
X1340254Y0129207D02*
X1340254Y0134407D01*
X1365372Y0134407D02*
X1365372Y0129207D01*
X1375372Y0129207D02*
X1375372Y0134407D01*
X1200230Y0134607D02*
X1200230Y0129407D01*
X1190230Y0129407D02*
X1190230Y0134607D01*
X1180230Y0134607D02*
X1180230Y0129407D01*
X1170230Y0129407D02*
X1170230Y0134607D01*
X1414585Y0189739D02*
X1414585Y0194939D01*
X1424585Y0194939D02*
X1424585Y0189739D01*
X1327636Y0210408D02*
X1327636Y0215608D01*
X1317636Y0215608D02*
X1317636Y0210408D01*
X1415729Y0232683D02*
X1415729Y0237883D01*
X1425729Y0237883D02*
X1425729Y0232683D01*
X1243502Y0283010D02*
X1243502Y0288210D01*
X1233502Y0288210D02*
X1233502Y0283010D01*
X1223502Y0283010D02*
X1223502Y0288210D01*
X1213502Y0288210D02*
X1213502Y0283010D01*
X1198030Y0290624D02*
X1198030Y0295824D01*
X1188030Y0295824D02*
X1188030Y0290624D01*
X1178030Y0290624D02*
X1178030Y0295824D01*
X1168030Y0295824D02*
X1168030Y0290624D01*
X1087360Y0290624D02*
X1087360Y0295824D01*
X1077360Y0295824D02*
X1077360Y0290624D01*
X1067360Y0290624D02*
X1067360Y0295824D01*
X1057360Y0295824D02*
X1057360Y0290624D01*
X1047360Y0290624D02*
X1047360Y0295824D01*
X1037360Y0295824D02*
X1037360Y0290624D01*
X1027360Y0290624D02*
X1027360Y0295824D01*
X1017360Y0295824D02*
X1017360Y0290624D01*
X1007360Y0290624D02*
X1007360Y0295824D01*
X0997360Y0295824D02*
X0997360Y0290624D01*
X0931886Y0290333D02*
X0931886Y0295533D01*
X0921886Y0295533D02*
X0921886Y0290333D01*
X0911886Y0290333D02*
X0911886Y0295533D01*
X0901886Y0295533D02*
X0901886Y0290333D01*
X0891886Y0290333D02*
X0891886Y0295533D01*
X0881886Y0295533D02*
X0881886Y0290333D01*
X0871886Y0290333D02*
X0871886Y0295533D01*
X0861886Y0295533D02*
X0861886Y0290333D01*
X0986356Y0252517D02*
X0986356Y0247317D01*
X0996356Y0247317D02*
X0996356Y0252517D01*
X1006356Y0252517D02*
X1006356Y0247317D01*
X1016356Y0247317D02*
X1016356Y0252517D01*
X1026356Y0252517D02*
X1026356Y0247317D01*
X1036356Y0247317D02*
X1036356Y0252517D01*
X1199526Y0244643D02*
X1199526Y0239443D01*
X1209526Y0239443D02*
X1209526Y0244643D01*
X1310254Y0290624D02*
X1310254Y0295824D01*
X1320254Y0295824D02*
X1320254Y0290624D01*
X1330254Y0290624D02*
X1330254Y0295824D01*
X1340254Y0295824D02*
X1340254Y0290624D01*
X1364368Y0290624D02*
X1364368Y0295824D01*
X1374368Y0295824D02*
X1374368Y0290624D01*
X0756437Y0237883D02*
X0756437Y0232683D01*
X0746437Y0232683D02*
X0746437Y0237883D01*
X0658344Y0215608D02*
X0658344Y0210408D01*
X0648344Y0210408D02*
X0648344Y0215608D01*
X0745293Y0194939D02*
X0745293Y0189739D01*
X0755293Y0189739D02*
X0755293Y0194939D01*
X0540234Y0239443D02*
X0540234Y0244643D01*
X0530234Y0244643D02*
X0530234Y0239443D01*
X0367065Y0247317D02*
X0367065Y0252517D01*
X0357065Y0252517D02*
X0357065Y0247317D01*
X0347065Y0247317D02*
X0347065Y0252517D01*
X0337065Y0252517D02*
X0337065Y0247317D01*
X0327065Y0247317D02*
X0327065Y0252517D01*
X0317065Y0252517D02*
X0317065Y0247317D01*
X0328069Y0290624D02*
X0328069Y0295824D01*
X0338069Y0295824D02*
X0338069Y0290624D01*
X0348069Y0290624D02*
X0348069Y0295824D01*
X0358069Y0295824D02*
X0358069Y0290624D01*
X0368069Y0290624D02*
X0368069Y0295824D01*
X0378069Y0295824D02*
X0378069Y0290624D01*
X0388069Y0290624D02*
X0388069Y0295824D01*
X0398069Y0295824D02*
X0398069Y0290624D01*
X0408069Y0290624D02*
X0408069Y0295824D01*
X0418069Y0295824D02*
X0418069Y0290624D01*
X0498738Y0290624D02*
X0498738Y0295824D01*
X0508738Y0295824D02*
X0508738Y0290624D01*
X0518738Y0290624D02*
X0518738Y0295824D01*
X0528738Y0295824D02*
X0528738Y0290624D01*
X0544211Y0288210D02*
X0544211Y0283010D01*
X0554211Y0283010D02*
X0554211Y0288210D01*
X0564211Y0288210D02*
X0564211Y0283010D01*
X0574211Y0283010D02*
X0574211Y0288210D01*
X0640963Y0290624D02*
X0640963Y0295824D01*
X0650963Y0295824D02*
X0650963Y0290624D01*
X0660963Y0290624D02*
X0660963Y0295824D01*
X0670963Y0295824D02*
X0670963Y0290624D01*
X0695077Y0290624D02*
X0695077Y0295824D01*
X0705077Y0295824D02*
X0705077Y0290624D01*
X0262595Y0290333D02*
X0262595Y0295533D01*
X0252595Y0295533D02*
X0252595Y0290333D01*
X0242595Y0290333D02*
X0242595Y0295533D01*
X0232595Y0295533D02*
X0232595Y0290333D01*
X0222595Y0290333D02*
X0222595Y0295533D01*
X0212595Y0295533D02*
X0212595Y0290333D01*
X0202595Y0290333D02*
X0202595Y0295533D01*
X0192595Y0295533D02*
X0192595Y0290333D01*
X0398885Y0161766D02*
X0398885Y0156566D01*
X0408885Y0156566D02*
X0408885Y0161766D01*
X0418885Y0161766D02*
X0418885Y0156566D01*
X0428885Y0156566D02*
X0428885Y0161766D01*
X0438885Y0161766D02*
X0438885Y0156566D01*
X0448885Y0156566D02*
X0448885Y0161766D01*
X0458885Y0161766D02*
X0458885Y0156566D01*
X0468885Y0156566D02*
X0468885Y0161766D01*
X0478885Y0161766D02*
X0478885Y0156566D01*
X0488885Y0156566D02*
X0488885Y0161766D01*
X0500938Y0134607D02*
X0500938Y0129407D01*
X0510938Y0129407D02*
X0510938Y0134607D01*
X0520938Y0134607D02*
X0520938Y0129407D01*
X0530938Y0129407D02*
X0530938Y0134607D01*
X0368136Y0134293D02*
X0368136Y0129093D01*
X0358136Y0129093D02*
X0358136Y0134293D01*
X0348136Y0134293D02*
X0348136Y0129093D01*
X0338136Y0129093D02*
X0338136Y0134293D01*
X0328136Y0134293D02*
X0328136Y0129093D01*
X0212595Y0129233D02*
X0212595Y0134433D01*
X0202595Y0134433D02*
X0202595Y0129233D01*
X0192595Y0129233D02*
X0192595Y0134433D01*
X0182595Y0134433D02*
X0182595Y0129233D01*
X0172595Y0129233D02*
X0172595Y0134433D01*
D21*
X0158959Y0148539D03*
X0127463Y0148539D03*
X0128022Y0238547D03*
X0159518Y0238547D03*
X0159156Y0279642D03*
X0127659Y0279642D03*
X0796951Y0279642D03*
X0828447Y0279642D03*
X0828809Y0238547D03*
X0797313Y0238547D03*
X0796754Y0148539D03*
X0828250Y0148539D03*
D22*
X0847037Y0192972D03*
X0886093Y0192972D03*
X0886093Y0216831D03*
X0847037Y0216831D03*
X0216801Y0216831D03*
X0177746Y0216831D03*
X0177746Y0192972D03*
X0216801Y0192972D03*
D23*
X0370321Y0213461D03*
X0377407Y0213461D03*
X0389833Y0213461D03*
X0396919Y0213461D03*
X1039612Y0213461D03*
X1046699Y0213461D03*
X1059124Y0213461D03*
X1066211Y0213461D03*
D24*
X1028620Y0216413D03*
X1017715Y0216665D03*
X1017715Y0209579D03*
X1028620Y0209327D03*
X0359329Y0209327D03*
X0348423Y0209579D03*
X0348423Y0216665D03*
X0359329Y0216413D03*
D25*
X0647380Y0154858D03*
X0647380Y0280843D03*
X1316671Y0280843D03*
X1316671Y0154858D03*
D26*
X1346671Y0144858D03*
X1366671Y0154858D03*
X1346671Y0270843D03*
X1366671Y0280843D03*
X0697380Y0280843D03*
X0677380Y0270843D03*
X0697380Y0154858D03*
X0677380Y0144858D03*
D27*
X0684880Y0173146D03*
X0706927Y0173146D03*
X0704467Y0250902D03*
X0682419Y0250902D03*
X1351711Y0250902D03*
X1373758Y0250902D03*
X1376219Y0173146D03*
X1354171Y0173146D03*
D28*
X1360687Y0189799D03*
X1370687Y0189799D03*
X1370687Y0199799D03*
X1370687Y0223264D03*
X1360687Y0223264D03*
X1370687Y0233264D03*
X0701396Y0233264D03*
X0701396Y0223264D03*
X0691396Y0223264D03*
X0701396Y0199799D03*
X0701396Y0189799D03*
X0691396Y0189799D03*
D29*
X0673010Y0188402D03*
X0643010Y0188402D03*
X0642518Y0235154D03*
X0672518Y0235154D03*
X1311809Y0235154D03*
X1341809Y0235154D03*
X1342301Y0188402D03*
X1312301Y0188402D03*
D30*
X1126317Y0270587D03*
X1118837Y0270587D03*
X0973266Y0266650D03*
X0965785Y0266650D03*
X0965785Y0276492D03*
X0973266Y0276492D03*
X0973266Y0285350D03*
X0965785Y0285350D03*
X0457026Y0270587D03*
X0449545Y0270587D03*
X0303974Y0266650D03*
X0296494Y0266650D03*
X0296494Y0276492D03*
X0303974Y0276492D03*
X0303974Y0285350D03*
X0296494Y0285350D03*
D31*
X0289317Y0286728D02*
X0289317Y0283972D01*
X0286561Y0283972D01*
X0286561Y0286728D01*
X0289317Y0286728D01*
X0289317Y0285152D02*
X0286561Y0285152D01*
X0286561Y0286332D02*
X0289317Y0286332D01*
X0282411Y0286728D02*
X0282411Y0283972D01*
X0279655Y0283972D01*
X0279655Y0286728D01*
X0282411Y0286728D01*
X0282411Y0285152D02*
X0279655Y0285152D01*
X0279655Y0286332D02*
X0282411Y0286332D01*
X0282411Y0277870D02*
X0282411Y0275114D01*
X0279655Y0275114D01*
X0279655Y0277870D01*
X0282411Y0277870D01*
X0282411Y0276294D02*
X0279655Y0276294D01*
X0279655Y0277474D02*
X0282411Y0277474D01*
X0289317Y0277870D02*
X0289317Y0275114D01*
X0286561Y0275114D01*
X0286561Y0277870D01*
X0289317Y0277870D01*
X0289317Y0276294D02*
X0286561Y0276294D01*
X0286561Y0277474D02*
X0289317Y0277474D01*
X0289317Y0268028D02*
X0289317Y0265272D01*
X0286561Y0265272D01*
X0286561Y0268028D01*
X0289317Y0268028D01*
X0289317Y0266452D02*
X0286561Y0266452D01*
X0286561Y0267632D02*
X0289317Y0267632D01*
X0282411Y0268028D02*
X0282411Y0265272D01*
X0279655Y0265272D01*
X0279655Y0268028D01*
X0282411Y0268028D01*
X0282411Y0266452D02*
X0279655Y0266452D01*
X0279655Y0267632D02*
X0282411Y0267632D01*
X0951703Y0268028D02*
X0951703Y0265272D01*
X0948947Y0265272D01*
X0948947Y0268028D01*
X0951703Y0268028D01*
X0951703Y0266452D02*
X0948947Y0266452D01*
X0948947Y0267632D02*
X0951703Y0267632D01*
X0958608Y0268028D02*
X0958608Y0265272D01*
X0955852Y0265272D01*
X0955852Y0268028D01*
X0958608Y0268028D01*
X0958608Y0266452D02*
X0955852Y0266452D01*
X0955852Y0267632D02*
X0958608Y0267632D01*
X0958608Y0275114D02*
X0958608Y0277870D01*
X0958608Y0275114D02*
X0955852Y0275114D01*
X0955852Y0277870D01*
X0958608Y0277870D01*
X0958608Y0276294D02*
X0955852Y0276294D01*
X0955852Y0277474D02*
X0958608Y0277474D01*
X0951703Y0277870D02*
X0951703Y0275114D01*
X0948947Y0275114D01*
X0948947Y0277870D01*
X0951703Y0277870D01*
X0951703Y0276294D02*
X0948947Y0276294D01*
X0948947Y0277474D02*
X0951703Y0277474D01*
X0951703Y0283972D02*
X0951703Y0286728D01*
X0951703Y0283972D02*
X0948947Y0283972D01*
X0948947Y0286728D01*
X0951703Y0286728D01*
X0951703Y0285152D02*
X0948947Y0285152D01*
X0948947Y0286332D02*
X0951703Y0286332D01*
X0958608Y0286728D02*
X0958608Y0283972D01*
X0955852Y0283972D01*
X0955852Y0286728D01*
X0958608Y0286728D01*
X0958608Y0285152D02*
X0955852Y0285152D01*
X0955852Y0286332D02*
X0958608Y0286332D01*
D32*
X0757599Y0273472D03*
X0745788Y0273472D03*
X0744624Y0154445D03*
X0756435Y0154445D03*
X1413915Y0154445D03*
X1425726Y0154445D03*
X1426890Y0273472D03*
X1415079Y0273472D03*
D33*
X1413701Y0273472D03*
X1428268Y0273472D03*
X1427104Y0154445D03*
X1412537Y0154445D03*
X0757813Y0154445D03*
X0743246Y0154445D03*
X0744410Y0273472D03*
X0758977Y0273472D03*
D34*
X0751693Y0273472D03*
X0750530Y0154445D03*
X1419821Y0154445D03*
X1420985Y0273472D03*
D35*
X1270116Y0269602D03*
X1263423Y0269602D03*
X1238620Y0269602D03*
X1231927Y0269602D03*
X0600825Y0269602D03*
X0594132Y0269602D03*
X0569329Y0269602D03*
X0562636Y0269602D03*
D36*
X0563030Y0269996D01*
X0563030Y0273539D01*
X0574211Y0284720D01*
X0574211Y0285610D01*
X0582258Y0296177D02*
X0598100Y0280835D01*
X0598100Y0279807D01*
X0610274Y0267634D01*
X0614211Y0267634D01*
X0617163Y0264681D01*
X0617163Y0194799D01*
X0617163Y0185941D02*
X0605470Y0197634D01*
X0603289Y0197634D01*
X0603289Y0207634D01*
X0603289Y0217634D01*
X0603289Y0227634D01*
X0603289Y0228359D01*
X0597478Y0234169D01*
X0597478Y0241870D01*
X0597974Y0242366D01*
X0597974Y0259453D01*
X0594132Y0265610D02*
X0587974Y0259453D01*
X0587974Y0242366D01*
X0597478Y0234169D02*
X0567951Y0234169D01*
X0564998Y0237122D01*
X0564998Y0242193D01*
X0564510Y0242681D01*
X0564510Y0258587D01*
X0565297Y0259374D01*
X0569329Y0265343D02*
X0575297Y0259374D01*
X0562636Y0266713D02*
X0555297Y0259374D01*
X0554510Y0258587D01*
X0554510Y0242681D01*
X0538482Y0230272D02*
X0536435Y0230665D01*
X0538482Y0230272D02*
X0538435Y0212185D01*
X0528817Y0212280D01*
X0521691Y0219406D01*
X0512449Y0219406D01*
X0512323Y0219531D01*
X0512394Y0216453D02*
X0512323Y0216382D01*
X0512394Y0216453D02*
X0520707Y0216453D01*
X0538482Y0198677D01*
X0538435Y0192185D01*
X0543148Y0187614D01*
X0542094Y0174209D01*
X0535401Y0174209D02*
X0535672Y0166284D01*
X0522872Y0162091D02*
X0522487Y0162475D01*
X0507100Y0177862D01*
X0497100Y0177862D02*
X0512487Y0162475D01*
X0512872Y0162091D01*
X0502872Y0162091D02*
X0502487Y0162475D01*
X0487100Y0177862D01*
X0543124Y0161138D02*
X0558667Y0161138D01*
X0603289Y0170288D02*
X0607321Y0166256D01*
X0607321Y0157683D01*
X0607321Y0157083D01*
X0581993Y0146955D02*
X0571993Y0146955D01*
X0496813Y0139126D02*
X0496207Y0139126D01*
X0493644Y0134764D01*
X0362242Y0161335D02*
X0362242Y0181020D01*
X0359329Y0183933D01*
X0359329Y0209327D01*
X0352400Y0205602D02*
X0348423Y0209579D01*
X0352400Y0205602D02*
X0352400Y0174130D01*
X0327100Y0177862D02*
X0327100Y0155138D01*
X0339604Y0142634D01*
X0339604Y0133343D01*
X0338136Y0131693D01*
X0287100Y0177862D02*
X0281033Y0183929D01*
X0281033Y0253929D01*
X0297100Y0237862D01*
X0357100Y0237862D02*
X0359329Y0235634D01*
X0359329Y0216413D01*
X0348675Y0216413D01*
X0348423Y0216665D01*
X0370321Y0213461D02*
X0370321Y0233390D01*
X0372085Y0235154D01*
X0372085Y0244898D01*
X0367065Y0249917D01*
X0361258Y0266650D02*
X0386848Y0241059D01*
X0386848Y0238114D01*
X0387100Y0237862D01*
X0377407Y0237555D02*
X0377100Y0237862D01*
X0377407Y0237555D02*
X0377407Y0213461D01*
X0389833Y0213461D01*
X0396919Y0213461D02*
X0396919Y0218650D01*
X0411455Y0233185D01*
X0411455Y0283382D01*
X0406533Y0274524D02*
X0379959Y0274524D01*
X0358470Y0276492D02*
X0397100Y0237862D01*
X0407100Y0237862D02*
X0359612Y0285350D01*
X0303974Y0285350D01*
X0296494Y0285350D02*
X0287939Y0285350D01*
X0281033Y0285350D02*
X0281033Y0276492D01*
X0281033Y0266650D01*
X0281033Y0253929D01*
X0287939Y0266650D02*
X0296494Y0266650D01*
X0303974Y0266650D02*
X0361258Y0266650D01*
X0358470Y0276492D02*
X0303974Y0276492D01*
X0296494Y0276492D02*
X0287939Y0276492D01*
X0417360Y0274524D02*
X0436061Y0274524D01*
X0445904Y0264681D01*
X0451120Y0264681D01*
X0457026Y0270587D01*
X0523659Y0270587D01*
X0536455Y0283382D01*
X0536455Y0292240D01*
X0540392Y0296177D01*
X0582258Y0296177D01*
X0594132Y0269602D02*
X0594132Y0265610D01*
X0600825Y0266602D02*
X0600825Y0269602D01*
X0600825Y0266602D02*
X0607974Y0259453D01*
X0569329Y0265343D02*
X0569329Y0269602D01*
X0562636Y0269602D02*
X0562636Y0266713D01*
X0417100Y0237862D02*
X0417100Y0224587D01*
X0421297Y0220390D01*
X0477665Y0220390D01*
X0478523Y0219531D01*
X0603289Y0177634D02*
X0608643Y0182988D01*
X0611258Y0182988D01*
X0603289Y0177634D02*
X0603289Y0170288D01*
X0950325Y0183929D02*
X0950325Y0253929D01*
X0966392Y0237862D01*
X1026392Y0237862D02*
X1028620Y0235634D01*
X1028620Y0216413D01*
X1017967Y0216413D01*
X1017715Y0216665D01*
X1017715Y0209579D02*
X1021691Y0205602D01*
X1021691Y0174130D01*
X1028620Y0183933D02*
X1031533Y0181020D01*
X1031533Y0161335D01*
X1008896Y0142634D02*
X0996392Y0155138D01*
X0996392Y0177862D01*
X1028620Y0183933D02*
X1028620Y0209327D01*
X1039612Y0213461D02*
X1039612Y0233390D01*
X1041376Y0235154D01*
X1041376Y0244898D01*
X1036356Y0249917D01*
X1030549Y0266650D02*
X1056140Y0241059D01*
X1056140Y0238114D01*
X1056392Y0237862D01*
X1046699Y0237555D02*
X1046392Y0237862D01*
X1046699Y0237555D02*
X1046699Y0213461D01*
X1059124Y0213461D01*
X1066211Y0213461D02*
X1066211Y0218650D01*
X1080746Y0233185D01*
X1080746Y0283382D01*
X1075825Y0274524D02*
X1049250Y0274524D01*
X1027762Y0276492D02*
X1066392Y0237862D01*
X1076392Y0237862D02*
X1028904Y0285350D01*
X0973266Y0285350D01*
X0965785Y0285350D02*
X0957230Y0285350D01*
X0950325Y0285350D02*
X0950325Y0276492D01*
X0950325Y0266650D01*
X0950325Y0253929D01*
X0957230Y0266650D02*
X0965785Y0266650D01*
X0973266Y0266650D02*
X1030549Y0266650D01*
X1027762Y0276492D02*
X0973266Y0276492D01*
X0965785Y0276492D02*
X0957230Y0276492D01*
X1086652Y0274524D02*
X1105352Y0274524D01*
X1115195Y0264681D01*
X1120411Y0264681D01*
X1126317Y0270587D01*
X1192951Y0270587D01*
X1205746Y0283382D01*
X1205746Y0292240D01*
X1209683Y0296177D01*
X1251549Y0296177D01*
X1267392Y0280835D01*
X1267392Y0279807D01*
X1279565Y0267634D01*
X1283502Y0267634D01*
X1286455Y0264681D01*
X1286455Y0194799D01*
X1286455Y0185941D02*
X1274762Y0197634D01*
X1272580Y0197634D01*
X1272580Y0207634D01*
X1272580Y0217634D01*
X1272580Y0227634D01*
X1272580Y0228359D01*
X1266770Y0234169D01*
X1266770Y0241870D01*
X1267266Y0242366D01*
X1267266Y0259453D01*
X1263423Y0265610D02*
X1257266Y0259453D01*
X1257266Y0242366D01*
X1266770Y0234169D02*
X1237242Y0234169D01*
X1234289Y0237122D01*
X1234289Y0242193D01*
X1233801Y0242681D01*
X1233801Y0258587D01*
X1234589Y0259374D01*
X1238620Y0265343D02*
X1244589Y0259374D01*
X1231927Y0266713D02*
X1224589Y0259374D01*
X1223801Y0258587D01*
X1223801Y0242681D01*
X1207774Y0230272D02*
X1205726Y0230665D01*
X1207774Y0230272D02*
X1207726Y0212185D01*
X1198108Y0212280D01*
X1190982Y0219406D01*
X1181741Y0219406D01*
X1181615Y0219531D01*
X1181685Y0216453D02*
X1181615Y0216382D01*
X1181685Y0216453D02*
X1189998Y0216453D01*
X1207774Y0198677D01*
X1207726Y0192185D01*
X1212439Y0187614D01*
X1211385Y0174209D01*
X1204693Y0174209D02*
X1204963Y0166284D01*
X1192163Y0162091D02*
X1191779Y0162475D01*
X1176392Y0177862D01*
X1166392Y0177862D02*
X1181779Y0162475D01*
X1182163Y0162091D01*
X1172163Y0162091D02*
X1171779Y0162475D01*
X1156392Y0177862D01*
X1212415Y0161138D02*
X1227959Y0161138D01*
X1272580Y0170288D02*
X1276612Y0166256D01*
X1276612Y0157683D01*
X1276612Y0157083D01*
X1251285Y0146955D02*
X1241285Y0146955D01*
X1166104Y0139126D02*
X1165498Y0139126D01*
X1162936Y0134764D01*
X1272580Y0170288D02*
X1272580Y0177634D01*
X1277934Y0182988D01*
X1280549Y0182988D01*
X1147815Y0219531D02*
X1146956Y0220390D01*
X1090589Y0220390D01*
X1086392Y0224587D01*
X1086392Y0237862D01*
X1231927Y0266713D02*
X1231927Y0269602D01*
X1232321Y0269996D01*
X1232321Y0273539D01*
X1243502Y0284720D01*
X1243502Y0285610D01*
X1238620Y0269602D02*
X1238620Y0265343D01*
X1263423Y0265610D02*
X1263423Y0269602D01*
X1270116Y0269602D02*
X1270116Y0266602D01*
X1277266Y0259453D01*
X0956392Y0177862D02*
X0950325Y0183929D01*
X1008896Y0142634D02*
X1008896Y0133343D01*
X1007427Y0131693D01*
D37*
X1016392Y0132776D02*
X1016392Y0177862D01*
X1021494Y0174130D02*
X1021494Y0137626D01*
X1027427Y0131693D01*
X1031533Y0137587D02*
X1037427Y0131693D01*
X1043967Y0137032D01*
X1159848Y0137032D01*
X1164330Y0141513D01*
X1205970Y0141513D01*
X1214876Y0132008D01*
X1216770Y0132008D01*
X1213439Y0128402D02*
X1202715Y0139126D01*
X1166104Y0139126D01*
X1158061Y0141807D02*
X1075228Y0141807D01*
X1049123Y0169512D01*
X1021691Y0174130D02*
X1021494Y0174130D01*
X0976392Y0177862D02*
X0975746Y0177555D01*
X0972171Y0177555D01*
X0967703Y0173087D01*
X0955191Y0173087D01*
X0946254Y0182024D01*
X0946254Y0287480D01*
X0958766Y0299992D01*
X1267093Y0299992D01*
X1282285Y0288799D01*
X1282285Y0271394D01*
X1249219Y0288374D02*
X1244750Y0292843D01*
X1232238Y0292843D01*
X1227770Y0288374D01*
X1227770Y0272287D01*
X1217939Y0262457D01*
X1217939Y0247264D01*
X1218833Y0241008D02*
X1218833Y0231083D01*
X1222871Y0226385D01*
X1222871Y0213073D01*
X1234919Y0201685D01*
X1241175Y0201685D01*
X1253687Y0189173D01*
X1253687Y0157000D01*
X1256368Y0154319D01*
X1260837Y0154319D01*
X1267093Y0160575D01*
X1267959Y0161138D01*
X1257959Y0161138D02*
X1257262Y0161469D01*
X1257262Y0196323D01*
X1242069Y0211516D01*
X1234919Y0211516D01*
X1225089Y0221346D01*
X1225089Y0229390D01*
X1228663Y0224921D02*
X1231344Y0227602D01*
X1236707Y0227602D01*
X1237180Y0227634D01*
X1220620Y0225815D02*
X1209896Y0236539D01*
X1209896Y0241902D01*
X1209526Y0242043D01*
X1218833Y0241008D02*
X1200959Y0258882D01*
X1174148Y0258882D01*
X1171467Y0256201D01*
X1171467Y0236539D01*
X1169679Y0234752D01*
X1169679Y0225815D01*
X1169439Y0225408D01*
X1166998Y0224921D02*
X1166289Y0225408D01*
X1166998Y0224921D02*
X1166998Y0222240D01*
X1167892Y0221346D01*
X1177722Y0221346D01*
X1178616Y0222240D01*
X1203640Y0222240D01*
X1199033Y0230480D02*
X1194486Y0225933D01*
X1192313Y0226760D01*
X1199033Y0230480D02*
X1199033Y0230665D01*
X1195596Y0234752D02*
X1192915Y0237433D01*
X1195596Y0234752D02*
X1209002Y0234752D01*
X1217045Y0226709D01*
X1217045Y0220453D01*
X1220620Y0225815D02*
X1220620Y0176661D01*
X1220686Y0176595D01*
X1220686Y0173733D01*
X1215286Y0168333D01*
X1210486Y0168333D01*
X1208086Y0170733D01*
X1208108Y0170755D01*
X1208108Y0177874D01*
X1200065Y0182917D01*
X1178616Y0182917D01*
X1173254Y0188280D01*
X1173254Y0190961D01*
X1172589Y0191608D01*
X1169679Y0191854D02*
X1169439Y0191608D01*
X1169679Y0191854D02*
X1169679Y0194535D01*
X1170573Y0195429D01*
X1177722Y0195429D01*
X1180404Y0192748D01*
X1183085Y0189173D02*
X1177722Y0189173D01*
X1175935Y0190961D01*
X1175738Y0191608D01*
X1183085Y0189173D02*
X1195596Y0201685D01*
X1199171Y0203472D02*
X1194703Y0207941D01*
X1185766Y0207941D01*
X1185766Y0211516D01*
X1183978Y0213303D01*
X1182191Y0213303D01*
X1181615Y0213232D01*
X1181297Y0213303D01*
X1178616Y0213303D01*
X1167892Y0202579D01*
X1163423Y0207047D01*
X1167892Y0202579D02*
X1166998Y0201685D01*
X1166998Y0191854D01*
X1166289Y0191608D01*
X1159990Y0191608D02*
X1159848Y0190961D01*
X1156841Y0191608D02*
X1156274Y0191854D01*
X1156274Y0194535D01*
X1153593Y0191854D02*
X1153691Y0191608D01*
X1147815Y0197484D02*
X1147337Y0198110D01*
X1147815Y0200634D02*
X1147337Y0200791D01*
X1140187Y0200791D01*
X1139293Y0201685D01*
X1135719Y0201685D01*
X1133931Y0199898D01*
X1133931Y0186492D01*
X1141081Y0179343D01*
X1141081Y0170406D01*
X1133931Y0163256D01*
X1133931Y0151638D01*
X1138400Y0147169D01*
X1134825Y0148063D02*
X1134825Y0145382D01*
X1136572Y0143754D01*
X1140147Y0143754D01*
X1143762Y0147169D01*
X1146443Y0147169D01*
X1134825Y0148063D02*
X1132144Y0150744D01*
X1131250Y0145382D02*
X1118738Y0145382D01*
X1158061Y0141807D02*
X1167573Y0151919D01*
X1190809Y0151919D01*
X1193784Y0151894D01*
X1196209Y0154319D01*
X1229557Y0154319D01*
X1234026Y0158787D01*
X1234026Y0165937D01*
X1250112Y0182024D01*
X1243856Y0184705D02*
X1241175Y0182024D01*
X1231344Y0182024D01*
X1236707Y0178449D02*
X1224195Y0178449D01*
X1236707Y0178449D02*
X1237180Y0177634D01*
X1208202Y0183811D02*
X1199171Y0193642D01*
X1199171Y0203472D01*
X1187553Y0204366D02*
X1182191Y0204366D01*
X1181615Y0203783D01*
X1181297Y0204366D01*
X1178616Y0204366D01*
X1177722Y0205260D01*
X1177722Y0208835D01*
X1178616Y0209728D01*
X1181297Y0209728D01*
X1181615Y0210083D01*
X1182191Y0207047D02*
X1181615Y0206933D01*
X1182191Y0207047D02*
X1184872Y0207047D01*
X1185766Y0207941D01*
X1181615Y0200634D02*
X1181297Y0199898D01*
X1182191Y0198110D02*
X1181615Y0197484D01*
X1182191Y0198110D02*
X1184872Y0198110D01*
X1185766Y0199004D01*
X1187553Y0199004D01*
X1151805Y0207941D02*
X1150911Y0207047D01*
X1148230Y0207047D01*
X1147815Y0206933D01*
X1147815Y0203783D02*
X1147337Y0203472D01*
X1151805Y0207941D02*
X1151805Y0221346D01*
X1140187Y0232965D01*
X1100864Y0232965D01*
X1096396Y0237433D01*
X1096392Y0237862D01*
X1091927Y0240075D02*
X1092557Y0251886D01*
X1102400Y0258776D01*
X1110695Y0258882D01*
X1138400Y0258882D01*
X1141081Y0256201D01*
X1141081Y0236539D01*
X1144656Y0232965D01*
X1151805Y0232965D01*
X1156274Y0228496D01*
X1156274Y0225815D01*
X1156841Y0225408D01*
X1159848Y0224921D02*
X1159990Y0225408D01*
X1159848Y0224921D02*
X1159848Y0222240D01*
X1157167Y0219559D01*
X1162530Y0224921D02*
X1163140Y0225408D01*
X1153691Y0225408D02*
X1153593Y0225815D01*
X1150018Y0229390D01*
X1173254Y0231177D02*
X1175041Y0229390D01*
X1175041Y0225815D01*
X1175738Y0225408D01*
X1147815Y0216382D02*
X1147337Y0216878D01*
X1141974Y0216878D01*
X1133037Y0207941D01*
X1114270Y0207941D01*
X1108014Y0214197D01*
X1086565Y0214197D01*
X1089246Y0209728D02*
X1089246Y0181130D01*
X1086565Y0178449D01*
X1086392Y0177862D01*
X1101758Y0173980D02*
X1112482Y0163256D01*
X1126781Y0167724D02*
X1126781Y0177555D01*
X1126392Y0177862D01*
X1135719Y0177555D02*
X1136392Y0177862D01*
X1116392Y0177862D02*
X1116057Y0177555D01*
X1114270Y0175768D01*
X1106392Y0177862D02*
X1106226Y0178449D01*
X1105333Y0179343D01*
X1105333Y0208835D01*
X1113376Y0211516D02*
X1107120Y0217772D01*
X1076734Y0217772D01*
X1068691Y0209728D01*
X1037411Y0209728D01*
X1036518Y0210622D01*
X1036518Y0237433D01*
X1036392Y0237862D01*
X1045455Y0246370D02*
X1050817Y0241008D01*
X1050817Y0217772D01*
X1091927Y0224028D02*
X1091927Y0240075D01*
X1091927Y0240114D01*
X1084778Y0262457D02*
X1199171Y0262457D01*
X1221514Y0284799D01*
X1223301Y0284799D01*
X1223502Y0285610D01*
X1249219Y0288374D02*
X1249219Y0254413D01*
X1243856Y0249051D01*
X1243856Y0242795D01*
X1243801Y0242681D01*
X1336652Y0251394D02*
X1336801Y0251732D01*
X1351100Y0251732D01*
X1351711Y0250902D01*
X1269774Y0191854D02*
X1244750Y0216878D01*
X1237600Y0216878D01*
X1237180Y0217634D01*
X1237180Y0207634D02*
X1237600Y0207047D01*
X1241175Y0207047D01*
X1243856Y0204366D01*
X1237180Y0197634D02*
X1236707Y0197217D01*
X1232238Y0192748D01*
X1236707Y0187386D02*
X1224195Y0187386D01*
X1236707Y0187386D02*
X1237180Y0187634D01*
X1267093Y0182917D02*
X1267986Y0182917D01*
X1272455Y0187386D01*
X1272580Y0187634D01*
X1269774Y0191854D02*
X1277817Y0191854D01*
X1284073Y0185598D01*
X1284073Y0180236D01*
X1283179Y0179343D01*
X1281392Y0179343D01*
X1278711Y0176661D01*
X1278711Y0139126D01*
X1267986Y0128402D01*
X1213439Y0128402D01*
X1228486Y0143733D02*
X1236475Y0135744D01*
X1246085Y0135744D01*
X1256085Y0135744D01*
X1266085Y0135744D01*
X1228486Y0143733D02*
X1228486Y0148106D01*
X1228363Y0148229D01*
X1212411Y0161133D02*
X1212415Y0161138D01*
X1212411Y0161133D02*
X1209886Y0161133D01*
X1204963Y0166056D01*
X1204963Y0166284D01*
X1286455Y0165429D02*
X1286455Y0185941D01*
X1147815Y0213232D02*
X1147337Y0213303D01*
X1120857Y0211516D02*
X1113376Y0211516D01*
X1101758Y0199898D02*
X1101758Y0173980D01*
X1031533Y0161335D02*
X1031533Y0137587D01*
X1017427Y0131693D02*
X1016392Y0132776D01*
X0617163Y0165429D02*
X0617163Y0185941D01*
X0614781Y0185598D02*
X0614781Y0180236D01*
X0613888Y0179343D01*
X0612100Y0179343D01*
X0609419Y0176661D01*
X0609419Y0139126D01*
X0598695Y0128402D01*
X0544148Y0128402D01*
X0533423Y0139126D01*
X0496813Y0139126D01*
X0495038Y0141513D02*
X0490557Y0137032D01*
X0374675Y0137032D01*
X0368136Y0131693D01*
X0362242Y0137587D01*
X0362242Y0161335D01*
X0379832Y0169512D02*
X0405937Y0141807D01*
X0488770Y0141807D01*
X0498281Y0151919D01*
X0521518Y0151919D01*
X0524493Y0151894D01*
X0526918Y0154319D01*
X0560266Y0154319D01*
X0564734Y0158787D01*
X0564734Y0165937D01*
X0580821Y0182024D01*
X0574565Y0184705D02*
X0571884Y0182024D01*
X0562053Y0182024D01*
X0567415Y0178449D02*
X0554904Y0178449D01*
X0551395Y0176595D02*
X0551395Y0173733D01*
X0545995Y0168333D01*
X0541195Y0168333D01*
X0538795Y0170733D01*
X0538817Y0170755D01*
X0538817Y0177874D01*
X0530774Y0182917D01*
X0509325Y0182917D01*
X0503963Y0188280D01*
X0503963Y0190961D01*
X0503297Y0191608D01*
X0500388Y0191854D02*
X0500148Y0191608D01*
X0500388Y0191854D02*
X0500388Y0194535D01*
X0501281Y0195429D01*
X0508431Y0195429D01*
X0511112Y0192748D01*
X0513793Y0189173D02*
X0508431Y0189173D01*
X0506644Y0190961D01*
X0506447Y0191608D01*
X0513793Y0189173D02*
X0526305Y0201685D01*
X0529880Y0203472D02*
X0525411Y0207941D01*
X0516474Y0207941D01*
X0516474Y0211516D01*
X0514687Y0213303D01*
X0512900Y0213303D01*
X0512323Y0213232D01*
X0512006Y0213303D01*
X0509325Y0213303D01*
X0498600Y0202579D01*
X0494132Y0207047D01*
X0498600Y0202579D02*
X0497707Y0201685D01*
X0497707Y0191854D01*
X0496998Y0191608D01*
X0490699Y0191608D02*
X0490557Y0190961D01*
X0487549Y0191608D02*
X0486982Y0191854D01*
X0486982Y0194535D01*
X0484301Y0191854D02*
X0484400Y0191608D01*
X0478523Y0197484D02*
X0478045Y0198110D01*
X0478523Y0200634D02*
X0478045Y0200791D01*
X0470896Y0200791D01*
X0470002Y0201685D01*
X0466427Y0201685D01*
X0464640Y0199898D01*
X0464640Y0186492D01*
X0471789Y0179343D01*
X0471789Y0170406D01*
X0464640Y0163256D01*
X0464640Y0151638D01*
X0469108Y0147169D01*
X0465533Y0148063D02*
X0465533Y0145382D01*
X0467281Y0143754D01*
X0470856Y0143754D01*
X0474470Y0147169D01*
X0477152Y0147169D01*
X0465533Y0148063D02*
X0462852Y0150744D01*
X0461959Y0145382D02*
X0449447Y0145382D01*
X0495038Y0141513D02*
X0536679Y0141513D01*
X0545585Y0132008D01*
X0547478Y0132008D01*
X0559195Y0143733D02*
X0567184Y0135744D01*
X0576793Y0135744D01*
X0586793Y0135744D01*
X0596793Y0135744D01*
X0559195Y0143733D02*
X0559195Y0148106D01*
X0559072Y0148229D01*
X0584396Y0157000D02*
X0587077Y0154319D01*
X0591545Y0154319D01*
X0597801Y0160575D01*
X0598667Y0161138D01*
X0588667Y0161138D02*
X0587970Y0161469D01*
X0587970Y0196323D01*
X0572778Y0211516D01*
X0565628Y0211516D01*
X0555797Y0221346D01*
X0555797Y0229390D01*
X0553580Y0226385D02*
X0553580Y0213073D01*
X0565628Y0201685D01*
X0571884Y0201685D01*
X0584396Y0189173D01*
X0584396Y0157000D01*
X0543124Y0161138D02*
X0543119Y0161133D01*
X0540595Y0161133D01*
X0535672Y0166056D01*
X0535672Y0166284D01*
X0551329Y0176661D02*
X0551395Y0176595D01*
X0551329Y0176661D02*
X0551329Y0225815D01*
X0540604Y0236539D01*
X0540604Y0241902D01*
X0540234Y0242043D01*
X0549541Y0241008D02*
X0549541Y0231083D01*
X0553580Y0226385D01*
X0547754Y0226709D02*
X0539711Y0234752D01*
X0526305Y0234752D01*
X0523624Y0237433D01*
X0502175Y0236539D02*
X0500388Y0234752D01*
X0500388Y0225815D01*
X0500148Y0225408D01*
X0497707Y0224921D02*
X0496998Y0225408D01*
X0497707Y0224921D02*
X0497707Y0222240D01*
X0498600Y0221346D01*
X0508431Y0221346D01*
X0509325Y0222240D01*
X0534348Y0222240D01*
X0529742Y0230480D02*
X0525195Y0225933D01*
X0523022Y0226760D01*
X0529742Y0230480D02*
X0529742Y0230665D01*
X0547754Y0226709D02*
X0547754Y0220453D01*
X0559372Y0224921D02*
X0562053Y0227602D01*
X0567415Y0227602D01*
X0567889Y0227634D01*
X0567889Y0217634D02*
X0568309Y0216878D01*
X0575459Y0216878D01*
X0600482Y0191854D01*
X0608526Y0191854D01*
X0614781Y0185598D01*
X0603289Y0187634D02*
X0603163Y0187386D01*
X0598695Y0182917D01*
X0597801Y0182917D01*
X0567889Y0187634D02*
X0567415Y0187386D01*
X0554904Y0187386D01*
X0562947Y0192748D02*
X0567415Y0197217D01*
X0567889Y0197634D01*
X0568309Y0207047D02*
X0567889Y0207634D01*
X0568309Y0207047D02*
X0571884Y0207047D01*
X0574565Y0204366D01*
X0538911Y0183811D02*
X0529880Y0193642D01*
X0529880Y0203472D01*
X0518262Y0204366D02*
X0512900Y0204366D01*
X0512323Y0203783D01*
X0512006Y0204366D01*
X0509325Y0204366D01*
X0508431Y0205260D01*
X0508431Y0208835D01*
X0509325Y0209728D01*
X0512006Y0209728D01*
X0512323Y0210083D01*
X0512900Y0207047D02*
X0512323Y0206933D01*
X0512900Y0207047D02*
X0515581Y0207047D01*
X0516474Y0207941D01*
X0512323Y0200634D02*
X0512006Y0199898D01*
X0512900Y0198110D02*
X0512323Y0197484D01*
X0512900Y0198110D02*
X0515581Y0198110D01*
X0516474Y0199004D01*
X0518262Y0199004D01*
X0482514Y0207941D02*
X0481620Y0207047D01*
X0478939Y0207047D01*
X0478523Y0206933D01*
X0478523Y0203783D02*
X0478045Y0203472D01*
X0482514Y0207941D02*
X0482514Y0221346D01*
X0470896Y0232965D01*
X0431573Y0232965D01*
X0427104Y0237433D01*
X0427100Y0237862D01*
X0422636Y0240075D02*
X0423266Y0251886D01*
X0433108Y0258776D01*
X0441404Y0258882D01*
X0469108Y0258882D01*
X0471789Y0256201D01*
X0471789Y0236539D01*
X0475364Y0232965D01*
X0482514Y0232965D01*
X0486982Y0228496D01*
X0486982Y0225815D01*
X0487549Y0225408D01*
X0490557Y0224921D02*
X0490699Y0225408D01*
X0490557Y0224921D02*
X0490557Y0222240D01*
X0487876Y0219559D01*
X0493238Y0224921D02*
X0493848Y0225408D01*
X0484400Y0225408D02*
X0484301Y0225815D01*
X0480726Y0229390D01*
X0503963Y0231177D02*
X0505750Y0229390D01*
X0505750Y0225815D01*
X0506447Y0225408D01*
X0502175Y0236539D02*
X0502175Y0256201D01*
X0504856Y0258882D01*
X0531667Y0258882D01*
X0549541Y0241008D01*
X0548648Y0247264D02*
X0548648Y0262457D01*
X0558478Y0272287D01*
X0558478Y0288374D01*
X0562947Y0292843D01*
X0575459Y0292843D01*
X0579927Y0288374D01*
X0579927Y0254413D01*
X0574565Y0249051D01*
X0574565Y0242795D01*
X0574510Y0242681D01*
X0552222Y0284799D02*
X0529880Y0262457D01*
X0415486Y0262457D01*
X0381526Y0241008D02*
X0376163Y0246370D01*
X0381526Y0241008D02*
X0381526Y0217772D01*
X0368120Y0209728D02*
X0367226Y0210622D01*
X0367226Y0237433D01*
X0367100Y0237862D01*
X0347565Y0238327D02*
X0347100Y0237862D01*
X0347565Y0238327D02*
X0347565Y0249051D01*
X0347065Y0249917D01*
X0337734Y0249051D02*
X0337065Y0249917D01*
X0337734Y0249051D02*
X0337734Y0238327D01*
X0337100Y0237862D01*
X0327100Y0237862D02*
X0327010Y0238327D01*
X0327010Y0249051D01*
X0327065Y0249917D01*
X0317179Y0249051D02*
X0317065Y0249917D01*
X0317179Y0249051D02*
X0317179Y0238327D01*
X0317100Y0237862D01*
X0399400Y0209728D02*
X0407443Y0217772D01*
X0437829Y0217772D01*
X0444085Y0211516D01*
X0451566Y0211516D01*
X0444978Y0207941D02*
X0463746Y0207941D01*
X0472683Y0216878D01*
X0478045Y0216878D01*
X0478523Y0216382D01*
X0478045Y0213303D02*
X0478523Y0213232D01*
X0444978Y0207941D02*
X0438722Y0214197D01*
X0417274Y0214197D01*
X0419955Y0209728D02*
X0419955Y0181130D01*
X0417274Y0178449D01*
X0417100Y0177862D01*
X0432467Y0173980D02*
X0443191Y0163256D01*
X0457490Y0167724D02*
X0457490Y0177555D01*
X0457100Y0177862D01*
X0466427Y0177555D02*
X0467100Y0177862D01*
X0447100Y0177862D02*
X0446766Y0177555D01*
X0444978Y0175768D01*
X0437100Y0177862D02*
X0436935Y0178449D01*
X0436041Y0179343D01*
X0436041Y0208835D01*
X0399400Y0209728D02*
X0368120Y0209728D01*
X0422636Y0224028D02*
X0422636Y0240075D01*
X0422636Y0240114D01*
X0432467Y0199898D02*
X0432467Y0173980D01*
X0352400Y0174130D02*
X0352203Y0174130D01*
X0352203Y0137626D01*
X0358136Y0131693D01*
X0348136Y0131693D02*
X0347100Y0132776D01*
X0347100Y0177862D01*
X0307100Y0177862D02*
X0306455Y0177555D01*
X0302880Y0177555D01*
X0298411Y0173087D01*
X0285900Y0173087D01*
X0276963Y0182024D01*
X0276963Y0287480D01*
X0289474Y0299992D01*
X0597801Y0299992D01*
X0612994Y0288799D01*
X0612994Y0271394D01*
X0554211Y0285610D02*
X0554010Y0284799D01*
X0552222Y0284799D01*
X0667360Y0251394D02*
X0667510Y0251732D01*
X0681809Y0251732D01*
X0682419Y0250902D01*
X0567415Y0178449D02*
X0567889Y0177634D01*
X0986392Y0237862D02*
X0986470Y0238327D01*
X0986470Y0249051D01*
X0986356Y0249917D01*
X0996301Y0249051D02*
X0996356Y0249917D01*
X0996301Y0249051D02*
X0996301Y0238327D01*
X0996392Y0237862D01*
X1006392Y0237862D02*
X1007026Y0238327D01*
X1007026Y0249051D01*
X1006356Y0249917D01*
X1016356Y0249917D02*
X1016856Y0249051D01*
X1016856Y0238327D01*
X1016392Y0237862D01*
D38*
X1045455Y0246370D03*
X1084778Y0262457D03*
X1192915Y0237433D03*
X1173254Y0231177D03*
X1192313Y0226760D03*
X1203640Y0222240D03*
X1217045Y0220453D03*
X1228663Y0224921D03*
X1225089Y0229390D03*
X1217939Y0247264D03*
X1150018Y0229390D03*
X1157167Y0219559D03*
X1141974Y0216878D03*
X1120857Y0211516D03*
X1105333Y0208835D03*
X1089246Y0209728D03*
X1086565Y0214197D03*
X1050817Y0217772D03*
X1091927Y0224028D03*
X1163423Y0207047D03*
X1187553Y0204366D03*
X1195596Y0201685D03*
X1187553Y0199004D03*
X1180404Y0192748D03*
X1208202Y0183811D03*
X1224195Y0187386D03*
X1232238Y0192748D03*
X1243856Y0184705D03*
X1250112Y0182024D03*
X1231344Y0182024D03*
X1224195Y0178449D03*
X1267093Y0182917D03*
X1243856Y0204366D03*
X1101758Y0199898D03*
X1085671Y0183811D03*
X1049123Y0169512D03*
X1126781Y0167724D03*
X1120526Y0148957D03*
X1131250Y0145382D03*
X1138400Y0147169D03*
X1146443Y0147169D03*
X1162936Y0134764D03*
X1216770Y0132008D03*
X0933311Y0162103D03*
X0891278Y0172161D03*
X0861258Y0174130D03*
X0893738Y0182988D03*
X0903581Y0189878D03*
X0926219Y0187559D03*
X0908502Y0193815D03*
X0893738Y0206610D03*
X0902596Y0210547D03*
X0921297Y0210055D03*
X0930920Y0213194D03*
X0913423Y0218974D03*
X0928187Y0227464D03*
X0897675Y0233185D03*
X0934093Y0237122D03*
X0864211Y0214484D03*
X0871100Y0189878D03*
X0921297Y0178933D03*
X0931140Y0177812D03*
X0840589Y0148539D03*
X0883896Y0147555D03*
X0597801Y0182917D03*
X0580821Y0182024D03*
X0574565Y0184705D03*
X0562053Y0182024D03*
X0554904Y0178449D03*
X0538911Y0183811D03*
X0554904Y0187386D03*
X0562947Y0192748D03*
X0526305Y0201685D03*
X0518262Y0199004D03*
X0518262Y0204366D03*
X0494132Y0207047D03*
X0451566Y0211516D03*
X0472683Y0216878D03*
X0487876Y0219559D03*
X0523022Y0226760D03*
X0534348Y0222240D03*
X0547754Y0220453D03*
X0559372Y0224921D03*
X0555797Y0229390D03*
X0523624Y0237433D03*
X0503963Y0231177D03*
X0480726Y0229390D03*
X0422636Y0224028D03*
X0417274Y0214197D03*
X0419955Y0209728D03*
X0436041Y0208835D03*
X0432467Y0199898D03*
X0416380Y0183811D03*
X0379832Y0169512D03*
X0457490Y0167724D03*
X0451234Y0148957D03*
X0461959Y0145382D03*
X0469108Y0147169D03*
X0477152Y0147169D03*
X0493644Y0134764D03*
X0547478Y0132008D03*
X0511112Y0192748D03*
X0574565Y0204366D03*
X0548648Y0247264D03*
X0612994Y0271394D03*
X0415486Y0262457D03*
X0376163Y0246370D03*
X0264801Y0237122D03*
X0258896Y0227464D03*
X0244132Y0218974D03*
X0261628Y0213194D03*
X0252006Y0210055D03*
X0233305Y0210547D03*
X0224447Y0206610D03*
X0194919Y0214484D03*
X0239211Y0193815D03*
X0234289Y0189878D03*
X0224447Y0182988D03*
X0201809Y0189878D03*
X0191967Y0174130D03*
X0221986Y0172161D03*
X0252006Y0178933D03*
X0261848Y0177812D03*
X0256927Y0187559D03*
X0264019Y0162103D03*
X0214604Y0147555D03*
X0171297Y0148539D03*
X0381526Y0217772D03*
X0228384Y0233185D03*
X1282285Y0271394D03*
D39*
X0928187Y0227464D02*
X0928187Y0218421D01*
X0926219Y0216453D01*
X0926219Y0187559D01*
X0916376Y0180035D02*
X0913423Y0182988D01*
X0913423Y0210547D01*
X0902596Y0210547D01*
X0893738Y0206610D02*
X0893738Y0229248D01*
X0897675Y0233185D01*
X0896100Y0241650D02*
X0895707Y0242043D01*
X0896100Y0241650D02*
X0907085Y0241650D01*
X0864211Y0227280D02*
X0864211Y0214484D01*
X0913423Y0210547D02*
X0913423Y0218974D01*
X0921297Y0210055D02*
X0921297Y0178933D01*
X0916376Y0180035D02*
X0916376Y0170193D01*
X0916376Y0153461D01*
X0911344Y0153461D01*
X0907872Y0149988D01*
X0861258Y0157398D02*
X0861258Y0174130D01*
X0838620Y0182988D02*
X0893738Y0182988D01*
X0907872Y0169988D02*
X0908077Y0170193D01*
X0916376Y0170193D01*
X0861258Y0157398D02*
X0852400Y0148539D01*
X0840589Y0148539D01*
X0828250Y0148539D01*
X0838620Y0182988D02*
X0824368Y0197240D01*
X0864211Y0227280D02*
X0851289Y0240201D01*
X0851289Y0240862D01*
X0895707Y0260744D02*
X0906179Y0260744D01*
X0907085Y0261650D01*
X0258896Y0227464D02*
X0258896Y0218421D01*
X0256927Y0216453D01*
X0256927Y0187559D01*
X0247085Y0180035D02*
X0244132Y0182988D01*
X0244132Y0210547D01*
X0233305Y0210547D01*
X0224447Y0206610D02*
X0224447Y0229248D01*
X0228384Y0233185D01*
X0226809Y0241650D02*
X0226415Y0242043D01*
X0226809Y0241650D02*
X0237793Y0241650D01*
X0194919Y0227280D02*
X0194919Y0214484D01*
X0244132Y0210547D02*
X0244132Y0218974D01*
X0252006Y0210055D02*
X0252006Y0178933D01*
X0247085Y0180035D02*
X0247085Y0170193D01*
X0247085Y0153461D01*
X0242053Y0153461D01*
X0238581Y0149988D01*
X0191967Y0157398D02*
X0191967Y0174130D01*
X0169329Y0182988D02*
X0224447Y0182988D01*
X0238581Y0169988D02*
X0238785Y0170193D01*
X0247085Y0170193D01*
X0191967Y0157398D02*
X0183108Y0148539D01*
X0171297Y0148539D01*
X0158959Y0148539D01*
X0169329Y0182988D02*
X0155077Y0197240D01*
X0194919Y0227280D02*
X0181998Y0240201D01*
X0181998Y0240862D01*
X0226415Y0260744D02*
X0236888Y0260744D01*
X0237793Y0261650D01*
D40*
X0252498Y0237122D02*
X0227892Y0212516D01*
X0227892Y0205134D01*
X0239211Y0193815D01*
X0261848Y0177812D02*
X0261525Y0211003D01*
X0261628Y0212490D01*
X0261628Y0213194D01*
X0264801Y0237122D02*
X0252498Y0237122D01*
X0156533Y0213008D02*
X0155549Y0213992D01*
X0146100Y0213992D01*
X0139407Y0213992D02*
X0139407Y0215370D01*
X0124545Y0229740D01*
X0139407Y0213992D02*
X0137833Y0212417D01*
X0137833Y0204150D01*
X0129959Y0196276D01*
X0124545Y0196276D01*
X0121100Y0199720D01*
X0119624Y0199720D01*
X0125037Y0184465D02*
X0121593Y0181020D01*
X0121593Y0171177D01*
X0124545Y0168224D01*
X0125037Y0184465D02*
X0137341Y0184465D01*
X0182595Y0131833D02*
X0203226Y0151492D01*
X0559072Y0148229D02*
X0560126Y0149482D01*
X0568667Y0159634D01*
X0568667Y0161138D01*
X0617163Y0165429D02*
X0617163Y0155429D01*
X0617163Y0145429D01*
X0617163Y0135429D01*
X0657852Y0165921D02*
X0673266Y0150508D01*
X0690982Y0150508D01*
X0695904Y0145587D01*
X0695904Y0131984D01*
X0696081Y0131807D01*
X0706081Y0131807D02*
X0706081Y0139543D01*
X0685274Y0160350D01*
X0677203Y0160350D01*
X0676219Y0161335D01*
X0697380Y0154858D02*
X0698856Y0165075D01*
X0706927Y0173146D01*
X0701396Y0189799D02*
X0684880Y0173283D01*
X0684880Y0173146D01*
X0667852Y0173146D01*
X0657852Y0173146D02*
X0657852Y0165921D01*
X0647852Y0173146D02*
X0647852Y0183559D01*
X0643010Y0188402D01*
X0654407Y0199799D01*
X0701396Y0199799D01*
X0672518Y0227181D02*
X0658344Y0213008D01*
X0701396Y0223264D02*
X0704683Y0223264D01*
X0708699Y0227280D01*
X0708699Y0235154D01*
X0702793Y0241059D01*
X0692262Y0241059D01*
X0682419Y0250902D01*
X0657360Y0251394D02*
X0657360Y0263539D01*
X0676219Y0282398D01*
X0689998Y0282398D01*
X0692951Y0285350D01*
X0697203Y0285350D01*
X0705077Y0293224D01*
X0695077Y0293224D02*
X0687203Y0285350D01*
X0641770Y0285350D01*
X0640963Y0286157D01*
X0640963Y0293224D01*
X0697380Y0280843D02*
X0697872Y0257496D01*
X0704467Y0250902D01*
X0685982Y0233264D02*
X0678187Y0241059D01*
X0657695Y0241059D01*
X0647360Y0251394D01*
X0642518Y0246551D01*
X0642518Y0235154D01*
X0672518Y0235154D02*
X0672518Y0227181D01*
X0685982Y0233264D02*
X0701396Y0233264D01*
X0793837Y0229740D02*
X0808699Y0215370D01*
X0808699Y0213992D01*
X0807124Y0212417D01*
X0807124Y0204150D01*
X0799250Y0196276D01*
X0793837Y0196276D01*
X0790392Y0199720D01*
X0788915Y0199720D01*
X0794329Y0184465D02*
X0790884Y0181020D01*
X0790884Y0171177D01*
X0793837Y0168224D01*
X0794329Y0184465D02*
X0806632Y0184465D01*
X0897183Y0205134D02*
X0908502Y0193815D01*
X0897183Y0205134D02*
X0897183Y0212516D01*
X0921789Y0237122D01*
X0934093Y0237122D01*
X0930920Y0213194D02*
X0930920Y0212490D01*
X0930816Y0211003D01*
X0931140Y0177812D01*
X0872518Y0151492D02*
X0851886Y0131833D01*
X0825825Y0213008D02*
X0824841Y0213992D01*
X0815392Y0213992D01*
X1118837Y0270587D02*
X1118837Y0280949D01*
X1117404Y0282382D01*
X1126317Y0281295D02*
X1127404Y0282382D01*
X1126317Y0281295D02*
X1126317Y0270587D01*
X1310254Y0286157D02*
X1311061Y0285350D01*
X1356494Y0285350D01*
X1364368Y0293224D01*
X1366494Y0285350D02*
X1374368Y0293224D01*
X1366494Y0285350D02*
X1362242Y0285350D01*
X1359289Y0282398D01*
X1345510Y0282398D01*
X1326652Y0263539D01*
X1326652Y0251394D01*
X1316652Y0251394D02*
X1311809Y0246551D01*
X1311809Y0235154D01*
X1326986Y0241059D02*
X1316652Y0251394D01*
X1351711Y0250902D02*
X1361553Y0241059D01*
X1372085Y0241059D01*
X1377990Y0235154D01*
X1377990Y0227280D01*
X1373974Y0223264D01*
X1370687Y0223264D01*
X1341809Y0227181D02*
X1327636Y0213008D01*
X1323699Y0199799D02*
X1312301Y0188402D01*
X1317144Y0183559D01*
X1317144Y0173146D01*
X1327144Y0173146D02*
X1327144Y0165921D01*
X1342557Y0150508D01*
X1360274Y0150508D01*
X1365195Y0145587D01*
X1365195Y0131984D01*
X1365372Y0131807D01*
X1375372Y0131807D02*
X1375372Y0139543D01*
X1354565Y0160350D01*
X1346494Y0160350D01*
X1345510Y0161335D01*
X1366671Y0154858D02*
X1368148Y0165075D01*
X1376219Y0173146D01*
X1370687Y0189799D02*
X1354171Y0173283D01*
X1354171Y0173146D01*
X1337144Y0173146D01*
X1286455Y0165429D02*
X1286455Y0155429D01*
X1286455Y0145429D01*
X1286455Y0135429D01*
X1237959Y0159634D02*
X1229418Y0149482D01*
X1228363Y0148229D01*
X1237959Y0159634D02*
X1237959Y0161138D01*
X1323699Y0199799D02*
X1370687Y0199799D01*
X1341809Y0227181D02*
X1341809Y0235154D01*
X1347478Y0241059D02*
X1355274Y0233264D01*
X1370687Y0233264D01*
X1347478Y0241059D02*
X1326986Y0241059D01*
X1367163Y0257496D02*
X1373758Y0250902D01*
X1367163Y0257496D02*
X1366671Y0280843D01*
X1310254Y0286157D02*
X1310254Y0293224D01*
X0458112Y0282382D02*
X0457026Y0281295D01*
X0457026Y0270587D01*
X0449545Y0270587D02*
X0449545Y0280949D01*
X0448112Y0282382D01*
D41*
X0155077Y0197240D02*
X0152478Y0197240D01*
X0145116Y0189878D01*
X0155077Y0197240D02*
X0152124Y0200193D01*
X0218541Y0163303D02*
X0239211Y0183972D01*
X0239211Y0193815D01*
X0234289Y0189878D02*
X0234289Y0182988D01*
X0223463Y0172161D01*
X0221986Y0172161D01*
X0218541Y0163303D02*
X0218541Y0155429D01*
X0214604Y0151492D01*
X0203226Y0151492D01*
X0214604Y0147555D02*
X0229368Y0147555D01*
X0234289Y0142634D01*
X0256927Y0142634D01*
X0256927Y0162319D01*
X0264019Y0162103D01*
X0814407Y0189878D02*
X0821770Y0197240D01*
X0824368Y0197240D01*
X0821415Y0200193D01*
X0887833Y0163303D02*
X0908502Y0183972D01*
X0908502Y0193815D01*
X0903581Y0189878D02*
X0903581Y0182988D01*
X0892754Y0172161D01*
X0891278Y0172161D01*
X0887833Y0163303D02*
X0887833Y0155429D01*
X0883896Y0151492D01*
X0872518Y0151492D01*
X0883896Y0147555D02*
X0898659Y0147555D01*
X0903581Y0142634D01*
X0926219Y0142634D01*
X0926219Y0162319D01*
X0933311Y0162103D01*
D42*
X0858305Y0145094D03*
X0885864Y0140665D03*
X0898167Y0140665D03*
X0793837Y0168224D03*
X0806632Y0184465D03*
X0788915Y0199720D03*
X0793837Y0229740D03*
X0617163Y0194799D03*
X0611258Y0182988D03*
X0676219Y0161335D03*
X0228876Y0140665D03*
X0216573Y0140665D03*
X0189014Y0145094D03*
X0124545Y0168224D03*
X0137341Y0184465D03*
X0119624Y0199720D03*
X0124545Y0229740D03*
X0379959Y0274524D03*
X0406533Y0274524D03*
X0417360Y0274524D03*
X1049250Y0274524D03*
X1075825Y0274524D03*
X1086652Y0274524D03*
X1286455Y0194799D03*
X1280549Y0182988D03*
X1345510Y0161335D03*
D43*
X1412537Y0154445D02*
X1413236Y0155183D01*
X1413915Y0154445D01*
X1425726Y0154445D02*
X1425736Y0155183D01*
X1426986Y0155183D01*
X1427104Y0154445D01*
X1276986Y0157683D02*
X1276986Y0147683D01*
X1258236Y0147683D01*
X1261285Y0146955D01*
X1229418Y0149482D02*
X1229368Y0149524D01*
X1168713Y0149524D01*
X1158870Y0139681D01*
X1073856Y0139681D01*
X1042360Y0171177D01*
X1042360Y0179051D01*
X1034486Y0186925D01*
X1034486Y0212516D01*
X1004959Y0212516D01*
X0981337Y0236138D01*
X0977400Y0236138D01*
X0976392Y0237862D01*
X1120736Y0205983D02*
X1120736Y0162683D01*
X1118236Y0160183D01*
X1118176Y0159166D01*
X1112482Y0163256D02*
X1112482Y0151638D01*
X1118738Y0145382D01*
X1120526Y0148957D02*
X1114317Y0152367D01*
X1114270Y0175768D01*
X1130266Y0170063D02*
X1130886Y0171933D01*
X1130736Y0203933D01*
X1146986Y0203933D01*
X1147815Y0203783D01*
X1147815Y0197484D02*
X1146986Y0196433D01*
X1136986Y0196433D01*
X1136986Y0192233D02*
X1141786Y0193033D01*
X1145286Y0191933D01*
X1153236Y0191433D01*
X1153691Y0191608D01*
X1156841Y0191608D02*
X1156986Y0191433D01*
X1156536Y0190183D01*
X1156186Y0187803D01*
X1142206Y0188093D01*
X1141376Y0189493D01*
X1138236Y0186433D02*
X1156986Y0186163D01*
X1159486Y0188933D01*
X1159486Y0191433D01*
X1159990Y0191608D01*
X1163140Y0191608D02*
X1163236Y0192683D01*
X1163236Y0193933D01*
X1161536Y0197233D01*
X1154036Y0197233D01*
X1159426Y0200123D02*
X1159486Y0207683D01*
X1163236Y0211433D01*
X1163236Y0225183D01*
X1163140Y0225408D01*
X1147815Y0213232D02*
X1146986Y0212683D01*
X1140736Y0212683D01*
X1134036Y0205983D01*
X1120736Y0205983D01*
X1171636Y0200183D02*
X1180736Y0200183D01*
X1181615Y0200634D01*
X1156076Y0183313D02*
X1151536Y0180083D01*
X1151536Y0172683D01*
X1138236Y0160183D01*
X1138176Y0159166D01*
X1130266Y0160963D02*
X1128469Y0159166D01*
X1128176Y0159166D01*
X1130266Y0160963D02*
X1130266Y0170063D01*
X1132144Y0169512D02*
X1135719Y0173087D01*
X1135719Y0177555D01*
X1132144Y0169512D02*
X1132144Y0150744D01*
X1171363Y0160490D02*
X1171986Y0161433D01*
X1171986Y0162683D01*
X1171779Y0162475D01*
X1181363Y0160490D02*
X1181986Y0161433D01*
X1181986Y0162683D01*
X1181779Y0162475D01*
X1191363Y0160490D02*
X1191986Y0161433D01*
X1191986Y0162683D01*
X1191779Y0162475D01*
X1276612Y0157683D02*
X1276986Y0157683D01*
X1085671Y0183811D02*
X1084486Y0182683D01*
X1070736Y0182683D01*
X1070736Y0162683D01*
X1068236Y0160183D01*
X1068176Y0159166D01*
X0842104Y0133815D02*
X0841986Y0133933D01*
X0841986Y0132683D01*
X0841886Y0131833D01*
X0757813Y0154445D02*
X0757695Y0155183D01*
X0756445Y0155183D01*
X0756435Y0154445D01*
X0744624Y0154445D02*
X0743945Y0155183D01*
X0743246Y0154445D01*
X0607695Y0157683D02*
X0607695Y0147683D01*
X0588945Y0147683D01*
X0591993Y0146955D01*
X0560126Y0149482D02*
X0560077Y0149524D01*
X0499422Y0149524D01*
X0489579Y0139681D01*
X0404565Y0139681D01*
X0373069Y0171177D01*
X0373069Y0179051D01*
X0365195Y0186925D01*
X0365195Y0212516D01*
X0335667Y0212516D01*
X0312045Y0236138D01*
X0308108Y0236138D01*
X0307100Y0237862D01*
X0451445Y0205983D02*
X0451445Y0162683D01*
X0448945Y0160183D01*
X0448885Y0159166D01*
X0443191Y0163256D02*
X0443191Y0151638D01*
X0449447Y0145382D01*
X0451234Y0148957D02*
X0445025Y0152367D01*
X0444978Y0175768D01*
X0460975Y0170063D02*
X0461595Y0171933D01*
X0461445Y0203933D01*
X0477695Y0203933D01*
X0478523Y0203783D01*
X0478523Y0197484D02*
X0477695Y0196433D01*
X0467695Y0196433D01*
X0467695Y0192233D02*
X0472495Y0193033D01*
X0475995Y0191933D01*
X0483945Y0191433D01*
X0484400Y0191608D01*
X0487549Y0191608D02*
X0487695Y0191433D01*
X0487245Y0190183D01*
X0486895Y0187803D01*
X0472915Y0188093D01*
X0472085Y0189493D01*
X0468945Y0186433D02*
X0487695Y0186163D01*
X0490195Y0188933D01*
X0490195Y0191433D01*
X0490699Y0191608D01*
X0493848Y0191608D02*
X0493945Y0192683D01*
X0493945Y0193933D01*
X0492245Y0197233D01*
X0484745Y0197233D01*
X0490135Y0200123D02*
X0490195Y0207683D01*
X0493945Y0211433D01*
X0493945Y0225183D01*
X0493848Y0225408D01*
X0478523Y0213232D02*
X0477695Y0212683D01*
X0471445Y0212683D01*
X0464745Y0205983D01*
X0451445Y0205983D01*
X0502345Y0200183D02*
X0511445Y0200183D01*
X0512323Y0200634D01*
X0486785Y0183313D02*
X0482245Y0180083D01*
X0482245Y0172683D01*
X0468945Y0160183D01*
X0468885Y0159166D01*
X0460975Y0160963D02*
X0459178Y0159166D01*
X0458885Y0159166D01*
X0460975Y0160963D02*
X0460975Y0170063D01*
X0462852Y0169512D02*
X0466427Y0173087D01*
X0466427Y0177555D01*
X0462852Y0169512D02*
X0462852Y0150744D01*
X0502072Y0160490D02*
X0502695Y0161433D01*
X0502695Y0162683D01*
X0502487Y0162475D01*
X0512072Y0160490D02*
X0512695Y0161433D01*
X0512695Y0162683D01*
X0512487Y0162475D01*
X0522072Y0160490D02*
X0522695Y0161433D01*
X0522695Y0162683D01*
X0522487Y0162475D01*
X0607321Y0157683D02*
X0607695Y0157683D01*
X0416380Y0183811D02*
X0415195Y0182683D01*
X0401445Y0182683D01*
X0401445Y0162683D01*
X0398945Y0160183D01*
X0398885Y0159166D01*
X0172813Y0133815D02*
X0172695Y0133933D01*
X0172695Y0132683D01*
X0172595Y0131833D01*
X0744410Y0273472D02*
X0745195Y0273933D01*
X0745788Y0273472D01*
X0758945Y0273472D02*
X0758945Y0273933D01*
X0758977Y0273472D01*
X1413701Y0273472D02*
X1414486Y0273933D01*
X1415079Y0273472D01*
X1428236Y0273472D02*
X1428236Y0273933D01*
X1428268Y0273472D01*
D44*
X1171636Y0200183D03*
X1159426Y0200123D03*
X1154036Y0197233D03*
X1136986Y0196433D03*
X1136986Y0192233D03*
X1141376Y0189493D03*
X1138236Y0186433D03*
X1156076Y0183313D03*
X0502345Y0200183D03*
X0490135Y0200123D03*
X0484745Y0197233D03*
X0467695Y0196433D03*
X0467695Y0192233D03*
X0472085Y0189493D03*
X0468945Y0186433D03*
X0486785Y0183313D03*
D45*
X0226415Y0242043D02*
X0201809Y0217437D01*
X0201809Y0189878D01*
X0216573Y0193201D02*
X0216801Y0192972D01*
X0216573Y0193201D02*
X0216573Y0203657D01*
X0216801Y0203886D01*
X0216801Y0216831D01*
X0187045Y0224327D02*
X0187045Y0203657D01*
X0191967Y0203657D01*
X0177746Y0192972D02*
X0177746Y0214484D01*
X0177746Y0216831D01*
X0174250Y0214484D02*
X0167360Y0214484D01*
X0156533Y0213008D02*
X0156533Y0204484D01*
X0156415Y0204484D01*
X0152124Y0200193D01*
X0145116Y0193185D01*
X0145116Y0189878D01*
X0145116Y0177476D01*
X0128974Y0161335D01*
X0127990Y0160350D01*
X0127990Y0149067D01*
X0127463Y0148539D01*
X0128974Y0161335D02*
X0160470Y0161335D01*
X0175785Y0176650D01*
X0182675Y0176650D01*
X0156533Y0213008D02*
X0156533Y0223343D01*
X0167360Y0223343D01*
X0171297Y0227280D01*
X0172825Y0238547D02*
X0187045Y0224327D01*
X0156533Y0223343D02*
X0140785Y0223343D01*
X0140785Y0224327D01*
X0128022Y0237091D01*
X0128022Y0238547D01*
X0128022Y0279280D01*
X0127659Y0279642D01*
X0143246Y0279445D01*
X0127659Y0279642D02*
X0127659Y0285020D01*
X0134880Y0292240D01*
X0159156Y0279642D02*
X0159156Y0238909D01*
X0159518Y0238547D01*
X0172825Y0238547D01*
X0159518Y0238547D02*
X0144179Y0238547D01*
X0143738Y0238106D01*
X0181998Y0250862D02*
X0188974Y0250862D01*
X0212636Y0274524D01*
X0226415Y0260744D01*
X0226415Y0242043D01*
X0211793Y0240941D02*
X0209943Y0239091D01*
X0192951Y0239091D01*
X0797313Y0238547D02*
X0797313Y0237091D01*
X0810077Y0224327D01*
X0810077Y0223343D01*
X0825825Y0223343D01*
X0836652Y0223343D01*
X0840589Y0227280D01*
X0842116Y0238547D02*
X0856337Y0224327D01*
X0856337Y0203657D01*
X0861258Y0203657D01*
X0885864Y0203657D02*
X0886093Y0203886D01*
X0886093Y0216831D01*
X0871100Y0217437D02*
X0895707Y0242043D01*
X0895707Y0260744D01*
X0881927Y0274524D01*
X0858266Y0250862D01*
X0851289Y0250862D01*
X0879234Y0239091D02*
X0881085Y0240941D01*
X0879234Y0239091D02*
X0862242Y0239091D01*
X0842116Y0238547D02*
X0828809Y0238547D01*
X0813470Y0238547D01*
X0813030Y0238106D01*
X0828447Y0238909D02*
X0828809Y0238547D01*
X0828447Y0238909D02*
X0828447Y0279642D01*
X0812537Y0279445D02*
X0796951Y0279642D01*
X0796951Y0285020D01*
X0804171Y0292240D01*
X0796951Y0279642D02*
X0797313Y0279280D01*
X0797313Y0238547D01*
X0825825Y0223343D02*
X0825825Y0213008D01*
X0825825Y0204484D01*
X0825707Y0204484D01*
X0821415Y0200193D01*
X0814407Y0193185D01*
X0814407Y0189878D01*
X0814407Y0177476D01*
X0798266Y0161335D01*
X0797281Y0160350D01*
X0797281Y0149067D01*
X0796754Y0148539D01*
X0798266Y0161335D02*
X0829762Y0161335D01*
X0845077Y0176650D01*
X0851967Y0176650D01*
X0871100Y0189878D02*
X0871100Y0217437D01*
X0847037Y0216831D02*
X0847037Y0214484D01*
X0847037Y0192972D01*
X0885864Y0193201D02*
X0886093Y0192972D01*
X0885864Y0193201D02*
X0885864Y0203657D01*
X0843541Y0214484D02*
X0836652Y0214484D01*
D46*
X0881927Y0274524D02*
X0881886Y0292933D01*
X0871886Y0292933D01*
X0861886Y0292933D01*
X0881886Y0292933D02*
X0891886Y0292933D01*
X0222595Y0292933D02*
X0212595Y0292933D01*
X0202595Y0292933D01*
X0192595Y0292933D01*
X0212595Y0292933D02*
X0212636Y0274524D01*
D47*
X0192951Y0239091D03*
X0171297Y0227280D03*
X0143738Y0238106D03*
X0167360Y0214484D03*
X0191967Y0203657D03*
X0216573Y0203657D03*
X0127990Y0160350D03*
X0797281Y0160350D03*
X0861258Y0203657D03*
X0885864Y0203657D03*
X0836652Y0214484D03*
X0840589Y0227280D03*
X0862242Y0239091D03*
X0813030Y0238106D03*
D48*
X0812537Y0279445D03*
X0143246Y0279445D03*
D49*
X0348069Y0293224D02*
X0358069Y0293224D01*
X0368069Y0293224D01*
X0378069Y0293224D01*
X0378482Y0292811D01*
X0378482Y0283382D01*
X0411455Y0283382D01*
X0431140Y0283382D01*
X0431140Y0294209D01*
X0463620Y0294209D01*
X0463620Y0282382D01*
X0468112Y0282382D01*
X0463620Y0294209D02*
X0498738Y0294209D01*
X0498738Y0293224D01*
X0177746Y0214484D02*
X0174250Y0214484D01*
X0843541Y0214484D02*
X0847037Y0214484D01*
X1047774Y0283382D02*
X1080746Y0283382D01*
X1100431Y0283382D01*
X1100431Y0294209D01*
X1132911Y0294209D01*
X1132911Y0282382D01*
X1137404Y0282382D01*
X1132911Y0294209D02*
X1168030Y0294209D01*
X1168030Y0293224D01*
X1047774Y0292811D02*
X1047774Y0283382D01*
X1047774Y0292811D02*
X1047360Y0293224D01*
X1037360Y0293224D01*
X1027360Y0293224D01*
X1017360Y0293224D01*
D50*
X0782518Y0293375D02*
X0719526Y0293375D01*
X0719526Y0291777D02*
X0782518Y0291777D01*
X0782518Y0290178D02*
X0719526Y0290178D01*
X0719526Y0288580D02*
X0782518Y0288580D01*
X0782518Y0286981D02*
X0719526Y0286981D01*
X0719526Y0285383D02*
X0782518Y0285383D01*
X0782518Y0283784D02*
X0719526Y0283784D01*
X0719526Y0282186D02*
X0782518Y0282186D01*
X0782518Y0280587D02*
X0760183Y0280587D01*
X0760183Y0280630D02*
X0759246Y0281568D01*
X0755952Y0281568D01*
X0755433Y0281049D01*
X0754915Y0281568D01*
X0748472Y0281568D01*
X0747953Y0281049D01*
X0747435Y0281568D01*
X0744141Y0281568D01*
X0743204Y0280630D01*
X0743204Y0276056D01*
X0742960Y0276056D01*
X0742775Y0275872D01*
X0739897Y0275872D01*
X0739015Y0275506D01*
X0738340Y0274831D01*
X0737974Y0273949D01*
X0737974Y0253269D01*
X0737970Y0253258D01*
X0737974Y0252792D01*
X0737974Y0252325D01*
X0737979Y0252315D01*
X0738035Y0245980D01*
X0719526Y0245980D01*
X0719526Y0300334D01*
X0782518Y0300334D01*
X0782518Y0245980D01*
X0766365Y0245980D01*
X0766394Y0252320D01*
X0766396Y0252325D01*
X0766396Y0252798D01*
X0766399Y0253269D01*
X0766396Y0253274D01*
X0766396Y0273949D01*
X0766031Y0274831D01*
X0765356Y0275506D01*
X0764474Y0275872D01*
X0760611Y0275872D01*
X0760427Y0276056D01*
X0760183Y0276056D01*
X0760183Y0280630D01*
X0760183Y0278989D02*
X0782518Y0278989D01*
X0782518Y0277390D02*
X0760183Y0277390D01*
X0758977Y0273472D02*
X0763996Y0273472D01*
X0763996Y0252802D01*
X0763918Y0235480D01*
X0756437Y0235283D01*
X0746437Y0235283D02*
X0740532Y0235086D01*
X0740374Y0252802D01*
X0740374Y0273472D01*
X0744410Y0273472D01*
X0745788Y0273472D01*
X0743204Y0270887D02*
X0743204Y0266313D01*
X0744141Y0265376D01*
X0747435Y0265376D01*
X0747953Y0265894D01*
X0748472Y0265376D01*
X0754915Y0265376D01*
X0755433Y0265894D01*
X0755952Y0265376D01*
X0759246Y0265376D01*
X0760183Y0266313D01*
X0760183Y0270887D01*
X0760427Y0270887D01*
X0760611Y0271072D01*
X0761596Y0271072D01*
X0761596Y0252809D01*
X0761565Y0245980D01*
X0742835Y0245980D01*
X0742774Y0252812D01*
X0742774Y0271072D01*
X0742775Y0271072D01*
X0742960Y0270887D01*
X0743204Y0270887D01*
X0742851Y0270996D02*
X0742774Y0270996D01*
X0742774Y0269398D02*
X0743204Y0269398D01*
X0743204Y0267799D02*
X0742774Y0267799D01*
X0742774Y0266201D02*
X0743316Y0266201D01*
X0742774Y0264602D02*
X0761596Y0264602D01*
X0761596Y0263004D02*
X0742774Y0263004D01*
X0742774Y0261405D02*
X0761596Y0261405D01*
X0761596Y0259807D02*
X0742774Y0259807D01*
X0742774Y0258208D02*
X0761596Y0258208D01*
X0761596Y0256610D02*
X0742774Y0256610D01*
X0742774Y0255011D02*
X0761596Y0255011D01*
X0761596Y0253412D02*
X0742774Y0253412D01*
X0742783Y0251814D02*
X0761592Y0251814D01*
X0761585Y0250215D02*
X0742797Y0250215D01*
X0742812Y0248617D02*
X0761577Y0248617D01*
X0761570Y0247018D02*
X0742826Y0247018D01*
X0738026Y0247018D02*
X0719526Y0247018D01*
X0719526Y0248617D02*
X0738012Y0248617D01*
X0737997Y0250215D02*
X0719526Y0250215D01*
X0719526Y0251814D02*
X0737983Y0251814D01*
X0737974Y0253412D02*
X0719526Y0253412D01*
X0719526Y0255011D02*
X0737974Y0255011D01*
X0737974Y0256610D02*
X0719526Y0256610D01*
X0719526Y0258208D02*
X0737974Y0258208D01*
X0737974Y0259807D02*
X0719526Y0259807D01*
X0719526Y0261405D02*
X0737974Y0261405D01*
X0737974Y0263004D02*
X0719526Y0263004D01*
X0719526Y0264602D02*
X0737974Y0264602D01*
X0737974Y0266201D02*
X0719526Y0266201D01*
X0719526Y0267799D02*
X0737974Y0267799D01*
X0737974Y0269398D02*
X0719526Y0269398D01*
X0719526Y0270996D02*
X0737974Y0270996D01*
X0737974Y0272595D02*
X0719526Y0272595D01*
X0719526Y0274193D02*
X0738076Y0274193D01*
X0739704Y0275792D02*
X0719526Y0275792D01*
X0719526Y0277390D02*
X0743204Y0277390D01*
X0743204Y0278989D02*
X0719526Y0278989D01*
X0719526Y0280587D02*
X0743204Y0280587D01*
X0764667Y0275792D02*
X0782518Y0275792D01*
X0782518Y0274193D02*
X0766295Y0274193D01*
X0766396Y0272595D02*
X0782518Y0272595D01*
X0782518Y0270996D02*
X0766396Y0270996D01*
X0766396Y0269398D02*
X0782518Y0269398D01*
X0782518Y0267799D02*
X0766396Y0267799D01*
X0766396Y0266201D02*
X0782518Y0266201D01*
X0782518Y0264602D02*
X0766396Y0264602D01*
X0766396Y0263004D02*
X0782518Y0263004D01*
X0782518Y0261405D02*
X0766396Y0261405D01*
X0766396Y0259807D02*
X0782518Y0259807D01*
X0782518Y0258208D02*
X0766396Y0258208D01*
X0766396Y0256610D02*
X0782518Y0256610D01*
X0782518Y0255011D02*
X0766396Y0255011D01*
X0766396Y0253412D02*
X0782518Y0253412D01*
X0782518Y0251814D02*
X0766392Y0251814D01*
X0766385Y0250215D02*
X0782518Y0250215D01*
X0782518Y0248617D02*
X0766377Y0248617D01*
X0766370Y0247018D02*
X0782518Y0247018D01*
X0761596Y0266201D02*
X0760071Y0266201D01*
X0760183Y0267799D02*
X0761596Y0267799D01*
X0761596Y0269398D02*
X0760183Y0269398D01*
X0760536Y0270996D02*
X0761596Y0270996D01*
X0758977Y0273472D02*
X0758945Y0273472D01*
X0757599Y0273472D01*
X0782518Y0294974D02*
X0719526Y0294974D01*
X0719526Y0296572D02*
X0782518Y0296572D01*
X0782518Y0298171D02*
X0719526Y0298171D01*
X0719526Y0299769D02*
X0782518Y0299769D01*
X0762833Y0192339D02*
X0755293Y0192339D01*
X0762833Y0192339D02*
X0762833Y0153461D01*
X0757813Y0153461D01*
X0757813Y0154445D01*
X0760200Y0155861D02*
X0760200Y0156092D01*
X0759263Y0157029D01*
X0759019Y0157029D01*
X0759019Y0161604D01*
X0758082Y0162541D01*
X0754788Y0162541D01*
X0754270Y0162023D01*
X0753751Y0162541D01*
X0747308Y0162541D01*
X0746789Y0162023D01*
X0746271Y0162541D01*
X0742977Y0162541D01*
X0742040Y0161604D01*
X0742040Y0157029D01*
X0741796Y0157029D01*
X0741611Y0156844D01*
X0741611Y0182988D01*
X0760433Y0182988D01*
X0760433Y0155861D01*
X0760200Y0155861D01*
X0760200Y0155903D02*
X0760433Y0155903D01*
X0760433Y0157502D02*
X0759019Y0157502D01*
X0759019Y0159100D02*
X0760433Y0159100D01*
X0760433Y0160699D02*
X0759019Y0160699D01*
X0758326Y0162297D02*
X0760433Y0162297D01*
X0760433Y0163896D02*
X0741611Y0163896D01*
X0741611Y0165494D02*
X0760433Y0165494D01*
X0760433Y0167093D02*
X0741611Y0167093D01*
X0741611Y0168691D02*
X0760433Y0168691D01*
X0760433Y0170290D02*
X0741611Y0170290D01*
X0741611Y0171888D02*
X0760433Y0171888D01*
X0760433Y0173487D02*
X0741611Y0173487D01*
X0741611Y0175085D02*
X0760433Y0175085D01*
X0760433Y0176684D02*
X0741611Y0176684D01*
X0741611Y0178282D02*
X0760433Y0178282D01*
X0760433Y0179881D02*
X0741611Y0179881D01*
X0741611Y0181479D02*
X0760433Y0181479D01*
X0765233Y0181479D02*
X0782518Y0181479D01*
X0782518Y0182988D02*
X0765233Y0182988D01*
X0765233Y0152983D01*
X0764867Y0152101D01*
X0764192Y0151426D01*
X0763310Y0151061D01*
X0759019Y0151061D01*
X0759019Y0147286D01*
X0758082Y0146349D01*
X0754788Y0146349D01*
X0754270Y0146867D01*
X0753751Y0146349D01*
X0747308Y0146349D01*
X0746789Y0146867D01*
X0746271Y0146349D01*
X0742977Y0146349D01*
X0742040Y0147286D01*
X0742040Y0151061D01*
X0738733Y0151061D01*
X0737851Y0151426D01*
X0737176Y0152101D01*
X0736811Y0152983D01*
X0736811Y0182988D01*
X0719526Y0182988D01*
X0719526Y0126233D01*
X0782518Y0126233D01*
X0782518Y0182988D01*
X0782518Y0179881D02*
X0765233Y0179881D01*
X0765233Y0178282D02*
X0782518Y0178282D01*
X0782518Y0176684D02*
X0765233Y0176684D01*
X0765233Y0175085D02*
X0782518Y0175085D01*
X0782518Y0173487D02*
X0765233Y0173487D01*
X0765233Y0171888D02*
X0782518Y0171888D01*
X0782518Y0170290D02*
X0765233Y0170290D01*
X0765233Y0168691D02*
X0782518Y0168691D01*
X0782518Y0167093D02*
X0765233Y0167093D01*
X0765233Y0165494D02*
X0782518Y0165494D01*
X0782518Y0163896D02*
X0765233Y0163896D01*
X0765233Y0162297D02*
X0782518Y0162297D01*
X0782518Y0160699D02*
X0765233Y0160699D01*
X0765233Y0159100D02*
X0782518Y0159100D01*
X0782518Y0157502D02*
X0765233Y0157502D01*
X0765233Y0155903D02*
X0782518Y0155903D01*
X0782518Y0154305D02*
X0765233Y0154305D01*
X0765118Y0152706D02*
X0782518Y0152706D01*
X0782518Y0151108D02*
X0763424Y0151108D01*
X0759019Y0149509D02*
X0782518Y0149509D01*
X0782518Y0147911D02*
X0759019Y0147911D01*
X0743246Y0153461D02*
X0743246Y0154445D01*
X0743246Y0153461D02*
X0739211Y0153461D01*
X0739211Y0192339D01*
X0745293Y0192339D01*
X0736811Y0181479D02*
X0719526Y0181479D01*
X0719526Y0179881D02*
X0736811Y0179881D01*
X0736811Y0178282D02*
X0719526Y0178282D01*
X0719526Y0176684D02*
X0736811Y0176684D01*
X0736811Y0175085D02*
X0719526Y0175085D01*
X0719526Y0173487D02*
X0736811Y0173487D01*
X0736811Y0171888D02*
X0719526Y0171888D01*
X0719526Y0170290D02*
X0736811Y0170290D01*
X0736811Y0168691D02*
X0719526Y0168691D01*
X0719526Y0167093D02*
X0736811Y0167093D01*
X0736811Y0165494D02*
X0719526Y0165494D01*
X0719526Y0163896D02*
X0736811Y0163896D01*
X0736811Y0162297D02*
X0719526Y0162297D01*
X0719526Y0160699D02*
X0736811Y0160699D01*
X0736811Y0159100D02*
X0719526Y0159100D01*
X0719526Y0157502D02*
X0736811Y0157502D01*
X0736811Y0155903D02*
X0719526Y0155903D01*
X0719526Y0154305D02*
X0736811Y0154305D01*
X0736925Y0152706D02*
X0719526Y0152706D01*
X0719526Y0151108D02*
X0738619Y0151108D01*
X0742040Y0149509D02*
X0719526Y0149509D01*
X0719526Y0147911D02*
X0742040Y0147911D01*
X0742040Y0157502D02*
X0741611Y0157502D01*
X0741611Y0159100D02*
X0742040Y0159100D01*
X0742040Y0160699D02*
X0741611Y0160699D01*
X0741611Y0162297D02*
X0742733Y0162297D01*
X0746515Y0162297D02*
X0747064Y0162297D01*
X0753995Y0162297D02*
X0754544Y0162297D01*
X0782518Y0146312D02*
X0719526Y0146312D01*
X0719526Y0144714D02*
X0782518Y0144714D01*
X0782518Y0143115D02*
X0719526Y0143115D01*
X0719526Y0141517D02*
X0782518Y0141517D01*
X0782518Y0139918D02*
X0719526Y0139918D01*
X0719526Y0138320D02*
X0782518Y0138320D01*
X0782518Y0136721D02*
X0719526Y0136721D01*
X0719526Y0135123D02*
X0782518Y0135123D01*
X0782518Y0133524D02*
X0719526Y0133524D01*
X0719526Y0131926D02*
X0782518Y0131926D01*
X0782518Y0130327D02*
X0719526Y0130327D01*
X0719526Y0128729D02*
X0782518Y0128729D01*
X0782518Y0127130D02*
X0719526Y0127130D01*
X0841848Y0133559D02*
X0842104Y0133815D01*
X0849939Y0141650D01*
X0852400Y0141650D01*
X0855844Y0145094D01*
X0858305Y0145094D01*
X0885864Y0140665D02*
X0898167Y0140665D01*
X1388817Y0139918D02*
X1451478Y0139918D01*
X1451478Y0138320D02*
X1388817Y0138320D01*
X1388817Y0136721D02*
X1451478Y0136721D01*
X1451478Y0135123D02*
X1388817Y0135123D01*
X1388817Y0133524D02*
X1451478Y0133524D01*
X1451478Y0131926D02*
X1388817Y0131926D01*
X1388817Y0130327D02*
X1451478Y0130327D01*
X1451478Y0128729D02*
X1388817Y0128729D01*
X1388817Y0127130D02*
X1451478Y0127130D01*
X1451478Y0126233D02*
X1388817Y0126233D01*
X1388817Y0182988D01*
X1406102Y0182988D01*
X1406102Y0152983D01*
X1406467Y0152101D01*
X1407142Y0151426D01*
X1408025Y0151061D01*
X1411331Y0151061D01*
X1411331Y0147286D01*
X1412268Y0146349D01*
X1415562Y0146349D01*
X1416081Y0146867D01*
X1416599Y0146349D01*
X1423043Y0146349D01*
X1423561Y0146867D01*
X1424079Y0146349D01*
X1427373Y0146349D01*
X1428311Y0147286D01*
X1428311Y0151061D01*
X1432601Y0151061D01*
X1433484Y0151426D01*
X1434159Y0152101D01*
X1434524Y0152983D01*
X1434524Y0182988D01*
X1451478Y0182988D01*
X1451478Y0126233D01*
X1451478Y0141517D02*
X1388817Y0141517D01*
X1388817Y0143115D02*
X1451478Y0143115D01*
X1451478Y0144714D02*
X1388817Y0144714D01*
X1388817Y0146312D02*
X1451478Y0146312D01*
X1451478Y0147911D02*
X1428311Y0147911D01*
X1428311Y0149509D02*
X1451478Y0149509D01*
X1451478Y0151108D02*
X1432715Y0151108D01*
X1434409Y0152706D02*
X1451478Y0152706D01*
X1451478Y0154305D02*
X1434524Y0154305D01*
X1434524Y0155903D02*
X1451478Y0155903D01*
X1451478Y0157502D02*
X1434524Y0157502D01*
X1434524Y0159100D02*
X1451478Y0159100D01*
X1451478Y0160699D02*
X1434524Y0160699D01*
X1434524Y0162297D02*
X1451478Y0162297D01*
X1451478Y0163896D02*
X1434524Y0163896D01*
X1434524Y0165494D02*
X1451478Y0165494D01*
X1451478Y0167093D02*
X1434524Y0167093D01*
X1434524Y0168691D02*
X1451478Y0168691D01*
X1451478Y0170290D02*
X1434524Y0170290D01*
X1434524Y0171888D02*
X1451478Y0171888D01*
X1451478Y0173487D02*
X1434524Y0173487D01*
X1434524Y0175085D02*
X1451478Y0175085D01*
X1451478Y0176684D02*
X1434524Y0176684D01*
X1434524Y0178282D02*
X1451478Y0178282D01*
X1451478Y0179881D02*
X1434524Y0179881D01*
X1434524Y0181479D02*
X1451478Y0181479D01*
X1429724Y0181479D02*
X1410902Y0181479D01*
X1410902Y0182988D02*
X1429724Y0182988D01*
X1429724Y0155861D01*
X1429492Y0155861D01*
X1429492Y0156092D01*
X1428554Y0157029D01*
X1428311Y0157029D01*
X1428311Y0161604D01*
X1427373Y0162541D01*
X1424079Y0162541D01*
X1423561Y0162023D01*
X1423043Y0162541D01*
X1416599Y0162541D01*
X1416081Y0162023D01*
X1415562Y0162541D01*
X1412268Y0162541D01*
X1411331Y0161604D01*
X1411331Y0157029D01*
X1411087Y0157029D01*
X1410902Y0156844D01*
X1410902Y0182988D01*
X1410902Y0179881D02*
X1429724Y0179881D01*
X1429724Y0178282D02*
X1410902Y0178282D01*
X1410902Y0176684D02*
X1429724Y0176684D01*
X1429724Y0175085D02*
X1410902Y0175085D01*
X1410902Y0173487D02*
X1429724Y0173487D01*
X1429724Y0171888D02*
X1410902Y0171888D01*
X1410902Y0170290D02*
X1429724Y0170290D01*
X1429724Y0168691D02*
X1410902Y0168691D01*
X1410902Y0167093D02*
X1429724Y0167093D01*
X1429724Y0165494D02*
X1410902Y0165494D01*
X1410902Y0163896D02*
X1429724Y0163896D01*
X1429724Y0162297D02*
X1427617Y0162297D01*
X1428311Y0160699D02*
X1429724Y0160699D01*
X1429724Y0159100D02*
X1428311Y0159100D01*
X1428311Y0157502D02*
X1429724Y0157502D01*
X1429724Y0155903D02*
X1429492Y0155903D01*
X1427104Y0154445D02*
X1427104Y0153461D01*
X1432124Y0153461D01*
X1432124Y0192339D01*
X1424585Y0192339D01*
X1414585Y0192339D02*
X1408502Y0192339D01*
X1408502Y0153461D01*
X1412537Y0153461D01*
X1412537Y0154445D01*
X1411331Y0157502D02*
X1410902Y0157502D01*
X1410902Y0159100D02*
X1411331Y0159100D01*
X1411331Y0160699D02*
X1410902Y0160699D01*
X1410902Y0162297D02*
X1412025Y0162297D01*
X1415806Y0162297D02*
X1416355Y0162297D01*
X1423286Y0162297D02*
X1423836Y0162297D01*
X1406102Y0162297D02*
X1388817Y0162297D01*
X1388817Y0160699D02*
X1406102Y0160699D01*
X1406102Y0159100D02*
X1388817Y0159100D01*
X1388817Y0157502D02*
X1406102Y0157502D01*
X1406102Y0155903D02*
X1388817Y0155903D01*
X1388817Y0154305D02*
X1406102Y0154305D01*
X1406217Y0152706D02*
X1388817Y0152706D01*
X1388817Y0151108D02*
X1407911Y0151108D01*
X1411331Y0149509D02*
X1388817Y0149509D01*
X1388817Y0147911D02*
X1411331Y0147911D01*
X1406102Y0163896D02*
X1388817Y0163896D01*
X1388817Y0165494D02*
X1406102Y0165494D01*
X1406102Y0167093D02*
X1388817Y0167093D01*
X1388817Y0168691D02*
X1406102Y0168691D01*
X1406102Y0170290D02*
X1388817Y0170290D01*
X1388817Y0171888D02*
X1406102Y0171888D01*
X1406102Y0173487D02*
X1388817Y0173487D01*
X1388817Y0175085D02*
X1406102Y0175085D01*
X1406102Y0176684D02*
X1388817Y0176684D01*
X1388817Y0178282D02*
X1406102Y0178282D01*
X1406102Y0179881D02*
X1388817Y0179881D01*
X1388817Y0181479D02*
X1406102Y0181479D01*
X1409823Y0235086D02*
X1415729Y0235283D01*
X1409823Y0235086D02*
X1409666Y0252802D01*
X1409666Y0273472D01*
X1413701Y0273472D01*
X1415079Y0273472D01*
X1412495Y0276056D02*
X1412251Y0276056D01*
X1412067Y0275872D01*
X1409188Y0275872D01*
X1408306Y0275506D01*
X1407631Y0274831D01*
X1407266Y0273949D01*
X1407266Y0253269D01*
X1407262Y0253258D01*
X1407266Y0252792D01*
X1407266Y0252325D01*
X1407270Y0252315D01*
X1407326Y0245980D01*
X1388817Y0245980D01*
X1388817Y0300334D01*
X1451478Y0300334D01*
X1451478Y0245980D01*
X1435657Y0245980D01*
X1435686Y0252320D01*
X1435688Y0252325D01*
X1435688Y0252798D01*
X1435690Y0253269D01*
X1435688Y0253274D01*
X1435688Y0273949D01*
X1435322Y0274831D01*
X1434647Y0275506D01*
X1433765Y0275872D01*
X1429902Y0275872D01*
X1429718Y0276056D01*
X1429474Y0276056D01*
X1429474Y0280630D01*
X1428537Y0281568D01*
X1425243Y0281568D01*
X1424725Y0281049D01*
X1424206Y0281568D01*
X1417763Y0281568D01*
X1417244Y0281049D01*
X1416726Y0281568D01*
X1413432Y0281568D01*
X1412495Y0280630D01*
X1412495Y0276056D01*
X1412495Y0277390D02*
X1388817Y0277390D01*
X1388817Y0275792D02*
X1408995Y0275792D01*
X1407367Y0274193D02*
X1388817Y0274193D01*
X1388817Y0272595D02*
X1407266Y0272595D01*
X1407266Y0270996D02*
X1388817Y0270996D01*
X1388817Y0269398D02*
X1407266Y0269398D01*
X1407266Y0267799D02*
X1388817Y0267799D01*
X1388817Y0266201D02*
X1407266Y0266201D01*
X1407266Y0264602D02*
X1388817Y0264602D01*
X1388817Y0263004D02*
X1407266Y0263004D01*
X1407266Y0261405D02*
X1388817Y0261405D01*
X1388817Y0259807D02*
X1407266Y0259807D01*
X1407266Y0258208D02*
X1388817Y0258208D01*
X1388817Y0256610D02*
X1407266Y0256610D01*
X1407266Y0255011D02*
X1388817Y0255011D01*
X1388817Y0253412D02*
X1407266Y0253412D01*
X1407274Y0251814D02*
X1388817Y0251814D01*
X1388817Y0250215D02*
X1407289Y0250215D01*
X1407303Y0248617D02*
X1388817Y0248617D01*
X1388817Y0247018D02*
X1407317Y0247018D01*
X1412117Y0247018D02*
X1430861Y0247018D01*
X1430857Y0245980D02*
X1412126Y0245980D01*
X1412066Y0252812D01*
X1412066Y0271072D01*
X1412067Y0271072D01*
X1412251Y0270887D01*
X1412495Y0270887D01*
X1412495Y0266313D01*
X1413432Y0265376D01*
X1416726Y0265376D01*
X1417244Y0265894D01*
X1417763Y0265376D01*
X1424206Y0265376D01*
X1424725Y0265894D01*
X1425243Y0265376D01*
X1428537Y0265376D01*
X1429474Y0266313D01*
X1429474Y0270887D01*
X1429718Y0270887D01*
X1429902Y0271072D01*
X1430888Y0271072D01*
X1430888Y0252809D01*
X1430857Y0245980D01*
X1430869Y0248617D02*
X1412103Y0248617D01*
X1412089Y0250215D02*
X1430876Y0250215D01*
X1430883Y0251814D02*
X1412075Y0251814D01*
X1412066Y0253412D02*
X1430888Y0253412D01*
X1430888Y0255011D02*
X1412066Y0255011D01*
X1412066Y0256610D02*
X1430888Y0256610D01*
X1430888Y0258208D02*
X1412066Y0258208D01*
X1412066Y0259807D02*
X1430888Y0259807D01*
X1430888Y0261405D02*
X1412066Y0261405D01*
X1412066Y0263004D02*
X1430888Y0263004D01*
X1430888Y0264602D02*
X1412066Y0264602D01*
X1412066Y0266201D02*
X1412607Y0266201D01*
X1412495Y0267799D02*
X1412066Y0267799D01*
X1412066Y0269398D02*
X1412495Y0269398D01*
X1412142Y0270996D02*
X1412066Y0270996D01*
X1426890Y0273472D02*
X1428236Y0273472D01*
X1428268Y0273472D01*
X1433288Y0273472D01*
X1433288Y0252802D01*
X1433209Y0235480D01*
X1425729Y0235283D01*
X1435662Y0247018D02*
X1451478Y0247018D01*
X1451478Y0248617D02*
X1435669Y0248617D01*
X1435676Y0250215D02*
X1451478Y0250215D01*
X1451478Y0251814D02*
X1435683Y0251814D01*
X1435688Y0253412D02*
X1451478Y0253412D01*
X1451478Y0255011D02*
X1435688Y0255011D01*
X1435688Y0256610D02*
X1451478Y0256610D01*
X1451478Y0258208D02*
X1435688Y0258208D01*
X1435688Y0259807D02*
X1451478Y0259807D01*
X1451478Y0261405D02*
X1435688Y0261405D01*
X1435688Y0263004D02*
X1451478Y0263004D01*
X1451478Y0264602D02*
X1435688Y0264602D01*
X1435688Y0266201D02*
X1451478Y0266201D01*
X1451478Y0267799D02*
X1435688Y0267799D01*
X1435688Y0269398D02*
X1451478Y0269398D01*
X1451478Y0270996D02*
X1435688Y0270996D01*
X1435688Y0272595D02*
X1451478Y0272595D01*
X1451478Y0274193D02*
X1435587Y0274193D01*
X1433958Y0275792D02*
X1451478Y0275792D01*
X1451478Y0277390D02*
X1429474Y0277390D01*
X1429474Y0278989D02*
X1451478Y0278989D01*
X1451478Y0280587D02*
X1429474Y0280587D01*
X1412495Y0280587D02*
X1388817Y0280587D01*
X1388817Y0278989D02*
X1412495Y0278989D01*
X1429827Y0270996D02*
X1430888Y0270996D01*
X1430888Y0269398D02*
X1429474Y0269398D01*
X1429474Y0267799D02*
X1430888Y0267799D01*
X1430888Y0266201D02*
X1429362Y0266201D01*
X1451478Y0282186D02*
X1388817Y0282186D01*
X1388817Y0283784D02*
X1451478Y0283784D01*
X1451478Y0285383D02*
X1388817Y0285383D01*
X1388817Y0286981D02*
X1451478Y0286981D01*
X1451478Y0288580D02*
X1388817Y0288580D01*
X1388817Y0290178D02*
X1451478Y0290178D01*
X1451478Y0291777D02*
X1388817Y0291777D01*
X1388817Y0293375D02*
X1451478Y0293375D01*
X1451478Y0294974D02*
X1388817Y0294974D01*
X1388817Y0296572D02*
X1451478Y0296572D01*
X1451478Y0298171D02*
X1388817Y0298171D01*
X1388817Y0299769D02*
X1451478Y0299769D01*
X0228876Y0140665D02*
X0216573Y0140665D01*
X0189014Y0145094D02*
X0186553Y0145094D01*
X0183108Y0141650D01*
X0180648Y0141650D01*
X0172813Y0133815D01*
X0172557Y0133559D01*
D51*
X0749230Y0145665D03*
X0751730Y0145665D03*
X0751730Y0148165D03*
X0749230Y0148165D03*
X0749230Y0150665D03*
X0751730Y0150665D03*
X0751730Y0153165D03*
X0749230Y0153165D03*
X0749230Y0155665D03*
X0751730Y0155665D03*
X0751730Y0158165D03*
X0749230Y0158165D03*
X0749230Y0160665D03*
X0751730Y0160665D03*
X0751789Y0163165D03*
X0749230Y0163165D03*
X0750394Y0264889D03*
X0750394Y0267389D03*
X0750394Y0269889D03*
X0750394Y0272389D03*
X0750394Y0274889D03*
X0750394Y0277389D03*
X0750394Y0279889D03*
X0750394Y0282389D03*
X0752894Y0282389D03*
X0752894Y0279889D03*
X0752894Y0277389D03*
X0752894Y0274889D03*
X0752894Y0272389D03*
X0752894Y0269889D03*
X0752894Y0267389D03*
X0752894Y0264889D03*
X1419685Y0264889D03*
X1419685Y0267389D03*
X1419685Y0269889D03*
X1419685Y0272389D03*
X1419685Y0274889D03*
X1419685Y0277389D03*
X1419685Y0279889D03*
X1419685Y0282389D03*
X1422185Y0282389D03*
X1422185Y0279889D03*
X1422185Y0277389D03*
X1422185Y0274889D03*
X1422185Y0272389D03*
X1422185Y0269889D03*
X1422185Y0267389D03*
X1422185Y0264889D03*
X1421081Y0163165D03*
X1421022Y0160665D03*
X1421022Y0158165D03*
X1421022Y0155665D03*
X1421022Y0153165D03*
X1421022Y0150665D03*
X1421022Y0148165D03*
X1421022Y0145665D03*
X1418522Y0145665D03*
X1418522Y0148165D03*
X1418522Y0150665D03*
X1418522Y0153165D03*
X1418522Y0155665D03*
X1418522Y0158165D03*
X1418522Y0160665D03*
X1418522Y0163165D03*
M02*
