G75*
%MOIN*%
%OFA0B0*%
%FSLAX25Y25*%
%IPPOS*%
%LPD*%
%AMOC8*
5,1,8,0,0,1.08239X$1,22.5*
%
%ADD10C,0.00600*%
%ADD11C,0.00300*%
%ADD12C,0.00800*%
D10*
X0243143Y0124561D02*
X0243143Y0129161D01*
X0243143Y0124561D02*
X0261943Y0124561D01*
X0261943Y0129161D01*
X0261943Y0138761D02*
X0261943Y0143361D01*
X0243143Y0143361D01*
X0243143Y0138761D01*
X0246367Y0152620D02*
X0250967Y0152620D01*
X0246367Y0152620D02*
X0246367Y0171420D01*
X0250967Y0171420D01*
X0260567Y0171420D02*
X0265167Y0171420D01*
X0265167Y0152620D01*
X0260567Y0152620D01*
X0128825Y0185768D02*
X0128825Y0197925D01*
X0123215Y0197925D01*
X0123215Y0185768D01*
X0128825Y0185768D01*
X0222245Y0203062D02*
X0222245Y0209662D01*
X0222245Y0212062D01*
X0222245Y0218662D01*
X0241845Y0218662D01*
X0241845Y0203062D01*
X0222245Y0203062D01*
X0246655Y0203062D02*
X0246655Y0209662D01*
X0246655Y0212062D01*
X0246655Y0218662D01*
X0266255Y0218662D01*
X0266255Y0203062D01*
X0246655Y0203062D01*
X0246655Y0209662D02*
X0246724Y0209664D01*
X0246792Y0209670D01*
X0246860Y0209680D01*
X0246927Y0209693D01*
X0246993Y0209711D01*
X0247058Y0209732D01*
X0247122Y0209757D01*
X0247184Y0209785D01*
X0247245Y0209817D01*
X0247304Y0209852D01*
X0247360Y0209891D01*
X0247415Y0209933D01*
X0247466Y0209978D01*
X0247516Y0210026D01*
X0247562Y0210076D01*
X0247605Y0210129D01*
X0247646Y0210185D01*
X0247683Y0210242D01*
X0247716Y0210302D01*
X0247747Y0210364D01*
X0247773Y0210427D01*
X0247796Y0210491D01*
X0247816Y0210557D01*
X0247831Y0210624D01*
X0247843Y0210691D01*
X0247851Y0210759D01*
X0247855Y0210828D01*
X0247855Y0210896D01*
X0247851Y0210965D01*
X0247843Y0211033D01*
X0247831Y0211100D01*
X0247816Y0211167D01*
X0247796Y0211233D01*
X0247773Y0211297D01*
X0247747Y0211360D01*
X0247716Y0211422D01*
X0247683Y0211482D01*
X0247646Y0211539D01*
X0247605Y0211595D01*
X0247562Y0211648D01*
X0247516Y0211698D01*
X0247466Y0211746D01*
X0247415Y0211791D01*
X0247360Y0211833D01*
X0247304Y0211872D01*
X0247245Y0211907D01*
X0247184Y0211939D01*
X0247122Y0211967D01*
X0247058Y0211992D01*
X0246993Y0212013D01*
X0246927Y0212031D01*
X0246860Y0212044D01*
X0246792Y0212054D01*
X0246724Y0212060D01*
X0246655Y0212062D01*
X0222245Y0212062D02*
X0222314Y0212060D01*
X0222382Y0212054D01*
X0222450Y0212044D01*
X0222517Y0212031D01*
X0222583Y0212013D01*
X0222648Y0211992D01*
X0222712Y0211967D01*
X0222774Y0211939D01*
X0222835Y0211907D01*
X0222894Y0211872D01*
X0222950Y0211833D01*
X0223005Y0211791D01*
X0223056Y0211746D01*
X0223106Y0211698D01*
X0223152Y0211648D01*
X0223195Y0211595D01*
X0223236Y0211539D01*
X0223273Y0211482D01*
X0223306Y0211422D01*
X0223337Y0211360D01*
X0223363Y0211297D01*
X0223386Y0211233D01*
X0223406Y0211167D01*
X0223421Y0211100D01*
X0223433Y0211033D01*
X0223441Y0210965D01*
X0223445Y0210896D01*
X0223445Y0210828D01*
X0223441Y0210759D01*
X0223433Y0210691D01*
X0223421Y0210624D01*
X0223406Y0210557D01*
X0223386Y0210491D01*
X0223363Y0210427D01*
X0223337Y0210364D01*
X0223306Y0210302D01*
X0223273Y0210242D01*
X0223236Y0210185D01*
X0223195Y0210129D01*
X0223152Y0210076D01*
X0223106Y0210026D01*
X0223056Y0209978D01*
X0223005Y0209933D01*
X0222950Y0209891D01*
X0222894Y0209852D01*
X0222835Y0209817D01*
X0222774Y0209785D01*
X0222712Y0209757D01*
X0222648Y0209732D01*
X0222583Y0209711D01*
X0222517Y0209693D01*
X0222450Y0209680D01*
X0222382Y0209670D01*
X0222314Y0209664D01*
X0222245Y0209662D01*
X0247724Y0235210D02*
X0252324Y0235210D01*
X0247724Y0235210D02*
X0247724Y0254010D01*
X0252324Y0254010D01*
X0261924Y0254010D02*
X0266524Y0254010D01*
X0266524Y0235210D01*
X0261924Y0235210D01*
X0262200Y0263913D02*
X0266800Y0263913D01*
X0266800Y0282713D01*
X0262200Y0282713D01*
X0252600Y0282713D02*
X0248000Y0282713D01*
X0248000Y0263913D01*
X0252600Y0263913D01*
X0792506Y0197925D02*
X0792506Y0185768D01*
X0798116Y0185768D01*
X0798116Y0197925D01*
X0792506Y0197925D01*
X0891537Y0203062D02*
X0891537Y0209662D01*
X0891537Y0212062D01*
X0891537Y0218662D01*
X0911137Y0218662D01*
X0911137Y0203062D01*
X0891537Y0203062D01*
X0915946Y0203062D02*
X0915946Y0209662D01*
X0915946Y0212062D01*
X0915946Y0218662D01*
X0935546Y0218662D01*
X0935546Y0203062D01*
X0915946Y0203062D01*
X0915946Y0209662D02*
X0916015Y0209664D01*
X0916083Y0209670D01*
X0916151Y0209680D01*
X0916218Y0209693D01*
X0916284Y0209711D01*
X0916349Y0209732D01*
X0916413Y0209757D01*
X0916475Y0209785D01*
X0916536Y0209817D01*
X0916595Y0209852D01*
X0916651Y0209891D01*
X0916706Y0209933D01*
X0916757Y0209978D01*
X0916807Y0210026D01*
X0916853Y0210076D01*
X0916896Y0210129D01*
X0916937Y0210185D01*
X0916974Y0210242D01*
X0917007Y0210302D01*
X0917038Y0210364D01*
X0917064Y0210427D01*
X0917087Y0210491D01*
X0917107Y0210557D01*
X0917122Y0210624D01*
X0917134Y0210691D01*
X0917142Y0210759D01*
X0917146Y0210828D01*
X0917146Y0210896D01*
X0917142Y0210965D01*
X0917134Y0211033D01*
X0917122Y0211100D01*
X0917107Y0211167D01*
X0917087Y0211233D01*
X0917064Y0211297D01*
X0917038Y0211360D01*
X0917007Y0211422D01*
X0916974Y0211482D01*
X0916937Y0211539D01*
X0916896Y0211595D01*
X0916853Y0211648D01*
X0916807Y0211698D01*
X0916757Y0211746D01*
X0916706Y0211791D01*
X0916651Y0211833D01*
X0916595Y0211872D01*
X0916536Y0211907D01*
X0916475Y0211939D01*
X0916413Y0211967D01*
X0916349Y0211992D01*
X0916284Y0212013D01*
X0916218Y0212031D01*
X0916151Y0212044D01*
X0916083Y0212054D01*
X0916015Y0212060D01*
X0915946Y0212062D01*
X0891537Y0212062D02*
X0891606Y0212060D01*
X0891674Y0212054D01*
X0891742Y0212044D01*
X0891809Y0212031D01*
X0891875Y0212013D01*
X0891940Y0211992D01*
X0892004Y0211967D01*
X0892066Y0211939D01*
X0892127Y0211907D01*
X0892186Y0211872D01*
X0892242Y0211833D01*
X0892297Y0211791D01*
X0892348Y0211746D01*
X0892398Y0211698D01*
X0892444Y0211648D01*
X0892487Y0211595D01*
X0892528Y0211539D01*
X0892565Y0211482D01*
X0892598Y0211422D01*
X0892629Y0211360D01*
X0892655Y0211297D01*
X0892678Y0211233D01*
X0892698Y0211167D01*
X0892713Y0211100D01*
X0892725Y0211033D01*
X0892733Y0210965D01*
X0892737Y0210896D01*
X0892737Y0210828D01*
X0892733Y0210759D01*
X0892725Y0210691D01*
X0892713Y0210624D01*
X0892698Y0210557D01*
X0892678Y0210491D01*
X0892655Y0210427D01*
X0892629Y0210364D01*
X0892598Y0210302D01*
X0892565Y0210242D01*
X0892528Y0210185D01*
X0892487Y0210129D01*
X0892444Y0210076D01*
X0892398Y0210026D01*
X0892348Y0209978D01*
X0892297Y0209933D01*
X0892242Y0209891D01*
X0892186Y0209852D01*
X0892127Y0209817D01*
X0892066Y0209785D01*
X0892004Y0209757D01*
X0891940Y0209732D01*
X0891875Y0209711D01*
X0891809Y0209693D01*
X0891742Y0209680D01*
X0891674Y0209670D01*
X0891606Y0209664D01*
X0891537Y0209662D01*
X0917015Y0235210D02*
X0921615Y0235210D01*
X0917015Y0235210D02*
X0917015Y0254010D01*
X0921615Y0254010D01*
X0931215Y0254010D02*
X0935815Y0254010D01*
X0935815Y0235210D01*
X0931215Y0235210D01*
X0931491Y0263913D02*
X0936091Y0263913D01*
X0936091Y0282713D01*
X0931491Y0282713D01*
X0921891Y0282713D02*
X0917291Y0282713D01*
X0917291Y0263913D01*
X0921891Y0263913D01*
X0920258Y0171420D02*
X0915658Y0171420D01*
X0915658Y0152620D01*
X0920258Y0152620D01*
X0929858Y0152620D02*
X0934458Y0152620D01*
X0934458Y0171420D01*
X0929858Y0171420D01*
X0931234Y0143361D02*
X0912434Y0143361D01*
X0912434Y0138761D01*
X0931234Y0138761D02*
X0931234Y0143361D01*
X0931234Y0129161D02*
X0931234Y0124561D01*
X0912434Y0124561D01*
X0912434Y0129161D01*
D11*
X0864495Y0186296D02*
X0864495Y0189199D01*
X0863043Y0189199D01*
X0862560Y0188715D01*
X0862560Y0187748D01*
X0863043Y0187264D01*
X0864495Y0187264D01*
X0863527Y0187264D02*
X0862560Y0186296D01*
X0861548Y0186780D02*
X0861064Y0186296D01*
X0860097Y0186296D01*
X0859613Y0186780D01*
X0859613Y0187264D01*
X0860097Y0187748D01*
X0860581Y0187748D01*
X0860097Y0187748D02*
X0859613Y0188231D01*
X0859613Y0188715D01*
X0860097Y0189199D01*
X0861064Y0189199D01*
X0861548Y0188715D01*
X0858602Y0187748D02*
X0856667Y0187748D01*
X0857150Y0189199D02*
X0858602Y0187748D01*
X0857150Y0189199D02*
X0857150Y0186296D01*
X0893967Y0214503D02*
X0897103Y0217639D01*
X0895535Y0217639D02*
X0895535Y0214503D01*
X0897103Y0214503D02*
X0893967Y0217639D01*
X0893967Y0216071D02*
X0897103Y0216071D01*
X0918377Y0216071D02*
X0921513Y0216071D01*
X0921513Y0217639D02*
X0918377Y0214503D01*
X0919945Y0214503D02*
X0919945Y0217639D01*
X0918377Y0217639D02*
X0921513Y0214503D01*
X1229796Y0232882D02*
X1231731Y0232882D01*
X1230763Y0232882D02*
X1230763Y0235785D01*
X1231731Y0234817D01*
X1232742Y0234817D02*
X1233226Y0234334D01*
X1232742Y0233850D01*
X1232742Y0233366D01*
X1233226Y0232882D01*
X1234193Y0232882D01*
X1234677Y0233366D01*
X1235689Y0232882D02*
X1236656Y0233850D01*
X1236172Y0233850D02*
X1237624Y0233850D01*
X1237624Y0232882D02*
X1237624Y0235785D01*
X1236172Y0235785D01*
X1235689Y0235301D01*
X1235689Y0234334D01*
X1236172Y0233850D01*
X1234677Y0235301D02*
X1234193Y0235785D01*
X1233226Y0235785D01*
X1232742Y0235301D01*
X1232742Y0234817D01*
X1233226Y0234334D02*
X1233710Y0234334D01*
X1265131Y0227101D02*
X1265131Y0226617D01*
X1265615Y0226134D01*
X1265131Y0225650D01*
X1265131Y0225166D01*
X1265615Y0224682D01*
X1266582Y0224682D01*
X1267066Y0225166D01*
X1268078Y0225166D02*
X1268561Y0224682D01*
X1269529Y0224682D01*
X1270013Y0225166D01*
X1271024Y0224682D02*
X1271992Y0225650D01*
X1271508Y0225650D02*
X1272959Y0225650D01*
X1272959Y0224682D02*
X1272959Y0227585D01*
X1271508Y0227585D01*
X1271024Y0227101D01*
X1271024Y0226134D01*
X1271508Y0225650D01*
X1270013Y0227101D02*
X1269529Y0227585D01*
X1268561Y0227585D01*
X1268078Y0227101D01*
X1268078Y0226617D01*
X1268561Y0226134D01*
X1268078Y0225650D01*
X1268078Y0225166D01*
X1268561Y0226134D02*
X1269045Y0226134D01*
X1267066Y0227101D02*
X1266582Y0227585D01*
X1265615Y0227585D01*
X1265131Y0227101D01*
X1265615Y0226134D02*
X1266099Y0226134D01*
X0603668Y0225650D02*
X0602217Y0225650D01*
X0601733Y0226134D01*
X0601733Y0227101D01*
X0602217Y0227585D01*
X0603668Y0227585D01*
X0603668Y0224682D01*
X0602700Y0225650D02*
X0601733Y0224682D01*
X0600721Y0224682D02*
X0598786Y0224682D01*
X0599754Y0224682D02*
X0599754Y0227585D01*
X0600721Y0226617D01*
X0597775Y0226134D02*
X0596807Y0226617D01*
X0596324Y0226617D01*
X0595840Y0226134D01*
X0595840Y0225166D01*
X0596324Y0224682D01*
X0597291Y0224682D01*
X0597775Y0225166D01*
X0597775Y0226134D02*
X0597775Y0227585D01*
X0595840Y0227585D01*
X0568332Y0232882D02*
X0568332Y0235785D01*
X0566881Y0235785D01*
X0566397Y0235301D01*
X0566397Y0234334D01*
X0566881Y0233850D01*
X0568332Y0233850D01*
X0567365Y0233850D02*
X0566397Y0232882D01*
X0565386Y0232882D02*
X0563451Y0232882D01*
X0564418Y0232882D02*
X0564418Y0235785D01*
X0565386Y0234817D01*
X0562439Y0235301D02*
X0561956Y0235785D01*
X0560988Y0235785D01*
X0560504Y0235301D01*
X0560504Y0234817D01*
X0560988Y0234334D01*
X0560504Y0233850D01*
X0560504Y0233366D01*
X0560988Y0232882D01*
X0561956Y0232882D01*
X0562439Y0233366D01*
X0561472Y0234334D02*
X0560988Y0234334D01*
X0252222Y0217639D02*
X0249086Y0214503D01*
X0250654Y0214503D02*
X0250654Y0217639D01*
X0249086Y0217639D02*
X0252222Y0214503D01*
X0252222Y0216071D02*
X0249086Y0216071D01*
X0227812Y0216071D02*
X0224676Y0216071D01*
X0224676Y0217639D02*
X0227812Y0214503D01*
X0226244Y0214503D02*
X0226244Y0217639D01*
X0227812Y0217639D02*
X0224676Y0214503D01*
X0195203Y0189199D02*
X0193752Y0189199D01*
X0193268Y0188715D01*
X0193268Y0187748D01*
X0193752Y0187264D01*
X0195203Y0187264D01*
X0194236Y0187264D02*
X0193268Y0186296D01*
X0192257Y0186296D02*
X0190322Y0186296D01*
X0191289Y0186296D02*
X0191289Y0189199D01*
X0192257Y0188231D01*
X0189310Y0187748D02*
X0187859Y0187748D01*
X0187375Y0187264D01*
X0187375Y0186780D01*
X0187859Y0186296D01*
X0188827Y0186296D01*
X0189310Y0186780D01*
X0189310Y0187748D01*
X0188343Y0188715D01*
X0187375Y0189199D01*
X0195203Y0189199D02*
X0195203Y0186296D01*
D12*
X0163880Y0165862D02*
X0160337Y0169406D01*
X0122935Y0169406D01*
X0122935Y0154839D01*
X0125100Y0142831D02*
X0125255Y0142384D01*
X0125421Y0141942D01*
X0125598Y0141503D01*
X0125785Y0141069D01*
X0125983Y0140640D01*
X0126191Y0140216D01*
X0126410Y0139797D01*
X0126638Y0139384D01*
X0126877Y0138976D01*
X0127126Y0138574D01*
X0127385Y0138178D01*
X0127653Y0137789D01*
X0127931Y0137407D01*
X0128217Y0137031D01*
X0128513Y0136663D01*
X0128818Y0136302D01*
X0129132Y0135948D01*
X0129454Y0135603D01*
X0129785Y0135265D01*
X0130124Y0134936D01*
X0130471Y0134614D01*
X0130825Y0134302D01*
X0131187Y0133998D01*
X0131556Y0133703D01*
X0131933Y0133418D01*
X0132316Y0133141D01*
X0132706Y0132875D01*
X0133103Y0132617D01*
X0133506Y0132370D01*
X0133914Y0132132D01*
X0134328Y0131905D01*
X0134748Y0131688D01*
X0135173Y0131481D01*
X0135603Y0131285D01*
X0136037Y0131099D01*
X0136476Y0130924D01*
X0136919Y0130759D01*
X0137366Y0130606D01*
X0137817Y0130463D01*
X0138271Y0130332D01*
X0138728Y0130212D01*
X0139188Y0130103D01*
X0139650Y0130005D01*
X0140115Y0129919D01*
X0140582Y0129844D01*
X0141050Y0129781D01*
X0141520Y0129729D01*
X0141990Y0129688D01*
X0142462Y0129659D01*
X0142934Y0129642D01*
X0143407Y0129636D01*
X0143880Y0129642D01*
X0144352Y0129659D01*
X0144824Y0129688D01*
X0145294Y0129729D01*
X0145764Y0129781D01*
X0146232Y0129844D01*
X0146699Y0129919D01*
X0147164Y0130005D01*
X0147626Y0130103D01*
X0148086Y0130212D01*
X0148543Y0130332D01*
X0148997Y0130463D01*
X0149448Y0130606D01*
X0149895Y0130759D01*
X0150338Y0130924D01*
X0150777Y0131099D01*
X0151211Y0131285D01*
X0151641Y0131481D01*
X0152066Y0131688D01*
X0152486Y0131905D01*
X0152900Y0132132D01*
X0153308Y0132370D01*
X0153711Y0132617D01*
X0154108Y0132875D01*
X0154498Y0133141D01*
X0154881Y0133418D01*
X0155258Y0133703D01*
X0155627Y0133998D01*
X0155989Y0134302D01*
X0156343Y0134614D01*
X0156690Y0134936D01*
X0157029Y0135265D01*
X0157360Y0135603D01*
X0157682Y0135948D01*
X0157996Y0136302D01*
X0158301Y0136663D01*
X0158597Y0137031D01*
X0158883Y0137407D01*
X0159161Y0137789D01*
X0159429Y0138178D01*
X0159688Y0138574D01*
X0159937Y0138976D01*
X0160176Y0139384D01*
X0160404Y0139797D01*
X0160623Y0140216D01*
X0160831Y0140640D01*
X0161029Y0141069D01*
X0161216Y0141503D01*
X0161393Y0141942D01*
X0161559Y0142384D01*
X0161714Y0142831D01*
X0163880Y0143028D02*
X0163880Y0132004D01*
X0160337Y0128461D01*
X0122935Y0128461D01*
X0122935Y0143028D01*
X0125100Y0155035D02*
X0125255Y0155482D01*
X0125421Y0155924D01*
X0125598Y0156363D01*
X0125785Y0156797D01*
X0125983Y0157226D01*
X0126191Y0157650D01*
X0126410Y0158069D01*
X0126638Y0158482D01*
X0126877Y0158890D01*
X0127126Y0159292D01*
X0127385Y0159688D01*
X0127653Y0160077D01*
X0127931Y0160459D01*
X0128217Y0160835D01*
X0128513Y0161203D01*
X0128818Y0161564D01*
X0129132Y0161918D01*
X0129454Y0162263D01*
X0129785Y0162601D01*
X0130124Y0162930D01*
X0130471Y0163252D01*
X0130825Y0163564D01*
X0131187Y0163868D01*
X0131556Y0164163D01*
X0131933Y0164448D01*
X0132316Y0164725D01*
X0132706Y0164991D01*
X0133103Y0165249D01*
X0133506Y0165496D01*
X0133914Y0165734D01*
X0134328Y0165961D01*
X0134748Y0166178D01*
X0135173Y0166385D01*
X0135603Y0166581D01*
X0136037Y0166767D01*
X0136476Y0166942D01*
X0136919Y0167107D01*
X0137366Y0167260D01*
X0137817Y0167403D01*
X0138271Y0167534D01*
X0138728Y0167654D01*
X0139188Y0167763D01*
X0139650Y0167861D01*
X0140115Y0167947D01*
X0140582Y0168022D01*
X0141050Y0168085D01*
X0141520Y0168137D01*
X0141990Y0168178D01*
X0142462Y0168207D01*
X0142934Y0168224D01*
X0143407Y0168230D01*
X0143880Y0168224D01*
X0144352Y0168207D01*
X0144824Y0168178D01*
X0145294Y0168137D01*
X0145764Y0168085D01*
X0146232Y0168022D01*
X0146699Y0167947D01*
X0147164Y0167861D01*
X0147626Y0167763D01*
X0148086Y0167654D01*
X0148543Y0167534D01*
X0148997Y0167403D01*
X0149448Y0167260D01*
X0149895Y0167107D01*
X0150338Y0166942D01*
X0150777Y0166767D01*
X0151211Y0166581D01*
X0151641Y0166385D01*
X0152066Y0166178D01*
X0152486Y0165961D01*
X0152900Y0165734D01*
X0153308Y0165496D01*
X0153711Y0165249D01*
X0154108Y0164991D01*
X0154498Y0164725D01*
X0154881Y0164448D01*
X0155258Y0164163D01*
X0155627Y0163868D01*
X0155989Y0163564D01*
X0156343Y0163252D01*
X0156690Y0162930D01*
X0157029Y0162601D01*
X0157360Y0162263D01*
X0157682Y0161918D01*
X0157996Y0161564D01*
X0158301Y0161203D01*
X0158597Y0160835D01*
X0158883Y0160459D01*
X0159161Y0160077D01*
X0159429Y0159688D01*
X0159688Y0159292D01*
X0159937Y0158890D01*
X0160176Y0158482D01*
X0160404Y0158069D01*
X0160623Y0157650D01*
X0160831Y0157226D01*
X0161029Y0156797D01*
X0161216Y0156363D01*
X0161393Y0155924D01*
X0161559Y0155482D01*
X0161714Y0155035D01*
X0163880Y0154839D02*
X0163880Y0165862D01*
X0792226Y0169406D02*
X0792226Y0154839D01*
X0794392Y0142831D02*
X0794547Y0142384D01*
X0794713Y0141942D01*
X0794890Y0141503D01*
X0795077Y0141069D01*
X0795275Y0140640D01*
X0795483Y0140216D01*
X0795702Y0139797D01*
X0795930Y0139384D01*
X0796169Y0138976D01*
X0796418Y0138574D01*
X0796677Y0138178D01*
X0796945Y0137789D01*
X0797223Y0137407D01*
X0797509Y0137031D01*
X0797805Y0136663D01*
X0798110Y0136302D01*
X0798424Y0135948D01*
X0798746Y0135603D01*
X0799077Y0135265D01*
X0799416Y0134936D01*
X0799763Y0134614D01*
X0800117Y0134302D01*
X0800479Y0133998D01*
X0800848Y0133703D01*
X0801225Y0133418D01*
X0801608Y0133141D01*
X0801998Y0132875D01*
X0802395Y0132617D01*
X0802798Y0132370D01*
X0803206Y0132132D01*
X0803620Y0131905D01*
X0804040Y0131688D01*
X0804465Y0131481D01*
X0804895Y0131285D01*
X0805329Y0131099D01*
X0805768Y0130924D01*
X0806211Y0130759D01*
X0806658Y0130606D01*
X0807109Y0130463D01*
X0807563Y0130332D01*
X0808020Y0130212D01*
X0808480Y0130103D01*
X0808942Y0130005D01*
X0809407Y0129919D01*
X0809874Y0129844D01*
X0810342Y0129781D01*
X0810812Y0129729D01*
X0811282Y0129688D01*
X0811754Y0129659D01*
X0812226Y0129642D01*
X0812699Y0129636D01*
X0813172Y0129642D01*
X0813644Y0129659D01*
X0814116Y0129688D01*
X0814586Y0129729D01*
X0815056Y0129781D01*
X0815524Y0129844D01*
X0815991Y0129919D01*
X0816456Y0130005D01*
X0816918Y0130103D01*
X0817378Y0130212D01*
X0817835Y0130332D01*
X0818289Y0130463D01*
X0818740Y0130606D01*
X0819187Y0130759D01*
X0819630Y0130924D01*
X0820069Y0131099D01*
X0820503Y0131285D01*
X0820933Y0131481D01*
X0821358Y0131688D01*
X0821778Y0131905D01*
X0822192Y0132132D01*
X0822600Y0132370D01*
X0823003Y0132617D01*
X0823400Y0132875D01*
X0823790Y0133141D01*
X0824173Y0133418D01*
X0824550Y0133703D01*
X0824919Y0133998D01*
X0825281Y0134302D01*
X0825635Y0134614D01*
X0825982Y0134936D01*
X0826321Y0135265D01*
X0826652Y0135603D01*
X0826974Y0135948D01*
X0827288Y0136302D01*
X0827593Y0136663D01*
X0827889Y0137031D01*
X0828175Y0137407D01*
X0828453Y0137789D01*
X0828721Y0138178D01*
X0828980Y0138574D01*
X0829229Y0138976D01*
X0829468Y0139384D01*
X0829696Y0139797D01*
X0829915Y0140216D01*
X0830123Y0140640D01*
X0830321Y0141069D01*
X0830508Y0141503D01*
X0830685Y0141942D01*
X0830851Y0142384D01*
X0831006Y0142831D01*
X0833171Y0143028D02*
X0833171Y0132004D01*
X0829628Y0128461D01*
X0792226Y0128461D01*
X0792226Y0143028D01*
X0794392Y0155035D02*
X0794547Y0155482D01*
X0794713Y0155924D01*
X0794890Y0156363D01*
X0795077Y0156797D01*
X0795275Y0157226D01*
X0795483Y0157650D01*
X0795702Y0158069D01*
X0795930Y0158482D01*
X0796169Y0158890D01*
X0796418Y0159292D01*
X0796677Y0159688D01*
X0796945Y0160077D01*
X0797223Y0160459D01*
X0797509Y0160835D01*
X0797805Y0161203D01*
X0798110Y0161564D01*
X0798424Y0161918D01*
X0798746Y0162263D01*
X0799077Y0162601D01*
X0799416Y0162930D01*
X0799763Y0163252D01*
X0800117Y0163564D01*
X0800479Y0163868D01*
X0800848Y0164163D01*
X0801225Y0164448D01*
X0801608Y0164725D01*
X0801998Y0164991D01*
X0802395Y0165249D01*
X0802798Y0165496D01*
X0803206Y0165734D01*
X0803620Y0165961D01*
X0804040Y0166178D01*
X0804465Y0166385D01*
X0804895Y0166581D01*
X0805329Y0166767D01*
X0805768Y0166942D01*
X0806211Y0167107D01*
X0806658Y0167260D01*
X0807109Y0167403D01*
X0807563Y0167534D01*
X0808020Y0167654D01*
X0808480Y0167763D01*
X0808942Y0167861D01*
X0809407Y0167947D01*
X0809874Y0168022D01*
X0810342Y0168085D01*
X0810812Y0168137D01*
X0811282Y0168178D01*
X0811754Y0168207D01*
X0812226Y0168224D01*
X0812699Y0168230D01*
X0813172Y0168224D01*
X0813644Y0168207D01*
X0814116Y0168178D01*
X0814586Y0168137D01*
X0815056Y0168085D01*
X0815524Y0168022D01*
X0815991Y0167947D01*
X0816456Y0167861D01*
X0816918Y0167763D01*
X0817378Y0167654D01*
X0817835Y0167534D01*
X0818289Y0167403D01*
X0818740Y0167260D01*
X0819187Y0167107D01*
X0819630Y0166942D01*
X0820069Y0166767D01*
X0820503Y0166581D01*
X0820933Y0166385D01*
X0821358Y0166178D01*
X0821778Y0165961D01*
X0822192Y0165734D01*
X0822600Y0165496D01*
X0823003Y0165249D01*
X0823400Y0164991D01*
X0823790Y0164725D01*
X0824173Y0164448D01*
X0824550Y0164163D01*
X0824919Y0163868D01*
X0825281Y0163564D01*
X0825635Y0163252D01*
X0825982Y0162930D01*
X0826321Y0162601D01*
X0826652Y0162263D01*
X0826974Y0161918D01*
X0827288Y0161564D01*
X0827593Y0161203D01*
X0827889Y0160835D01*
X0828175Y0160459D01*
X0828453Y0160077D01*
X0828721Y0159688D01*
X0828980Y0159292D01*
X0829229Y0158890D01*
X0829468Y0158482D01*
X0829696Y0158069D01*
X0829915Y0157650D01*
X0830123Y0157226D01*
X0830321Y0156797D01*
X0830508Y0156363D01*
X0830685Y0155924D01*
X0830851Y0155482D01*
X0831006Y0155035D01*
X0833171Y0154839D02*
X0833171Y0165862D01*
X0829628Y0169406D01*
X0792226Y0169406D01*
M02*
