%
M48
M72
T01C0.01500
T02C0.02362
T03C0.02756
T04C0.03150
T05C0.03200
T06C0.03543
T07C0.03800
T08C0.04000
T09C0.04500
T10C0.05500
T11C0.14173
%
T01
X749230Y145665
X751730Y145665
X751730Y148165
X749230Y148165
X749230Y150665
X751730Y150665
X751730Y153165
X749230Y153165
X749230Y155665
X751730Y155665
X751730Y158165
X749230Y158165
X749230Y160665
X751730Y160665
X751789Y163165
X749230Y163165
X502345Y200183
X490135Y200123
X484745Y197233
X467695Y196433
X467695Y192233
X472085Y189493
X468945Y186433
X486785Y183313
X750394Y264889
X750394Y267389
X750394Y269889
X750394Y272389
X750394Y274889
X750394Y277389
X750394Y279889
X750394Y282389
X752894Y282389
X752894Y279889
X752894Y277389
X752894Y274889
X752894Y272389
X752894Y269889
X752894Y267389
X752894Y264889
X1136986Y196433
X1136986Y192233
X1141376Y189493
X1138236Y186433
X1156076Y183313
X1154036Y197233
X1159426Y200123
X1171636Y200183
X1418522Y163165
X1418522Y160665
X1418522Y158165
X1418522Y155665
X1418522Y153165
X1418522Y150665
X1418522Y148165
X1418522Y145665
X1421022Y145665
X1421022Y148165
X1421022Y150665
X1421022Y153165
X1421022Y155665
X1421022Y158165
X1421022Y160665
X1421081Y163165
X1422185Y264889
X1419685Y264889
X1419685Y267389
X1419685Y269889
X1419685Y272389
X1419685Y274889
X1419685Y277389
X1419685Y279889
X1419685Y282389
X1422185Y282389
X1422185Y279889
X1422185Y277389
X1422185Y274889
X1422185Y272389
X1422185Y269889
X1422185Y267389
T02
X1282285Y271394
X1217939Y247264
X1192915Y237433
X1173254Y231177
X1192313Y226760
X1203640Y222240
X1217045Y220453
X1228663Y224921
X1225089Y229390
X1157167Y219559
X1141974Y216878
X1120857Y211516
X1105333Y208835
X1089246Y209728
X1086565Y214197
X1050817Y217772
X1091927Y224028
X1150018Y229390
X1163423Y207047
X1187553Y204366
X1195596Y201685
X1187553Y199004
X1180404Y192748
X1208202Y183811
X1224195Y187386
X1232238Y192748
X1243856Y184705
X1250112Y182024
X1231344Y182024
X1224195Y178449
X1267093Y182917
X1280549Y182988
X1286455Y194799
X1243856Y204366
X1101758Y199898
X1085671Y183811
X1049123Y169512
X1126781Y167724
X1120526Y148957
X1131250Y145382
X1138400Y147169
X1146443Y147169
X1162936Y134764
X1216770Y132008
X1345510Y161335
X1045455Y246370
X1084778Y262457
X1086652Y274524
X1075825Y274524
X1049250Y274524
X934093Y237122
X928187Y227464
X913423Y218974
X930920Y213194
X921297Y210055
X902596Y210547
X893738Y206610
X864211Y214484
X908502Y193815
X903581Y189878
X893738Y182988
X871100Y189878
X861258Y174130
X891278Y172161
X921297Y178933
X931140Y177812
X926219Y187559
X933311Y162103
X883896Y147555
X885864Y140665
X898167Y140665
X858305Y145094
X840589Y148539
X793837Y168224
X806632Y184465
X788915Y199720
X793837Y229740
X897675Y233185
X617163Y194799
X611258Y182988
X597801Y182917
X580821Y182024
X574565Y184705
X562053Y182024
X554904Y178449
X538911Y183811
X554904Y187386
X562947Y192748
X526305Y201685
X518262Y199004
X518262Y204366
X494132Y207047
X451566Y211516
X472683Y216878
X487876Y219559
X523022Y226760
X534348Y222240
X547754Y220453
X559372Y224921
X555797Y229390
X523624Y237433
X503963Y231177
X480726Y229390
X422636Y224028
X417274Y214197
X419955Y209728
X436041Y208835
X432467Y199898
X416380Y183811
X379832Y169512
X457490Y167724
X451234Y148957
X461959Y145382
X469108Y147169
X477152Y147169
X493644Y134764
X547478Y132008
X676219Y161335
X511112Y192748
X574565Y204366
X548648Y247264
X612994Y271394
X417360Y274524
X406533Y274524
X379959Y274524
X415486Y262457
X376163Y246370
X264801Y237122
X258896Y227464
X244132Y218974
X261628Y213194
X252006Y210055
X233305Y210547
X224447Y206610
X194919Y214484
X239211Y193815
X234289Y189878
X224447Y182988
X201809Y189878
X191967Y174130
X221986Y172161
X252006Y178933
X261848Y177812
X256927Y187559
X264019Y162103
X214604Y147555
X216573Y140665
X228876Y140665
X189014Y145094
X171297Y148539
X124545Y168224
X137341Y184465
X119624Y199720
X124545Y229740
X228384Y233185
X381526Y217772
T03
X538435Y212185
X538435Y192185
X1207726Y192185
X1207726Y212185
T04
X885864Y203657
X861258Y203657
X836652Y214484
X840589Y227280
X862242Y239091
X813030Y238106
X812537Y279445
X797281Y160350
X216573Y203657
X191967Y203657
X167360Y214484
X171297Y227280
X192951Y239091
X143738Y238106
X143246Y279445
X127990Y160350
T05
X172595Y131833
X182595Y131833
X192595Y131833
X202595Y131833
X212595Y131833
X328136Y131693
X338136Y131693
X348136Y131693
X358136Y131693
X368136Y131693
X398885Y159166
X408885Y159166
X418885Y159166
X428885Y159166
X438885Y159166
X448885Y159166
X458885Y159166
X468885Y159166
X478885Y159166
X488885Y159166
X558667Y161138
X568667Y161138
X578667Y161138
X588667Y161138
X598667Y161138
X617163Y155429
X617163Y145429
X617163Y135429
X640963Y131807
X650963Y131807
X660963Y131807
X670963Y131807
X696081Y131807
X706081Y131807
X841886Y131833
X851886Y131833
X861886Y131833
X871886Y131833
X881886Y131833
X997427Y131693
X1007427Y131693
X1017427Y131693
X1027427Y131693
X1037427Y131693
X1068176Y159166
X1078176Y159166
X1088176Y159166
X1098176Y159166
X1108176Y159166
X1118176Y159166
X1128176Y159166
X1138176Y159166
X1148176Y159166
X1158176Y159166
X1227959Y161138
X1237959Y161138
X1247959Y161138
X1257959Y161138
X1267959Y161138
X1286455Y155429
X1286455Y145429
X1286455Y135429
X1310254Y131807
X1320254Y131807
X1330254Y131807
X1340254Y131807
X1365372Y131807
X1375372Y131807
X1286455Y165429
X1360687Y189799
X1370687Y189799
X1370687Y199799
X1414585Y192339
X1424585Y192339
X1327636Y213008
X1317636Y213008
X1360687Y223264
X1370687Y223264
X1370687Y233264
X1415729Y235283
X1425729Y235283
X1209526Y242043
X1199526Y242043
X1036356Y249917
X1026356Y249917
X1016356Y249917
X1006356Y249917
X996356Y249917
X986356Y249917
X997360Y293224
X1007360Y293224
X1017360Y293224
X1027360Y293224
X1037360Y293224
X1047360Y293224
X1057360Y293224
X1067360Y293224
X1077360Y293224
X1087360Y293224
X1168030Y293224
X1178030Y293224
X1188030Y293224
X1198030Y293224
X1213502Y285610
X1223502Y285610
X1233502Y285610
X1243502Y285610
X1310254Y293224
X1320254Y293224
X1330254Y293224
X1340254Y293224
X1364368Y293224
X1374368Y293224
X931886Y292933
X921886Y292933
X911886Y292933
X901886Y292933
X891886Y292933
X881886Y292933
X871886Y292933
X861886Y292933
X705077Y293224
X695077Y293224
X670963Y293224
X660963Y293224
X650963Y293224
X640963Y293224
X574211Y285610
X564211Y285610
X554211Y285610
X544211Y285610
X528738Y293224
X518738Y293224
X508738Y293224
X498738Y293224
X418069Y293224
X408069Y293224
X398069Y293224
X388069Y293224
X378069Y293224
X368069Y293224
X358069Y293224
X348069Y293224
X338069Y293224
X328069Y293224
X262595Y292933
X252595Y292933
X242595Y292933
X232595Y292933
X222595Y292933
X212595Y292933
X202595Y292933
X192595Y292933
X317065Y249917
X327065Y249917
X337065Y249917
X347065Y249917
X357065Y249917
X367065Y249917
X530234Y242043
X540234Y242043
X648344Y213008
X658344Y213008
X691396Y223264
X701396Y223264
X701396Y233264
X746437Y235283
X756437Y235283
X701396Y199799
X701396Y189799
X691396Y189799
X745293Y192339
X755293Y192339
X617163Y165429
X530938Y132007
X520938Y132007
X510938Y132007
X500938Y132007
X1170230Y132007
X1180230Y132007
X1190230Y132007
X1200230Y132007
T06
X1316671Y154858
X1346671Y144858
X1366671Y154858
X1342301Y188402
X1312301Y188402
X1311809Y235154
X1341809Y235154
X1346671Y270843
X1366671Y280843
X1316671Y280843
X697380Y280843
X677380Y270843
X647380Y280843
X642518Y235154
X672518Y235154
X673010Y188402
X643010Y188402
X647380Y154858
X677380Y144858
X697380Y154858
T07
X507100Y177862
X497100Y177862
X487100Y177862
X477100Y177862
X467100Y177862
X457100Y177862
X447100Y177862
X437100Y177862
X417100Y177862
X407100Y177862
X397100Y177862
X387100Y177862
X377100Y177862
X367100Y177862
X357100Y177862
X347100Y177862
X337100Y177862
X327100Y177862
X317100Y177862
X307100Y177862
X287100Y177862
X297100Y227862
X297100Y237862
X287100Y237862
X307100Y237862
X317100Y237862
X327100Y237862
X337100Y237862
X347100Y237862
X357100Y237862
X367100Y237862
X377100Y237862
X387100Y237862
X397100Y237862
X407100Y237862
X417100Y237862
X427100Y237862
X956392Y237862
X966392Y237862
X976392Y237862
X986392Y237862
X996392Y237862
X1006392Y237862
X1016392Y237862
X1026392Y237862
X1036392Y237862
X1046392Y237862
X1056392Y237862
X1066392Y237862
X1076392Y237862
X1086392Y237862
X1096392Y237862
X966392Y227862
X976392Y177862
X986392Y177862
X996392Y177862
X1006392Y177862
X1016392Y177862
X1026392Y177862
X1036392Y177862
X1046392Y177862
X1056392Y177862
X1066392Y177862
X1076392Y177862
X1086392Y177862
X1106392Y177862
X1116392Y177862
X1126392Y177862
X1136392Y177862
X1146392Y177862
X1156392Y177862
X1166392Y177862
X1176392Y177862
X956392Y177862
T08
X907872Y169988
X907872Y159988
X907872Y149988
X1171363Y160490
X1181363Y160490
X1191363Y160490
X1241285Y146955
X1251285Y146955
X1261285Y146955
X1266085Y135744
X1256085Y135744
X1246085Y135744
X1243801Y242681
X1233801Y242681
X1223801Y242681
X1257266Y242366
X1267266Y242366
X1277266Y242366
X1277266Y259453
X1267266Y259453
X1257266Y259453
X1244589Y259374
X1234589Y259374
X1224589Y259374
X1257392Y280835
X1267392Y280835
X1277392Y280835
X1137404Y282382
X1127404Y282382
X1117404Y282382
X907085Y261650
X907085Y251650
X907085Y241650
X607974Y242366
X597974Y242366
X587974Y242366
X574510Y242681
X564510Y242681
X554510Y242681
X555297Y259374
X565297Y259374
X575297Y259374
X587974Y259453
X597974Y259453
X607974Y259453
X608100Y280835
X598100Y280835
X588100Y280835
X468112Y282382
X458112Y282382
X448112Y282382
X237793Y261650
X237793Y251650
X237793Y241650
X238581Y169988
X238581Y159988
X238581Y149988
X502072Y160490
X512072Y160490
X522072Y160490
X571993Y146955
X581993Y146955
X591993Y146955
X596793Y135744
X586793Y135744
X576793Y135744
T09
X647852Y173146
X657852Y173146
X667852Y173146
X851967Y176650
X881376Y177043
X881376Y167043
X851967Y166650
X851967Y156650
X881376Y157043
X881085Y240941
X851289Y240862
X851289Y250862
X881085Y250941
X881085Y260941
X851289Y260862
X667360Y251394
X657360Y251394
X647360Y251394
X211793Y250941
X181998Y250862
X181998Y240862
X211793Y240941
X211793Y260941
X181998Y260862
X182675Y176650
X212085Y177043
X212085Y167043
X182675Y166650
X182675Y156650
X212085Y157043
X1317144Y173146
X1327144Y173146
X1337144Y173146
X1336652Y251394
X1326652Y251394
X1316652Y251394
T10
X829801Y176807
X798305Y177516
X814407Y189878
X825707Y204484
X797360Y205665
X160510Y176807
X145116Y189878
X129014Y177516
X128069Y205665
X156415Y204484
T11
X306195Y103933
X596195Y103933
X975195Y103933
X1265195Y103933
X1265195Y323933
X975195Y323933
X596195Y323933
X306195Y323933
M30
