G75*
%MOIN*%
%OFA0B0*%
%FSLAX25Y25*%
%IPPOS*%
%LPD*%
%AMOC8*
5,1,8,0,0,1.08239X$1,22.5*
%
%ADD10C,0.01600*%
%ADD11R,0.07800X0.10700*%
%ADD12R,0.10700X0.07800*%
%ADD13C,0.06800*%
%ADD14OC8,0.10800*%
%ADD15C,0.06600*%
%ADD16C,0.07550*%
%ADD17R,0.02900X0.07100*%
%ADD18C,0.07300*%
%ADD19C,0.06000*%
%ADD20R,0.16548X0.10643*%
%ADD21R,0.35800X0.07800*%
%ADD22R,0.06343X0.06343*%
%ADD23C,0.06343*%
%ADD24OC8,0.06000*%
%ADD25C,0.08200*%
%ADD26R,0.04737X0.05131*%
%ADD27R,0.07887X0.13398*%
%ADD28R,0.05524X0.03162*%
%ADD29C,0.14973*%
%ADD30C,0.04762*%
%ADD31R,0.04762X0.04762*%
%ADD32C,0.03900*%
%ADD33C,0.05550*%
%ADD34R,0.05550X0.05550*%
%ADD35R,0.03900X0.03900*%
D10*
X0719526Y0125902D02*
X0719526Y0182988D01*
X0782518Y0182988D01*
X0782518Y0125902D01*
X0719526Y0125902D01*
X0719526Y0127130D02*
X0782518Y0127130D01*
X0782518Y0128729D02*
X0719526Y0128729D01*
X0719526Y0130327D02*
X0782518Y0130327D01*
X0782518Y0131926D02*
X0719526Y0131926D01*
X0719526Y0133524D02*
X0782518Y0133524D01*
X0782518Y0135123D02*
X0719526Y0135123D01*
X0719526Y0136721D02*
X0782518Y0136721D01*
X0782518Y0138320D02*
X0719526Y0138320D01*
X0719526Y0139918D02*
X0782518Y0139918D01*
X0782518Y0141517D02*
X0719526Y0141517D01*
X0719526Y0143115D02*
X0782518Y0143115D01*
X0782518Y0144714D02*
X0719526Y0144714D01*
X0719526Y0146312D02*
X0782518Y0146312D01*
X0782518Y0147911D02*
X0719526Y0147911D01*
X0719526Y0149509D02*
X0782518Y0149509D01*
X0782518Y0151108D02*
X0719526Y0151108D01*
X0719526Y0152706D02*
X0782518Y0152706D01*
X0782518Y0154305D02*
X0719526Y0154305D01*
X0719526Y0155903D02*
X0782518Y0155903D01*
X0782518Y0157502D02*
X0719526Y0157502D01*
X0719526Y0159100D02*
X0782518Y0159100D01*
X0782518Y0160699D02*
X0719526Y0160699D01*
X0719526Y0162297D02*
X0782518Y0162297D01*
X0782518Y0163896D02*
X0719526Y0163896D01*
X0719526Y0165494D02*
X0782518Y0165494D01*
X0782518Y0167093D02*
X0719526Y0167093D01*
X0719526Y0168691D02*
X0782518Y0168691D01*
X0782518Y0170290D02*
X0719526Y0170290D01*
X0719526Y0171888D02*
X0782518Y0171888D01*
X0782518Y0173487D02*
X0719526Y0173487D01*
X0719526Y0175085D02*
X0782518Y0175085D01*
X0782518Y0176684D02*
X0719526Y0176684D01*
X0719526Y0178282D02*
X0782518Y0178282D01*
X0782518Y0179881D02*
X0719526Y0179881D01*
X0719526Y0181479D02*
X0782518Y0181479D01*
X0782518Y0245980D02*
X0719526Y0245980D01*
X0719526Y0301098D01*
X0782518Y0301098D01*
X0782518Y0245980D01*
X0782518Y0247018D02*
X0719526Y0247018D01*
X0719526Y0248617D02*
X0782518Y0248617D01*
X0782518Y0250215D02*
X0719526Y0250215D01*
X0719526Y0251814D02*
X0782518Y0251814D01*
X0782518Y0253412D02*
X0719526Y0253412D01*
X0719526Y0255011D02*
X0782518Y0255011D01*
X0782518Y0256610D02*
X0719526Y0256610D01*
X0719526Y0258208D02*
X0782518Y0258208D01*
X0782518Y0259807D02*
X0719526Y0259807D01*
X0719526Y0261405D02*
X0782518Y0261405D01*
X0782518Y0263004D02*
X0719526Y0263004D01*
X0719526Y0264602D02*
X0782518Y0264602D01*
X0782518Y0266201D02*
X0719526Y0266201D01*
X0719526Y0267799D02*
X0782518Y0267799D01*
X0782518Y0269398D02*
X0719526Y0269398D01*
X0719526Y0270996D02*
X0782518Y0270996D01*
X0782518Y0272595D02*
X0719526Y0272595D01*
X0719526Y0274193D02*
X0782518Y0274193D01*
X0782518Y0275792D02*
X0719526Y0275792D01*
X0719526Y0277390D02*
X0782518Y0277390D01*
X0782518Y0278989D02*
X0719526Y0278989D01*
X0719526Y0280587D02*
X0782518Y0280587D01*
X0782518Y0282186D02*
X0719526Y0282186D01*
X0719526Y0283784D02*
X0782518Y0283784D01*
X0782518Y0285383D02*
X0719526Y0285383D01*
X0719526Y0286981D02*
X0782518Y0286981D01*
X0782518Y0288580D02*
X0719526Y0288580D01*
X0719526Y0290178D02*
X0782518Y0290178D01*
X0782518Y0291777D02*
X0719526Y0291777D01*
X0719526Y0293375D02*
X0782518Y0293375D01*
X0782518Y0294974D02*
X0719526Y0294974D01*
X0719526Y0296572D02*
X0782518Y0296572D01*
X0782518Y0298171D02*
X0719526Y0298171D01*
X0719526Y0299769D02*
X0782518Y0299769D01*
X1388817Y0299769D02*
X1451809Y0299769D01*
X1451809Y0301098D02*
X1388817Y0301098D01*
X1388817Y0245980D01*
X1451809Y0245980D01*
X1451809Y0301098D01*
X1451809Y0298171D02*
X1388817Y0298171D01*
X1388817Y0296572D02*
X1451809Y0296572D01*
X1451809Y0294974D02*
X1388817Y0294974D01*
X1388817Y0293375D02*
X1451809Y0293375D01*
X1451809Y0291777D02*
X1388817Y0291777D01*
X1388817Y0290178D02*
X1451809Y0290178D01*
X1451809Y0288580D02*
X1388817Y0288580D01*
X1388817Y0286981D02*
X1451809Y0286981D01*
X1451809Y0285383D02*
X1388817Y0285383D01*
X1388817Y0283784D02*
X1451809Y0283784D01*
X1451809Y0282186D02*
X1388817Y0282186D01*
X1388817Y0280587D02*
X1451809Y0280587D01*
X1451809Y0278989D02*
X1388817Y0278989D01*
X1388817Y0277390D02*
X1451809Y0277390D01*
X1451809Y0275792D02*
X1388817Y0275792D01*
X1388817Y0274193D02*
X1451809Y0274193D01*
X1451809Y0272595D02*
X1388817Y0272595D01*
X1388817Y0270996D02*
X1451809Y0270996D01*
X1451809Y0269398D02*
X1388817Y0269398D01*
X1388817Y0267799D02*
X1451809Y0267799D01*
X1451809Y0266201D02*
X1388817Y0266201D01*
X1388817Y0264602D02*
X1451809Y0264602D01*
X1451809Y0263004D02*
X1388817Y0263004D01*
X1388817Y0261405D02*
X1451809Y0261405D01*
X1451809Y0259807D02*
X1388817Y0259807D01*
X1388817Y0258208D02*
X1451809Y0258208D01*
X1451809Y0256610D02*
X1388817Y0256610D01*
X1388817Y0255011D02*
X1451809Y0255011D01*
X1451809Y0253412D02*
X1388817Y0253412D01*
X1388817Y0251814D02*
X1451809Y0251814D01*
X1451809Y0250215D02*
X1388817Y0250215D01*
X1388817Y0248617D02*
X1451809Y0248617D01*
X1451809Y0247018D02*
X1388817Y0247018D01*
X1388817Y0182988D02*
X1388817Y0125902D01*
X1451809Y0125902D01*
X1451809Y0182988D01*
X1388817Y0182988D01*
X1388817Y0181479D02*
X1451809Y0181479D01*
X1451809Y0179881D02*
X1388817Y0179881D01*
X1388817Y0178282D02*
X1451809Y0178282D01*
X1451809Y0176684D02*
X1388817Y0176684D01*
X1388817Y0175085D02*
X1451809Y0175085D01*
X1451809Y0173487D02*
X1388817Y0173487D01*
X1388817Y0171888D02*
X1451809Y0171888D01*
X1451809Y0170290D02*
X1388817Y0170290D01*
X1388817Y0168691D02*
X1451809Y0168691D01*
X1451809Y0167093D02*
X1388817Y0167093D01*
X1388817Y0165494D02*
X1451809Y0165494D01*
X1451809Y0163896D02*
X1388817Y0163896D01*
X1388817Y0162297D02*
X1451809Y0162297D01*
X1451809Y0160699D02*
X1388817Y0160699D01*
X1388817Y0159100D02*
X1451809Y0159100D01*
X1451809Y0157502D02*
X1388817Y0157502D01*
X1388817Y0155903D02*
X1451809Y0155903D01*
X1451809Y0154305D02*
X1388817Y0154305D01*
X1388817Y0152706D02*
X1451809Y0152706D01*
X1451809Y0151108D02*
X1388817Y0151108D01*
X1388817Y0149509D02*
X1451809Y0149509D01*
X1451809Y0147911D02*
X1388817Y0147911D01*
X1388817Y0146312D02*
X1451809Y0146312D01*
X1451809Y0144714D02*
X1388817Y0144714D01*
X1388817Y0143115D02*
X1451809Y0143115D01*
X1451809Y0141517D02*
X1388817Y0141517D01*
X1388817Y0139918D02*
X1451809Y0139918D01*
X1451809Y0138320D02*
X1388817Y0138320D01*
X1388817Y0136721D02*
X1451809Y0136721D01*
X1451809Y0135123D02*
X1388817Y0135123D01*
X1388817Y0133524D02*
X1451809Y0133524D01*
X1451809Y0131926D02*
X1388817Y0131926D01*
X1388817Y0130327D02*
X1451809Y0130327D01*
X1451809Y0128729D02*
X1388817Y0128729D01*
X1388817Y0127130D02*
X1451809Y0127130D01*
D11*
X0925058Y0153320D03*
X0925058Y0170720D03*
X0926415Y0235910D03*
X0926415Y0253310D03*
X0926691Y0264613D03*
X0926691Y0282013D03*
X0257400Y0282013D03*
X0257400Y0264613D03*
X0257124Y0253310D03*
X0257124Y0235910D03*
X0255767Y0170720D03*
X0255767Y0153320D03*
D12*
X0261243Y0133961D03*
X0243843Y0133961D03*
X0913134Y0133961D03*
X0930534Y0133961D03*
D13*
X0910872Y0149988D02*
X0904872Y0149988D01*
X0904872Y0159988D02*
X0910872Y0159988D01*
X0910872Y0169988D02*
X0904872Y0169988D01*
X1171363Y0163490D02*
X1171363Y0157490D01*
X1181363Y0157490D02*
X1181363Y0163490D01*
X1191363Y0163490D02*
X1191363Y0157490D01*
X1241285Y0149955D02*
X1241285Y0143955D01*
X1246085Y0138744D02*
X1246085Y0132744D01*
X1256085Y0132744D02*
X1256085Y0138744D01*
X1251285Y0143955D02*
X1251285Y0149955D01*
X1261285Y0149955D02*
X1261285Y0143955D01*
X1266085Y0138744D02*
X1266085Y0132744D01*
X1267266Y0239366D02*
X1267266Y0245366D01*
X1277266Y0245366D02*
X1277266Y0239366D01*
X1257266Y0239366D02*
X1257266Y0245366D01*
X1243801Y0245681D02*
X1243801Y0239681D01*
X1233801Y0239681D02*
X1233801Y0245681D01*
X1223801Y0245681D02*
X1223801Y0239681D01*
X1224589Y0256374D02*
X1224589Y0262374D01*
X1234589Y0262374D02*
X1234589Y0256374D01*
X1244589Y0256374D02*
X1244589Y0262374D01*
X1257266Y0262453D02*
X1257266Y0256453D01*
X1267266Y0256453D02*
X1267266Y0262453D01*
X1277266Y0262453D02*
X1277266Y0256453D01*
X1277392Y0277835D02*
X1277392Y0283835D01*
X1267392Y0283835D02*
X1267392Y0277835D01*
X1257392Y0277835D02*
X1257392Y0283835D01*
X1137404Y0285382D02*
X1137404Y0279382D01*
X1127404Y0279382D02*
X1127404Y0285382D01*
X1117404Y0285382D02*
X1117404Y0279382D01*
X0910085Y0261650D02*
X0904085Y0261650D01*
X0904085Y0251650D02*
X0910085Y0251650D01*
X0910085Y0241650D02*
X0904085Y0241650D01*
X0607974Y0239366D02*
X0607974Y0245366D01*
X0597974Y0245366D02*
X0597974Y0239366D01*
X0587974Y0239366D02*
X0587974Y0245366D01*
X0574510Y0245681D02*
X0574510Y0239681D01*
X0564510Y0239681D02*
X0564510Y0245681D01*
X0554510Y0245681D02*
X0554510Y0239681D01*
X0555297Y0256374D02*
X0555297Y0262374D01*
X0565297Y0262374D02*
X0565297Y0256374D01*
X0575297Y0256374D02*
X0575297Y0262374D01*
X0587974Y0262453D02*
X0587974Y0256453D01*
X0597974Y0256453D02*
X0597974Y0262453D01*
X0607974Y0262453D02*
X0607974Y0256453D01*
X0608100Y0277835D02*
X0608100Y0283835D01*
X0598100Y0283835D02*
X0598100Y0277835D01*
X0588100Y0277835D02*
X0588100Y0283835D01*
X0468112Y0285382D02*
X0468112Y0279382D01*
X0458112Y0279382D02*
X0458112Y0285382D01*
X0448112Y0285382D02*
X0448112Y0279382D01*
X0240793Y0261650D02*
X0234793Y0261650D01*
X0234793Y0251650D02*
X0240793Y0251650D01*
X0240793Y0241650D02*
X0234793Y0241650D01*
X0235581Y0169988D02*
X0241581Y0169988D01*
X0241581Y0159988D02*
X0235581Y0159988D01*
X0235581Y0149988D02*
X0241581Y0149988D01*
X0502072Y0157490D02*
X0502072Y0163490D01*
X0512072Y0163490D02*
X0512072Y0157490D01*
X0522072Y0157490D02*
X0522072Y0163490D01*
X0571993Y0149955D02*
X0571993Y0143955D01*
X0576793Y0138744D02*
X0576793Y0132744D01*
X0586793Y0132744D02*
X0586793Y0138744D01*
X0581993Y0143955D02*
X0581993Y0149955D01*
X0591993Y0149955D02*
X0591993Y0143955D01*
X0596793Y0138744D02*
X0596793Y0132744D01*
D14*
X0798305Y0177516D03*
X0829801Y0176807D03*
X0814407Y0189878D03*
X0825707Y0204484D03*
X0797360Y0205665D03*
X0160510Y0176807D03*
X0145116Y0189878D03*
X0129014Y0177516D03*
X0128069Y0205665D03*
X0156415Y0204484D03*
D15*
X0287100Y0177862D03*
X0307100Y0177862D03*
X0317100Y0177862D03*
X0327100Y0177862D03*
X0337100Y0177862D03*
X0347100Y0177862D03*
X0357100Y0177862D03*
X0367100Y0177862D03*
X0377100Y0177862D03*
X0387100Y0177862D03*
X0397100Y0177862D03*
X0407100Y0177862D03*
X0417100Y0177862D03*
X0437100Y0177862D03*
X0447100Y0177862D03*
X0457100Y0177862D03*
X0467100Y0177862D03*
X0477100Y0177862D03*
X0487100Y0177862D03*
X0497100Y0177862D03*
X0507100Y0177862D03*
X0297100Y0227862D03*
X0297100Y0237862D03*
X0287100Y0237862D03*
X0307100Y0237862D03*
X0317100Y0237862D03*
X0327100Y0237862D03*
X0337100Y0237862D03*
X0347100Y0237862D03*
X0357100Y0237862D03*
X0367100Y0237862D03*
X0377100Y0237862D03*
X0387100Y0237862D03*
X0397100Y0237862D03*
X0407100Y0237862D03*
X0417100Y0237862D03*
X0427100Y0237862D03*
X0956392Y0237862D03*
X0966392Y0237862D03*
X0976392Y0237862D03*
X0986392Y0237862D03*
X0996392Y0237862D03*
X1006392Y0237862D03*
X1016392Y0237862D03*
X1026392Y0237862D03*
X1036392Y0237862D03*
X1046392Y0237862D03*
X1056392Y0237862D03*
X1066392Y0237862D03*
X1076392Y0237862D03*
X1086392Y0237862D03*
X1096392Y0237862D03*
X0966392Y0227862D03*
X0976392Y0177862D03*
X0986392Y0177862D03*
X0996392Y0177862D03*
X1006392Y0177862D03*
X1016392Y0177862D03*
X1026392Y0177862D03*
X1036392Y0177862D03*
X1046392Y0177862D03*
X1056392Y0177862D03*
X1066392Y0177862D03*
X1076392Y0177862D03*
X1086392Y0177862D03*
X1106392Y0177862D03*
X1116392Y0177862D03*
X1126392Y0177862D03*
X1136392Y0177862D03*
X1146392Y0177862D03*
X1156392Y0177862D03*
X1166392Y0177862D03*
X1176392Y0177862D03*
X0956392Y0177862D03*
D16*
X0881376Y0177043D03*
X0851967Y0176650D03*
X0851967Y0166650D03*
X0881376Y0167043D03*
X0881376Y0157043D03*
X0851967Y0156650D03*
X0667852Y0173146D03*
X0657852Y0173146D03*
X0647852Y0173146D03*
X0851289Y0240862D03*
X0881085Y0240941D03*
X0881085Y0250941D03*
X0851289Y0250862D03*
X0851289Y0260862D03*
X0881085Y0260941D03*
X0667360Y0251394D03*
X0657360Y0251394D03*
X0647360Y0251394D03*
X0211793Y0250941D03*
X0181998Y0250862D03*
X0181998Y0240862D03*
X0211793Y0240941D03*
X0211793Y0260941D03*
X0181998Y0260862D03*
X0182675Y0176650D03*
X0212085Y0177043D03*
X0212085Y0167043D03*
X0182675Y0166650D03*
X0182675Y0156650D03*
X0212085Y0157043D03*
X1317144Y0173146D03*
X1327144Y0173146D03*
X1337144Y0173146D03*
X1336652Y0251394D03*
X1326652Y0251394D03*
X1316652Y0251394D03*
D17*
X0933246Y0221312D03*
X0928246Y0221312D03*
X0923246Y0221312D03*
X0918246Y0221312D03*
X0908837Y0221312D03*
X0903837Y0221312D03*
X0898837Y0221312D03*
X0893837Y0221312D03*
X0893837Y0200412D03*
X0898837Y0200412D03*
X0903837Y0200412D03*
X0908837Y0200412D03*
X0918246Y0200412D03*
X0923246Y0200412D03*
X0928246Y0200412D03*
X0933246Y0200412D03*
X0263955Y0200412D03*
X0258955Y0200412D03*
X0253955Y0200412D03*
X0248955Y0200412D03*
X0239545Y0200412D03*
X0234545Y0200412D03*
X0229545Y0200412D03*
X0224545Y0200412D03*
X0224545Y0221312D03*
X0229545Y0221312D03*
X0234545Y0221312D03*
X0239545Y0221312D03*
X0248955Y0221312D03*
X0253955Y0221312D03*
X0258955Y0221312D03*
X0263955Y0221312D03*
D18*
X0538435Y0212185D03*
X0538435Y0192185D03*
X1207726Y0192185D03*
X1207726Y0212185D03*
D19*
X1209526Y0239443D02*
X1209526Y0244643D01*
X1199526Y0244643D02*
X1199526Y0239443D01*
X1317636Y0215608D02*
X1317636Y0210408D01*
X1327636Y0210408D02*
X1327636Y0215608D01*
X1414585Y0194939D02*
X1414585Y0189739D01*
X1424585Y0189739D02*
X1424585Y0194939D01*
X1289055Y0165429D02*
X1283855Y0165429D01*
X1267959Y0163738D02*
X1267959Y0158538D01*
X1257959Y0158538D02*
X1257959Y0163738D01*
X1247959Y0163738D02*
X1247959Y0158538D01*
X1237959Y0158538D02*
X1237959Y0163738D01*
X1227959Y0163738D02*
X1227959Y0158538D01*
X1283855Y0155429D02*
X1289055Y0155429D01*
X1289055Y0145429D02*
X1283855Y0145429D01*
X1283855Y0135429D02*
X1289055Y0135429D01*
X1310254Y0134407D02*
X1310254Y0129207D01*
X1320254Y0129207D02*
X1320254Y0134407D01*
X1330254Y0134407D02*
X1330254Y0129207D01*
X1340254Y0129207D02*
X1340254Y0134407D01*
X1365372Y0134407D02*
X1365372Y0129207D01*
X1375372Y0129207D02*
X1375372Y0134407D01*
X1200230Y0134607D02*
X1200230Y0129407D01*
X1190230Y0129407D02*
X1190230Y0134607D01*
X1180230Y0134607D02*
X1180230Y0129407D01*
X1170230Y0129407D02*
X1170230Y0134607D01*
X1158176Y0156566D02*
X1158176Y0161766D01*
X1148176Y0161766D02*
X1148176Y0156566D01*
X1138176Y0156566D02*
X1138176Y0161766D01*
X1128176Y0161766D02*
X1128176Y0156566D01*
X1118176Y0156566D02*
X1118176Y0161766D01*
X1108176Y0161766D02*
X1108176Y0156566D01*
X1098176Y0156566D02*
X1098176Y0161766D01*
X1088176Y0161766D02*
X1088176Y0156566D01*
X1078176Y0156566D02*
X1078176Y0161766D01*
X1068176Y0161766D02*
X1068176Y0156566D01*
X1037427Y0134293D02*
X1037427Y0129093D01*
X1027427Y0129093D02*
X1027427Y0134293D01*
X1017427Y0134293D02*
X1017427Y0129093D01*
X1007427Y0129093D02*
X1007427Y0134293D01*
X0997427Y0134293D02*
X0997427Y0129093D01*
X0881886Y0129233D02*
X0881886Y0134433D01*
X0871886Y0134433D02*
X0871886Y0129233D01*
X0861886Y0129233D02*
X0861886Y0134433D01*
X0851886Y0134433D02*
X0851886Y0129233D01*
X0841886Y0129233D02*
X0841886Y0134433D01*
X0706081Y0134407D02*
X0706081Y0129207D01*
X0696081Y0129207D02*
X0696081Y0134407D01*
X0670963Y0134407D02*
X0670963Y0129207D01*
X0660963Y0129207D02*
X0660963Y0134407D01*
X0650963Y0134407D02*
X0650963Y0129207D01*
X0640963Y0129207D02*
X0640963Y0134407D01*
X0619763Y0135429D02*
X0614563Y0135429D01*
X0614563Y0145429D02*
X0619763Y0145429D01*
X0619763Y0155429D02*
X0614563Y0155429D01*
X0598667Y0158538D02*
X0598667Y0163738D01*
X0588667Y0163738D02*
X0588667Y0158538D01*
X0578667Y0158538D02*
X0578667Y0163738D01*
X0568667Y0163738D02*
X0568667Y0158538D01*
X0558667Y0158538D02*
X0558667Y0163738D01*
X0614563Y0165429D02*
X0619763Y0165429D01*
X0530938Y0134607D02*
X0530938Y0129407D01*
X0520938Y0129407D02*
X0520938Y0134607D01*
X0510938Y0134607D02*
X0510938Y0129407D01*
X0500938Y0129407D02*
X0500938Y0134607D01*
X0488885Y0156566D02*
X0488885Y0161766D01*
X0478885Y0161766D02*
X0478885Y0156566D01*
X0468885Y0156566D02*
X0468885Y0161766D01*
X0458885Y0161766D02*
X0458885Y0156566D01*
X0448885Y0156566D02*
X0448885Y0161766D01*
X0438885Y0161766D02*
X0438885Y0156566D01*
X0428885Y0156566D02*
X0428885Y0161766D01*
X0418885Y0161766D02*
X0418885Y0156566D01*
X0408885Y0156566D02*
X0408885Y0161766D01*
X0398885Y0161766D02*
X0398885Y0156566D01*
X0368136Y0134293D02*
X0368136Y0129093D01*
X0358136Y0129093D02*
X0358136Y0134293D01*
X0348136Y0134293D02*
X0348136Y0129093D01*
X0338136Y0129093D02*
X0338136Y0134293D01*
X0328136Y0134293D02*
X0328136Y0129093D01*
X0212595Y0129233D02*
X0212595Y0134433D01*
X0202595Y0134433D02*
X0202595Y0129233D01*
X0192595Y0129233D02*
X0192595Y0134433D01*
X0182595Y0134433D02*
X0182595Y0129233D01*
X0172595Y0129233D02*
X0172595Y0134433D01*
X0530234Y0239443D02*
X0530234Y0244643D01*
X0540234Y0244643D02*
X0540234Y0239443D01*
X0648344Y0215608D02*
X0648344Y0210408D01*
X0658344Y0210408D02*
X0658344Y0215608D01*
X0745293Y0194939D02*
X0745293Y0189739D01*
X0755293Y0189739D02*
X0755293Y0194939D01*
X0756437Y0232683D02*
X0756437Y0237883D01*
X0746437Y0237883D02*
X0746437Y0232683D01*
X0574211Y0283010D02*
X0574211Y0288210D01*
X0564211Y0288210D02*
X0564211Y0283010D01*
X0554211Y0283010D02*
X0554211Y0288210D01*
X0544211Y0288210D02*
X0544211Y0283010D01*
X0528738Y0290624D02*
X0528738Y0295824D01*
X0518738Y0295824D02*
X0518738Y0290624D01*
X0508738Y0290624D02*
X0508738Y0295824D01*
X0498738Y0295824D02*
X0498738Y0290624D01*
X0418069Y0290624D02*
X0418069Y0295824D01*
X0408069Y0295824D02*
X0408069Y0290624D01*
X0398069Y0290624D02*
X0398069Y0295824D01*
X0388069Y0295824D02*
X0388069Y0290624D01*
X0378069Y0290624D02*
X0378069Y0295824D01*
X0368069Y0295824D02*
X0368069Y0290624D01*
X0358069Y0290624D02*
X0358069Y0295824D01*
X0348069Y0295824D02*
X0348069Y0290624D01*
X0338069Y0290624D02*
X0338069Y0295824D01*
X0328069Y0295824D02*
X0328069Y0290624D01*
X0262595Y0290333D02*
X0262595Y0295533D01*
X0252595Y0295533D02*
X0252595Y0290333D01*
X0242595Y0290333D02*
X0242595Y0295533D01*
X0232595Y0295533D02*
X0232595Y0290333D01*
X0222595Y0290333D02*
X0222595Y0295533D01*
X0212595Y0295533D02*
X0212595Y0290333D01*
X0202595Y0290333D02*
X0202595Y0295533D01*
X0192595Y0295533D02*
X0192595Y0290333D01*
X0317065Y0252517D02*
X0317065Y0247317D01*
X0327065Y0247317D02*
X0327065Y0252517D01*
X0337065Y0252517D02*
X0337065Y0247317D01*
X0347065Y0247317D02*
X0347065Y0252517D01*
X0357065Y0252517D02*
X0357065Y0247317D01*
X0367065Y0247317D02*
X0367065Y0252517D01*
X0640963Y0290624D02*
X0640963Y0295824D01*
X0650963Y0295824D02*
X0650963Y0290624D01*
X0660963Y0290624D02*
X0660963Y0295824D01*
X0670963Y0295824D02*
X0670963Y0290624D01*
X0695077Y0290624D02*
X0695077Y0295824D01*
X0705077Y0295824D02*
X0705077Y0290624D01*
X0861886Y0290333D02*
X0861886Y0295533D01*
X0871886Y0295533D02*
X0871886Y0290333D01*
X0881886Y0290333D02*
X0881886Y0295533D01*
X0891886Y0295533D02*
X0891886Y0290333D01*
X0901886Y0290333D02*
X0901886Y0295533D01*
X0911886Y0295533D02*
X0911886Y0290333D01*
X0921886Y0290333D02*
X0921886Y0295533D01*
X0931886Y0295533D02*
X0931886Y0290333D01*
X0997360Y0290624D02*
X0997360Y0295824D01*
X1007360Y0295824D02*
X1007360Y0290624D01*
X1017360Y0290624D02*
X1017360Y0295824D01*
X1027360Y0295824D02*
X1027360Y0290624D01*
X1037360Y0290624D02*
X1037360Y0295824D01*
X1047360Y0295824D02*
X1047360Y0290624D01*
X1057360Y0290624D02*
X1057360Y0295824D01*
X1067360Y0295824D02*
X1067360Y0290624D01*
X1077360Y0290624D02*
X1077360Y0295824D01*
X1087360Y0295824D02*
X1087360Y0290624D01*
X1168030Y0290624D02*
X1168030Y0295824D01*
X1178030Y0295824D02*
X1178030Y0290624D01*
X1188030Y0290624D02*
X1188030Y0295824D01*
X1198030Y0295824D02*
X1198030Y0290624D01*
X1213502Y0288210D02*
X1213502Y0283010D01*
X1223502Y0283010D02*
X1223502Y0288210D01*
X1233502Y0288210D02*
X1233502Y0283010D01*
X1243502Y0283010D02*
X1243502Y0288210D01*
X1310254Y0290624D02*
X1310254Y0295824D01*
X1320254Y0295824D02*
X1320254Y0290624D01*
X1330254Y0290624D02*
X1330254Y0295824D01*
X1340254Y0295824D02*
X1340254Y0290624D01*
X1364368Y0290624D02*
X1364368Y0295824D01*
X1374368Y0295824D02*
X1374368Y0290624D01*
X1415729Y0237883D02*
X1415729Y0232683D01*
X1425729Y0232683D02*
X1425729Y0237883D01*
X1036356Y0247317D02*
X1036356Y0252517D01*
X1026356Y0252517D02*
X1026356Y0247317D01*
X1016356Y0247317D02*
X1016356Y0252517D01*
X1006356Y0252517D02*
X1006356Y0247317D01*
X0996356Y0247317D02*
X0996356Y0252517D01*
X0986356Y0252517D02*
X0986356Y0247317D01*
D20*
X0828447Y0148933D03*
X0796951Y0148933D03*
X0159156Y0148933D03*
X0127659Y0148933D03*
D21*
X0139439Y0222988D03*
X0139439Y0259602D03*
X0139439Y0296295D03*
X0808730Y0296295D03*
X0808730Y0259602D03*
X0808730Y0222988D03*
D22*
X0647380Y0280843D03*
X0647380Y0154858D03*
X1316671Y0154858D03*
X1316671Y0280843D03*
D23*
X1346671Y0270843D03*
X1366671Y0280843D03*
X1366671Y0154858D03*
X1346671Y0144858D03*
X0697380Y0154858D03*
X0677380Y0144858D03*
X0677380Y0270843D03*
X0697380Y0280843D03*
D24*
X0701396Y0233264D03*
X0701396Y0223264D03*
X0691396Y0223264D03*
X0701396Y0199799D03*
X0701396Y0189799D03*
X0691396Y0189799D03*
X1360687Y0189799D03*
X1370687Y0189799D03*
X1370687Y0199799D03*
X1370687Y0223264D03*
X1360687Y0223264D03*
X1370687Y0233264D03*
D25*
X1341809Y0235154D03*
X1311809Y0235154D03*
X1312301Y0188402D03*
X1342301Y0188402D03*
X0673010Y0188402D03*
X0643010Y0188402D03*
X0642518Y0235154D03*
X0672518Y0235154D03*
D26*
X0600825Y0230232D03*
X0594132Y0230232D03*
X0569329Y0230232D03*
X0562636Y0230232D03*
X0808207Y0204642D03*
X0814900Y0204642D03*
X0854959Y0191846D03*
X0861652Y0191846D03*
X1231927Y0230232D03*
X1238620Y0230232D03*
X1263423Y0230232D03*
X1270116Y0230232D03*
X0192360Y0191846D03*
X0185667Y0191846D03*
X0145608Y0204642D03*
X0138915Y0204642D03*
D27*
G36*
X0172136Y0204982D02*
X0177713Y0210559D01*
X0187186Y0201086D01*
X0181609Y0195509D01*
X0172136Y0204982D01*
G37*
G36*
X0156546Y0189392D02*
X0162123Y0194969D01*
X0171596Y0185496D01*
X0166019Y0179919D01*
X0156546Y0189392D01*
G37*
G36*
X0825838Y0189392D02*
X0831415Y0194969D01*
X0840888Y0185496D01*
X0835311Y0179919D01*
X0825838Y0189392D01*
G37*
G36*
X0841428Y0204982D02*
X0847005Y0210559D01*
X0856478Y0201086D01*
X0850901Y0195509D01*
X0841428Y0204982D01*
G37*
D28*
X0800455Y0195587D03*
X0800455Y0191846D03*
X0800455Y0188106D03*
X0790171Y0188106D03*
X0790171Y0195587D03*
X0131163Y0195587D03*
X0131163Y0191846D03*
X0131163Y0188106D03*
X0120880Y0188106D03*
X0120880Y0195587D03*
D29*
X0306195Y0103933D03*
X0596195Y0103933D03*
X0975195Y0103933D03*
X1265195Y0103933D03*
X1265195Y0323933D03*
X0975195Y0323933D03*
X0596195Y0323933D03*
X0306195Y0323933D03*
D30*
X0415486Y0262457D03*
X0376163Y0246370D03*
X0422636Y0224028D03*
X0417274Y0214197D03*
X0419955Y0209728D03*
X0436041Y0208835D03*
X0451566Y0211516D03*
X0472683Y0216878D03*
X0487876Y0219559D03*
X0523022Y0226760D03*
X0534348Y0222240D03*
X0547754Y0220453D03*
X0559372Y0224921D03*
X0555797Y0229390D03*
X0523624Y0237433D03*
X0503963Y0231177D03*
X0480726Y0229390D03*
X0548648Y0247264D03*
X0612994Y0271394D03*
X0381526Y0217772D03*
X0432467Y0199898D03*
X0416380Y0183811D03*
X0379832Y0169512D03*
X0457490Y0167724D03*
X0451234Y0148957D03*
X0461959Y0145382D03*
X0469108Y0147169D03*
X0477152Y0147169D03*
X0493644Y0134764D03*
X0547478Y0132008D03*
X0554904Y0178449D03*
X0562053Y0182024D03*
X0574565Y0184705D03*
X0580821Y0182024D03*
X0597801Y0182917D03*
X0562947Y0192748D03*
X0554904Y0187386D03*
X0538911Y0183811D03*
X0511112Y0192748D03*
X0518262Y0199004D03*
X0526305Y0201685D03*
X0518262Y0204366D03*
X0494132Y0207047D03*
X0574565Y0204366D03*
X0840589Y0148539D03*
X0883896Y0147555D03*
X0933311Y0162103D03*
X0891278Y0172161D03*
X0861258Y0174130D03*
X0893738Y0182988D03*
X0903581Y0189878D03*
X0926219Y0187559D03*
X0908502Y0193815D03*
X0893738Y0206610D03*
X0902596Y0210547D03*
X0921297Y0210055D03*
X0930920Y0213194D03*
X0913423Y0218974D03*
X0928187Y0227464D03*
X0897675Y0233185D03*
X0934093Y0237122D03*
X0864211Y0214484D03*
X0871100Y0189878D03*
X0921297Y0178933D03*
X0931140Y0177812D03*
X1049123Y0169512D03*
X1085671Y0183811D03*
X1101758Y0199898D03*
X1105333Y0208835D03*
X1120857Y0211516D03*
X1141974Y0216878D03*
X1157167Y0219559D03*
X1192313Y0226760D03*
X1203640Y0222240D03*
X1217045Y0220453D03*
X1228663Y0224921D03*
X1225089Y0229390D03*
X1192915Y0237433D03*
X1173254Y0231177D03*
X1150018Y0229390D03*
X1091927Y0224028D03*
X1050817Y0217772D03*
X1086565Y0214197D03*
X1089246Y0209728D03*
X1163423Y0207047D03*
X1187553Y0204366D03*
X1195596Y0201685D03*
X1187553Y0199004D03*
X1180404Y0192748D03*
X1208202Y0183811D03*
X1224195Y0187386D03*
X1232238Y0192748D03*
X1243856Y0184705D03*
X1250112Y0182024D03*
X1231344Y0182024D03*
X1224195Y0178449D03*
X1267093Y0182917D03*
X1243856Y0204366D03*
X1126781Y0167724D03*
X1120526Y0148957D03*
X1131250Y0145382D03*
X1138400Y0147169D03*
X1146443Y0147169D03*
X1162936Y0134764D03*
X1216770Y0132008D03*
X1217939Y0247264D03*
X1282285Y0271394D03*
X1084778Y0262457D03*
X1045455Y0246370D03*
X0264801Y0237122D03*
X0258896Y0227464D03*
X0244132Y0218974D03*
X0261628Y0213194D03*
X0252006Y0210055D03*
X0233305Y0210547D03*
X0224447Y0206610D03*
X0194919Y0214484D03*
X0239211Y0193815D03*
X0234289Y0189878D03*
X0224447Y0182988D03*
X0201809Y0189878D03*
X0191967Y0174130D03*
X0221986Y0172161D03*
X0252006Y0178933D03*
X0261848Y0177812D03*
X0256927Y0187559D03*
X0264019Y0162103D03*
X0214604Y0147555D03*
X0171297Y0148539D03*
X0228384Y0233185D03*
D31*
X0124545Y0229740D03*
X0119624Y0199720D03*
X0137341Y0184465D03*
X0124545Y0168224D03*
X0189014Y0145094D03*
X0216573Y0140665D03*
X0228876Y0140665D03*
X0611258Y0182988D03*
X0617163Y0194799D03*
X0676219Y0161335D03*
X0793837Y0168224D03*
X0806632Y0184465D03*
X0788915Y0199720D03*
X0793837Y0229740D03*
X1049250Y0274524D03*
X1075825Y0274524D03*
X1086652Y0274524D03*
X1286455Y0194799D03*
X1280549Y0182988D03*
X1345510Y0161335D03*
X0898167Y0140665D03*
X0885864Y0140665D03*
X0858305Y0145094D03*
X0417360Y0274524D03*
X0406533Y0274524D03*
X0379959Y0274524D03*
D32*
X0484745Y0197233D03*
X0490135Y0200123D03*
X0502345Y0200183D03*
X0467695Y0196433D03*
X0467695Y0192233D03*
X0472085Y0189493D03*
X0468945Y0186433D03*
X0486785Y0183313D03*
X1136986Y0192233D03*
X1136986Y0196433D03*
X1154036Y0197233D03*
X1159426Y0200123D03*
X1171636Y0200183D03*
X1141376Y0189493D03*
X1138236Y0186433D03*
X1156076Y0183313D03*
D33*
X0885864Y0203657D03*
X0861258Y0203657D03*
X0836652Y0214484D03*
X0840589Y0227280D03*
X0862242Y0239091D03*
X0813030Y0238106D03*
X0797281Y0160350D03*
X0216573Y0203657D03*
X0191967Y0203657D03*
X0167360Y0214484D03*
X0171297Y0227280D03*
X0192951Y0239091D03*
X0143738Y0238106D03*
X0127990Y0160350D03*
D34*
X0143246Y0279445D03*
X0812537Y0279445D03*
D35*
X0752894Y0279889D03*
X0750394Y0279889D03*
X0750394Y0282389D03*
X0752894Y0282389D03*
X0752894Y0277389D03*
X0750394Y0277389D03*
X0750394Y0274889D03*
X0750394Y0272389D03*
X0750394Y0269889D03*
X0750394Y0267389D03*
X0750394Y0264889D03*
X0752894Y0264889D03*
X0752894Y0267389D03*
X0752894Y0269889D03*
X0752894Y0272389D03*
X0752894Y0274889D03*
X0751789Y0163165D03*
X0751730Y0160665D03*
X0751730Y0158165D03*
X0751730Y0155665D03*
X0751730Y0153165D03*
X0751730Y0150665D03*
X0751730Y0148165D03*
X0751730Y0145665D03*
X0749230Y0145665D03*
X0749230Y0148165D03*
X0749230Y0150665D03*
X0749230Y0153165D03*
X0749230Y0155665D03*
X0749230Y0158165D03*
X0749230Y0160665D03*
X0749230Y0163165D03*
X1418522Y0163165D03*
X1418522Y0160665D03*
X1418522Y0158165D03*
X1418522Y0155665D03*
X1418522Y0153165D03*
X1418522Y0150665D03*
X1418522Y0148165D03*
X1418522Y0145665D03*
X1421022Y0145665D03*
X1421022Y0148165D03*
X1421022Y0150665D03*
X1421022Y0153165D03*
X1421022Y0155665D03*
X1421022Y0158165D03*
X1421022Y0160665D03*
X1421081Y0163165D03*
X1422185Y0264889D03*
X1419685Y0264889D03*
X1419685Y0267389D03*
X1419685Y0269889D03*
X1419685Y0272389D03*
X1419685Y0274889D03*
X1419685Y0277389D03*
X1419685Y0279889D03*
X1419685Y0282389D03*
X1422185Y0282389D03*
X1422185Y0279889D03*
X1422185Y0277389D03*
X1422185Y0274889D03*
X1422185Y0272389D03*
X1422185Y0269889D03*
X1422185Y0267389D03*
M02*
